G04*
G04 #@! TF.GenerationSoftware,Altium Limited,Altium Designer,20.2.6 (244)*
G04*
G04 Layer_Color=1265191*
%FSLAX25Y25*%
%MOIN*%
G70*
G04*
G04 #@! TF.SameCoordinates,98B12EC8-E559-45FE-9E7D-FCD1A3165D23*
G04*
G04*
G04 #@! TF.FilePolarity,Positive*
G04*
G01*
G75*
%ADD10C,0.00394*%
%ADD55C,0.00500*%
%ADD89C,0.00197*%
D10*
X85039Y48425D02*
Y52362D01*
X83071Y50394D02*
X87008D01*
X79134Y55610D02*
X90945D01*
X79134Y45177D02*
X90945D01*
Y55610D01*
X79134Y45177D02*
Y55610D01*
X50431Y43963D02*
Y48163D01*
X58231Y43963D02*
Y48163D01*
X50431Y43963D02*
X58231D01*
X50431Y48163D02*
X58231D01*
X53248Y46063D02*
X55413D01*
X54331Y44980D02*
Y47146D01*
X21654Y80807D02*
Y84547D01*
X19783Y82677D02*
X23524D01*
X16532Y85630D02*
X26775D01*
X16532Y79724D02*
X26775D01*
Y85630D01*
X16532Y79724D02*
Y85630D01*
X59153Y85827D02*
X61319D01*
X60236Y84744D02*
Y86910D01*
X58136Y81927D02*
Y89727D01*
X62336Y81927D02*
Y89727D01*
X58136D02*
X62336D01*
X58136Y81927D02*
X62336D01*
X22244Y29918D02*
X28150D01*
X22244Y40161D02*
X28150D01*
Y29918D02*
Y40161D01*
X22244Y29918D02*
Y40161D01*
X25197Y33169D02*
Y36909D01*
X23327Y35039D02*
X27067D01*
X16142Y33957D02*
Y37697D01*
X14272Y35827D02*
X18012D01*
X11020Y38780D02*
X21263D01*
X11020Y32874D02*
X21263D01*
Y38780D01*
X11020Y32874D02*
Y38780D01*
X38152Y28215D02*
Y32415D01*
X30352Y28215D02*
Y32415D01*
X38152D01*
X30352Y28215D02*
X38152D01*
X33169Y30315D02*
X35335D01*
X34252Y29232D02*
Y31398D01*
X34252Y34744D02*
Y36909D01*
X33169Y35827D02*
X35335D01*
X30352Y33727D02*
X38152D01*
X30352Y37927D02*
X38152D01*
X30352Y33727D02*
Y37927D01*
X38152Y33727D02*
Y37927D01*
X34252Y40256D02*
Y42421D01*
X33169Y41339D02*
X35335D01*
X30352Y43439D02*
X38152D01*
X30352Y39239D02*
X38152D01*
Y43439D01*
X30352Y39239D02*
Y43439D01*
X92913Y56890D02*
Y65945D01*
X81890Y56890D02*
Y65945D01*
X92913D01*
X81890Y56890D02*
X92913D01*
X85433Y61417D02*
X89370D01*
X87402Y59449D02*
Y63386D01*
X14331Y133465D02*
X16378D01*
X15354Y132441D02*
Y134488D01*
X13386Y129725D02*
Y137205D01*
X17323Y129725D02*
Y137205D01*
X13386D02*
X17323D01*
X13386Y129725D02*
X17323D01*
X70866Y133071D02*
X74803D01*
X73228Y131102D02*
Y135039D01*
X62467Y33108D02*
X66667D01*
X62467Y40908D02*
X66667D01*
Y33108D02*
Y40908D01*
X62467Y33108D02*
Y40908D01*
X64567Y35925D02*
Y38091D01*
X63484Y37008D02*
X65650D01*
X56561Y33108D02*
X60761D01*
X56561Y40908D02*
X60761D01*
Y33108D02*
Y40908D01*
X56561Y33108D02*
Y40908D01*
X58661Y35925D02*
Y38091D01*
X57579Y37008D02*
X59744D01*
X85470Y112073D02*
Y116273D01*
X93270Y112073D02*
Y116273D01*
X85470Y112073D02*
X93270D01*
X85470Y116273D02*
X93270D01*
X88287Y114173D02*
X90453D01*
X89370Y113091D02*
Y115256D01*
X85470Y106561D02*
Y110761D01*
X93270Y106561D02*
Y110761D01*
X85470Y106561D02*
X93270D01*
X85470Y110761D02*
X93270D01*
X88287Y108661D02*
X90453D01*
X89370Y107579D02*
Y109744D01*
X85470Y95538D02*
Y99738D01*
X93270Y95538D02*
Y99738D01*
X85470Y95538D02*
X93270D01*
X85470Y99738D02*
X93270D01*
X88287Y97638D02*
X90453D01*
X89370Y96555D02*
Y98721D01*
X85470Y101050D02*
Y105250D01*
X93270Y101050D02*
Y105250D01*
X85470Y101050D02*
X93270D01*
X85470Y105250D02*
X93270D01*
X88287Y103150D02*
X90453D01*
X89370Y102067D02*
Y104232D01*
Y85590D02*
Y87638D01*
X88346Y86614D02*
X90394D01*
X85630Y88583D02*
X93110D01*
X85630Y84646D02*
X93110D01*
Y88583D01*
X85630Y84646D02*
Y88583D01*
X89370Y91043D02*
Y93209D01*
X88287Y92126D02*
X90453D01*
X85470Y94226D02*
X93270D01*
X85470Y90026D02*
X93270D01*
Y94226D01*
X85470Y90026D02*
Y94226D01*
X12598Y117028D02*
Y119193D01*
X11516Y118110D02*
X13681D01*
X8698Y120210D02*
X16498D01*
X8698Y116010D02*
X16498D01*
Y120210D01*
X8698Y116010D02*
Y120210D01*
X12598Y139469D02*
Y141634D01*
X11516Y140551D02*
X13681D01*
X8698Y142651D02*
X16498D01*
X8698Y138451D02*
X16498D01*
Y142651D01*
X8698Y138451D02*
Y142651D01*
X28937Y58661D02*
Y62598D01*
X36417Y58661D02*
Y62598D01*
X28937Y58661D02*
X36417D01*
X28937Y62598D02*
X36417D01*
X31654Y60630D02*
X33701D01*
X32677Y59606D02*
Y61654D01*
X28777Y64829D02*
Y69029D01*
X36577Y64829D02*
Y69029D01*
X28777Y64829D02*
X36577D01*
X28777Y69029D02*
X36577D01*
X31594Y66929D02*
X33760D01*
X32677Y65847D02*
Y68012D01*
X44845Y64829D02*
Y69029D01*
X37045Y64829D02*
Y69029D01*
X44845D01*
X37045Y64829D02*
X44845D01*
X39862Y66929D02*
X42028D01*
X40945Y65847D02*
Y68012D01*
X36220Y141437D02*
Y143602D01*
X35138Y142520D02*
X37303D01*
X32320Y140420D02*
X40121D01*
X32320Y144620D02*
X40121D01*
X32320Y140420D02*
Y144620D01*
X40121Y140420D02*
Y144620D01*
X43569Y104761D02*
X47769D01*
X43569Y112561D02*
X47769D01*
Y104761D02*
Y112561D01*
X43569Y104761D02*
Y112561D01*
X45669Y107579D02*
Y109744D01*
X44587Y108661D02*
X46752D01*
X43569Y121223D02*
X47769D01*
X43569Y113423D02*
X47769D01*
X43569D02*
Y121223D01*
X47769Y113423D02*
Y121223D01*
X45669Y116240D02*
Y118405D01*
X44587Y117323D02*
X46752D01*
X43569Y126415D02*
X47769D01*
X43569Y134215D02*
X47769D01*
Y126415D02*
Y134215D01*
X43569Y126415D02*
Y134215D01*
X45669Y129232D02*
Y131398D01*
X44587Y130315D02*
X46752D01*
X41769Y134121D02*
Y138321D01*
X49569Y134121D02*
Y138321D01*
X41769Y134121D02*
X49569D01*
X41769Y138321D02*
X49569D01*
X44587Y136221D02*
X46752D01*
X45669Y135138D02*
Y137303D01*
X51378Y49209D02*
X57284D01*
X51378Y59452D02*
X57284D01*
Y49209D02*
Y59452D01*
X51378Y49209D02*
Y59452D01*
X54331Y52461D02*
Y56201D01*
X52461Y54331D02*
X56201D01*
X49643Y64829D02*
Y69029D01*
X57443Y64829D02*
Y69029D01*
X49643Y64829D02*
X57443D01*
X49643Y69029D02*
X57443D01*
X52461Y66929D02*
X54626D01*
X53543Y65847D02*
Y68012D01*
X52067Y94488D02*
X54232D01*
X53150Y93405D02*
Y95571D01*
X51050Y90588D02*
Y98388D01*
X55250Y90588D02*
Y98388D01*
X51050D02*
X55250D01*
X51050Y90588D02*
X55250D01*
X65711Y64829D02*
Y69029D01*
X57911Y64829D02*
Y69029D01*
X65711D01*
X57911Y64829D02*
X65711D01*
X60728Y66929D02*
X62894D01*
X61811Y65847D02*
Y68012D01*
X56168Y98388D02*
X60368D01*
X56168Y90588D02*
X60368D01*
X56168D02*
Y98388D01*
X60368Y90588D02*
Y98388D01*
X58268Y93405D02*
Y95571D01*
X57185Y94488D02*
X59350D01*
X59317Y105942D02*
X63517D01*
X59317Y113742D02*
X63517D01*
Y105942D02*
Y113742D01*
X59317Y105942D02*
Y113742D01*
X61417Y108760D02*
Y110925D01*
X60335Y109843D02*
X62500D01*
X67191Y37832D02*
X71391D01*
X67191Y45632D02*
X71391D01*
Y37832D02*
Y45632D01*
X67191Y37832D02*
Y45632D01*
X69291Y40650D02*
Y42815D01*
X68209Y41732D02*
X70374D01*
X68209Y51181D02*
X70374D01*
X69291Y50099D02*
Y52264D01*
X67191Y47281D02*
Y55081D01*
X71391Y47281D02*
Y55081D01*
X67191D02*
X71391D01*
X67191Y47281D02*
X71391D01*
X72703D02*
X76903D01*
X72703Y55081D02*
X76903D01*
Y47281D02*
Y55081D01*
X72703Y47281D02*
Y55081D01*
X74803Y50099D02*
Y52264D01*
X73721Y51181D02*
X75886D01*
X84646Y120177D02*
Y122343D01*
X83563Y121260D02*
X85728D01*
X80746Y123360D02*
X88546D01*
X80746Y119160D02*
X88546D01*
Y123360D01*
X80746Y119160D02*
Y123360D01*
X91890Y121260D02*
X93937D01*
X92913Y120236D02*
Y122283D01*
X90945Y117520D02*
Y125000D01*
X94882Y117520D02*
Y125000D01*
X90945D02*
X94882D01*
X90945Y117520D02*
X94882D01*
X43664Y121522D02*
Y125722D01*
X35864Y121522D02*
Y125722D01*
X43664D01*
X35864Y121522D02*
X43664D01*
X38681Y123622D02*
X40846D01*
X39764Y122539D02*
Y124705D01*
X45669Y140650D02*
Y144390D01*
X43799Y142520D02*
X47539D01*
X40548Y145473D02*
X50791D01*
X40548Y139567D02*
X50791D01*
Y145473D01*
X40548Y139567D02*
Y145473D01*
X44525Y121522D02*
Y125722D01*
X52325Y121522D02*
Y125722D01*
X44525Y121522D02*
X52325D01*
X44525Y125722D02*
X52325D01*
X47343Y123622D02*
X49508D01*
X48425Y122539D02*
Y124705D01*
X53187Y121522D02*
Y125722D01*
X60987Y121522D02*
Y125722D01*
X53187Y121522D02*
X60987D01*
X53187Y125722D02*
X60987D01*
X56004Y123622D02*
X58169D01*
X57087Y122539D02*
Y124705D01*
X12598Y122205D02*
Y124252D01*
X11575Y123228D02*
X13622D01*
X8858Y125197D02*
X16339D01*
X8858Y121260D02*
X16339D01*
Y125197D01*
X8858Y121260D02*
Y125197D01*
X45144Y50431D02*
X49344D01*
X45144Y58231D02*
X49344D01*
Y50431D02*
Y58231D01*
X45144Y50431D02*
Y58231D01*
X47244Y53248D02*
Y55413D01*
X46161Y54331D02*
X48327D01*
X45144Y66499D02*
X49344D01*
X45144Y58698D02*
X49344D01*
X45144D02*
Y66499D01*
X49344Y58698D02*
Y66499D01*
X47244Y61516D02*
Y63681D01*
X46161Y62599D02*
X48327D01*
X45144Y75160D02*
X49344D01*
X45144Y67360D02*
X49344D01*
X45144D02*
Y75160D01*
X49344Y67360D02*
Y75160D01*
X47244Y70177D02*
Y72343D01*
X46161Y71260D02*
X48327D01*
X45144Y83428D02*
X49344D01*
X45144Y75628D02*
X49344D01*
X45144D02*
Y83428D01*
X49344Y75628D02*
Y83428D01*
X47244Y78445D02*
Y80610D01*
X46161Y79528D02*
X48327D01*
X40256Y97638D02*
X42421D01*
X41339Y96555D02*
Y98721D01*
X43439Y93738D02*
Y101538D01*
X39239Y93738D02*
Y101538D01*
Y93738D02*
X43439D01*
X39239Y101538D02*
X43439D01*
X45374Y97638D02*
X49114D01*
X47244Y95768D02*
Y99508D01*
X44291Y92516D02*
Y102759D01*
X50197Y92516D02*
Y102759D01*
X44291D02*
X50197D01*
X44291Y92516D02*
X50197D01*
X30971Y120436D02*
X35171D01*
X30971Y112636D02*
X35171D01*
X30971D02*
Y120436D01*
X35171Y112636D02*
Y120436D01*
X33071Y115453D02*
Y117618D01*
X31988Y116535D02*
X34154D01*
X76772Y37402D02*
X80709D01*
X78741Y35433D02*
Y39370D01*
X74804Y31103D02*
X82678D01*
X74804D02*
Y43701D01*
X82678D01*
Y31103D02*
Y43701D01*
X92917Y74606D02*
Y80512D01*
X82674Y74606D02*
Y80512D01*
X92917D01*
X82674Y74606D02*
X92917D01*
X85925Y77559D02*
X89665D01*
X87795Y75689D02*
Y79429D01*
X63091Y97244D02*
X65256D01*
X64173Y96161D02*
Y98327D01*
X62073Y93344D02*
Y101144D01*
X66273Y93344D02*
Y101144D01*
X62073D02*
X66273D01*
X62073Y93344D02*
X66273D01*
X84449Y32480D02*
X90354D01*
X84449Y43110D02*
X90354D01*
Y32480D02*
Y43110D01*
X84449Y32480D02*
Y43110D01*
X87402Y35925D02*
Y39665D01*
X85532Y37795D02*
X89272D01*
X92917Y67520D02*
Y73425D01*
X82674Y67520D02*
Y73425D01*
X92917D01*
X82674Y67520D02*
X92917D01*
X85925Y70472D02*
X89665D01*
X87795Y68602D02*
Y72342D01*
X46457Y27559D02*
Y31496D01*
X44488Y29527D02*
X48425D01*
X40158Y25590D02*
Y33464D01*
X52756D01*
Y25590D02*
Y33464D01*
X40158Y25590D02*
X52756D01*
X85434Y24410D02*
X89371D01*
X87402Y22441D02*
Y26378D01*
X83465Y18111D02*
X91339D01*
X83465D02*
Y30709D01*
X91339D01*
Y18111D02*
Y30709D01*
D55*
X0Y0D02*
X62992Y24803D01*
X0D02*
X62992Y0D01*
X0Y24803D02*
X62992D01*
Y0D02*
Y24803D01*
D89*
X79551Y130709D02*
Y135433D01*
X66905Y130709D02*
Y135433D01*
X79551D01*
X66905Y130709D02*
X79551D01*
M02*
