G04*
G04 #@! TF.GenerationSoftware,Altium Limited,Altium Designer,20.2.6 (244)*
G04*
G04 Layer_Color=32768*
%FSLAX25Y25*%
%MOIN*%
G70*
G04*
G04 #@! TF.SameCoordinates,98B12EC8-E559-45FE-9E7D-FCD1A3165D23*
G04*
G04*
G04 #@! TF.FilePolarity,Positive*
G04*
G01*
G75*
%ADD10C,0.00394*%
%ADD89C,0.00197*%
D10*
X31496Y20472D02*
X35433D01*
X33465Y18504D02*
Y22441D01*
X38681Y14567D02*
Y26378D01*
X28248Y14567D02*
Y26378D01*
X38681D01*
X28248Y14567D02*
X38681D01*
X69882Y28642D02*
X77362D01*
X69882Y38288D02*
X77362D01*
X69882Y28642D02*
Y38288D01*
X77362Y28642D02*
Y38288D01*
X73622Y31496D02*
Y35433D01*
X71653Y33465D02*
X75590D01*
X45276Y66929D02*
X49213D01*
X47244Y64961D02*
Y68898D01*
X26575Y46260D02*
Y87598D01*
X67913Y46260D02*
Y87598D01*
X26575Y46260D02*
X67913D01*
X26575Y87598D02*
X67913D01*
X74803Y9311D02*
Y14311D01*
X72303Y11811D02*
X77303D01*
X57087Y-787D02*
Y26772D01*
X92520D01*
Y-787D02*
Y26772D01*
X57087Y-787D02*
X92520D01*
X11417Y67323D02*
Y71260D01*
X9449Y69291D02*
X13386D01*
X3642Y42913D02*
Y95669D01*
X19193D01*
Y42913D02*
Y95669D01*
X3642Y42913D02*
X19193D01*
X3642Y18425D02*
Y31181D01*
X19193D01*
Y18425D02*
Y31181D01*
X3642Y18425D02*
X19193D01*
X11417Y22835D02*
Y26772D01*
X9449Y24803D02*
X13386D01*
X38845Y101144D02*
X43045D01*
X38845Y93344D02*
X43045D01*
Y101144D01*
X38845Y93344D02*
Y101144D01*
X40945Y96161D02*
Y98327D01*
X39862Y97244D02*
X42028D01*
X78445Y147539D02*
Y175295D01*
X93996D01*
Y147539D02*
Y175295D01*
X78445Y147539D02*
X93996D01*
X84252Y161417D02*
X88189D01*
X86221Y159449D02*
Y163386D01*
X59941Y147539D02*
Y175295D01*
X75492D01*
Y147539D02*
Y175295D01*
X59941Y147539D02*
X75492D01*
X65748Y161417D02*
X69685D01*
X67716Y159449D02*
Y163386D01*
X41437Y147539D02*
Y175295D01*
X56988D01*
Y147539D02*
Y175295D01*
X41437Y147539D02*
X56988D01*
X47244Y161417D02*
X51181D01*
X49213Y159449D02*
Y163386D01*
X22539Y147539D02*
Y175295D01*
X38091D01*
Y147539D02*
Y175295D01*
X22539Y147539D02*
X38091D01*
X28346Y161417D02*
X32283D01*
X30315Y159449D02*
Y163386D01*
X3642Y147539D02*
Y175295D01*
X19193D01*
Y147539D02*
Y175295D01*
X3642Y147539D02*
X19193D01*
X9449Y161417D02*
X13386D01*
X11417Y159449D02*
Y163386D01*
X86483Y34289D02*
X90683D01*
X86483Y42089D02*
X90683D01*
X86483Y34289D02*
Y42089D01*
X90683Y34289D02*
Y42089D01*
X88583Y37106D02*
Y39272D01*
X87500Y38189D02*
X89665D01*
X73917Y110039D02*
Y114370D01*
X83563Y110039D02*
Y114370D01*
X73917D02*
X83563D01*
X73917Y110039D02*
X83563D01*
X77658Y112205D02*
X79823D01*
X78740Y111122D02*
Y113287D01*
X73917Y104527D02*
Y108858D01*
X83563Y104527D02*
Y108858D01*
X73917D02*
X83563D01*
X73917Y104527D02*
X83563D01*
X77658Y106693D02*
X79823D01*
X78740Y105610D02*
Y107776D01*
X73917Y99016D02*
Y103346D01*
X83563Y99016D02*
Y103346D01*
X73917D02*
X83563D01*
X73917Y99016D02*
X83563D01*
X77658Y101181D02*
X79823D01*
X78740Y100098D02*
Y102264D01*
X73917Y93504D02*
Y97835D01*
X83563Y93504D02*
Y97835D01*
X73917D02*
X83563D01*
X73917Y93504D02*
X83563D01*
X77658Y95669D02*
X79823D01*
X78740Y94587D02*
Y96752D01*
X63189Y43012D02*
X67520D01*
X63189Y33366D02*
X67520D01*
Y43012D01*
X63189Y33366D02*
Y43012D01*
X65354Y37106D02*
Y39272D01*
X64272Y38189D02*
X66437D01*
X56496Y43012D02*
X60827D01*
X56496Y33366D02*
X60827D01*
Y43012D01*
X56496Y33366D02*
Y43012D01*
X58661Y37106D02*
Y39272D01*
X57579Y38189D02*
X59744D01*
X80118Y43012D02*
X84449D01*
X80118Y33366D02*
X84449D01*
Y43012D01*
X80118Y33366D02*
Y43012D01*
X82284Y37106D02*
Y39272D01*
X81201Y38189D02*
X83366D01*
X82677Y130709D02*
X86614D01*
X84646Y128740D02*
Y132677D01*
X86614Y82284D02*
X90551D01*
X88583Y80315D02*
Y84252D01*
X78703Y78609D02*
Y82809D01*
X70903Y78609D02*
Y82809D01*
Y78609D02*
X78703D01*
X70903Y82809D02*
X78703D01*
X73721Y80709D02*
X75886D01*
X74803Y79626D02*
Y81791D01*
X89370Y91043D02*
Y93209D01*
X88287Y92126D02*
X90453D01*
X85470Y90026D02*
X93270D01*
X85470Y94226D02*
X93270D01*
Y90026D02*
Y94226D01*
X85470Y90026D02*
Y94226D01*
X10631Y107085D02*
X14568D01*
X12599Y105116D02*
Y109053D01*
X10631Y129526D02*
X14568D01*
X12599Y127557D02*
Y131494D01*
X12598Y117028D02*
Y119193D01*
X11516Y118110D02*
X13681D01*
X8698Y116010D02*
X16499D01*
X8698Y120210D02*
X16499D01*
Y116010D02*
Y120210D01*
X8698Y116010D02*
Y120210D01*
X12598Y139469D02*
Y141634D01*
X11516Y140551D02*
X13681D01*
X8698Y138451D02*
X16499D01*
X8698Y142651D02*
X16499D01*
Y138451D02*
Y142651D01*
X8698Y138451D02*
Y142651D01*
X28937Y28740D02*
X37992D01*
X28937Y39764D02*
X37992D01*
X28937Y28740D02*
Y39764D01*
X37992Y28740D02*
Y39764D01*
X33465Y32283D02*
Y36220D01*
X31496Y34252D02*
X35433D01*
X21128Y107517D02*
X25328D01*
X21128Y115317D02*
X25328D01*
X21128Y107517D02*
Y115317D01*
X25328Y107517D02*
Y115317D01*
X23228Y110335D02*
Y112500D01*
X22146Y111417D02*
X24311D01*
X21128Y130672D02*
X25328D01*
X21128Y122872D02*
X25328D01*
Y130672D01*
X21128Y122872D02*
Y130672D01*
X23228Y125689D02*
Y127854D01*
X22146Y126772D02*
X24311D01*
X47244Y120079D02*
Y124016D01*
X45276Y122047D02*
X49213D01*
X28543Y103347D02*
X65945D01*
X28543Y140748D02*
X65945D01*
Y103347D02*
Y140748D01*
X28543Y103347D02*
Y140748D01*
X46456Y25590D02*
Y29527D01*
X44487Y27559D02*
X48424D01*
X52755Y23622D02*
Y31496D01*
X40156D02*
X52755D01*
X40156Y23622D02*
Y31496D01*
Y23622D02*
X52755D01*
X40256Y39370D02*
X42421D01*
X41339Y38287D02*
Y40453D01*
X43439Y35470D02*
Y43270D01*
X39239Y35470D02*
Y43270D01*
X43439D01*
X39239Y35470D02*
X43439D01*
X45374Y39370D02*
X47539D01*
X46457Y38287D02*
Y40453D01*
X48557Y35470D02*
Y43270D01*
X44357Y35470D02*
Y43270D01*
X48557D01*
X44357Y35470D02*
X48557D01*
X43738Y97506D02*
Y101706D01*
X51538Y97506D02*
Y101706D01*
X43738D02*
X51538D01*
X43738Y97506D02*
X51538D01*
X46555Y99606D02*
X48720D01*
X47638Y98524D02*
Y100689D01*
X51772Y15945D02*
Y21850D01*
X41142Y15945D02*
Y21850D01*
Y15945D02*
X51772D01*
X41142Y21850D02*
X51772D01*
X44587Y18898D02*
X48327D01*
X46457Y17028D02*
Y20768D01*
X57973Y97244D02*
X60138D01*
X59055Y96161D02*
Y98327D01*
X61155Y93344D02*
Y101144D01*
X56955Y93344D02*
Y101144D01*
X61155D01*
X56955Y93344D02*
X61155D01*
X62073D02*
X66273D01*
X62073Y101144D02*
X66273D01*
X62073Y93344D02*
Y101144D01*
X66273Y93344D02*
Y101144D01*
X64173Y96161D02*
Y98327D01*
X63091Y97244D02*
X65256D01*
X71128Y70116D02*
X75328D01*
X71128Y77916D02*
X75328D01*
X71128Y70116D02*
Y77916D01*
X75328Y70116D02*
Y77916D01*
X73228Y72933D02*
Y75098D01*
X72146Y74016D02*
X74311D01*
X71260Y91142D02*
X75197D01*
X71260Y83661D02*
X75197D01*
Y91142D01*
X71260Y83661D02*
Y91142D01*
X73228Y86378D02*
Y88425D01*
X72205Y87402D02*
X74252D01*
X77128Y125459D02*
Y129659D01*
X69328Y125459D02*
Y129659D01*
Y125459D02*
X77128D01*
X69328Y129659D02*
X77128D01*
X72146Y127559D02*
X74311D01*
X73228Y126476D02*
Y128642D01*
X77264Y74016D02*
X79429D01*
X78347Y72933D02*
Y75098D01*
X80446Y70116D02*
Y77916D01*
X76247Y70116D02*
Y77916D01*
X80446D01*
X76247Y70116D02*
X80446D01*
X76247Y91302D02*
X80446D01*
X76247Y83502D02*
X80446D01*
Y91302D01*
X76247Y83502D02*
Y91302D01*
X78347Y86319D02*
Y88484D01*
X77264Y87402D02*
X79429D01*
X84646Y120177D02*
Y122343D01*
X83563Y121260D02*
X85728D01*
X80746Y119160D02*
X88546D01*
X80746Y123360D02*
X88546D01*
Y119160D02*
Y123360D01*
X80746Y119160D02*
Y123360D01*
X30709Y7087D02*
Y11024D01*
X28740Y9055D02*
X32677D01*
X12992Y6299D02*
X46063D01*
Y11811D01*
X12992D02*
X46063D01*
X12992Y6299D02*
Y11811D01*
D89*
X91339Y124016D02*
Y137402D01*
X77953Y124016D02*
Y137402D01*
Y124016D02*
X91339D01*
X77953Y137402D02*
X91339D01*
X95276Y75590D02*
Y88976D01*
X81890Y75590D02*
Y88976D01*
Y75590D02*
X95276D01*
X81890Y88976D02*
X95276D01*
X6300Y99604D02*
Y114565D01*
X18899Y99604D02*
Y114565D01*
X6300Y99604D02*
X18899D01*
X6300Y114565D02*
X18899D01*
X6300Y122045D02*
Y137006D01*
X18899Y122045D02*
Y137006D01*
X6300Y122045D02*
X18899D01*
X6300Y137006D02*
X18899D01*
M02*
