G04*
G04 #@! TF.GenerationSoftware,Altium Limited,Altium Designer,20.2.6 (244)*
G04*
G04 Layer_Color=8421504*
%FSLAX25Y25*%
%MOIN*%
G70*
G04*
G04 #@! TF.SameCoordinates,98B12EC8-E559-45FE-9E7D-FCD1A3165D23*
G04*
G04*
G04 #@! TF.FilePolarity,Positive*
G04*
G01*
G75*
%ADD14R,0.02756X0.03150*%
%ADD15R,0.01575X0.01850*%
%ADD16R,0.01378X0.03150*%
%ADD17C,0.01181*%
%ADD18O,0.01575X0.05315*%
%ADD19R,0.07480X0.07087*%
G04:AMPARAMS|DCode=20|XSize=62.99mil|YSize=55.12mil|CornerRadius=13.78mil|HoleSize=0mil|Usage=FLASHONLY|Rotation=180.000|XOffset=0mil|YOffset=0mil|HoleType=Round|Shape=RoundedRectangle|*
%AMROUNDEDRECTD20*
21,1,0.06299,0.02756,0,0,180.0*
21,1,0.03543,0.05512,0,0,180.0*
1,1,0.02756,-0.01772,0.01378*
1,1,0.02756,0.01772,0.01378*
1,1,0.02756,0.01772,-0.01378*
1,1,0.02756,-0.01772,-0.01378*
%
%ADD20ROUNDEDRECTD20*%
%ADD21R,0.01968X0.01968*%
%ADD22R,0.02953X0.02362*%
%ADD23R,0.02362X0.02953*%
%ADD24R,0.02559X0.03347*%
%ADD25R,0.01968X0.01968*%
%ADD26R,0.03937X0.04724*%
%ADD27R,0.06299X0.01968*%
%ADD28C,0.01260*%
%ADD29R,0.03150X0.05512*%
%ADD30R,0.03543X0.03937*%
%ADD31R,0.02520X0.02362*%
D14*
X31693Y20472D02*
D03*
X35236D02*
D03*
D15*
X36024Y16634D02*
D03*
X30906D02*
D03*
X33465D02*
D03*
X30906Y24311D02*
D03*
X33465D02*
D03*
X36024D02*
D03*
D16*
X71653Y30709D02*
D03*
X73622D02*
D03*
X75590D02*
D03*
Y36221D02*
D03*
X71653D02*
D03*
X73621Y36221D02*
D03*
D17*
X29921Y49606D02*
D03*
Y52756D02*
D03*
Y55905D02*
D03*
Y59055D02*
D03*
Y62205D02*
D03*
Y65354D02*
D03*
Y68504D02*
D03*
Y71653D02*
D03*
Y74803D02*
D03*
Y77953D02*
D03*
Y81102D02*
D03*
Y84252D02*
D03*
X33071Y49606D02*
D03*
Y52756D02*
D03*
Y55905D02*
D03*
Y59055D02*
D03*
Y62205D02*
D03*
Y65354D02*
D03*
Y68504D02*
D03*
Y71653D02*
D03*
Y74803D02*
D03*
Y77953D02*
D03*
Y81102D02*
D03*
Y84252D02*
D03*
X36220Y49606D02*
D03*
Y52756D02*
D03*
Y55905D02*
D03*
Y59055D02*
D03*
Y62205D02*
D03*
Y65354D02*
D03*
Y68504D02*
D03*
Y71653D02*
D03*
Y74803D02*
D03*
Y77953D02*
D03*
Y81102D02*
D03*
Y84252D02*
D03*
X39370Y49606D02*
D03*
Y52756D02*
D03*
Y55905D02*
D03*
Y59055D02*
D03*
Y62205D02*
D03*
Y65354D02*
D03*
Y68504D02*
D03*
Y71653D02*
D03*
Y74803D02*
D03*
Y77953D02*
D03*
Y81102D02*
D03*
Y84252D02*
D03*
X42520Y49606D02*
D03*
Y52756D02*
D03*
Y55905D02*
D03*
Y59055D02*
D03*
Y62205D02*
D03*
Y65354D02*
D03*
Y68504D02*
D03*
Y71653D02*
D03*
Y74803D02*
D03*
Y77953D02*
D03*
Y81102D02*
D03*
Y84252D02*
D03*
X45669Y49606D02*
D03*
Y52756D02*
D03*
Y55905D02*
D03*
Y59055D02*
D03*
Y62205D02*
D03*
Y65354D02*
D03*
Y68504D02*
D03*
Y71653D02*
D03*
Y74803D02*
D03*
Y77953D02*
D03*
Y81102D02*
D03*
Y84252D02*
D03*
X48819Y49606D02*
D03*
Y52756D02*
D03*
Y55905D02*
D03*
Y59055D02*
D03*
Y62205D02*
D03*
Y65354D02*
D03*
Y68504D02*
D03*
Y71653D02*
D03*
Y74803D02*
D03*
Y77953D02*
D03*
Y81102D02*
D03*
Y84252D02*
D03*
X51968Y49606D02*
D03*
Y52756D02*
D03*
Y55905D02*
D03*
Y59055D02*
D03*
Y62205D02*
D03*
Y65354D02*
D03*
Y68504D02*
D03*
Y71653D02*
D03*
Y74803D02*
D03*
Y77953D02*
D03*
Y81102D02*
D03*
Y84252D02*
D03*
X55118Y49606D02*
D03*
Y52756D02*
D03*
Y55905D02*
D03*
Y59055D02*
D03*
Y62205D02*
D03*
Y65354D02*
D03*
Y68504D02*
D03*
Y71653D02*
D03*
Y74803D02*
D03*
Y77953D02*
D03*
Y81102D02*
D03*
Y84252D02*
D03*
X58268Y49606D02*
D03*
Y52756D02*
D03*
Y55905D02*
D03*
Y59055D02*
D03*
Y62205D02*
D03*
Y65354D02*
D03*
Y68504D02*
D03*
Y71653D02*
D03*
Y74803D02*
D03*
Y77953D02*
D03*
Y81102D02*
D03*
Y84252D02*
D03*
X61417Y49606D02*
D03*
Y52756D02*
D03*
Y55905D02*
D03*
Y59055D02*
D03*
Y62205D02*
D03*
Y65354D02*
D03*
Y68504D02*
D03*
Y71653D02*
D03*
Y74803D02*
D03*
Y77953D02*
D03*
Y81102D02*
D03*
Y84252D02*
D03*
X64567Y49606D02*
D03*
Y52756D02*
D03*
Y55905D02*
D03*
Y59055D02*
D03*
Y62205D02*
D03*
Y65354D02*
D03*
Y68504D02*
D03*
Y71653D02*
D03*
Y74803D02*
D03*
Y77953D02*
D03*
Y81102D02*
D03*
Y84252D02*
D03*
D18*
X77362Y22146D02*
D03*
X79921D02*
D03*
X69685D02*
D03*
X72244D02*
D03*
X74803D02*
D03*
D19*
X70079Y11614D02*
D03*
X79528D02*
D03*
D20*
X62205Y21260D02*
D03*
X87402D02*
D03*
D21*
X40945Y99213D02*
D03*
Y95276D02*
D03*
X88583Y36220D02*
D03*
Y40157D02*
D03*
X23228Y109449D02*
D03*
Y113386D02*
D03*
Y128740D02*
D03*
Y124803D02*
D03*
X41339Y41339D02*
D03*
Y37402D02*
D03*
X46457Y41339D02*
D03*
Y37402D02*
D03*
X59055Y99213D02*
D03*
Y95276D02*
D03*
X64173D02*
D03*
Y99213D02*
D03*
X73228Y72047D02*
D03*
Y75984D02*
D03*
X78347D02*
D03*
Y72047D02*
D03*
X78347Y89370D02*
D03*
Y85433D02*
D03*
D22*
X76476Y112205D02*
D03*
X81004D02*
D03*
X76476Y106693D02*
D03*
X81004D02*
D03*
X76476Y101181D02*
D03*
X81004D02*
D03*
X76476Y95669D02*
D03*
X81004D02*
D03*
D23*
X65354Y40453D02*
D03*
Y35925D02*
D03*
X58661Y40453D02*
D03*
Y35925D02*
D03*
X82284Y40453D02*
D03*
Y35925D02*
D03*
D24*
X87894Y133760D02*
D03*
Y127657D02*
D03*
X81398Y133760D02*
D03*
Y127657D02*
D03*
X91831Y85335D02*
D03*
Y79232D02*
D03*
X85335Y85335D02*
D03*
Y79232D02*
D03*
D25*
X76772Y80709D02*
D03*
X72835D02*
D03*
X91339Y92126D02*
D03*
X87402D02*
D03*
X14567Y118110D02*
D03*
X10630D02*
D03*
X14567Y140551D02*
D03*
X10630D02*
D03*
X45669Y99606D02*
D03*
X49606D02*
D03*
X75197Y127559D02*
D03*
X71260D02*
D03*
X86614Y121260D02*
D03*
X82677D02*
D03*
D26*
X15158Y103738D02*
D03*
X10040D02*
D03*
X15158Y110431D02*
D03*
X10040D02*
D03*
X15158Y126179D02*
D03*
X10040D02*
D03*
X15158Y132872D02*
D03*
X10040D02*
D03*
D27*
X33465Y31299D02*
D03*
Y37205D02*
D03*
D28*
X62992Y106299D02*
D03*
X59843D02*
D03*
X56693D02*
D03*
X53543D02*
D03*
X50394D02*
D03*
X47244D02*
D03*
X44094D02*
D03*
X40945D02*
D03*
X37795D02*
D03*
X34646D02*
D03*
X31496D02*
D03*
X62992Y109449D02*
D03*
X59843D02*
D03*
X56693D02*
D03*
X53543D02*
D03*
X50394D02*
D03*
X47244D02*
D03*
X44094D02*
D03*
X40945D02*
D03*
X37795D02*
D03*
X34646D02*
D03*
X31496D02*
D03*
X62992Y112599D02*
D03*
X59843D02*
D03*
X56693D02*
D03*
X53543D02*
D03*
X50394D02*
D03*
X47244D02*
D03*
X44094D02*
D03*
X40945D02*
D03*
X37795D02*
D03*
X34646D02*
D03*
X31496D02*
D03*
X62992Y115748D02*
D03*
X59843D02*
D03*
X56693D02*
D03*
X53543D02*
D03*
X50394D02*
D03*
X47244D02*
D03*
X44094D02*
D03*
X40945D02*
D03*
X37795D02*
D03*
X34646D02*
D03*
X31496D02*
D03*
X62992Y118898D02*
D03*
X59843D02*
D03*
X56693D02*
D03*
X53543D02*
D03*
X50394D02*
D03*
X47244D02*
D03*
X44094D02*
D03*
X40945D02*
D03*
X37795D02*
D03*
X34646D02*
D03*
X31496D02*
D03*
X62992Y122047D02*
D03*
X59843D02*
D03*
X56693D02*
D03*
X53543D02*
D03*
X50394D02*
D03*
X47244D02*
D03*
X44094D02*
D03*
X40945D02*
D03*
X37795D02*
D03*
X34646D02*
D03*
X31496D02*
D03*
X62992Y125197D02*
D03*
X59843D02*
D03*
X56693D02*
D03*
X53543D02*
D03*
X50394D02*
D03*
X47244D02*
D03*
X44094D02*
D03*
X40945D02*
D03*
X37795D02*
D03*
X34646D02*
D03*
X31496D02*
D03*
X62992Y128347D02*
D03*
X59843D02*
D03*
X56693D02*
D03*
X53543D02*
D03*
X50394D02*
D03*
X47244D02*
D03*
X44094D02*
D03*
X40945D02*
D03*
X37795D02*
D03*
X34646D02*
D03*
X31496D02*
D03*
X62992Y131496D02*
D03*
X59843D02*
D03*
X56693D02*
D03*
X53543D02*
D03*
X50394D02*
D03*
X47244D02*
D03*
X44094D02*
D03*
X40945D02*
D03*
X37795D02*
D03*
X34646D02*
D03*
X31496D02*
D03*
X62992Y134646D02*
D03*
X59843D02*
D03*
X56693D02*
D03*
X53543D02*
D03*
X50394D02*
D03*
X47244D02*
D03*
X44094D02*
D03*
X40945D02*
D03*
X37795D02*
D03*
X34646D02*
D03*
X31496D02*
D03*
X62992Y137795D02*
D03*
X59843D02*
D03*
X56693D02*
D03*
X53543D02*
D03*
X50394D02*
D03*
X47244D02*
D03*
X44094D02*
D03*
X40945D02*
D03*
X37795D02*
D03*
X34646D02*
D03*
X31496D02*
D03*
D29*
X42912Y27559D02*
D03*
X49999D02*
D03*
D30*
X49114Y18898D02*
D03*
X43799D02*
D03*
D31*
X73228Y89134D02*
D03*
Y85669D02*
D03*
M02*
