G04*
G04 #@! TF.GenerationSoftware,Altium Limited,Altium Designer,20.2.6 (244)*
G04*
G04 Layer_Color=128*
%FSLAX25Y25*%
%MOIN*%
G70*
G04*
G04 #@! TF.SameCoordinates,98B12EC8-E559-45FE-9E7D-FCD1A3165D23*
G04*
G04*
G04 #@! TF.FilePolarity,Positive*
G04*
G01*
G75*
%ADD21R,0.01968X0.01968*%
%ADD25R,0.01968X0.01968*%
%ADD29R,0.03150X0.05512*%
%ADD31R,0.02520X0.02362*%
%ADD64R,0.01850X0.01575*%
%ADD67R,0.02362X0.03937*%
%ADD68R,0.03937X0.02362*%
%ADD69R,0.01968X0.06299*%
%ADD70R,0.03150X0.01968*%
%ADD71R,0.02362X0.02520*%
%ADD72R,0.05512X0.03150*%
%ADD73R,0.03937X0.03543*%
%ADD86R,0.03150X0.02756*%
G36*
X24334Y105442D02*
X23999Y104161D01*
X23444Y102959D01*
X22687Y101872D01*
X21751Y100936D01*
X20664Y100178D01*
X19462Y99624D01*
X18181Y99288D01*
X17521Y99236D01*
X17520Y99236D01*
Y106102D01*
X24386D01*
X24334Y105442D01*
D02*
G37*
G36*
X16339Y99236D02*
X15678Y99288D01*
X14397Y99623D01*
X13195Y100178D01*
X12108Y100935D01*
X11172Y101871D01*
X10414Y102957D01*
X9860Y104160D01*
X9525Y105441D01*
X9472Y106101D01*
X9472Y106102D01*
X16339D01*
Y99236D01*
D02*
G37*
G36*
X76054Y17247D02*
X77335Y16912D01*
X78537Y16358D01*
X79624Y15600D01*
X80560Y14664D01*
X81318Y13578D01*
X81873Y12376D01*
X82208Y11094D01*
X82260Y10434D01*
Y10433D01*
X75394D01*
Y17300D01*
X76054Y17247D01*
D02*
G37*
G36*
X74213Y10433D02*
X67346D01*
X67399Y11093D01*
X67733Y12374D01*
X68288Y13577D01*
X69045Y14663D01*
X69981Y15600D01*
X71068Y16357D01*
X72270Y16912D01*
X73551Y17247D01*
X74211Y17299D01*
X74213D01*
Y10433D01*
D02*
G37*
G36*
X82208Y8592D02*
X81873Y7311D01*
X81318Y6108D01*
X80561Y5022D01*
X79625Y4085D01*
X78539Y3328D01*
X77336Y2773D01*
X76055Y2438D01*
X75395Y2386D01*
X75394Y2386D01*
Y9252D01*
X82260D01*
X82208Y8592D01*
D02*
G37*
G36*
X74213Y2386D02*
X73553Y2438D01*
X72271Y2773D01*
X71069Y3327D01*
X69982Y4084D01*
X69046Y5021D01*
X68288Y6107D01*
X67734Y7310D01*
X67399Y8591D01*
X67346Y9251D01*
X67346Y9252D01*
X74213D01*
Y2386D01*
D02*
G37*
G36*
X89833Y141263D02*
X91114Y140928D01*
X92317Y140374D01*
X93403Y139616D01*
X94340Y138680D01*
X95097Y137594D01*
X95652Y136391D01*
X95987Y135110D01*
X96039Y134450D01*
Y134449D01*
X89173D01*
Y141315D01*
X89833Y141263D01*
D02*
G37*
G36*
X87992Y134449D02*
X81126D01*
X81178Y135109D01*
X81513Y136390D01*
X82067Y137593D01*
X82825Y138679D01*
X83761Y139615D01*
X84847Y140373D01*
X86050Y140928D01*
X87331Y141263D01*
X87991Y141315D01*
X87992D01*
Y134449D01*
D02*
G37*
G36*
X95987Y132608D02*
X95653Y131326D01*
X95098Y130124D01*
X94341Y129038D01*
X93404Y128101D01*
X92318Y127344D01*
X91116Y126789D01*
X89834Y126454D01*
X89174Y126401D01*
X89173Y126401D01*
Y133268D01*
X96040D01*
X95987Y132608D01*
D02*
G37*
G36*
X87992Y126401D02*
X87332Y126454D01*
X86051Y126788D01*
X84848Y127343D01*
X83762Y128100D01*
X82825Y129037D01*
X82068Y130123D01*
X81513Y131325D01*
X81178Y132606D01*
X81126Y133266D01*
X81126Y133268D01*
X87992D01*
Y126401D01*
D02*
G37*
G36*
X18180Y114098D02*
X19461Y113763D01*
X20663Y113208D01*
X21750Y112451D01*
X22686Y111515D01*
X23444Y110428D01*
X23999Y109226D01*
X24334Y107945D01*
X24386Y107285D01*
Y107283D01*
X17520D01*
Y114150D01*
X18180Y114098D01*
D02*
G37*
G36*
X16339Y107283D02*
X9472D01*
X9524Y107943D01*
X9859Y109225D01*
X10414Y110427D01*
X11171Y111514D01*
X12107Y112450D01*
X13194Y113207D01*
X14396Y113762D01*
X15677Y114097D01*
X16337Y114150D01*
X16339D01*
Y107283D01*
D02*
G37*
D21*
X60236Y87795D02*
D03*
Y83858D02*
D03*
X64567Y35039D02*
D03*
Y38976D02*
D03*
X58661Y35039D02*
D03*
Y38976D02*
D03*
X45669Y106693D02*
D03*
Y110630D02*
D03*
Y119291D02*
D03*
Y115354D02*
D03*
Y128347D02*
D03*
Y132283D02*
D03*
X53150Y96457D02*
D03*
Y92520D02*
D03*
X58268Y96457D02*
D03*
Y92520D02*
D03*
X61417Y107874D02*
D03*
Y111811D02*
D03*
X69291Y39764D02*
D03*
Y43701D02*
D03*
X69291Y53150D02*
D03*
Y49213D02*
D03*
X74803D02*
D03*
Y53150D02*
D03*
X47244Y52362D02*
D03*
Y56299D02*
D03*
Y64567D02*
D03*
Y60630D02*
D03*
Y73228D02*
D03*
Y69291D02*
D03*
Y81496D02*
D03*
Y77559D02*
D03*
X41339Y95669D02*
D03*
Y99606D02*
D03*
X33071Y118504D02*
D03*
Y114567D02*
D03*
X64173Y99213D02*
D03*
Y95276D02*
D03*
D25*
X52362Y46063D02*
D03*
X56299D02*
D03*
X36220Y30315D02*
D03*
X32283D02*
D03*
X32283Y35827D02*
D03*
X36220D02*
D03*
Y41339D02*
D03*
X32283D02*
D03*
X87402Y114173D02*
D03*
X91339D02*
D03*
X87402Y108661D02*
D03*
X91339D02*
D03*
X87402Y97638D02*
D03*
X91339D02*
D03*
X87402Y103150D02*
D03*
X91339D02*
D03*
Y92126D02*
D03*
X87402D02*
D03*
X14567Y118110D02*
D03*
X10630D02*
D03*
X14567Y140551D02*
D03*
X10630D02*
D03*
X30709Y66929D02*
D03*
X34646D02*
D03*
X42913D02*
D03*
X38976D02*
D03*
X34252Y142520D02*
D03*
X38189D02*
D03*
X43701Y136221D02*
D03*
X47638D02*
D03*
X51575Y66929D02*
D03*
X55512D02*
D03*
X63780D02*
D03*
X59843D02*
D03*
X86614Y121260D02*
D03*
X82677D02*
D03*
X41732Y123622D02*
D03*
X37795D02*
D03*
X46457D02*
D03*
X50394D02*
D03*
X55118D02*
D03*
X59055D02*
D03*
D29*
X50000Y29527D02*
D03*
X42914D02*
D03*
D31*
X15354Y135197D02*
D03*
Y131732D02*
D03*
X92913Y122992D02*
D03*
Y119528D02*
D03*
D64*
X81201Y52953D02*
D03*
Y47835D02*
D03*
Y50394D02*
D03*
X88878Y47835D02*
D03*
Y50394D02*
D03*
Y52953D02*
D03*
D67*
X24409Y82677D02*
D03*
X18898D02*
D03*
Y35827D02*
D03*
X13386D02*
D03*
X48425Y142520D02*
D03*
X42913D02*
D03*
X90551Y77559D02*
D03*
X85039D02*
D03*
X90551Y70472D02*
D03*
X85039D02*
D03*
D68*
X25197Y32283D02*
D03*
Y37795D02*
D03*
X54331Y51575D02*
D03*
Y57087D02*
D03*
X47244Y100394D02*
D03*
Y94882D02*
D03*
D69*
X90354Y61417D02*
D03*
X84449D02*
D03*
D70*
X76772Y133071D02*
D03*
X69685D02*
D03*
D71*
X91102Y86614D02*
D03*
X87638D02*
D03*
X30945Y60630D02*
D03*
X34409D02*
D03*
X14331Y123228D02*
D03*
X10866D02*
D03*
D72*
X78741Y40945D02*
D03*
Y33859D02*
D03*
X87402Y27953D02*
D03*
Y20866D02*
D03*
D73*
X87402Y35138D02*
D03*
Y40453D02*
D03*
D86*
X85039Y48622D02*
D03*
Y52165D02*
D03*
M02*
