G04*
G04 #@! TF.GenerationSoftware,Altium Limited,Altium Designer,20.2.6 (244)*
G04*
G04 Layer_Color=16711935*
%FSLAX25Y25*%
%MOIN*%
G70*
G04*
G04 #@! TF.SameCoordinates,98B12EC8-E559-45FE-9E7D-FCD1A3165D23*
G04*
G04*
G04 #@! TF.FilePolarity,Positive*
G04*
G01*
G75*
%ADD10C,0.00394*%
G36*
X59646Y36909D02*
X57678D01*
X57678Y36220D01*
X59646D01*
X59646Y36909D01*
D02*
G37*
G36*
X66339D02*
X64371D01*
X64371Y36220D01*
X66339D01*
X66339Y36909D01*
D02*
G37*
G36*
X83268D02*
X81300D01*
X81300Y36220D01*
X83268D01*
X83268Y36909D01*
D02*
G37*
G36*
X62983Y86614D02*
X62983Y86614D01*
X66929D01*
Y82678D01*
X66929Y82678D01*
X62983Y86614D01*
D02*
G37*
G36*
X80021Y96654D02*
Y94686D01*
X80709Y94686D01*
Y96654D01*
X80021Y96654D01*
D02*
G37*
G36*
X93504Y86417D02*
Y84449D01*
X91535Y86417D01*
X93504D01*
D02*
G37*
G36*
X29528Y135827D02*
X29528Y139764D01*
X33465Y139764D01*
X29528Y135827D01*
D02*
G37*
G36*
X89567Y132874D02*
X87598Y134843D01*
X89567D01*
Y132874D01*
D02*
G37*
G36*
X8564Y132576D02*
Y134545D01*
X10533D01*
X8564Y132576D01*
D02*
G37*
G36*
X80709Y111221D02*
X80021Y111221D01*
Y113189D01*
X80709Y113190D01*
Y111221D01*
D02*
G37*
G36*
X8564Y110135D02*
Y112104D01*
X10533D01*
X8564Y110135D01*
D02*
G37*
G36*
X80709Y105709D02*
X80021Y105709D01*
Y107678D01*
X80709Y107678D01*
Y105709D01*
D02*
G37*
G36*
Y100197D02*
X80021Y100197D01*
Y102166D01*
X80709Y102166D01*
Y100197D01*
D02*
G37*
D10*
X31889Y18111D02*
G03*
X31889Y18111I-787J0D01*
G01*
X72835Y32677D02*
G03*
X72835Y32677I-787J0D01*
G01*
X37402Y16535D02*
Y24409D01*
X29528Y16535D02*
Y24409D01*
X37402D01*
X29528Y16535D02*
X37402D01*
X70472Y31103D02*
X76771D01*
X70472Y35827D02*
X76771D01*
X70472Y31103D02*
Y35827D01*
X76771Y31103D02*
Y35827D01*
X62993Y86614D02*
X66929Y82678D01*
X62993Y86614D02*
X62993D01*
X62983D02*
X62993D01*
X27559Y47244D02*
Y86614D01*
X66929Y47244D02*
Y86614D01*
X27559Y47244D02*
X66929D01*
X27559Y86614D02*
X66929D01*
X90270Y943D02*
Y23228D01*
X59337D02*
X90270D01*
X59337Y943D02*
Y23228D01*
Y943D02*
X90244D01*
X90270Y969D01*
X4429Y43701D02*
X18406D01*
Y94882D01*
X4429D02*
X18406D01*
X4429Y43701D02*
Y94882D01*
Y19213D02*
Y30394D01*
X18406D01*
Y19213D02*
Y30394D01*
X4429Y19213D02*
X18406D01*
X39862Y99311D02*
X42028D01*
X39862Y95177D02*
X42028D01*
Y99311D01*
X39862Y95177D02*
Y99311D01*
X79232Y148327D02*
X93209D01*
Y174508D01*
X79232D02*
X93209D01*
X79232Y148327D02*
Y174508D01*
X60728Y148327D02*
X74705D01*
Y174508D01*
X60728D02*
X74705D01*
X60728Y148327D02*
Y174508D01*
X42224Y148327D02*
X56201D01*
Y174508D01*
X42224D02*
X56201D01*
X42224Y148327D02*
Y174508D01*
X23327Y148327D02*
X37303D01*
Y174508D01*
X23327D02*
X37303D01*
X23327Y148327D02*
Y174508D01*
X4429Y148327D02*
X18406D01*
Y174508D01*
X4429D02*
X18406D01*
X4429Y148327D02*
Y174508D01*
X87500Y36122D02*
X89665D01*
X87500Y40256D02*
X89665D01*
X87500Y36122D02*
Y40256D01*
X89665Y36122D02*
Y40256D01*
X76673Y111122D02*
Y113287D01*
X80807Y111122D02*
Y113287D01*
X76673D02*
X80807D01*
X76673Y111122D02*
X80807D01*
X76673Y105610D02*
Y107776D01*
X80807Y105610D02*
Y107776D01*
X76673D02*
X80807D01*
X76673Y105610D02*
X80807D01*
X76673Y100098D02*
Y102264D01*
X80807Y100098D02*
Y102264D01*
X76673D02*
X80807D01*
X76673Y100098D02*
X80807D01*
X76673Y94587D02*
Y96752D01*
X80807Y94587D02*
Y96752D01*
X76673D02*
X80807D01*
X76673Y94587D02*
X80807D01*
X64272Y40256D02*
X66437D01*
X64272Y36122D02*
X66437D01*
Y40256D01*
X64272Y36122D02*
Y40256D01*
X57579D02*
X59744D01*
X57579Y36122D02*
X59744D01*
Y40256D01*
X57579Y36122D02*
Y40256D01*
X81201D02*
X83366D01*
X81201Y36122D02*
X83366D01*
Y40256D01*
X81201Y36122D02*
Y40256D01*
X89567Y126575D02*
Y134843D01*
X79724Y126575D02*
Y134843D01*
Y126575D02*
X89567D01*
X79724Y134843D02*
X89567D01*
X93504Y78150D02*
Y86417D01*
X83661Y78150D02*
Y86417D01*
Y78150D02*
X93504D01*
X83661Y86417D02*
X93504D01*
X76870Y79626D02*
Y81791D01*
X72736Y79626D02*
Y81791D01*
Y79626D02*
X76870D01*
X72736Y81791D02*
X76870D01*
X87303Y91043D02*
X91437D01*
X87303Y93209D02*
X91437D01*
Y91043D02*
Y93209D01*
X87303Y91043D02*
Y93209D01*
X8465Y101967D02*
Y112203D01*
X16733Y101967D02*
Y112203D01*
X8465Y101967D02*
X16733D01*
X8465Y112203D02*
X16733D01*
X8465Y124408D02*
Y134644D01*
X16733Y124408D02*
Y134644D01*
X8465Y124408D02*
X16733D01*
X8465Y134644D02*
X16733D01*
X10531Y117028D02*
X14665D01*
X10531Y119193D02*
X14665D01*
Y117028D02*
Y119193D01*
X10531Y117028D02*
Y119193D01*
Y139469D02*
X14665D01*
X10531Y141634D02*
X14665D01*
Y139469D02*
Y141634D01*
X10531Y139469D02*
Y141634D01*
X29965Y29921D02*
X37008D01*
X29965Y38583D02*
X37008D01*
X29965Y29921D02*
Y38583D01*
X37008Y29921D02*
Y38583D01*
X22146Y109350D02*
X24311D01*
X22146Y113484D02*
X24311D01*
X22146Y109350D02*
Y113484D01*
X24311Y109350D02*
Y113484D01*
X22146Y128839D02*
X24311D01*
X22146Y124705D02*
X24311D01*
Y128839D01*
X22146Y124705D02*
Y128839D01*
X29528Y104331D02*
X64961D01*
X29528Y139764D02*
X64961D01*
Y104331D02*
Y139764D01*
X29528Y104331D02*
Y139764D01*
X42125Y30413D02*
X50787D01*
X42125Y24704D02*
X50787D01*
X42125D02*
Y30413D01*
X50787Y24704D02*
Y30413D01*
X42421Y37303D02*
Y41437D01*
X40256Y37303D02*
Y41437D01*
X42421D01*
X40256Y37303D02*
X42421D01*
X47539D02*
Y41437D01*
X45374Y37303D02*
Y41437D01*
X47539D01*
X45374Y37303D02*
X47539D01*
X45571Y98524D02*
Y100689D01*
X49705Y98524D02*
Y100689D01*
X45571D02*
X49705D01*
X45571Y98524D02*
X49705D01*
X49902Y17028D02*
Y20768D01*
X43012Y17028D02*
Y20768D01*
Y17028D02*
X49902D01*
X43012Y20768D02*
X49902D01*
X60138Y95177D02*
Y99311D01*
X57973Y95177D02*
Y99311D01*
X60138D01*
X57973Y95177D02*
X60138D01*
X63091D02*
X65256D01*
X63091Y99311D02*
X65256D01*
X63091Y95177D02*
Y99311D01*
X65256Y95177D02*
Y99311D01*
X72146Y71949D02*
X74311D01*
X72146Y76083D02*
X74311D01*
X72146Y71949D02*
Y76083D01*
X74311Y71949D02*
Y76083D01*
X72205Y89429D02*
X74252D01*
X72205Y85374D02*
X74252D01*
Y89429D01*
X72205Y85374D02*
Y89429D01*
X75295Y126476D02*
Y128642D01*
X71161Y126476D02*
Y128642D01*
Y126476D02*
X75295D01*
X71161Y128642D02*
X75295D01*
X79429Y71949D02*
Y76083D01*
X77264Y71949D02*
Y76083D01*
X79429D01*
X77264Y71949D02*
X79429D01*
X77264Y89468D02*
X79429D01*
X77264Y85335D02*
X79429D01*
Y89468D01*
X77264Y85335D02*
Y89468D01*
X82579Y120177D02*
X86713D01*
X82579Y122343D02*
X86713D01*
Y120177D02*
Y122343D01*
X82579Y120177D02*
Y122343D01*
M02*
