G04*
G04 #@! TF.GenerationSoftware,Altium Limited,Altium Designer,20.2.6 (244)*
G04*
G04 Layer_Physical_Order=2*
G04 Layer_Color=36540*
%FSLAX25Y25*%
%MOIN*%
G70*
G04*
G04 #@! TF.SameCoordinates,98B12EC8-E559-45FE-9E7D-FCD1A3165D23*
G04*
G04*
G04 #@! TF.FilePolarity,Positive*
G04*
G01*
G75*
%ADD53C,0.04331*%
%ADD55C,0.00500*%
%ADD61O,0.03543X0.06299*%
%ADD62C,0.04134*%
%ADD63C,0.01772*%
G36*
X90551Y176362D02*
Y176362D01*
X91931Y176226D01*
X93257Y175824D01*
X94479Y175170D01*
X95551Y174291D01*
X96430Y173220D01*
X97084Y171997D01*
X97486Y170671D01*
X97622Y169291D01*
X97622Y169291D01*
X97622D01*
X97622Y168791D01*
X97622Y7874D01*
X97622Y7874D01*
X97622D01*
X97486Y6494D01*
X97084Y5168D01*
X96430Y3946D01*
X95551Y2874D01*
X94479Y1995D01*
X93257Y1342D01*
X91931Y939D01*
X90551Y803D01*
X90551Y803D01*
Y803D01*
X90551Y803D01*
X8374Y803D01*
X7874Y803D01*
X7874Y803D01*
X7394Y851D01*
X6494Y939D01*
X5168Y1342D01*
X3946Y1995D01*
X2874Y2874D01*
X1995Y3946D01*
X1342Y5168D01*
X939Y6495D01*
X803Y7874D01*
X803D01*
Y169291D01*
X803D01*
X803Y169291D01*
X939Y170671D01*
X1342Y171997D01*
X1995Y173220D01*
X2874Y174291D01*
X3946Y175170D01*
X5168Y175824D01*
X6494Y176226D01*
X7874Y176362D01*
X7874Y176362D01*
Y176363D01*
X7874Y176363D01*
X7874Y176363D01*
X90051Y176363D01*
X90551Y176362D01*
D02*
G37*
%LPC*%
G36*
X33315Y174032D02*
Y171917D01*
X35429D01*
X35404Y172111D01*
X35136Y172757D01*
X34710Y173313D01*
X34155Y173739D01*
X33509Y174006D01*
X33315Y174032D01*
D02*
G37*
G36*
X89220D02*
Y171917D01*
X91335D01*
X91310Y172111D01*
X91042Y172757D01*
X90616Y173313D01*
X90061Y173739D01*
X89414Y174006D01*
X89220Y174032D01*
D02*
G37*
G36*
X52213D02*
Y171917D01*
X54327D01*
X54302Y172111D01*
X54034Y172757D01*
X53608Y173313D01*
X53053Y173739D01*
X52406Y174006D01*
X52213Y174032D01*
D02*
G37*
G36*
X70717Y174032D02*
Y171917D01*
X72831D01*
X72806Y172111D01*
X72538Y172757D01*
X72112Y173313D01*
X71557Y173739D01*
X70910Y174006D01*
X70717Y174032D01*
D02*
G37*
G36*
X14417D02*
Y171917D01*
X16532D01*
X16506Y172111D01*
X16239Y172757D01*
X15813Y173313D01*
X15258Y173739D01*
X14611Y174006D01*
X14417Y174032D01*
D02*
G37*
G36*
X16532Y150917D02*
X14417D01*
Y148803D01*
X14611Y148828D01*
X15258Y149096D01*
X15813Y149522D01*
X16239Y150077D01*
X16506Y150724D01*
X16532Y150917D01*
D02*
G37*
G36*
X27815Y174098D02*
X27121Y174006D01*
X26475Y173739D01*
X25920Y173313D01*
X25494Y172757D01*
X25226Y172111D01*
X25135Y171417D01*
X25226Y170724D01*
X25494Y170077D01*
X25920Y169522D01*
X26319Y169215D01*
X26358Y169096D01*
Y168738D01*
X26319Y168619D01*
X25920Y168313D01*
X25494Y167757D01*
X25226Y167111D01*
X25135Y166417D01*
X25226Y165724D01*
X25494Y165077D01*
X25920Y164522D01*
X26319Y164215D01*
X26358Y164096D01*
Y163738D01*
X26319Y163619D01*
X25920Y163313D01*
X25494Y162758D01*
X25226Y162111D01*
X25135Y161417D01*
X25226Y160724D01*
X25494Y160077D01*
X25920Y159522D01*
X26319Y159215D01*
X26358Y159096D01*
Y158738D01*
X26319Y158619D01*
X25920Y158313D01*
X25494Y157757D01*
X25226Y157111D01*
X25135Y156417D01*
X25226Y155724D01*
X25494Y155077D01*
X25920Y154522D01*
X26319Y154215D01*
X26358Y154096D01*
Y153738D01*
X26319Y153619D01*
X25920Y153313D01*
X25494Y152758D01*
X25226Y152111D01*
X25135Y151417D01*
X25226Y150724D01*
X25494Y150077D01*
X25920Y149522D01*
X26475Y149096D01*
X27121Y148828D01*
X27815Y148737D01*
X28509Y148828D01*
X29155Y149096D01*
X29710Y149522D01*
X30017Y149922D01*
X30136Y149960D01*
X30494D01*
X30613Y149922D01*
X30920Y149522D01*
X31475Y149096D01*
X32121Y148828D01*
X32315Y148803D01*
Y151417D01*
X32815D01*
Y151917D01*
X35429D01*
X35404Y152111D01*
X35136Y152758D01*
X34710Y153313D01*
X34311Y153619D01*
X34272Y153738D01*
Y154096D01*
X34311Y154215D01*
X34710Y154522D01*
X35136Y155077D01*
X35404Y155724D01*
X35495Y156417D01*
X35404Y157111D01*
X35136Y157757D01*
X34710Y158313D01*
X34311Y158619D01*
X34272Y158738D01*
Y159096D01*
X34311Y159215D01*
X34710Y159522D01*
X35136Y160077D01*
X35404Y160724D01*
X35495Y161417D01*
X35404Y162111D01*
X35136Y162758D01*
X34710Y163313D01*
X34311Y163619D01*
X34272Y163738D01*
Y164096D01*
X34311Y164215D01*
X34710Y164522D01*
X35136Y165077D01*
X35404Y165724D01*
X35495Y166417D01*
X35404Y167111D01*
X35136Y167757D01*
X34710Y168313D01*
X34311Y168619D01*
X34272Y168738D01*
Y169096D01*
X34311Y169215D01*
X34710Y169522D01*
X35136Y170077D01*
X35404Y170724D01*
X35430Y170917D01*
X32815D01*
Y171417D01*
X32315D01*
Y174032D01*
X32121Y174006D01*
X31475Y173739D01*
X30920Y173313D01*
X30613Y172913D01*
X30494Y172874D01*
X30136D01*
X30017Y172913D01*
X29710Y173313D01*
X29155Y173739D01*
X28509Y174006D01*
X27815Y174098D01*
D02*
G37*
G36*
X72831Y150917D02*
X70717D01*
Y148803D01*
X70910Y148828D01*
X71557Y149096D01*
X72112Y149522D01*
X72538Y150077D01*
X72806Y150724D01*
X72831Y150917D01*
D02*
G37*
G36*
X83720Y174098D02*
X83027Y174006D01*
X82380Y173739D01*
X81825Y173313D01*
X81399Y172757D01*
X81131Y172111D01*
X81040Y171417D01*
X81131Y170724D01*
X81399Y170077D01*
X81825Y169522D01*
X82225Y169215D01*
X82263Y169096D01*
Y168738D01*
X82225Y168619D01*
X81825Y168313D01*
X81399Y167757D01*
X81131Y167111D01*
X81040Y166417D01*
X81131Y165724D01*
X81399Y165077D01*
X81825Y164522D01*
X82225Y164215D01*
X82263Y164096D01*
Y163738D01*
X82225Y163619D01*
X81825Y163313D01*
X81399Y162758D01*
X81131Y162111D01*
X81040Y161417D01*
X81131Y160724D01*
X81399Y160077D01*
X81825Y159522D01*
X82225Y159215D01*
X82263Y159096D01*
Y158738D01*
X82225Y158619D01*
X81825Y158313D01*
X81399Y157757D01*
X81131Y157111D01*
X81040Y156417D01*
X81131Y155724D01*
X81399Y155077D01*
X81825Y154522D01*
X82225Y154215D01*
X82263Y154096D01*
Y153738D01*
X82225Y153619D01*
X81825Y153313D01*
X81399Y152758D01*
X81131Y152111D01*
X81040Y151417D01*
X81131Y150724D01*
X81399Y150077D01*
X81825Y149522D01*
X82380Y149096D01*
X83027Y148828D01*
X83720Y148737D01*
X84414Y148828D01*
X85061Y149096D01*
X85616Y149522D01*
X85922Y149922D01*
X86041Y149960D01*
X86400D01*
X86519Y149922D01*
X86825Y149522D01*
X87380Y149096D01*
X88027Y148828D01*
X88221Y148803D01*
Y151417D01*
X88721D01*
Y151917D01*
X91335D01*
X91310Y152111D01*
X91042Y152758D01*
X90616Y153313D01*
X90216Y153619D01*
X90177Y153738D01*
Y154096D01*
X90216Y154215D01*
X90616Y154522D01*
X91042Y155077D01*
X91310Y155724D01*
X91401Y156417D01*
X91310Y157111D01*
X91042Y157757D01*
X90616Y158313D01*
X90216Y158619D01*
X90177Y158738D01*
Y159096D01*
X90216Y159215D01*
X90616Y159522D01*
X91042Y160077D01*
X91310Y160724D01*
X91401Y161417D01*
X91310Y162111D01*
X91042Y162758D01*
X90616Y163313D01*
X90216Y163619D01*
X90177Y163738D01*
Y164096D01*
X90216Y164215D01*
X90616Y164522D01*
X91042Y165077D01*
X91310Y165724D01*
X91401Y166417D01*
X91310Y167111D01*
X91042Y167757D01*
X90616Y168313D01*
X90216Y168619D01*
X90177Y168738D01*
Y169096D01*
X90216Y169215D01*
X90616Y169522D01*
X91042Y170077D01*
X91310Y170724D01*
X91335Y170917D01*
X88721D01*
Y171417D01*
X88221D01*
Y174032D01*
X88027Y174006D01*
X87380Y173739D01*
X86825Y173313D01*
X86519Y172913D01*
X86400Y172874D01*
X86041D01*
X85922Y172913D01*
X85616Y173313D01*
X85061Y173739D01*
X84414Y174006D01*
X83720Y174098D01*
D02*
G37*
G36*
X46713D02*
X46019Y174006D01*
X45372Y173739D01*
X44817Y173313D01*
X44391Y172757D01*
X44124Y172111D01*
X44032Y171417D01*
X44124Y170724D01*
X44391Y170077D01*
X44817Y169522D01*
X45217Y169215D01*
X45256Y169096D01*
Y168738D01*
X45217Y168619D01*
X44817Y168313D01*
X44391Y167757D01*
X44124Y167111D01*
X44032Y166417D01*
X44124Y165724D01*
X44391Y165077D01*
X44817Y164522D01*
X45217Y164215D01*
X45256Y164096D01*
Y163738D01*
X45217Y163619D01*
X44817Y163313D01*
X44391Y162758D01*
X44124Y162111D01*
X44032Y161417D01*
X44124Y160724D01*
X44391Y160077D01*
X44817Y159522D01*
X45217Y159215D01*
X45256Y159096D01*
Y158738D01*
X45217Y158619D01*
X44817Y158313D01*
X44391Y157757D01*
X44124Y157111D01*
X44032Y156417D01*
X44124Y155724D01*
X44391Y155077D01*
X44817Y154522D01*
X45217Y154215D01*
X45256Y154096D01*
Y153738D01*
X45217Y153619D01*
X44817Y153313D01*
X44391Y152758D01*
X44124Y152111D01*
X44032Y151417D01*
X44124Y150724D01*
X44391Y150077D01*
X44817Y149522D01*
X45372Y149096D01*
X46019Y148828D01*
X46713Y148737D01*
X47406Y148828D01*
X48053Y149096D01*
X48608Y149522D01*
X48915Y149922D01*
X49034Y149960D01*
X49392D01*
X49511Y149922D01*
X49817Y149522D01*
X50372Y149096D01*
X51019Y148828D01*
X51213Y148803D01*
Y151417D01*
X51713D01*
Y151917D01*
X54327D01*
X54302Y152111D01*
X54034Y152758D01*
X53608Y153313D01*
X53208Y153619D01*
X53170Y153738D01*
Y154096D01*
X53208Y154215D01*
X53608Y154522D01*
X54034Y155077D01*
X54302Y155724D01*
X54393Y156417D01*
X54302Y157111D01*
X54034Y157757D01*
X53608Y158313D01*
X53208Y158619D01*
X53170Y158738D01*
Y159096D01*
X53208Y159215D01*
X53608Y159522D01*
X54034Y160077D01*
X54302Y160724D01*
X54393Y161417D01*
X54302Y162111D01*
X54034Y162758D01*
X53608Y163313D01*
X53208Y163619D01*
X53170Y163738D01*
Y164096D01*
X53208Y164215D01*
X53608Y164522D01*
X54034Y165077D01*
X54302Y165724D01*
X54393Y166417D01*
X54302Y167111D01*
X54034Y167757D01*
X53608Y168313D01*
X53208Y168619D01*
X53170Y168738D01*
Y169096D01*
X53208Y169215D01*
X53608Y169522D01*
X54034Y170077D01*
X54302Y170724D01*
X54327Y170917D01*
X51713D01*
Y171417D01*
X51213D01*
Y174032D01*
X51019Y174006D01*
X50372Y173739D01*
X49817Y173313D01*
X49511Y172913D01*
X49392Y172874D01*
X49034D01*
X48915Y172913D01*
X48608Y173313D01*
X48053Y173739D01*
X47406Y174006D01*
X46713Y174098D01*
D02*
G37*
G36*
X54327Y150917D02*
X52213D01*
Y148803D01*
X52406Y148828D01*
X53053Y149096D01*
X53608Y149522D01*
X54034Y150077D01*
X54302Y150724D01*
X54327Y150917D01*
D02*
G37*
G36*
X91335D02*
X89220D01*
Y148803D01*
X89414Y148828D01*
X90061Y149096D01*
X90616Y149522D01*
X91042Y150077D01*
X91310Y150724D01*
X91335Y150917D01*
D02*
G37*
G36*
X65216Y174098D02*
X64523Y174006D01*
X63876Y173739D01*
X63321Y173313D01*
X62895Y172757D01*
X62627Y172111D01*
X62536Y171417D01*
X62627Y170724D01*
X62895Y170077D01*
X63321Y169522D01*
X63721Y169215D01*
X63760Y169096D01*
Y168738D01*
X63721Y168619D01*
X63321Y168313D01*
X62895Y167757D01*
X62627Y167111D01*
X62536Y166417D01*
X62627Y165724D01*
X62895Y165077D01*
X63321Y164522D01*
X63721Y164215D01*
X63760Y164096D01*
Y163738D01*
X63721Y163619D01*
X63321Y163313D01*
X62895Y162758D01*
X62627Y162111D01*
X62536Y161417D01*
X62627Y160724D01*
X62895Y160077D01*
X63321Y159522D01*
X63721Y159215D01*
X63760Y159096D01*
Y158738D01*
X63721Y158619D01*
X63321Y158313D01*
X62895Y157757D01*
X62627Y157111D01*
X62536Y156417D01*
X62627Y155724D01*
X62895Y155077D01*
X63321Y154522D01*
X63721Y154215D01*
X63760Y154096D01*
Y153738D01*
X63721Y153619D01*
X63321Y153313D01*
X62895Y152758D01*
X62627Y152111D01*
X62536Y151417D01*
X62627Y150724D01*
X62895Y150077D01*
X63321Y149522D01*
X63876Y149096D01*
X64523Y148828D01*
X65216Y148737D01*
X65910Y148828D01*
X66557Y149096D01*
X67112Y149522D01*
X67418Y149922D01*
X67537Y149960D01*
X67896D01*
X68015Y149922D01*
X68321Y149522D01*
X68876Y149096D01*
X69523Y148828D01*
X69717Y148803D01*
Y151417D01*
X70217D01*
Y151917D01*
X72831D01*
X72806Y152111D01*
X72538Y152758D01*
X72112Y153313D01*
X71712Y153619D01*
X71674Y153738D01*
Y154096D01*
X71712Y154215D01*
X72112Y154522D01*
X72538Y155077D01*
X72806Y155724D01*
X72897Y156417D01*
X72806Y157111D01*
X72538Y157757D01*
X72112Y158313D01*
X71712Y158619D01*
X71674Y158738D01*
Y159096D01*
X71712Y159215D01*
X72112Y159522D01*
X72538Y160077D01*
X72806Y160724D01*
X72897Y161417D01*
X72806Y162111D01*
X72538Y162758D01*
X72112Y163313D01*
X71712Y163619D01*
X71674Y163738D01*
Y164096D01*
X71712Y164215D01*
X72112Y164522D01*
X72538Y165077D01*
X72806Y165724D01*
X72897Y166417D01*
X72806Y167111D01*
X72538Y167757D01*
X72112Y168313D01*
X71712Y168619D01*
X71674Y168738D01*
Y169096D01*
X71712Y169215D01*
X72112Y169522D01*
X72538Y170077D01*
X72806Y170724D01*
X72831Y170917D01*
X70217D01*
Y171417D01*
X69717D01*
Y174032D01*
X69523Y174006D01*
X68876Y173739D01*
X68321Y173313D01*
X68015Y172913D01*
X67896Y172874D01*
X67537D01*
X67418Y172913D01*
X67112Y173313D01*
X66557Y173739D01*
X65910Y174006D01*
X65216Y174098D01*
D02*
G37*
G36*
X35430Y150917D02*
X33315D01*
Y148803D01*
X33509Y148828D01*
X34155Y149096D01*
X34710Y149522D01*
X35136Y150077D01*
X35404Y150724D01*
X35430Y150917D01*
D02*
G37*
G36*
X8917Y174098D02*
X8224Y174006D01*
X7577Y173739D01*
X7022Y173313D01*
X6596Y172757D01*
X6328Y172111D01*
X6237Y171417D01*
X6328Y170724D01*
X6596Y170077D01*
X7022Y169522D01*
X7422Y169215D01*
X7460Y169096D01*
Y168738D01*
X7422Y168619D01*
X7022Y168313D01*
X6596Y167757D01*
X6328Y167111D01*
X6237Y166417D01*
X6328Y165724D01*
X6596Y165077D01*
X7022Y164522D01*
X7422Y164215D01*
X7460Y164096D01*
Y163738D01*
X7422Y163619D01*
X7022Y163313D01*
X6596Y162758D01*
X6328Y162111D01*
X6237Y161417D01*
X6328Y160724D01*
X6596Y160077D01*
X7022Y159522D01*
X7422Y159215D01*
X7460Y159096D01*
Y158738D01*
X7422Y158619D01*
X7022Y158313D01*
X6596Y157757D01*
X6328Y157111D01*
X6237Y156417D01*
X6328Y155724D01*
X6596Y155077D01*
X7022Y154522D01*
X7422Y154215D01*
X7460Y154096D01*
Y153738D01*
X7422Y153619D01*
X7022Y153313D01*
X6596Y152758D01*
X6328Y152111D01*
X6237Y151417D01*
X6328Y150724D01*
X6596Y150077D01*
X7022Y149522D01*
X7577Y149096D01*
X8224Y148828D01*
X8917Y148737D01*
X9611Y148828D01*
X10257Y149096D01*
X10813Y149522D01*
X11119Y149922D01*
X11238Y149960D01*
X11596D01*
X11715Y149922D01*
X12022Y149522D01*
X12577Y149096D01*
X13224Y148828D01*
X13417Y148803D01*
Y151417D01*
X13917D01*
Y151917D01*
X16532D01*
X16506Y152111D01*
X16239Y152758D01*
X15813Y153313D01*
X15413Y153619D01*
X15374Y153738D01*
Y154096D01*
X15413Y154215D01*
X15813Y154522D01*
X16239Y155077D01*
X16506Y155724D01*
X16598Y156417D01*
X16506Y157111D01*
X16239Y157757D01*
X15813Y158313D01*
X15413Y158619D01*
X15374Y158738D01*
Y159096D01*
X15413Y159215D01*
X15813Y159522D01*
X16239Y160077D01*
X16506Y160724D01*
X16598Y161417D01*
X16506Y162111D01*
X16239Y162758D01*
X15813Y163313D01*
X15413Y163619D01*
X15374Y163738D01*
Y164096D01*
X15413Y164215D01*
X15813Y164522D01*
X16239Y165077D01*
X16506Y165724D01*
X16598Y166417D01*
X16506Y167111D01*
X16239Y167757D01*
X15813Y168313D01*
X15413Y168619D01*
X15374Y168738D01*
Y169096D01*
X15413Y169215D01*
X15813Y169522D01*
X16239Y170077D01*
X16506Y170724D01*
X16532Y170917D01*
X13917D01*
Y171417D01*
X13417D01*
Y174032D01*
X13224Y174006D01*
X12577Y173739D01*
X12022Y173313D01*
X11715Y172913D01*
X11596Y172874D01*
X11238D01*
X11119Y172913D01*
X10813Y173313D01*
X10257Y173739D01*
X9611Y174006D01*
X8917Y174098D01*
D02*
G37*
G36*
X31890Y144025D02*
X31314Y143910D01*
X30825Y143584D01*
X30499Y143096D01*
X30384Y142520D01*
X30499Y141944D01*
X30825Y141455D01*
X31314Y141129D01*
X31890Y141014D01*
X32466Y141129D01*
X32954Y141455D01*
X33281Y141944D01*
X33395Y142520D01*
X33281Y143096D01*
X32954Y143584D01*
X32466Y143910D01*
X31890Y144025D01*
D02*
G37*
G36*
X16929Y142057D02*
X16353Y141942D01*
X15865Y141616D01*
X15538Y141127D01*
X15424Y140551D01*
X15538Y139975D01*
X15865Y139487D01*
X16353Y139161D01*
X16929Y139046D01*
X17505Y139161D01*
X17993Y139487D01*
X18320Y139975D01*
X18434Y140551D01*
X18320Y141127D01*
X17993Y141616D01*
X17505Y141942D01*
X16929Y142057D01*
D02*
G37*
G36*
X61417Y134576D02*
X60841Y134462D01*
X60353Y134135D01*
X60120Y133787D01*
X60049Y133765D01*
X59636D01*
X59565Y133787D01*
X59332Y134135D01*
X58844Y134462D01*
X58268Y134576D01*
X57692Y134462D01*
X57203Y134135D01*
X56982Y133805D01*
X56948Y133793D01*
X56461D01*
X56427Y133805D01*
X56206Y134135D01*
X55718Y134462D01*
X55142Y134576D01*
X54566Y134462D01*
X54077Y134135D01*
X53833Y133770D01*
X53712Y133738D01*
X53398D01*
X53277Y133770D01*
X53033Y134135D01*
X52545Y134462D01*
X51968Y134576D01*
X51393Y134462D01*
X50904Y134135D01*
X50671Y133787D01*
X50600Y133765D01*
X50187D01*
X50116Y133787D01*
X49883Y134135D01*
X49395Y134462D01*
X48819Y134576D01*
X48243Y134462D01*
X47754Y134135D01*
X47428Y133647D01*
X47314Y133071D01*
X47428Y132495D01*
X47754Y132007D01*
X48103Y131774D01*
X48124Y131702D01*
Y131290D01*
X48103Y131218D01*
X47754Y130986D01*
X47428Y130497D01*
X47314Y129921D01*
X47428Y129345D01*
X47754Y128857D01*
X48243Y128531D01*
X48819Y128416D01*
X49395Y128531D01*
X49883Y128857D01*
X50116Y129205D01*
X50187Y129227D01*
X50600D01*
X50671Y129205D01*
X50904Y128857D01*
X51393Y128531D01*
X51968Y128416D01*
X52545Y128531D01*
X53033Y128857D01*
X53266Y129205D01*
X53337Y129227D01*
X53750D01*
X53821Y129205D01*
X54054Y128857D01*
X54542Y128531D01*
X55118Y128416D01*
X55694Y128531D01*
X56182Y128857D01*
X56415Y129205D01*
X56486Y129227D01*
X56899Y129227D01*
X56971Y129205D01*
X57203Y128857D01*
X57551Y128624D01*
X57573Y128553D01*
Y128140D01*
X57551Y128069D01*
X57203Y127836D01*
X56877Y127348D01*
X56762Y126772D01*
X56877Y126196D01*
X57203Y125707D01*
X57692Y125381D01*
X58268Y125266D01*
X58844Y125381D01*
X59332Y125707D01*
X59658Y126196D01*
X59773Y126772D01*
X59658Y127348D01*
X59332Y127836D01*
X58984Y128069D01*
X58962Y128140D01*
Y128553D01*
X58984Y128624D01*
X59332Y128857D01*
X59658Y129345D01*
X59773Y129921D01*
X59658Y130497D01*
X59332Y130986D01*
X58984Y131218D01*
X58962Y131290D01*
X58962Y131702D01*
X58984Y131774D01*
X59332Y132007D01*
X59565Y132355D01*
X59636Y132376D01*
X60049D01*
X60120Y132355D01*
X60353Y132007D01*
X60841Y131680D01*
X61417Y131566D01*
X61993Y131680D01*
X62482Y132007D01*
X62808Y132495D01*
X62923Y133071D01*
X62808Y133647D01*
X62482Y134135D01*
X61993Y134462D01*
X61417Y134576D01*
D02*
G37*
G36*
X42520D02*
X41944Y134462D01*
X41455Y134135D01*
X41223Y133787D01*
X41151Y133765D01*
X40738D01*
X40667Y133787D01*
X40435Y134135D01*
X39946Y134462D01*
X39370Y134576D01*
X38794Y134462D01*
X38306Y134135D01*
X38073Y133787D01*
X38002Y133765D01*
X37589D01*
X37517Y133787D01*
X37285Y134135D01*
X36797Y134462D01*
X36220Y134576D01*
X35645Y134462D01*
X35156Y134135D01*
X34830Y133647D01*
X34715Y133071D01*
X34830Y132495D01*
X35156Y132007D01*
X35645Y131680D01*
X36220Y131566D01*
X36797Y131680D01*
X37285Y132007D01*
X37517Y132355D01*
X37589Y132376D01*
X38002D01*
X38073Y132355D01*
X38306Y132007D01*
X38654Y131774D01*
X38675Y131702D01*
Y131290D01*
X38654Y131218D01*
X38306Y130986D01*
X37979Y130497D01*
X37865Y129921D01*
X37979Y129345D01*
X38306Y128857D01*
X38665Y128617D01*
X38682Y128567D01*
X38691Y128155D01*
X38665Y128061D01*
X38328Y127836D01*
X38001Y127348D01*
X37887Y126772D01*
X38001Y126196D01*
X38328Y125707D01*
X38816Y125381D01*
X39392Y125266D01*
X39968Y125381D01*
X40457Y125707D01*
X40783Y126196D01*
X40898Y126772D01*
X40783Y127348D01*
X40457Y127836D01*
X40097Y128076D01*
X40081Y128126D01*
X40071Y128537D01*
X40097Y128632D01*
X40435Y128857D01*
X40761Y129345D01*
X40875Y129921D01*
X40761Y130497D01*
X40435Y130986D01*
X40086Y131218D01*
X40065Y131290D01*
Y131702D01*
X40086Y131774D01*
X40435Y132007D01*
X40667Y132355D01*
X40738Y132376D01*
X41151D01*
X41223Y132355D01*
X41455Y132007D01*
X41944Y131680D01*
X42520Y131566D01*
X43096Y131680D01*
X43584Y132007D01*
X43910Y132495D01*
X44025Y133071D01*
X43910Y133647D01*
X43584Y134135D01*
X43096Y134462D01*
X42520Y134576D01*
D02*
G37*
G36*
X6693Y134377D02*
X6117Y134263D01*
X5629Y133937D01*
X5302Y133448D01*
X5188Y132872D01*
X5302Y132296D01*
X5629Y131808D01*
X6117Y131481D01*
X6693Y131367D01*
X7269Y131481D01*
X7757Y131808D01*
X8084Y132296D01*
X8198Y132872D01*
X8084Y133448D01*
X7757Y133937D01*
X7269Y134263D01*
X6693Y134377D01*
D02*
G37*
G36*
X19685Y133001D02*
X19109Y132887D01*
X18621Y132561D01*
X18294Y132072D01*
X18180Y131496D01*
X18294Y130920D01*
X18621Y130432D01*
X19109Y130105D01*
X19685Y129991D01*
X20261Y130105D01*
X20749Y130432D01*
X21076Y130920D01*
X21190Y131496D01*
X21076Y132072D01*
X20749Y132561D01*
X20261Y132887D01*
X19685Y133001D01*
D02*
G37*
G36*
X76772Y132214D02*
X76196Y132099D01*
X75707Y131773D01*
X75381Y131285D01*
X75266Y130709D01*
X75381Y130133D01*
X75707Y129644D01*
X76196Y129318D01*
X76772Y129203D01*
X77348Y129318D01*
X77836Y129644D01*
X78162Y130133D01*
X78277Y130709D01*
X78162Y131285D01*
X77836Y131773D01*
X77348Y132099D01*
X76772Y132214D01*
D02*
G37*
G36*
X33071Y131427D02*
X32495Y131312D01*
X32006Y130986D01*
X31680Y130497D01*
X31566Y129921D01*
X31680Y129345D01*
X32006Y128857D01*
X32495Y128531D01*
X33071Y128416D01*
X33647Y128531D01*
X34135Y128857D01*
X34462Y129345D01*
X34576Y129921D01*
X34462Y130497D01*
X34135Y130986D01*
X33647Y131312D01*
X33071Y131427D01*
D02*
G37*
G36*
X28346Y129064D02*
X27770Y128950D01*
X27282Y128623D01*
X26956Y128135D01*
X26841Y127559D01*
X26956Y126983D01*
X27282Y126495D01*
X27770Y126168D01*
X28346Y126054D01*
X28923Y126168D01*
X29411Y126495D01*
X29737Y126983D01*
X29852Y127559D01*
X29737Y128135D01*
X29411Y128623D01*
X28923Y128950D01*
X28346Y129064D01*
D02*
G37*
G36*
X58268Y121978D02*
X57692Y121863D01*
X57203Y121537D01*
X56976Y121197D01*
X56923Y121180D01*
X56473D01*
X56421Y121197D01*
X56194Y121537D01*
X55705Y121863D01*
X55129Y121978D01*
X54553Y121863D01*
X54065Y121537D01*
X53738Y121048D01*
X53624Y120473D01*
X53738Y119896D01*
X54065Y119408D01*
X54413Y119176D01*
X54435Y119104D01*
Y118691D01*
X54413Y118620D01*
X54065Y118387D01*
X53738Y117899D01*
X53624Y117323D01*
X53738Y116747D01*
X54065Y116259D01*
X54407Y116030D01*
X54431Y115947D01*
X54427Y115534D01*
X54407Y115474D01*
X54054Y115238D01*
X53727Y114749D01*
X53613Y114173D01*
X53727Y113597D01*
X54054Y113109D01*
X54402Y112876D01*
X54423Y112805D01*
Y112392D01*
X54402Y112321D01*
X54054Y112088D01*
X53821Y111740D01*
X53750Y111718D01*
X53337D01*
X53266Y111740D01*
X53033Y112088D01*
X52545Y112414D01*
X51968Y112529D01*
X51393Y112414D01*
X50904Y112088D01*
X50671Y111740D01*
X50600Y111718D01*
X50187D01*
X50116Y111740D01*
X49883Y112088D01*
X49535Y112321D01*
X49514Y112392D01*
Y112805D01*
X49535Y112876D01*
X49883Y113109D01*
X50210Y113597D01*
X50324Y114173D01*
X50210Y114749D01*
X49883Y115238D01*
X49395Y115564D01*
X48819Y115679D01*
X48243Y115564D01*
X47754Y115238D01*
X47428Y114749D01*
X47314Y114173D01*
X47428Y113597D01*
X47754Y113109D01*
X48103Y112876D01*
X48124Y112805D01*
Y112392D01*
X48103Y112321D01*
X47754Y112088D01*
X47428Y111600D01*
X47314Y111024D01*
X47428Y110448D01*
X47754Y109959D01*
X48243Y109633D01*
X48819Y109518D01*
X49395Y109633D01*
X49883Y109959D01*
X50116Y110307D01*
X50187Y110329D01*
X50600D01*
X50671Y110307D01*
X50904Y109959D01*
X51252Y109727D01*
X51274Y109655D01*
X51274Y109242D01*
X51252Y109171D01*
X50904Y108938D01*
X50578Y108450D01*
X50463Y107874D01*
X50578Y107298D01*
X50904Y106810D01*
X51392Y106483D01*
X51968Y106369D01*
X52545Y106483D01*
X53033Y106810D01*
X53359Y107298D01*
X53474Y107874D01*
X53359Y108450D01*
X53033Y108938D01*
X52685Y109171D01*
X52663Y109242D01*
X52663Y109655D01*
X52685Y109727D01*
X53033Y109959D01*
X53266Y110307D01*
X53337Y110329D01*
X53750D01*
X53821Y110307D01*
X54054Y109959D01*
X54542Y109633D01*
X55118Y109518D01*
X55694Y109633D01*
X56182Y109959D01*
X56415Y110307D01*
X56486Y110329D01*
X56899D01*
X56971Y110307D01*
X57203Y109959D01*
X57692Y109633D01*
X58268Y109518D01*
X58844Y109633D01*
X59332Y109959D01*
X59658Y110448D01*
X59773Y111024D01*
X59658Y111600D01*
X59332Y112088D01*
X58984Y112321D01*
X58962Y112392D01*
Y112805D01*
X58984Y112876D01*
X59332Y113109D01*
X59658Y113597D01*
X59773Y114173D01*
X59658Y114749D01*
X59332Y115238D01*
X58984Y115470D01*
X58962Y115542D01*
Y115954D01*
X58984Y116026D01*
X59332Y116259D01*
X59658Y116747D01*
X59773Y117323D01*
X59658Y117899D01*
X59332Y118387D01*
X58984Y118620D01*
X58962Y118691D01*
Y119104D01*
X58984Y119176D01*
X59332Y119408D01*
X59658Y119896D01*
X59773Y120473D01*
X59658Y121048D01*
X59332Y121537D01*
X58844Y121863D01*
X58268Y121978D01*
D02*
G37*
G36*
X28346Y123553D02*
X27770Y123438D01*
X27282Y123112D01*
X26956Y122623D01*
X26841Y122047D01*
X26956Y121471D01*
X27282Y120983D01*
X27770Y120657D01*
X28346Y120542D01*
X28923Y120657D01*
X29411Y120983D01*
X29737Y121471D01*
X29852Y122047D01*
X29737Y122623D01*
X29411Y123112D01*
X28923Y123438D01*
X28346Y123553D01*
D02*
G37*
G36*
X70079Y120797D02*
X69503Y120682D01*
X69014Y120356D01*
X68951Y120261D01*
X68451D01*
X68387Y120356D01*
X67899Y120682D01*
X67323Y120797D01*
X66747Y120682D01*
X66258Y120356D01*
X65932Y119867D01*
X65817Y119291D01*
X65932Y118715D01*
X66258Y118227D01*
X66747Y117901D01*
X67323Y117786D01*
X67899Y117901D01*
X68387Y118227D01*
X68451Y118322D01*
X68951D01*
X69014Y118227D01*
X69503Y117901D01*
X70079Y117786D01*
X70655Y117901D01*
X71143Y118227D01*
X71469Y118715D01*
X71584Y119291D01*
X71469Y119867D01*
X71143Y120356D01*
X70655Y120682D01*
X70079Y120797D01*
D02*
G37*
G36*
X10866Y122529D02*
X10290Y122414D01*
X9802Y122088D01*
X9475Y121600D01*
X9361Y121024D01*
X9475Y120448D01*
X9802Y119959D01*
X10290Y119633D01*
X10866Y119518D01*
X11442Y119633D01*
X11930Y119959D01*
X12257Y120448D01*
X12371Y121024D01*
X12257Y121600D01*
X11930Y122088D01*
X11442Y122414D01*
X10866Y122529D01*
D02*
G37*
G36*
X89370Y122765D02*
X88794Y122651D01*
X88306Y122324D01*
X87979Y121836D01*
X87865Y121260D01*
X87979Y120684D01*
X88306Y120195D01*
X88401Y120132D01*
Y119632D01*
X88306Y119568D01*
X87979Y119080D01*
X87865Y118504D01*
X87979Y117928D01*
X88306Y117439D01*
X88794Y117113D01*
X89370Y116999D01*
X89946Y117113D01*
X90434Y117439D01*
X90761Y117928D01*
X90875Y118504D01*
X90761Y119080D01*
X90434Y119568D01*
X90339Y119632D01*
Y120132D01*
X90434Y120195D01*
X90761Y120684D01*
X90875Y121260D01*
X90761Y121836D01*
X90434Y122324D01*
X89946Y122651D01*
X89370Y122765D01*
D02*
G37*
G36*
X16929Y119615D02*
X16353Y119501D01*
X15865Y119175D01*
X15538Y118686D01*
X15424Y118110D01*
X15538Y117534D01*
X15865Y117046D01*
X16353Y116719D01*
X16929Y116605D01*
X17505Y116719D01*
X17993Y117046D01*
X18320Y117534D01*
X18434Y118110D01*
X18320Y118686D01*
X17993Y119175D01*
X17505Y119501D01*
X16929Y119615D01*
D02*
G37*
G36*
X39370Y118828D02*
X38794Y118714D01*
X38306Y118387D01*
X37979Y117899D01*
X37865Y117323D01*
X37979Y116747D01*
X38306Y116259D01*
X38654Y116026D01*
X38675Y115954D01*
Y115542D01*
X38654Y115470D01*
X38306Y115238D01*
X38077Y114895D01*
X37994Y114871D01*
X37582Y114876D01*
X37521Y114895D01*
X37285Y115249D01*
X36797Y115575D01*
X36220Y115690D01*
X35645Y115575D01*
X35156Y115249D01*
X34830Y114760D01*
X34715Y114184D01*
X34830Y113608D01*
X35156Y113120D01*
X35515Y112880D01*
X35548Y112750D01*
X35544Y112428D01*
X35515Y112324D01*
X35145Y112077D01*
X34819Y111589D01*
X34704Y111013D01*
X34819Y110437D01*
X35145Y109948D01*
X35633Y109622D01*
X36209Y109507D01*
X36786Y109622D01*
X37274Y109948D01*
X37521Y110318D01*
X37625Y110347D01*
X37946Y110351D01*
X38077Y110318D01*
X38317Y109959D01*
X38805Y109633D01*
X39381Y109518D01*
X39957Y109633D01*
X40446Y109959D01*
X40673Y110299D01*
X40725Y110316D01*
X41175D01*
X41228Y110299D01*
X41455Y109959D01*
X41944Y109633D01*
X42520Y109518D01*
X43096Y109633D01*
X43584Y109959D01*
X43910Y110448D01*
X44025Y111024D01*
X43910Y111600D01*
X43584Y112088D01*
X43096Y112414D01*
X42520Y112529D01*
X41944Y112414D01*
X41455Y112088D01*
X41228Y111748D01*
X41175Y111731D01*
X40725D01*
X40673Y111748D01*
X40446Y112088D01*
X40092Y112324D01*
X40073Y112385D01*
X40068Y112797D01*
X40092Y112880D01*
X40435Y113109D01*
X40761Y113597D01*
X40875Y114173D01*
X40761Y114749D01*
X40435Y115238D01*
X40086Y115470D01*
X40065Y115542D01*
Y115954D01*
X40086Y116026D01*
X40435Y116259D01*
X40761Y116747D01*
X40875Y117323D01*
X40761Y117899D01*
X40435Y118387D01*
X39946Y118714D01*
X39370Y118828D01*
D02*
G37*
G36*
X27953Y117253D02*
X27377Y117139D01*
X26888Y116812D01*
X26562Y116324D01*
X26447Y115748D01*
X26562Y115172D01*
X26888Y114684D01*
X27377Y114357D01*
X27953Y114243D01*
X28529Y114357D01*
X29017Y114684D01*
X29344Y115172D01*
X29458Y115748D01*
X29344Y116324D01*
X29017Y116812D01*
X28529Y117139D01*
X27953Y117253D01*
D02*
G37*
G36*
X10040Y116268D02*
X9464Y116154D01*
X8976Y115827D01*
X8649Y115339D01*
X8535Y114763D01*
X8649Y114187D01*
X8976Y113698D01*
X9464Y113372D01*
X10040Y113258D01*
X10616Y113372D01*
X11105Y113698D01*
X11431Y114187D01*
X11546Y114763D01*
X11431Y115339D01*
X11105Y115827D01*
X10616Y116154D01*
X10040Y116268D01*
D02*
G37*
G36*
X68898Y117253D02*
X68322Y117139D01*
X67833Y116812D01*
X67507Y116324D01*
X67392Y115748D01*
X67507Y115172D01*
X67833Y114684D01*
X68322Y114357D01*
X68487Y114324D01*
X68914Y114190D01*
X69049Y113763D01*
X69082Y113597D01*
X69408Y113109D01*
X69896Y112783D01*
X70472Y112668D01*
X71048Y112783D01*
X71537Y113109D01*
X71863Y113597D01*
X71978Y114173D01*
X71863Y114749D01*
X71537Y115238D01*
X71048Y115564D01*
X70883Y115597D01*
X70456Y115731D01*
X70321Y116158D01*
X70288Y116324D01*
X69962Y116812D01*
X69474Y117139D01*
X68898Y117253D01*
D02*
G37*
G36*
X84646Y113710D02*
X84070Y113595D01*
X83581Y113269D01*
X83255Y112781D01*
X83140Y112205D01*
X83255Y111629D01*
X83581Y111140D01*
X84070Y110814D01*
X84646Y110699D01*
X85222Y110814D01*
X85710Y111140D01*
X86036Y111629D01*
X86151Y112205D01*
X86036Y112781D01*
X85710Y113269D01*
X85222Y113595D01*
X84646Y113710D01*
D02*
G37*
G36*
X33071Y109379D02*
X32495Y109265D01*
X32006Y108938D01*
X31680Y108450D01*
X31566Y107874D01*
X31680Y107298D01*
X32006Y106810D01*
X32495Y106483D01*
X33071Y106369D01*
X33647Y106483D01*
X34135Y106810D01*
X34462Y107298D01*
X34576Y107874D01*
X34462Y108450D01*
X34135Y108938D01*
X33647Y109265D01*
X33071Y109379D01*
D02*
G37*
G36*
X61417Y105836D02*
X60841Y105721D01*
X60353Y105395D01*
X60289Y105300D01*
X59789D01*
X59726Y105395D01*
X59237Y105721D01*
X58661Y105836D01*
X58085Y105721D01*
X57597Y105395D01*
X57271Y104907D01*
X57156Y104331D01*
X57271Y103755D01*
X57597Y103266D01*
X58085Y102940D01*
X58661Y102825D01*
X59237Y102940D01*
X59726Y103266D01*
X59789Y103361D01*
X60289D01*
X60353Y103266D01*
X60841Y102940D01*
X61417Y102825D01*
X61993Y102940D01*
X62482Y103266D01*
X62808Y103755D01*
X62923Y104331D01*
X62808Y104907D01*
X62482Y105395D01*
X61993Y105721D01*
X61417Y105836D01*
D02*
G37*
G36*
X84646Y108198D02*
X84070Y108084D01*
X83581Y107757D01*
X83255Y107269D01*
X83140Y106693D01*
X83255Y106117D01*
X83581Y105629D01*
X84070Y105302D01*
X84646Y105188D01*
X85222Y105302D01*
X85710Y105629D01*
X86036Y106117D01*
X86151Y106693D01*
X86036Y107269D01*
X85710Y107757D01*
X85222Y108084D01*
X84646Y108198D01*
D02*
G37*
G36*
X64173Y103474D02*
X63597Y103359D01*
X63109Y103033D01*
X62783Y102545D01*
X62668Y101969D01*
X62783Y101392D01*
X63109Y100904D01*
X63597Y100578D01*
X64173Y100463D01*
X64749Y100578D01*
X65238Y100904D01*
X65564Y101392D01*
X65679Y101969D01*
X65564Y102545D01*
X65238Y103033D01*
X64749Y103359D01*
X64173Y103474D01*
D02*
G37*
G36*
X84646Y102686D02*
X84070Y102572D01*
X83581Y102245D01*
X83255Y101757D01*
X83140Y101181D01*
X83255Y100605D01*
X83581Y100117D01*
X84070Y99790D01*
X84646Y99676D01*
X85222Y99790D01*
X85710Y100117D01*
X86036Y100605D01*
X86151Y101181D01*
X86036Y101757D01*
X85710Y102245D01*
X85222Y102572D01*
X84646Y102686D01*
D02*
G37*
G36*
X81102Y99931D02*
X80526Y99816D01*
X80038Y99490D01*
X79712Y99001D01*
X79597Y98425D01*
X79712Y97849D01*
X80038Y97361D01*
X80526Y97035D01*
X81102Y96920D01*
X81678Y97035D01*
X82167Y97361D01*
X82493Y97849D01*
X82608Y98425D01*
X82493Y99001D01*
X82167Y99490D01*
X81678Y99816D01*
X81102Y99931D01*
D02*
G37*
G36*
X46063Y98749D02*
X45487Y98635D01*
X44999Y98308D01*
X44672Y97820D01*
X44558Y97244D01*
X44672Y96668D01*
X44999Y96180D01*
X45487Y95853D01*
X46063Y95739D01*
X46639Y95853D01*
X47127Y96180D01*
X47454Y96668D01*
X47568Y97244D01*
X47454Y97820D01*
X47127Y98308D01*
X46639Y98635D01*
X46063Y98749D01*
D02*
G37*
G36*
X84646Y97175D02*
X84070Y97060D01*
X83581Y96734D01*
X83255Y96245D01*
X83140Y95669D01*
X83255Y95093D01*
X83581Y94605D01*
X84070Y94279D01*
X84646Y94164D01*
X85222Y94279D01*
X85710Y94605D01*
X86036Y95093D01*
X86151Y95669D01*
X86036Y96245D01*
X85710Y96734D01*
X85222Y97060D01*
X84646Y97175D01*
D02*
G37*
G36*
X41339Y94025D02*
X40762Y93910D01*
X40274Y93584D01*
X39948Y93096D01*
X39833Y92519D01*
X39948Y91943D01*
X40274Y91455D01*
X40762Y91129D01*
X41339Y91014D01*
X41915Y91129D01*
X42403Y91455D01*
X42729Y91943D01*
X42844Y92519D01*
X42729Y93096D01*
X42403Y93584D01*
X41915Y93910D01*
X41339Y94025D01*
D02*
G37*
G36*
X94095Y93631D02*
X93518Y93517D01*
X93030Y93190D01*
X92704Y92702D01*
X92589Y92126D01*
X92704Y91550D01*
X93030Y91062D01*
X93518Y90735D01*
X94095Y90621D01*
X94670Y90735D01*
X95159Y91062D01*
X95485Y91550D01*
X95600Y92126D01*
X95485Y92702D01*
X95159Y93190D01*
X94670Y93517D01*
X94095Y93631D01*
D02*
G37*
G36*
X61417D02*
X60841Y93517D01*
X60353Y93190D01*
X60027Y92702D01*
X59912Y92126D01*
X60027Y91550D01*
X60353Y91062D01*
X60841Y90735D01*
X61417Y90621D01*
X61993Y90735D01*
X62482Y91062D01*
X62808Y91550D01*
X62923Y92126D01*
X62808Y92702D01*
X62482Y93190D01*
X61993Y93517D01*
X61417Y93631D01*
D02*
G37*
G36*
X58268Y91663D02*
X57692Y91548D01*
X57203Y91222D01*
X56877Y90734D01*
X56762Y90158D01*
X56877Y89582D01*
X57203Y89093D01*
X57692Y88767D01*
X58268Y88652D01*
X58844Y88767D01*
X59332Y89093D01*
X59658Y89582D01*
X59773Y90158D01*
X59658Y90734D01*
X59332Y91222D01*
X58844Y91548D01*
X58268Y91663D01*
D02*
G37*
G36*
X53242Y91387D02*
X52666Y91272D01*
X52177Y90946D01*
X51851Y90458D01*
X51736Y89882D01*
X51851Y89306D01*
X52177Y88817D01*
X52666Y88491D01*
X53242Y88376D01*
X53818Y88491D01*
X54306Y88817D01*
X54632Y89306D01*
X54747Y89882D01*
X54632Y90458D01*
X54306Y90946D01*
X53818Y91272D01*
X53242Y91387D01*
D02*
G37*
G36*
X69889Y90089D02*
X69313Y89974D01*
X68825Y89648D01*
X68499Y89160D01*
X68384Y88583D01*
X68499Y88007D01*
X68825Y87519D01*
X69313Y87193D01*
X69889Y87078D01*
X70465Y87193D01*
X70954Y87519D01*
X71280Y88007D01*
X71395Y88583D01*
X71280Y89160D01*
X70954Y89648D01*
X70465Y89974D01*
X69889Y90089D01*
D02*
G37*
G36*
X56693Y87854D02*
X56117Y87739D01*
X55629Y87413D01*
X55302Y86925D01*
X55188Y86349D01*
X55302Y85773D01*
X55629Y85284D01*
X56117Y84958D01*
X56693Y84843D01*
X57269Y84958D01*
X57757Y85284D01*
X58084Y85773D01*
X58198Y86349D01*
X58084Y86925D01*
X57757Y87413D01*
X57269Y87739D01*
X56693Y87854D01*
D02*
G37*
G36*
X15748Y97707D02*
X6299D01*
X5971Y97642D01*
X5693Y97456D01*
X3331Y95094D01*
X3145Y94816D01*
X3080Y94488D01*
Y87165D01*
X3145Y86837D01*
X3331Y86559D01*
X3725Y86166D01*
X6667Y83224D01*
X6596Y83131D01*
X6328Y82485D01*
X6237Y81791D01*
X6328Y81098D01*
X6596Y80451D01*
X7022Y79896D01*
X7422Y79589D01*
X7460Y79470D01*
Y79112D01*
X7422Y78993D01*
X7022Y78687D01*
X6596Y78132D01*
X6328Y77485D01*
X6237Y76791D01*
X6328Y76098D01*
X6596Y75451D01*
X7022Y74896D01*
X7422Y74589D01*
X7460Y74470D01*
Y74112D01*
X7422Y73993D01*
X7022Y73687D01*
X6596Y73132D01*
X6328Y72485D01*
X6237Y71791D01*
X6328Y71098D01*
X6596Y70451D01*
X7022Y69896D01*
X7422Y69589D01*
X7460Y69470D01*
Y69112D01*
X7422Y68993D01*
X7022Y68687D01*
X6596Y68132D01*
X6328Y67485D01*
X6237Y66791D01*
X6328Y66098D01*
X6596Y65451D01*
X7022Y64896D01*
X7422Y64589D01*
X7460Y64470D01*
Y64112D01*
X7422Y63993D01*
X7022Y63687D01*
X6596Y63131D01*
X6328Y62485D01*
X6237Y61791D01*
X6328Y61098D01*
X6596Y60451D01*
X7022Y59896D01*
X7422Y59589D01*
X7460Y59470D01*
Y59112D01*
X7422Y58993D01*
X7022Y58687D01*
X6596Y58131D01*
X6328Y57485D01*
X6237Y56791D01*
X6328Y56098D01*
X6596Y55451D01*
X7022Y54896D01*
X7422Y54589D01*
X7460Y54470D01*
Y54112D01*
X7422Y53993D01*
X7022Y53687D01*
X6596Y53132D01*
X6328Y52485D01*
X6237Y51791D01*
X6328Y51098D01*
X6596Y50451D01*
X7022Y49896D01*
X7422Y49589D01*
X7460Y49470D01*
Y49112D01*
X7422Y48993D01*
X7022Y48687D01*
X6596Y48131D01*
X6328Y47485D01*
X6303Y47291D01*
X8917D01*
Y46791D01*
X9417D01*
Y44177D01*
X9611Y44202D01*
X10257Y44470D01*
X10813Y44896D01*
X11119Y45296D01*
X11238Y45334D01*
X11596D01*
X11715Y45296D01*
X12022Y44896D01*
X12577Y44470D01*
X13224Y44202D01*
X13417Y44177D01*
Y46791D01*
X13917D01*
Y47291D01*
X16532D01*
X16506Y47485D01*
X16239Y48131D01*
X15813Y48687D01*
X15413Y48993D01*
X15374Y49112D01*
Y49470D01*
X15413Y49589D01*
X15813Y49896D01*
X16239Y50451D01*
X16506Y51098D01*
X16598Y51791D01*
X16506Y52485D01*
X16239Y53132D01*
X15813Y53687D01*
X15413Y53993D01*
X15374Y54112D01*
Y54470D01*
X15413Y54589D01*
X15813Y54896D01*
X16239Y55451D01*
X16506Y56098D01*
X16598Y56791D01*
X16506Y57485D01*
X16239Y58131D01*
X15813Y58687D01*
X15413Y58993D01*
X15374Y59112D01*
Y59470D01*
X15413Y59589D01*
X15813Y59896D01*
X16239Y60451D01*
X16506Y61098D01*
X16598Y61791D01*
X16506Y62485D01*
X16239Y63131D01*
X15813Y63687D01*
X15413Y63993D01*
X15374Y64112D01*
Y64470D01*
X15413Y64589D01*
X15813Y64896D01*
X16239Y65451D01*
X16506Y66098D01*
X16598Y66791D01*
X16506Y67485D01*
X16239Y68132D01*
X15813Y68687D01*
X15413Y68993D01*
X15374Y69112D01*
Y69470D01*
X15413Y69589D01*
X15813Y69896D01*
X16239Y70451D01*
X16506Y71098D01*
X16598Y71791D01*
X16506Y72485D01*
X16239Y73132D01*
X15813Y73687D01*
X15413Y73993D01*
X15374Y74112D01*
Y74470D01*
X15413Y74589D01*
X15813Y74896D01*
X16239Y75451D01*
X16506Y76098D01*
X16598Y76791D01*
X16506Y77485D01*
X16239Y78132D01*
X15813Y78687D01*
X15413Y78993D01*
X15374Y79112D01*
Y79470D01*
X15413Y79589D01*
X15813Y79896D01*
X16239Y80451D01*
X16439Y80934D01*
X26121D01*
X26559Y80496D01*
X26837Y80311D01*
X27165Y80245D01*
X35866D01*
X36339Y79772D01*
X36290Y79528D01*
X36405Y78952D01*
X36731Y78463D01*
X37079Y78231D01*
X37101Y78159D01*
Y77746D01*
X37079Y77675D01*
X36731Y77442D01*
X36498Y77094D01*
X36427Y77073D01*
X36014D01*
X35943Y77094D01*
X35710Y77442D01*
X35222Y77769D01*
X34646Y77883D01*
X34070Y77769D01*
X33581Y77442D01*
X33255Y76954D01*
X33140Y76378D01*
X33255Y75802D01*
X33581Y75314D01*
X33929Y75081D01*
X33951Y75010D01*
Y74597D01*
X33929Y74525D01*
X33581Y74293D01*
X33255Y73804D01*
X33140Y73228D01*
X33255Y72652D01*
X33581Y72164D01*
X34070Y71838D01*
X34646Y71723D01*
X35222Y71838D01*
X35710Y72164D01*
X35943Y72512D01*
X36014Y72534D01*
X36427D01*
X36498Y72512D01*
X36731Y72164D01*
X37219Y71838D01*
X37795Y71723D01*
X38371Y71838D01*
X38860Y72164D01*
X39092Y72512D01*
X39164Y72534D01*
X39577D01*
X39648Y72512D01*
X39880Y72164D01*
X40234Y71928D01*
X40253Y71867D01*
X40258Y71455D01*
X40234Y71372D01*
X39891Y71143D01*
X39565Y70655D01*
X39451Y70079D01*
X39565Y69503D01*
X39891Y69014D01*
X40380Y68688D01*
X40956Y68573D01*
X41532Y68688D01*
X42020Y69014D01*
X42347Y69503D01*
X42461Y70079D01*
X42347Y70655D01*
X42020Y71143D01*
X41667Y71379D01*
X41647Y71440D01*
X41643Y71852D01*
X41667Y71935D01*
X42009Y72164D01*
X42336Y72652D01*
X42450Y73228D01*
X42336Y73804D01*
X42009Y74293D01*
X41661Y74525D01*
X41640Y74597D01*
Y75010D01*
X41661Y75081D01*
X42009Y75314D01*
X42336Y75802D01*
X42450Y76378D01*
X42336Y76954D01*
X42009Y77442D01*
X41802Y77581D01*
Y79901D01*
X42302Y80108D01*
X42638Y79772D01*
X42589Y79528D01*
X42704Y78952D01*
X43030Y78463D01*
X43518Y78137D01*
X44094Y78022D01*
X44671Y78137D01*
X45159Y78463D01*
X45485Y78952D01*
X45600Y79528D01*
X45485Y80104D01*
X45159Y80592D01*
X44671Y80918D01*
X44094Y81033D01*
X43850Y80984D01*
X43411Y81423D01*
X43411Y81424D01*
X43366Y81532D01*
X43366Y81532D01*
Y83289D01*
X43377Y83345D01*
Y83465D01*
X43312Y83793D01*
X43126Y84071D01*
X39976Y87220D01*
X39698Y87406D01*
X39370Y87471D01*
X33032D01*
X29346Y91157D01*
X29068Y91343D01*
X28740Y91408D01*
X22402D01*
X16354Y97456D01*
X16076Y97642D01*
X15748Y97707D01*
D02*
G37*
G36*
X59842Y81033D02*
X59267Y80918D01*
X58778Y80592D01*
X58452Y80104D01*
X58337Y79528D01*
X58452Y78952D01*
X58778Y78463D01*
X59267Y78137D01*
X59842Y78022D01*
X60419Y78137D01*
X60907Y78463D01*
X61233Y78952D01*
X61348Y79528D01*
X61233Y80104D01*
X60907Y80592D01*
X60419Y80918D01*
X59842Y81033D01*
D02*
G37*
G36*
X81890Y79064D02*
X81314Y78950D01*
X80825Y78623D01*
X80499Y78135D01*
X80384Y77559D01*
X80499Y76983D01*
X80825Y76495D01*
X81314Y76168D01*
X81890Y76054D01*
X82466Y76168D01*
X82954Y76495D01*
X83280Y76983D01*
X83395Y77559D01*
X83280Y78135D01*
X82954Y78623D01*
X82466Y78950D01*
X81890Y79064D01*
D02*
G37*
G36*
X53504Y80994D02*
X52928Y80879D01*
X52440Y80553D01*
X52114Y80065D01*
X51999Y79489D01*
X52114Y78913D01*
X52440Y78424D01*
X52774Y78201D01*
X52794Y77688D01*
X52778Y77643D01*
X52479Y77442D01*
X52153Y76954D01*
X52038Y76378D01*
X52153Y75802D01*
X52479Y75314D01*
X52967Y74987D01*
X53543Y74873D01*
X54119Y74987D01*
X54608Y75314D01*
X54840Y75662D01*
X54912Y75683D01*
X55325Y75683D01*
X55396Y75662D01*
X55629Y75314D01*
X56117Y74987D01*
X56693Y74873D01*
X57269Y74987D01*
X57757Y75314D01*
X58084Y75802D01*
X58198Y76378D01*
X58084Y76954D01*
X57757Y77442D01*
X57269Y77769D01*
X56693Y77883D01*
X56117Y77769D01*
X55629Y77442D01*
X55396Y77094D01*
X55325Y77073D01*
X54912Y77073D01*
X54840Y77094D01*
X54608Y77442D01*
X54274Y77665D01*
X54254Y78178D01*
X54269Y78224D01*
X54569Y78424D01*
X54895Y78913D01*
X55010Y79489D01*
X54895Y80065D01*
X54569Y80553D01*
X54080Y80879D01*
X53504Y80994D01*
D02*
G37*
G36*
X85039Y75521D02*
X84463Y75406D01*
X83975Y75080D01*
X83649Y74592D01*
X83534Y74016D01*
X83649Y73440D01*
X83975Y72951D01*
X84463Y72625D01*
X85039Y72510D01*
X85615Y72625D01*
X86104Y72951D01*
X86430Y73440D01*
X86545Y74016D01*
X86430Y74592D01*
X86104Y75080D01*
X85615Y75406D01*
X85039Y75521D01*
D02*
G37*
G36*
X20866Y75127D02*
X20290Y75013D01*
X19802Y74686D01*
X19475Y74198D01*
X19361Y73622D01*
X19475Y73046D01*
X19802Y72558D01*
X20290Y72231D01*
X20866Y72117D01*
X21442Y72231D01*
X21930Y72558D01*
X22257Y73046D01*
X22371Y73622D01*
X22257Y74198D01*
X21930Y74686D01*
X21442Y75013D01*
X20866Y75127D01*
D02*
G37*
G36*
X27953Y73159D02*
X27377Y73044D01*
X26888Y72718D01*
X26562Y72230D01*
X26447Y71653D01*
X26562Y71078D01*
X26888Y70589D01*
X27377Y70263D01*
X27953Y70148D01*
X28529Y70263D01*
X29017Y70589D01*
X29344Y71078D01*
X29458Y71653D01*
X29344Y72230D01*
X29017Y72718D01*
X28529Y73044D01*
X27953Y73159D01*
D02*
G37*
G36*
X81890Y71978D02*
X81314Y71863D01*
X80825Y71537D01*
X80499Y71048D01*
X80384Y70472D01*
X80499Y69896D01*
X80825Y69408D01*
X81314Y69082D01*
X81890Y68967D01*
X82466Y69082D01*
X82954Y69408D01*
X83280Y69896D01*
X83395Y70472D01*
X83280Y71048D01*
X82954Y71537D01*
X82466Y71863D01*
X81890Y71978D01*
D02*
G37*
G36*
X59842Y74734D02*
X59267Y74619D01*
X58778Y74293D01*
X58452Y73804D01*
X58337Y73228D01*
X58452Y72652D01*
X58778Y72164D01*
X59126Y71931D01*
X59148Y71860D01*
X59148Y71447D01*
X59126Y71376D01*
X58778Y71143D01*
X58452Y70655D01*
X58337Y70079D01*
X58452Y69503D01*
X58778Y69014D01*
X59267Y68688D01*
X59843Y68573D01*
X60419Y68688D01*
X60907Y69014D01*
X61146Y69373D01*
X61198Y69390D01*
X61610Y69398D01*
X61702Y69373D01*
X61928Y69035D01*
X62416Y68708D01*
X62992Y68594D01*
X63568Y68708D01*
X64057Y69035D01*
X64383Y69523D01*
X64497Y70099D01*
X64383Y70675D01*
X64057Y71164D01*
X63568Y71490D01*
X62992Y71605D01*
X62416Y71490D01*
X61928Y71164D01*
X61688Y70805D01*
X61637Y70788D01*
X61225Y70780D01*
X61133Y70805D01*
X60907Y71143D01*
X60559Y71376D01*
X60537Y71447D01*
X60537Y71860D01*
X60559Y71931D01*
X60907Y72164D01*
X61233Y72652D01*
X61348Y73228D01*
X61233Y73804D01*
X60907Y74293D01*
X60419Y74619D01*
X59842Y74734D01*
D02*
G37*
G36*
X69291Y68434D02*
X68715Y68320D01*
X68227Y67993D01*
X67901Y67505D01*
X67786Y66929D01*
X67901Y66353D01*
X68227Y65865D01*
X68715Y65538D01*
X69291Y65424D01*
X69867Y65538D01*
X70356Y65865D01*
X70682Y66353D01*
X70797Y66929D01*
X70682Y67505D01*
X70356Y67993D01*
X69867Y68320D01*
X69291Y68434D01*
D02*
G37*
G36*
X85039Y68041D02*
X84463Y67926D01*
X83975Y67600D01*
X83649Y67111D01*
X83534Y66535D01*
X83649Y65959D01*
X83975Y65471D01*
X84463Y65145D01*
X85039Y65030D01*
X85615Y65145D01*
X86104Y65471D01*
X86430Y65959D01*
X86545Y66535D01*
X86430Y67111D01*
X86104Y67600D01*
X85615Y67926D01*
X85039Y68041D01*
D02*
G37*
G36*
X40956Y65285D02*
X40380Y65170D01*
X39891Y64844D01*
X39648Y64479D01*
X39531Y64449D01*
X39209D01*
X39092Y64479D01*
X38849Y64844D01*
X38360Y65170D01*
X37784Y65285D01*
X37208Y65170D01*
X36720Y64844D01*
X36493Y64504D01*
X36440Y64487D01*
X35990D01*
X35937Y64504D01*
X35710Y64844D01*
X35222Y65170D01*
X34646Y65285D01*
X34070Y65170D01*
X33581Y64844D01*
X33255Y64356D01*
X33140Y63779D01*
X33255Y63204D01*
X33581Y62715D01*
X34070Y62389D01*
X34646Y62274D01*
X35222Y62389D01*
X35710Y62715D01*
X35937Y63055D01*
X35990Y63072D01*
X36440D01*
X36493Y63055D01*
X36720Y62715D01*
X37208Y62389D01*
X37784Y62274D01*
X38360Y62389D01*
X38849Y62715D01*
X39092Y63080D01*
X39209Y63110D01*
X39531D01*
X39648Y63080D01*
X39891Y62715D01*
X40234Y62486D01*
X40258Y62404D01*
X40253Y61991D01*
X40234Y61931D01*
X39880Y61694D01*
X39554Y61206D01*
X39440Y60630D01*
X39554Y60054D01*
X39880Y59566D01*
X40229Y59333D01*
X40250Y59262D01*
Y58849D01*
X40229Y58777D01*
X39880Y58545D01*
X39554Y58056D01*
X39440Y57480D01*
X39554Y56904D01*
X39880Y56416D01*
X40369Y56090D01*
X40945Y55975D01*
X41521Y56090D01*
X42009Y56416D01*
X42336Y56904D01*
X42450Y57480D01*
X42336Y58056D01*
X42009Y58545D01*
X41661Y58777D01*
X41640Y58849D01*
Y59262D01*
X41661Y59333D01*
X42009Y59566D01*
X42246Y59919D01*
X42306Y59938D01*
X42719Y59943D01*
X42801Y59919D01*
X43030Y59577D01*
X43518Y59250D01*
X44094Y59136D01*
X44671Y59250D01*
X45159Y59577D01*
X45485Y60065D01*
X45600Y60641D01*
X45485Y61217D01*
X45159Y61705D01*
X44671Y62032D01*
X44094Y62146D01*
X43518Y62032D01*
X43030Y61705D01*
X42794Y61352D01*
X42733Y61332D01*
X42321Y61328D01*
X42238Y61352D01*
X42009Y61694D01*
X41667Y61923D01*
X41643Y62006D01*
X41647Y62418D01*
X41667Y62479D01*
X42020Y62715D01*
X42347Y63204D01*
X42461Y63779D01*
X42347Y64356D01*
X42020Y64844D01*
X41532Y65170D01*
X40956Y65285D01*
D02*
G37*
G36*
X59843D02*
X59267Y65170D01*
X58778Y64844D01*
X58452Y64356D01*
X58337Y63779D01*
X58452Y63204D01*
X58778Y62715D01*
X59267Y62389D01*
X59843Y62274D01*
X60419Y62389D01*
X60907Y62715D01*
X61233Y63204D01*
X61348Y63779D01*
X61233Y64356D01*
X60907Y64844D01*
X60419Y65170D01*
X59843Y65285D01*
D02*
G37*
G36*
X53554D02*
X52978Y65170D01*
X52490Y64844D01*
X52164Y64356D01*
X52049Y63779D01*
X52164Y63204D01*
X52490Y62715D01*
X52833Y62486D01*
X52856Y62404D01*
X52852Y61991D01*
X52833Y61931D01*
X52479Y61694D01*
X52250Y61352D01*
X52167Y61328D01*
X51755Y61332D01*
X51694Y61352D01*
X51458Y61705D01*
X50970Y62032D01*
X50394Y62146D01*
X49818Y62032D01*
X49329Y61705D01*
X49003Y61217D01*
X48888Y60641D01*
X49003Y60065D01*
X49329Y59577D01*
X49694Y59333D01*
X49725Y59216D01*
Y58894D01*
X49694Y58777D01*
X49329Y58534D01*
X49003Y58045D01*
X48888Y57469D01*
X49003Y56893D01*
X49329Y56405D01*
X49818Y56079D01*
X50394Y55964D01*
X50970Y56079D01*
X51458Y56405D01*
X51784Y56893D01*
X51899Y57469D01*
X51784Y58045D01*
X51458Y58534D01*
X51094Y58777D01*
X51063Y58894D01*
Y59216D01*
X51094Y59333D01*
X51458Y59577D01*
X51687Y59919D01*
X51770Y59943D01*
X52182Y59938D01*
X52243Y59919D01*
X52479Y59566D01*
X52967Y59239D01*
X53543Y59125D01*
X54119Y59239D01*
X54608Y59566D01*
X54840Y59914D01*
X54912Y59935D01*
X55325D01*
X55396Y59914D01*
X55629Y59566D01*
X56117Y59239D01*
X56693Y59125D01*
X57269Y59239D01*
X57757Y59566D01*
X58084Y60054D01*
X58198Y60630D01*
X58084Y61206D01*
X57757Y61694D01*
X57269Y62021D01*
X56693Y62135D01*
X56117Y62021D01*
X55629Y61694D01*
X55396Y61346D01*
X55325Y61325D01*
X54912D01*
X54840Y61346D01*
X54608Y61694D01*
X54265Y61923D01*
X54241Y62006D01*
X54246Y62418D01*
X54265Y62479D01*
X54619Y62715D01*
X54945Y63204D01*
X55060Y63779D01*
X54945Y64356D01*
X54619Y64844D01*
X54130Y65170D01*
X53554Y65285D01*
D02*
G37*
G36*
X69291Y62135D02*
X68715Y62021D01*
X68227Y61694D01*
X67901Y61206D01*
X67786Y60630D01*
X67901Y60054D01*
X68227Y59566D01*
X68715Y59239D01*
X69291Y59125D01*
X69867Y59239D01*
X70356Y59566D01*
X70682Y60054D01*
X70797Y60630D01*
X70682Y61206D01*
X70356Y61694D01*
X69867Y62021D01*
X69291Y62135D01*
D02*
G37*
G36*
X27953D02*
X27377Y62021D01*
X26888Y61694D01*
X26562Y61206D01*
X26447Y60630D01*
X26562Y60054D01*
X26888Y59566D01*
X27377Y59239D01*
X27953Y59125D01*
X28529Y59239D01*
X29017Y59566D01*
X29344Y60054D01*
X29458Y60630D01*
X29344Y61206D01*
X29017Y61694D01*
X28529Y62021D01*
X27953Y62135D01*
D02*
G37*
G36*
X72047Y58592D02*
X71471Y58477D01*
X70983Y58151D01*
X70749D01*
X70261Y58477D01*
X69685Y58592D01*
X69109Y58477D01*
X68621Y58151D01*
X68294Y57663D01*
X68180Y57087D01*
X68294Y56511D01*
X68621Y56022D01*
X69109Y55696D01*
X69685Y55581D01*
X70261Y55696D01*
X70749Y56022D01*
X70983D01*
X71471Y55696D01*
X72047Y55581D01*
X72623Y55696D01*
X73112Y56022D01*
X73438Y56511D01*
X73553Y57087D01*
X73438Y57663D01*
X73112Y58151D01*
X72623Y58477D01*
X72047Y58592D01*
D02*
G37*
G36*
X81201Y57312D02*
X80625Y57198D01*
X80136Y56871D01*
X79810Y56383D01*
X79695Y55807D01*
X79810Y55231D01*
X80136Y54743D01*
X80625Y54416D01*
X81201Y54302D01*
X81777Y54416D01*
X82265Y54743D01*
X82591Y55231D01*
X82706Y55807D01*
X82591Y56383D01*
X82265Y56871D01*
X81777Y57198D01*
X81201Y57312D01*
D02*
G37*
G36*
X59843Y55836D02*
X59267Y55721D01*
X58778Y55395D01*
X58452Y54907D01*
X58337Y54331D01*
X58452Y53755D01*
X58778Y53266D01*
X59267Y52940D01*
X59843Y52825D01*
X60419Y52940D01*
X60907Y53266D01*
X61233Y53755D01*
X61348Y54331D01*
X61233Y54907D01*
X60907Y55395D01*
X60419Y55721D01*
X59843Y55836D01*
D02*
G37*
G36*
X53543D02*
X52967Y55721D01*
X52479Y55395D01*
X52153Y54907D01*
X52038Y54331D01*
X52153Y53755D01*
X52479Y53266D01*
X52967Y52940D01*
X53543Y52825D01*
X54119Y52940D01*
X54608Y53266D01*
X54934Y53755D01*
X55049Y54331D01*
X54934Y54907D01*
X54608Y55395D01*
X54119Y55721D01*
X53543Y55836D01*
D02*
G37*
G36*
X34646Y58986D02*
X34070Y58871D01*
X33581Y58545D01*
X33255Y58056D01*
X33140Y57480D01*
X33255Y56904D01*
X33581Y56416D01*
X33929Y56183D01*
X33951Y56112D01*
Y55699D01*
X33929Y55628D01*
X33581Y55395D01*
X33255Y54907D01*
X33140Y54331D01*
X33255Y53755D01*
X33581Y53266D01*
X34070Y52940D01*
X34646Y52825D01*
X35222Y52940D01*
X35710Y53266D01*
X36036Y53755D01*
X36151Y54331D01*
X36036Y54907D01*
X35710Y55395D01*
X35362Y55628D01*
X35340Y55699D01*
Y56112D01*
X35362Y56183D01*
X35710Y56416D01*
X36036Y56904D01*
X36151Y57480D01*
X36036Y58056D01*
X35710Y58545D01*
X35222Y58871D01*
X34646Y58986D01*
D02*
G37*
G36*
X72047Y54655D02*
X71471Y54540D01*
X70983Y54214D01*
X70657Y53726D01*
X70542Y53150D01*
X70657Y52574D01*
X70983Y52085D01*
X71471Y51759D01*
X72047Y51644D01*
X72623Y51759D01*
X73112Y52085D01*
X73438Y52574D01*
X73553Y53150D01*
X73438Y53726D01*
X73112Y54214D01*
X72623Y54540D01*
X72047Y54655D01*
D02*
G37*
G36*
X78937Y54458D02*
X78361Y54343D01*
X77873Y54017D01*
X77546Y53529D01*
X77432Y52953D01*
X77546Y52377D01*
X77873Y51888D01*
X78361Y51562D01*
X78937Y51447D01*
X79513Y51562D01*
X80001Y51888D01*
X80328Y52377D01*
X80442Y52953D01*
X80328Y53529D01*
X80001Y54017D01*
X79513Y54343D01*
X78937Y54458D01*
D02*
G37*
G36*
X27953Y53474D02*
X27377Y53359D01*
X26888Y53033D01*
X26562Y52545D01*
X26447Y51968D01*
X26562Y51392D01*
X26888Y50904D01*
X27377Y50578D01*
X27953Y50463D01*
X28529Y50578D01*
X29017Y50904D01*
X29344Y51392D01*
X29458Y51968D01*
X29344Y52545D01*
X29017Y53033D01*
X28529Y53359D01*
X27953Y53474D01*
D02*
G37*
G36*
X50414Y52686D02*
X49838Y52572D01*
X49350Y52245D01*
X49024Y51757D01*
X48909Y51181D01*
X49024Y50605D01*
X49350Y50117D01*
X49838Y49790D01*
X50414Y49676D01*
X50990Y49790D01*
X51479Y50117D01*
X51805Y50605D01*
X51920Y51181D01*
X51805Y51757D01*
X51479Y52245D01*
X50990Y52572D01*
X50414Y52686D01*
D02*
G37*
G36*
X44094Y52686D02*
X43518Y52572D01*
X43030Y52245D01*
X42704Y51757D01*
X42589Y51181D01*
X42704Y50605D01*
X43030Y50117D01*
X43518Y49790D01*
X44094Y49676D01*
X44671Y49790D01*
X45159Y50117D01*
X45485Y50605D01*
X45600Y51181D01*
X45485Y51757D01*
X45159Y52245D01*
X44671Y52572D01*
X44094Y52686D01*
D02*
G37*
G36*
X40945Y49537D02*
X40369Y49422D01*
X39880Y49096D01*
X39554Y48608D01*
X39440Y48031D01*
X39554Y47455D01*
X39880Y46967D01*
X40369Y46641D01*
X40945Y46526D01*
X41521Y46641D01*
X42009Y46967D01*
X42336Y47455D01*
X42450Y48031D01*
X42336Y48608D01*
X42009Y49096D01*
X41521Y49422D01*
X40945Y49537D01*
D02*
G37*
G36*
X37008Y47175D02*
X36432Y47060D01*
X35943Y46734D01*
X35617Y46245D01*
X35543Y45872D01*
X35332Y45618D01*
X35021Y45525D01*
X34646Y45600D01*
X34070Y45485D01*
X33581Y45159D01*
X33255Y44671D01*
X33140Y44094D01*
X33255Y43518D01*
X33581Y43030D01*
X34070Y42704D01*
X34646Y42589D01*
X35222Y42704D01*
X35710Y43030D01*
X36036Y43518D01*
X36111Y43892D01*
X36321Y44146D01*
X36632Y44239D01*
X37008Y44164D01*
X37584Y44279D01*
X38072Y44605D01*
X38399Y45093D01*
X38513Y45669D01*
X38399Y46245D01*
X38072Y46734D01*
X37584Y47060D01*
X37008Y47175D01*
D02*
G37*
G36*
X16532Y46291D02*
X14417D01*
Y44177D01*
X14611Y44202D01*
X15258Y44470D01*
X15813Y44896D01*
X16239Y45451D01*
X16506Y46098D01*
X16532Y46291D01*
D02*
G37*
G36*
X8417D02*
X6303D01*
X6328Y46098D01*
X6596Y45451D01*
X7022Y44896D01*
X7577Y44470D01*
X8224Y44202D01*
X8417Y44177D01*
Y46291D01*
D02*
G37*
G36*
X82284Y45600D02*
X81707Y45485D01*
X81219Y45159D01*
X80893Y44671D01*
X80778Y44094D01*
X80893Y43518D01*
X81219Y43030D01*
X81707Y42704D01*
X82284Y42589D01*
X82859Y42704D01*
X83348Y43030D01*
X83674Y43518D01*
X83789Y44094D01*
X83674Y44671D01*
X83348Y45159D01*
X82859Y45485D01*
X82284Y45600D01*
D02*
G37*
G36*
X88878Y47118D02*
X88302Y47003D01*
X87814Y46677D01*
X87487Y46189D01*
X87373Y45613D01*
X87487Y45037D01*
X87783Y44594D01*
X87487Y44150D01*
X87373Y43574D01*
X87487Y42998D01*
X87814Y42510D01*
X88302Y42183D01*
X88878Y42069D01*
X89454Y42183D01*
X89942Y42510D01*
X90269Y42998D01*
X90383Y43574D01*
X90269Y44150D01*
X89973Y44594D01*
X90269Y45037D01*
X90383Y45613D01*
X90269Y46189D01*
X89942Y46677D01*
X89454Y47003D01*
X88878Y47118D01*
D02*
G37*
G36*
X52362Y44812D02*
X51786Y44698D01*
X51298Y44372D01*
X50972Y43883D01*
X50857Y43307D01*
X50972Y42731D01*
X51298Y42243D01*
X51786Y41916D01*
X52362Y41802D01*
X52938Y41916D01*
X53427Y42243D01*
X53753Y42731D01*
X53868Y43307D01*
X53753Y43883D01*
X53427Y44372D01*
X52938Y44698D01*
X52362Y44812D01*
D02*
G37*
G36*
X25197Y42057D02*
X24621Y41942D01*
X24133Y41616D01*
X23806Y41127D01*
X23692Y40551D01*
X23806Y39975D01*
X24133Y39487D01*
X24621Y39160D01*
X25197Y39046D01*
X25773Y39160D01*
X26261Y39487D01*
X26588Y39975D01*
X26702Y40551D01*
X26588Y41127D01*
X26261Y41616D01*
X25773Y41942D01*
X25197Y42057D01*
D02*
G37*
G36*
X28740Y37332D02*
X28164Y37218D01*
X27676Y36891D01*
X27349Y36403D01*
X27235Y35827D01*
X27349Y35251D01*
X27676Y34762D01*
X28164Y34436D01*
X28740Y34321D01*
X29316Y34436D01*
X29805Y34762D01*
X30131Y35251D01*
X30245Y35827D01*
X30131Y36403D01*
X29805Y36891D01*
X29316Y37218D01*
X28740Y37332D01*
D02*
G37*
G36*
X21654D02*
X21078Y37218D01*
X20589Y36891D01*
X20263Y36403D01*
X20148Y35827D01*
X20263Y35251D01*
X20589Y34762D01*
X21078Y34436D01*
X21654Y34321D01*
X22230Y34436D01*
X22718Y34762D01*
X23044Y35251D01*
X23159Y35827D01*
X23044Y36403D01*
X22718Y36891D01*
X22230Y37218D01*
X21654Y37332D01*
D02*
G37*
G36*
X41339Y36151D02*
X40763Y36036D01*
X40274Y35710D01*
X39948Y35222D01*
X39833Y34646D01*
X39948Y34070D01*
X40274Y33581D01*
X40763Y33255D01*
X41339Y33140D01*
X41915Y33255D01*
X42403Y33581D01*
X42729Y34070D01*
X42844Y34646D01*
X42729Y35222D01*
X42403Y35710D01*
X41915Y36036D01*
X41339Y36151D01*
D02*
G37*
G36*
X58661Y33893D02*
X58085Y33779D01*
X57597Y33453D01*
X57271Y32964D01*
X57156Y32388D01*
X57271Y31812D01*
X57597Y31324D01*
X58085Y30997D01*
X58661Y30883D01*
X59237Y30997D01*
X59726Y31324D01*
X60052Y31812D01*
X60167Y32388D01*
X60052Y32964D01*
X59726Y33453D01*
X59237Y33779D01*
X58661Y33893D01*
D02*
G37*
G36*
X65354Y33789D02*
X64778Y33674D01*
X64290Y33348D01*
X63964Y32860D01*
X63849Y32283D01*
X63964Y31707D01*
X64290Y31219D01*
X64778Y30893D01*
X65354Y30778D01*
X65930Y30893D01*
X66419Y31219D01*
X66745Y31707D01*
X66860Y32283D01*
X66745Y32860D01*
X66419Y33348D01*
X65930Y33674D01*
X65354Y33789D01*
D02*
G37*
G36*
X13417Y29918D02*
X13224Y29892D01*
X12577Y29625D01*
X12022Y29199D01*
X11715Y28799D01*
X11596Y28760D01*
X11238D01*
X11119Y28799D01*
X10813Y29199D01*
X10257Y29625D01*
X9611Y29892D01*
X9417Y29918D01*
Y27303D01*
X8917D01*
Y26803D01*
X6303D01*
X6328Y26609D01*
X6596Y25963D01*
X7022Y25408D01*
X7256Y25228D01*
X7268Y25205D01*
X7238Y24612D01*
X6882Y24339D01*
X6424Y23743D01*
X6137Y23048D01*
X6038Y22303D01*
X6137Y21558D01*
X6424Y20864D01*
X6882Y20267D01*
X7478Y19810D01*
X8172Y19522D01*
X8917Y19424D01*
X9662Y19522D01*
X10357Y19810D01*
X10953Y20267D01*
X11102Y20462D01*
X11732D01*
X11882Y20267D01*
X12478Y19810D01*
X13172Y19522D01*
X13917Y19424D01*
X14662Y19522D01*
X15357Y19810D01*
X15953Y20267D01*
X16411Y20864D01*
X16698Y21558D01*
X16796Y22303D01*
X16698Y23048D01*
X16411Y23743D01*
X15953Y24339D01*
X15597Y24612D01*
X15567Y25205D01*
X15578Y25228D01*
X15813Y25408D01*
X16239Y25963D01*
X16506Y26609D01*
X16532Y26803D01*
X13917D01*
Y27303D01*
X13417D01*
Y29918D01*
D02*
G37*
G36*
X14417Y29918D02*
Y27803D01*
X16532D01*
X16506Y27997D01*
X16239Y28643D01*
X15813Y29199D01*
X15258Y29625D01*
X14611Y29892D01*
X14417Y29918D01*
D02*
G37*
G36*
X8417Y29918D02*
X8224Y29892D01*
X7577Y29625D01*
X7022Y29199D01*
X6596Y28643D01*
X6328Y27997D01*
X6303Y27803D01*
X8417D01*
Y29918D01*
D02*
G37*
G36*
X69685Y28084D02*
X69032Y27954D01*
X68479Y27584D01*
X68109Y27031D01*
X67979Y26378D01*
X68109Y25725D01*
X68479Y25172D01*
X69032Y24802D01*
X69685Y24672D01*
X70338Y24802D01*
X70891Y25172D01*
X71261Y25725D01*
X71391Y26378D01*
X71261Y27031D01*
X70891Y27584D01*
X70338Y27954D01*
X69685Y28084D01*
D02*
G37*
G36*
X22835Y29158D02*
X22115Y29063D01*
X21445Y28785D01*
X20869Y28343D01*
X20427Y27768D01*
X20150Y27097D01*
X20055Y26378D01*
X20150Y25659D01*
X20427Y24988D01*
X20869Y24412D01*
X21445Y23971D01*
X22115Y23693D01*
X22835Y23598D01*
X23554Y23693D01*
X24225Y23971D01*
X24800Y24412D01*
X25242Y24988D01*
X25520Y25659D01*
X25614Y26378D01*
X25520Y27097D01*
X25242Y27768D01*
X24800Y28343D01*
X24225Y28785D01*
X23554Y29063D01*
X22835Y29158D01*
D02*
G37*
G36*
X28839Y25816D02*
X28262Y25702D01*
X27774Y25375D01*
X27448Y24887D01*
X27333Y24311D01*
X27448Y23735D01*
X27774Y23247D01*
X28262Y22920D01*
X28839Y22806D01*
X29415Y22920D01*
X29903Y23247D01*
X30229Y23735D01*
X30344Y24311D01*
X30229Y24887D01*
X29903Y25375D01*
X29415Y25702D01*
X28839Y25816D01*
D02*
G37*
G36*
X49607Y24541D02*
X48954Y24411D01*
X48400Y24041D01*
X48030Y23488D01*
X47901Y22835D01*
X48030Y22182D01*
X48400Y21629D01*
X48954Y21259D01*
X49607Y21129D01*
X50260Y21259D01*
X50813Y21629D01*
X51183Y22182D01*
X51313Y22835D01*
X51183Y23488D01*
X50813Y24041D01*
X50260Y24411D01*
X49607Y24541D01*
D02*
G37*
G36*
X69685Y20210D02*
X69032Y20080D01*
X68479Y19710D01*
X68109Y19157D01*
X67979Y18504D01*
X68109Y17851D01*
X68479Y17298D01*
X69032Y16928D01*
X69685Y16798D01*
X70338Y16928D01*
X70891Y17298D01*
X71261Y17851D01*
X71391Y18504D01*
X71261Y19157D01*
X70891Y19710D01*
X70338Y20080D01*
X69685Y20210D01*
D02*
G37*
G36*
X22835Y21284D02*
X22115Y21189D01*
X21445Y20911D01*
X20869Y20470D01*
X20427Y19894D01*
X20150Y19223D01*
X20055Y18504D01*
X20150Y17785D01*
X20427Y17114D01*
X20869Y16538D01*
X21445Y16097D01*
X22115Y15819D01*
X22835Y15724D01*
X23554Y15819D01*
X24225Y16097D01*
X24800Y16538D01*
X25242Y17114D01*
X25520Y17785D01*
X25614Y18504D01*
X25520Y19223D01*
X25242Y19894D01*
X24800Y20470D01*
X24225Y20911D01*
X23554Y21189D01*
X22835Y21284D01*
D02*
G37*
G36*
X38780Y18139D02*
X38203Y18025D01*
X37715Y17698D01*
X37389Y17210D01*
X37274Y16634D01*
X37389Y16058D01*
X37715Y15570D01*
X38203Y15243D01*
X38780Y15129D01*
X39356Y15243D01*
X39844Y15570D01*
X40170Y16058D01*
X40285Y16634D01*
X40170Y17210D01*
X39844Y17698D01*
X39356Y18025D01*
X38780Y18139D01*
D02*
G37*
G36*
X30709Y15678D02*
X30133Y15564D01*
X29644Y15238D01*
X29318Y14749D01*
X29203Y14173D01*
X29318Y13597D01*
X29644Y13109D01*
X30133Y12783D01*
X30709Y12668D01*
X31285Y12783D01*
X31773Y13109D01*
X32099Y13597D01*
X32214Y14173D01*
X32099Y14749D01*
X31773Y15238D01*
X31285Y15564D01*
X30709Y15678D01*
D02*
G37*
G36*
X38209Y11835D02*
X37489Y11740D01*
X36819Y11462D01*
X36243Y11021D01*
X36018Y10728D01*
X35399D01*
X35174Y11021D01*
X34598Y11462D01*
X33928Y11740D01*
X33209Y11835D01*
X32489Y11740D01*
X31819Y11462D01*
X31243Y11021D01*
X31018Y10728D01*
X30399D01*
X30174Y11021D01*
X29599Y11462D01*
X28928Y11740D01*
X28209Y11835D01*
X27489Y11740D01*
X26819Y11462D01*
X26243Y11021D01*
X26018Y10728D01*
X25399D01*
X25174Y11021D01*
X24599Y11462D01*
X23928Y11740D01*
X23209Y11835D01*
X22489Y11740D01*
X21819Y11462D01*
X21465Y11191D01*
X20965Y11437D01*
Y11811D01*
X15453D01*
Y6299D01*
X20965D01*
Y6673D01*
X21465Y6920D01*
X21819Y6648D01*
X22489Y6370D01*
X23209Y6276D01*
X23928Y6370D01*
X24599Y6648D01*
X25174Y7090D01*
X25399Y7383D01*
X26018D01*
X26243Y7090D01*
X26819Y6648D01*
X27489Y6370D01*
X28209Y6276D01*
X28928Y6370D01*
X29599Y6648D01*
X30174Y7090D01*
X30399Y7383D01*
X31018D01*
X31243Y7090D01*
X31819Y6648D01*
X32489Y6370D01*
X33209Y6276D01*
X33928Y6370D01*
X34598Y6648D01*
X35174Y7090D01*
X35399Y7383D01*
X36018D01*
X36243Y7090D01*
X36819Y6648D01*
X37489Y6370D01*
X38209Y6276D01*
X38928Y6370D01*
X39599Y6648D01*
X40174Y7090D01*
X40399Y7383D01*
X41018D01*
X41243Y7090D01*
X41819Y6648D01*
X42489Y6370D01*
X42709Y6341D01*
Y9055D01*
Y11769D01*
X42489Y11740D01*
X41819Y11462D01*
X41243Y11021D01*
X41018Y10728D01*
X40399D01*
X40174Y11021D01*
X39599Y11462D01*
X38928Y11740D01*
X38209Y11835D01*
D02*
G37*
G36*
X43709Y11769D02*
Y9555D01*
X45922D01*
X45894Y9775D01*
X45616Y10445D01*
X45174Y11021D01*
X44598Y11462D01*
X43928Y11740D01*
X43709Y11769D01*
D02*
G37*
G36*
X45922Y8555D02*
X43709D01*
Y6341D01*
X43928Y6370D01*
X44598Y6648D01*
X45174Y7090D01*
X45616Y7665D01*
X45894Y8336D01*
X45922Y8555D01*
D02*
G37*
%LPD*%
D53*
X43209Y9055D02*
D03*
D55*
X42509Y81424D02*
G03*
X42728Y80894I750J0D01*
G01*
X15748Y96850D02*
X22047Y90551D01*
X28740D01*
X32677Y86614D01*
X6299Y96850D02*
X15748D01*
X14764Y95276D02*
X21063Y88976D01*
X27953D01*
X31890Y85039D01*
X7874Y95276D02*
X14764D01*
X13917Y86791D02*
X16063Y84646D01*
X29921D01*
X36220Y81102D02*
X37795Y79528D01*
X27165Y81102D02*
X36220D01*
X26476Y81791D02*
X27165Y81102D01*
X13917Y81791D02*
X26476D01*
X37764Y82677D02*
X37795D01*
X36976Y83465D02*
X37764Y82677D01*
X31102Y83465D02*
X36976D01*
X29921Y84646D02*
X31102Y83465D01*
X31890Y85039D02*
X38583D01*
X40945Y76378D02*
Y82677D01*
X38583Y85039D02*
X40945Y82677D01*
X32677Y86614D02*
X39370D01*
X5512Y92913D02*
X7874Y95276D01*
X5512Y88976D02*
Y92913D01*
Y88976D02*
X7002Y87487D01*
X8169D01*
X8917Y86791D01*
X42728Y80894D02*
X44094Y79528D01*
X42509Y81424D02*
Y83334D01*
X42520Y83345D01*
Y83465D01*
X39370Y86614D02*
X42520Y83465D01*
X3937Y94488D02*
X6299Y96850D01*
X3937Y87165D02*
Y94488D01*
Y87165D02*
X4331Y86772D01*
X8702Y82401D01*
X8917Y81791D01*
D61*
X61811Y11614D02*
D03*
X87795D02*
D03*
D62*
X8917Y81791D02*
D03*
X13917D02*
D03*
Y46791D02*
D03*
X8917D02*
D03*
X13917Y86791D02*
D03*
X8917D02*
D03*
X13917Y27303D02*
D03*
X8917D02*
D03*
X88721Y151417D02*
D03*
Y171417D02*
D03*
X70217Y151417D02*
D03*
Y171417D02*
D03*
X51713Y151417D02*
D03*
Y171417D02*
D03*
X32815Y151417D02*
D03*
Y171417D02*
D03*
X13917Y151417D02*
D03*
Y171417D02*
D03*
D63*
X53543Y28346D02*
D03*
X83081Y20814D02*
D03*
X79921Y26483D02*
D03*
X19685Y126772D02*
D03*
X79921Y18504D02*
D03*
X56766Y82677D02*
D03*
X47244Y48031D02*
D03*
X37795Y82677D02*
D03*
X56693Y70079D02*
D03*
X25197Y29331D02*
D03*
X28642Y20472D02*
D03*
X85039Y45669D02*
D03*
X78741Y30709D02*
D03*
X91339Y40157D02*
D03*
X10630Y35827D02*
D03*
X29921Y41339D02*
D03*
X38177Y20478D02*
D03*
X40052Y29527D02*
D03*
X46457Y34646D02*
D03*
X69291Y37008D02*
D03*
X81102Y73228D02*
D03*
X85039Y55118D02*
D03*
X93701Y70472D02*
D03*
X90551Y74016D02*
D03*
X94056Y75810D02*
D03*
X83465Y90551D02*
D03*
X82382Y85335D02*
D03*
X93307Y127165D02*
D03*
X92520Y138189D02*
D03*
X82677Y118110D02*
D03*
X78347Y123228D02*
D03*
X77165Y136221D02*
D03*
X81102Y138189D02*
D03*
X25984Y120079D02*
D03*
X20472Y103937D02*
D03*
X6494Y103738D02*
D03*
X6498Y126179D02*
D03*
X10040Y99409D02*
D03*
X8268Y118110D02*
D03*
X8268Y140551D02*
D03*
X62992Y54331D02*
D03*
X44094Y82677D02*
D03*
X40945Y76378D02*
D03*
X94095Y97638D02*
D03*
Y103150D02*
D03*
Y108661D02*
D03*
Y114173D02*
D03*
X40945Y51181D02*
D03*
X66142Y66929D02*
D03*
X61811Y95276D02*
D03*
X58268Y107874D02*
D03*
X27953Y66929D02*
D03*
X50394Y70079D02*
D03*
X44094Y63779D02*
D03*
X45669Y104331D02*
D03*
X42520Y114140D02*
D03*
X33071Y120473D02*
D03*
X44094Y73239D02*
D03*
Y70068D02*
D03*
X42520Y117312D02*
D03*
Y120505D02*
D03*
Y126772D02*
D03*
X37795Y79528D02*
D03*
X44094D02*
D03*
X50383Y63779D02*
D03*
X53543Y70079D02*
D03*
X50394Y73228D02*
D03*
X53543D02*
D03*
X51957Y120473D02*
D03*
X51968Y126772D02*
D03*
X44094Y76378D02*
D03*
X51957Y117323D02*
D03*
X48819Y120473D02*
D03*
Y126772D02*
D03*
Y117323D02*
D03*
M02*
