G04*
G04 #@! TF.GenerationSoftware,Altium Limited,Altium Designer,20.2.6 (244)*
G04*
G04 Layer_Color=16711935*
%FSLAX25Y25*%
%MOIN*%
G70*
G04*
G04 #@! TF.SameCoordinates,98B12EC8-E559-45FE-9E7D-FCD1A3165D23*
G04*
G04*
G04 #@! TF.FilePolarity,Negative*
G04*
G01*
G75*
%ADD39R,0.02362X0.02362*%
%ADD43R,0.02362X0.02362*%
%ADD47R,0.03543X0.05906*%
%ADD49R,0.02913X0.02756*%
%ADD50O,0.03937X0.06693*%
%ADD51C,0.04724*%
%ADD52C,0.04528*%
%ADD53C,0.04331*%
%ADD54R,0.04331X0.04331*%
%ADD76R,0.02244X0.01968*%
%ADD77R,0.04134X0.07087*%
%ADD78C,0.16142*%
%ADD79R,0.02756X0.04331*%
%ADD80R,0.04331X0.02756*%
%ADD81R,0.02362X0.06693*%
%ADD82R,0.03543X0.02362*%
%ADD83R,0.02756X0.02913*%
%ADD84R,0.05906X0.03543*%
%ADD85R,0.04331X0.03937*%
D39*
X60236Y87795D02*
D03*
Y83858D02*
D03*
X64567Y35039D02*
D03*
Y38976D02*
D03*
X58661Y35039D02*
D03*
Y38976D02*
D03*
X45669Y106693D02*
D03*
Y110630D02*
D03*
Y119291D02*
D03*
Y115354D02*
D03*
Y128347D02*
D03*
Y132283D02*
D03*
X53150Y96457D02*
D03*
Y92520D02*
D03*
X58268Y96457D02*
D03*
Y92520D02*
D03*
X61417Y107874D02*
D03*
Y111811D02*
D03*
X69291Y39764D02*
D03*
Y43701D02*
D03*
X69291Y53150D02*
D03*
Y49213D02*
D03*
X74803D02*
D03*
Y53150D02*
D03*
X47244Y52362D02*
D03*
Y56299D02*
D03*
Y64567D02*
D03*
Y60630D02*
D03*
Y73228D02*
D03*
Y69291D02*
D03*
Y81496D02*
D03*
Y77559D02*
D03*
X41339Y95669D02*
D03*
Y99606D02*
D03*
X33071Y118504D02*
D03*
Y114567D02*
D03*
X64173Y99213D02*
D03*
Y95276D02*
D03*
D43*
X52362Y46063D02*
D03*
X56299D02*
D03*
X36220Y30315D02*
D03*
X32283D02*
D03*
X32283Y35827D02*
D03*
X36220D02*
D03*
Y41339D02*
D03*
X32283D02*
D03*
X87402Y114173D02*
D03*
X91339D02*
D03*
X87402Y108661D02*
D03*
X91339D02*
D03*
X87402Y97638D02*
D03*
X91339D02*
D03*
X87402Y103150D02*
D03*
X91339D02*
D03*
Y92126D02*
D03*
X87402D02*
D03*
X14567Y118110D02*
D03*
X10630D02*
D03*
X14567Y140551D02*
D03*
X10630D02*
D03*
X30709Y66929D02*
D03*
X34646D02*
D03*
X42913D02*
D03*
X38976D02*
D03*
X34252Y142520D02*
D03*
X38189D02*
D03*
X43701Y136221D02*
D03*
X47638D02*
D03*
X51575Y66929D02*
D03*
X55512D02*
D03*
X63780D02*
D03*
X59843D02*
D03*
X86614Y121260D02*
D03*
X82677D02*
D03*
X41732Y123622D02*
D03*
X37795D02*
D03*
X46457D02*
D03*
X50394D02*
D03*
X55118D02*
D03*
X59055D02*
D03*
D47*
X50000Y29527D02*
D03*
X42914D02*
D03*
D49*
X15354Y135197D02*
D03*
Y131732D02*
D03*
X92913Y122992D02*
D03*
Y119528D02*
D03*
D50*
X61811Y11614D02*
D03*
X87795D02*
D03*
D51*
X22835Y26378D02*
D03*
Y18504D02*
D03*
D52*
X8917Y81791D02*
D03*
X13917D02*
D03*
X8917Y76791D02*
D03*
X13917D02*
D03*
X8917Y71791D02*
D03*
X13917D02*
D03*
Y46791D02*
D03*
X8917D02*
D03*
X13917Y51791D02*
D03*
X8917D02*
D03*
X13917Y56791D02*
D03*
X8917D02*
D03*
X13917Y61791D02*
D03*
X8917D02*
D03*
X13917Y66791D02*
D03*
X8917D02*
D03*
X13917Y86791D02*
D03*
X8917D02*
D03*
X13917Y91791D02*
D03*
X8917D02*
D03*
X13917Y22303D02*
D03*
X8917D02*
D03*
X13917Y27303D02*
D03*
X8917D02*
D03*
X88721Y151417D02*
D03*
X83720D02*
D03*
X88721Y156417D02*
D03*
X83720D02*
D03*
X88721Y161417D02*
D03*
X83720D02*
D03*
X88721Y166417D02*
D03*
X83720D02*
D03*
X88721Y171417D02*
D03*
X83720D02*
D03*
X70217Y151417D02*
D03*
X65216D02*
D03*
X70217Y156417D02*
D03*
X65216D02*
D03*
X70217Y161417D02*
D03*
X65216D02*
D03*
X70217Y166417D02*
D03*
X65216D02*
D03*
X70217Y171417D02*
D03*
X65216D02*
D03*
X51713Y151417D02*
D03*
X46713D02*
D03*
X51713Y156417D02*
D03*
X46713D02*
D03*
X51713Y161417D02*
D03*
X46713D02*
D03*
X51713Y166417D02*
D03*
X46713D02*
D03*
X51713Y171417D02*
D03*
X46713D02*
D03*
X32815Y151417D02*
D03*
X27815D02*
D03*
X32815Y156417D02*
D03*
X27815D02*
D03*
X32815Y161417D02*
D03*
X27815D02*
D03*
X32815Y166417D02*
D03*
X27815D02*
D03*
X32815Y171417D02*
D03*
X27815D02*
D03*
X13917Y151417D02*
D03*
X8917D02*
D03*
X13917Y156417D02*
D03*
X8917D02*
D03*
X13917Y161417D02*
D03*
X8917D02*
D03*
X13917Y166417D02*
D03*
X8917D02*
D03*
X13917Y171417D02*
D03*
X8917D02*
D03*
D53*
X43209Y9055D02*
D03*
X38209D02*
D03*
X33209D02*
D03*
X28209D02*
D03*
X23209D02*
D03*
D54*
X18209D02*
D03*
D76*
X81201Y52953D02*
D03*
Y47835D02*
D03*
Y50394D02*
D03*
X88878Y47835D02*
D03*
Y50394D02*
D03*
Y52953D02*
D03*
D77*
X85039Y50394D02*
D03*
D78*
X88583Y133858D02*
D03*
X16929Y106693D02*
D03*
X74803Y9843D02*
D03*
D79*
X24409Y82677D02*
D03*
X18898D02*
D03*
Y35827D02*
D03*
X13386D02*
D03*
X48425Y142520D02*
D03*
X42913D02*
D03*
X90551Y77559D02*
D03*
X85039D02*
D03*
X90551Y70472D02*
D03*
X85039D02*
D03*
D80*
X25197Y32283D02*
D03*
Y37795D02*
D03*
X54331Y51575D02*
D03*
Y57087D02*
D03*
X47244Y100394D02*
D03*
Y94882D02*
D03*
D81*
X90354Y61417D02*
D03*
X84449D02*
D03*
D82*
X76772Y133071D02*
D03*
X69685D02*
D03*
D83*
X91102Y86614D02*
D03*
X87638D02*
D03*
X30945Y60630D02*
D03*
X34409D02*
D03*
X14331Y123228D02*
D03*
X10866D02*
D03*
D84*
X78741Y40945D02*
D03*
Y33859D02*
D03*
X87402Y27953D02*
D03*
Y20866D02*
D03*
D85*
X87402Y35138D02*
D03*
Y40453D02*
D03*
M02*
