G04*
G04 #@! TF.GenerationSoftware,Altium Limited,Altium Designer,20.2.6 (244)*
G04*
G04 Layer_Physical_Order=4*
G04 Layer_Color=16711680*
%FSLAX25Y25*%
%MOIN*%
G70*
G04*
G04 #@! TF.SameCoordinates,98B12EC8-E559-45FE-9E7D-FCD1A3165D23*
G04*
G04*
G04 #@! TF.FilePolarity,Positive*
G04*
G01*
G75*
%ADD21R,0.01968X0.01968*%
%ADD25R,0.01968X0.01968*%
%ADD29R,0.03150X0.05512*%
%ADD31R,0.02520X0.02362*%
%ADD53C,0.04331*%
%ADD54R,0.04331X0.04331*%
%ADD55C,0.00500*%
%ADD58C,0.01181*%
%ADD59C,0.01000*%
%ADD60C,0.01575*%
%ADD61O,0.03543X0.06299*%
%ADD62C,0.04134*%
%ADD63C,0.01772*%
%ADD64R,0.01850X0.01575*%
%ADD65R,0.03740X0.06693*%
%ADD66C,0.15748*%
%ADD67R,0.02362X0.03937*%
%ADD68R,0.03937X0.02362*%
%ADD69R,0.01968X0.06299*%
%ADD70R,0.03150X0.01968*%
%ADD71R,0.02362X0.02520*%
%ADD72R,0.05512X0.03150*%
%ADD73R,0.03937X0.03543*%
%ADD74C,0.02362*%
%ADD75C,0.01001*%
G36*
X28473Y41626D02*
X28416Y41339D01*
X28530Y40762D01*
X28857Y40274D01*
X29345Y39948D01*
X29921Y39833D01*
X29928Y39835D01*
X30315Y39518D01*
X30315Y34646D01*
X28256Y32587D01*
X27756Y32794D01*
Y34055D01*
X22638D01*
Y32283D01*
X16142Y32283D01*
X16142Y39301D01*
X20079D01*
X20407Y39366D01*
X20685Y39551D01*
X23259Y42126D01*
X28116D01*
X28473Y41626D01*
D02*
G37*
G36*
X97622Y7874D02*
X97622Y7874D01*
X97622D01*
X97486Y6494D01*
X97084Y5168D01*
X96430Y3946D01*
X95551Y2874D01*
X94479Y1995D01*
X93257Y1342D01*
X91931Y939D01*
X90551Y803D01*
X90551Y803D01*
Y803D01*
X90551Y803D01*
X58661D01*
X58661Y14173D01*
X60614Y16126D01*
X69785D01*
X69901Y16149D01*
X70018Y16161D01*
X70053Y16180D01*
X70092Y16187D01*
X70191Y16253D01*
X70294Y16308D01*
X70416Y16408D01*
X70907Y16671D01*
X70998Y16745D01*
X71096Y16811D01*
X71434Y17149D01*
X71608Y17409D01*
X71669Y17717D01*
Y18519D01*
X72047Y18898D01*
Y24371D01*
X74366D01*
X76534Y22203D01*
X77185Y21768D01*
X77953Y21615D01*
X82571D01*
X83339Y21768D01*
X83556Y21913D01*
X84056Y21645D01*
Y21366D01*
X86902D01*
Y23032D01*
X85472D01*
X85281Y23494D01*
X86459Y24672D01*
X86894Y25323D01*
X86947Y25591D01*
X90945D01*
Y27559D01*
X97622D01*
Y7874D01*
D02*
G37*
G36*
X70866Y17717D02*
X70528Y17379D01*
X69968Y17079D01*
X69785Y16929D01*
X60236D01*
X57087Y13780D01*
Y1004D01*
X7874Y1003D01*
X7874Y1004D01*
Y1004D01*
X7384Y1049D01*
X6533Y1133D01*
X5244Y1524D01*
X4056Y2159D01*
X3014Y3014D01*
X2159Y4056D01*
X1524Y5244D01*
X1133Y6533D01*
X1002Y7866D01*
X1003Y7874D01*
Y24153D01*
X5888D01*
X6157Y23653D01*
X6005Y23287D01*
X8917D01*
Y22303D01*
X9902D01*
Y19391D01*
X10464Y19624D01*
X11105Y20116D01*
X11167Y20197D01*
X11667D01*
X11730Y20116D01*
X12371Y19624D01*
X12933Y19391D01*
Y22303D01*
X13917D01*
Y23287D01*
X16829D01*
X16678Y23653D01*
X16946Y24153D01*
X18504D01*
Y19029D01*
X12532Y13058D01*
X12342Y12598D01*
Y5512D01*
X12855Y4724D01*
X29626D01*
X29910Y4535D01*
X30315Y4454D01*
X44488D01*
X44893Y4535D01*
X45177Y4724D01*
X48031D01*
X50394Y7087D01*
Y16142D01*
X61811Y27559D01*
X70866D01*
Y17717D01*
D02*
G37*
G36*
X94882Y64173D02*
Y50394D01*
X92913Y48425D01*
X90394D01*
Y49016D01*
Y49894D01*
X88878D01*
Y50894D01*
X90394D01*
Y51575D01*
Y54331D01*
X88189D01*
Y65748D01*
X93307D01*
X94882Y64173D01*
D02*
G37*
G36*
X83268Y80118D02*
Y78059D01*
X85039D01*
Y77559D01*
X85539D01*
Y75000D01*
X86614D01*
Y73032D01*
X85539D01*
Y70472D01*
Y67913D01*
X86614D01*
Y57874D01*
X81890Y57874D01*
X80315Y59449D01*
X80315Y71423D01*
X80815Y71780D01*
X81102Y71723D01*
X81678Y71838D01*
X82167Y72164D01*
X82493Y72652D01*
X82608Y73228D01*
X82493Y73804D01*
X82167Y74293D01*
X81678Y74619D01*
X81102Y74734D01*
X80815Y74677D01*
X80315Y75033D01*
Y79134D01*
X81496Y80315D01*
X82849D01*
X83268Y80118D01*
D02*
G37*
G36*
X7546Y143696D02*
X7874Y143631D01*
X14637D01*
X15642Y142626D01*
X15435Y142126D01*
X12992D01*
Y138976D01*
X13455D01*
Y136757D01*
X13455Y136757D01*
X13483Y136618D01*
Y135878D01*
X13483Y135878D01*
X13504Y135770D01*
Y133425D01*
Y129961D01*
X17205D01*
Y130620D01*
X18495D01*
X18621Y130432D01*
X19109Y130105D01*
X19685Y129991D01*
X20261Y130105D01*
X20749Y130432D01*
X21076Y130920D01*
X21190Y131496D01*
X21076Y132072D01*
X20749Y132561D01*
X20261Y132887D01*
X19685Y133001D01*
X19109Y132887D01*
X19045Y132844D01*
X17205D01*
Y136969D01*
X15679D01*
Y138887D01*
X16142Y138976D01*
D01*
X16642Y139103D01*
X16929Y139046D01*
X17505Y139161D01*
X17993Y139487D01*
X18090Y139631D01*
X18588Y139680D01*
X27509Y130759D01*
Y128775D01*
X27282Y128623D01*
X26956Y128135D01*
X26841Y127559D01*
X26956Y126983D01*
X27282Y126495D01*
X27559Y126310D01*
Y124700D01*
X27097Y124509D01*
X26590Y125015D01*
X26312Y125201D01*
X25984Y125267D01*
X19253D01*
X16504Y128015D01*
X16514Y128025D01*
X15988Y128377D01*
X15368Y128500D01*
Y128486D01*
X12354D01*
X12354Y128487D01*
X12247Y128531D01*
X12246Y128531D01*
X8150Y132627D01*
X8198Y132872D01*
X8084Y133448D01*
X7757Y133937D01*
X7269Y134263D01*
X6693Y134377D01*
X6117Y134263D01*
X5629Y133937D01*
X5302Y133448D01*
X5188Y132872D01*
X5302Y132296D01*
X5629Y131808D01*
X6117Y131481D01*
X6693Y131367D01*
X6938Y131415D01*
X10769Y127584D01*
X11109Y127226D01*
X11109Y127226D01*
X11109Y127226D01*
X11626Y126880D01*
X12247Y126757D01*
Y126772D01*
X15260D01*
X15260Y126771D01*
X15368Y126726D01*
X15368Y126727D01*
X18292Y123803D01*
X18570Y123618D01*
X18898Y123552D01*
X25629D01*
X26890Y122292D01*
X26841Y122047D01*
X26956Y121471D01*
X27282Y120983D01*
X27559Y120798D01*
Y117175D01*
X27377Y117139D01*
X27101Y116954D01*
X26878Y116999D01*
X18563D01*
X18296Y117499D01*
X18320Y117534D01*
X18434Y118110D01*
X18320Y118686D01*
X17993Y119175D01*
X17505Y119501D01*
X16929Y119615D01*
X16642Y119558D01*
X16142Y119685D01*
D01*
X15679Y119775D01*
Y121378D01*
X16102D01*
Y125079D01*
X9094D01*
Y121378D01*
X9094D01*
X9367Y120991D01*
X9475Y120448D01*
X9651Y120185D01*
X9384Y119685D01*
X9055D01*
Y118610D01*
X10630D01*
Y117610D01*
X9055D01*
Y116535D01*
X9136D01*
X9287Y116035D01*
X8976Y115827D01*
X8649Y115339D01*
X8535Y114763D01*
X8649Y114187D01*
X8976Y113698D01*
X9464Y113372D01*
X10040Y113258D01*
X10616Y113372D01*
X11105Y113698D01*
X11431Y114187D01*
X11546Y114763D01*
X11520Y114890D01*
X11867Y115285D01*
X26540D01*
X26562Y115172D01*
X26888Y114684D01*
X27377Y114357D01*
X27559Y114321D01*
Y98032D01*
X19232D01*
X19226Y98036D01*
X18898Y98101D01*
X5906D01*
X5578Y98036D01*
X5571Y98032D01*
X803D01*
Y143701D01*
X7540D01*
X7546Y143696D01*
D02*
G37*
G36*
X97622Y116929D02*
X90852D01*
X90605Y117429D01*
X90663Y117520D01*
X91063Y117756D01*
X91063Y117756D01*
X91063Y117756D01*
X94764D01*
Y121221D01*
Y124764D01*
X91063D01*
Y124096D01*
X90677Y124019D01*
X90316Y123778D01*
X90316Y123778D01*
X89286Y122748D01*
X88794Y122651D01*
X88689Y122580D01*
X88189Y122835D01*
Y122835D01*
X85039D01*
Y119685D01*
X87782D01*
X88050Y119185D01*
X87979Y119080D01*
X87865Y118504D01*
X87979Y117928D01*
X88306Y117439D01*
X88321Y117429D01*
X88170Y116929D01*
X81527D01*
X74622Y123834D01*
X74410Y123976D01*
Y129497D01*
X74622Y129709D01*
X74808Y129987D01*
X74873Y130315D01*
X75354Y130269D01*
X75381Y130133D01*
X75707Y129644D01*
X76196Y129318D01*
X76772Y129203D01*
X77348Y129318D01*
X77836Y129644D01*
X78162Y130133D01*
X78277Y130709D01*
X78220Y130996D01*
X78577Y131496D01*
X78937D01*
Y134646D01*
X74873D01*
Y135865D01*
X83426Y144419D01*
X89764D01*
X90092Y144484D01*
X90370Y144670D01*
X92157Y146457D01*
X97622D01*
Y116929D01*
D02*
G37*
%LPC*%
G36*
X27756Y39567D02*
X25697D01*
Y38295D01*
X27756D01*
Y39567D01*
D02*
G37*
G36*
X24697D02*
X22638D01*
Y38295D01*
X24697D01*
Y39567D01*
D02*
G37*
G36*
X20669Y38386D02*
X19398D01*
Y36327D01*
X20669D01*
Y38386D01*
D02*
G37*
G36*
X18398D02*
X17126D01*
Y36327D01*
X18398D01*
Y38386D01*
D02*
G37*
G36*
X27756Y37295D02*
X25697D01*
Y36024D01*
X27756D01*
Y37295D01*
D02*
G37*
G36*
X24697D02*
X22638D01*
Y36024D01*
X24697D01*
Y37295D01*
D02*
G37*
G36*
X20669Y35327D02*
X19398D01*
Y33268D01*
X20669D01*
Y35327D01*
D02*
G37*
G36*
X18398D02*
X17126D01*
Y33268D01*
X18398D01*
Y35327D01*
D02*
G37*
G36*
X90749Y23032D02*
X87902D01*
Y21366D01*
X90749D01*
Y23032D01*
D02*
G37*
G36*
Y20367D02*
X87902D01*
Y18701D01*
X90749D01*
Y20367D01*
D02*
G37*
G36*
X86902D02*
X84056D01*
Y18701D01*
X86902D01*
Y20367D01*
D02*
G37*
G36*
X16829Y21319D02*
X14902D01*
Y19391D01*
X15464Y19624D01*
X16105Y20116D01*
X16596Y20756D01*
X16829Y21319D01*
D02*
G37*
G36*
X7933D02*
X6005D01*
X6238Y20756D01*
X6730Y20116D01*
X7371Y19624D01*
X7933Y19391D01*
Y21319D01*
D02*
G37*
G36*
X84539Y77059D02*
X83268D01*
Y75000D01*
X84539D01*
Y77059D01*
D02*
G37*
G36*
X84539Y73032D02*
X83268D01*
Y70972D01*
X84539D01*
Y73032D01*
D02*
G37*
G36*
Y69972D02*
X83268D01*
Y67913D01*
X84539D01*
Y69972D01*
D02*
G37*
G36*
X12205Y142126D02*
X11130D01*
Y141051D01*
X12205D01*
Y142126D01*
D02*
G37*
G36*
X10130D02*
X9055D01*
Y141051D01*
X10130D01*
Y142126D01*
D02*
G37*
G36*
X12205Y140051D02*
X11130D01*
Y138976D01*
X12205D01*
Y140051D01*
D02*
G37*
G36*
X10130D02*
X9055D01*
Y138976D01*
X10130D01*
Y140051D01*
D02*
G37*
G36*
X84252Y122835D02*
X83177D01*
Y121760D01*
X84252D01*
Y122835D01*
D02*
G37*
G36*
X82177D02*
X81102D01*
Y121760D01*
X82177D01*
Y122835D01*
D02*
G37*
G36*
X84252Y120760D02*
X83177D01*
Y119685D01*
X84252D01*
Y120760D01*
D02*
G37*
G36*
X82177D02*
X81102D01*
Y119685D01*
X82177D01*
Y120760D01*
D02*
G37*
%LPD*%
D21*
X60236Y87795D02*
D03*
Y83858D02*
D03*
X64567Y35039D02*
D03*
Y38976D02*
D03*
X58661Y35039D02*
D03*
Y38976D02*
D03*
X45669Y106693D02*
D03*
Y110630D02*
D03*
Y119291D02*
D03*
Y115354D02*
D03*
Y128347D02*
D03*
Y132283D02*
D03*
X53150Y96457D02*
D03*
Y92520D02*
D03*
X58268Y96457D02*
D03*
Y92520D02*
D03*
X61417Y107874D02*
D03*
Y111811D02*
D03*
X69291Y39764D02*
D03*
Y43701D02*
D03*
X69291Y53150D02*
D03*
Y49213D02*
D03*
X74803D02*
D03*
Y53150D02*
D03*
X47244Y52362D02*
D03*
Y56299D02*
D03*
Y64567D02*
D03*
Y60630D02*
D03*
Y73228D02*
D03*
Y69291D02*
D03*
Y81496D02*
D03*
Y77559D02*
D03*
X41339Y95669D02*
D03*
Y99606D02*
D03*
X33071Y118504D02*
D03*
Y114567D02*
D03*
X64173Y99213D02*
D03*
Y95276D02*
D03*
D25*
X52362Y46063D02*
D03*
X56299D02*
D03*
X36220Y30315D02*
D03*
X32283D02*
D03*
X32283Y35827D02*
D03*
X36220D02*
D03*
Y41339D02*
D03*
X32283D02*
D03*
X87402Y114173D02*
D03*
X91339D02*
D03*
X87402Y108661D02*
D03*
X91339D02*
D03*
X87402Y97638D02*
D03*
X91339D02*
D03*
X87402Y103150D02*
D03*
X91339D02*
D03*
Y92126D02*
D03*
X87402D02*
D03*
X14567Y118110D02*
D03*
X10630D02*
D03*
X14567Y140551D02*
D03*
X10630D02*
D03*
X30709Y66929D02*
D03*
X34646D02*
D03*
X42913D02*
D03*
X38976D02*
D03*
X34252Y142520D02*
D03*
X38189D02*
D03*
X43701Y136221D02*
D03*
X47638D02*
D03*
X51575Y66929D02*
D03*
X55512D02*
D03*
X63780D02*
D03*
X59843D02*
D03*
X86614Y121260D02*
D03*
X82677D02*
D03*
X41732Y123622D02*
D03*
X37795D02*
D03*
X46457D02*
D03*
X50394D02*
D03*
X55118D02*
D03*
X59055D02*
D03*
D29*
X50000Y29527D02*
D03*
X42914D02*
D03*
D31*
X15354Y135197D02*
D03*
Y131732D02*
D03*
X92913Y122992D02*
D03*
Y119528D02*
D03*
D53*
X22835Y26378D02*
D03*
Y18504D02*
D03*
X43209Y9055D02*
D03*
X38209D02*
D03*
X33209D02*
D03*
X28209D02*
D03*
X23209D02*
D03*
D54*
X18209D02*
D03*
D55*
X11720Y127845D02*
G03*
X12247Y127629I527J534D01*
G01*
X15898Y127409D02*
G03*
X15368Y127629I-530J-530D01*
G01*
X39681Y53543D02*
G03*
X39150Y53324I0J-750D01*
G01*
X30004Y44488D02*
G03*
X30535Y44708I-0J750D01*
G01*
X34424Y53322D02*
G03*
X34646Y53854I-529J532D01*
G01*
X28429Y47638D02*
G03*
X28959Y47856I-0J750D01*
G01*
X23145Y47638D02*
G03*
X22615Y47418I0J-750D01*
G01*
X29217Y46063D02*
G03*
X29747Y46283I0J750D01*
G01*
X23933Y46063D02*
G03*
X23402Y45843I0J-750D01*
G01*
X24720Y44488D02*
G03*
X24190Y44269I0J-750D01*
G01*
X45067Y43099D02*
G03*
X44921Y42745I354J-354D01*
G01*
X27647Y71839D02*
G03*
X27953Y71653I530J530D01*
G01*
X44921Y34217D02*
G03*
X45067Y33863I500J0D01*
G01*
X10040Y114763D02*
X11419Y116142D01*
X26878D01*
X15898Y127409D02*
X18898Y124409D01*
X6693Y132872D02*
X11717Y127848D01*
X11720Y127845D01*
X12247Y127629D02*
X15368D01*
X25984Y124409D02*
X28346Y122047D01*
X18898Y124409D02*
X25984D01*
X27709Y115991D02*
X27953Y115748D01*
X27028Y115991D02*
X27709D01*
X26878Y116142D02*
X27028Y115991D01*
X31890Y101181D02*
X34607Y103898D01*
X54875Y102604D02*
Y109449D01*
X58661Y100787D02*
Y104331D01*
X25591Y54331D02*
X27953Y51968D01*
X20866Y73622D02*
X25591Y68898D01*
Y54331D02*
Y68898D01*
X18898Y82677D02*
Y87008D01*
X33071Y105118D02*
Y107874D01*
X29528Y101575D02*
X33071Y105118D01*
X34607Y112559D02*
X36220Y114173D01*
X34607Y103898D02*
Y112559D01*
X27953Y60630D02*
X30945D01*
X24720Y44488D02*
X30004D01*
X39681Y53543D02*
X41732D01*
X30535Y44708D02*
X39150Y53324D01*
X23145Y47638D02*
X28429D01*
X34646Y53854D02*
Y54331D01*
X28959Y47856D02*
X34424Y53322D01*
X32283Y55118D02*
X34646Y57480D01*
X32283Y53937D02*
Y55118D01*
X28346Y50000D02*
X32283Y53937D01*
X26378Y50000D02*
X28346D01*
X24587Y51791D02*
X26378Y50000D01*
X13917Y51791D02*
X24587D01*
X18504Y43307D02*
X22615Y47418D01*
X19291Y41732D02*
X23402Y45843D01*
X29747Y46283D02*
X40945Y57480D01*
X23933Y46063D02*
X29217D01*
X20079Y40157D02*
X24190Y44269D01*
X70079Y119291D02*
X72441D01*
X63779Y123228D02*
X74016D01*
X81102Y116142D01*
Y98425D02*
Y116142D01*
X71653Y117717D02*
X75590Y113779D01*
X66535Y117717D02*
X71653D01*
X84646Y112205D02*
X85890Y113449D01*
X54875Y99850D02*
Y102604D01*
X17717Y95669D02*
X21593Y91793D01*
Y77892D02*
X27647Y71839D01*
X21593Y77892D02*
Y91793D01*
X53150Y89974D02*
Y92520D01*
Y89974D02*
X53242Y89882D01*
X27953Y86614D02*
Y88189D01*
X24409Y82677D02*
X27942D01*
X27953Y82688D01*
X29528Y74016D02*
Y101575D01*
Y74016D02*
X32677Y70866D01*
X67323Y119291D02*
X68898Y120866D01*
X73622D01*
X71323Y89321D02*
Y89321D01*
X71425Y87947D02*
Y89220D01*
X70525Y87048D02*
X71425Y87947D01*
X69685Y86411D02*
X70322Y87048D01*
X70525D01*
X71323Y89321D02*
X71425Y89220D01*
X69685Y68004D02*
Y86411D01*
X71653Y66929D02*
Y86221D01*
X72835Y87402D01*
X70472Y90172D02*
Y111811D01*
Y90172D02*
X71323Y89321D01*
X63386Y118898D02*
X70472Y111811D01*
X68898Y90158D02*
Y111024D01*
X67716Y88976D02*
X68898Y90158D01*
X59842Y73228D02*
Y79528D01*
X58268Y90158D02*
Y92520D01*
X54875Y109449D02*
Y110780D01*
X56385Y94796D02*
X56693Y94489D01*
X59187D01*
X56385Y94796D02*
Y98813D01*
X56385Y94796D02*
X56385Y94796D01*
Y98813D02*
X56693Y99121D01*
Y109449D01*
X53431Y85321D02*
X55178Y87067D01*
Y99547D01*
X59055Y82677D02*
X60236Y83858D01*
X56766Y82677D02*
X59055D01*
X58790Y86349D02*
X60236Y87795D01*
X56693Y86349D02*
X58790D01*
X54724Y77953D02*
X55736Y76941D01*
X56349Y76378D02*
X56693D01*
X55785Y76941D02*
X56349Y76378D01*
X55736Y76941D02*
X55785D01*
X53300Y76621D02*
X53543Y76378D01*
X52421Y76621D02*
X53300D01*
X52362Y77953D02*
X54724D01*
X50109Y78933D02*
X52421Y76621D01*
X51181Y79134D02*
Y94488D01*
Y79134D02*
X52362Y77953D01*
X53431Y79562D02*
Y85321D01*
Y79562D02*
X53504Y79489D01*
X51181Y94488D02*
X53150Y96457D01*
X51968Y97638D02*
X53150Y96457D01*
X51968Y97638D02*
Y107874D01*
X56693Y109449D02*
X58268Y111024D01*
X54875Y99850D02*
X55178Y99547D01*
X50109Y78933D02*
Y109164D01*
X51968Y111024D01*
X52362Y43307D02*
Y46063D01*
X44921Y34217D02*
Y42745D01*
X48819Y46850D02*
Y51049D01*
X45067Y43099D02*
X48819Y46850D01*
X54331Y48031D02*
Y51575D01*
Y48031D02*
X56299Y46063D01*
X47244Y48031D02*
X47244Y48031D01*
Y52362D01*
X41732Y53543D02*
X44094Y51181D01*
X48878Y51109D02*
Y55954D01*
X48819Y51049D02*
X48878Y51109D01*
X49156Y35029D02*
X50784D01*
X59843Y44087D01*
Y54331D01*
X55905D02*
X60197Y58622D01*
X69456D01*
X53543Y54331D02*
X55905D01*
X53553Y57087D02*
X54331D01*
X52622Y58018D02*
X53553Y57087D01*
X52622Y58018D02*
Y58795D01*
X50394Y60641D02*
X50637Y60398D01*
X51020D02*
X52622Y58795D01*
X50637Y60398D02*
X51020D01*
X59187Y94489D02*
X61417Y92258D01*
Y92126D02*
Y92258D01*
X37795Y76378D02*
X39370Y77953D01*
Y101181D02*
X42520Y104331D01*
X39370Y77953D02*
Y101181D01*
X34481Y60780D02*
X35341Y61640D01*
X34409Y60709D02*
X34481Y60780D01*
X34409Y60630D02*
X34481Y60780D01*
X36209Y62205D02*
X37784Y63779D01*
X35645Y61640D02*
X36209Y62205D01*
X34409Y60630D02*
Y60709D01*
X35341Y61640D02*
X35645D01*
X59843Y70079D02*
X61358Y68563D01*
X59843Y70079D02*
X60001Y70237D01*
X61358Y68563D02*
X64173D01*
X26772Y25197D02*
X27953Y26378D01*
X23281Y11470D02*
X26772Y14961D01*
Y25197D01*
X2362Y59842D02*
X8702Y66182D01*
X8878Y51791D02*
X8917D01*
X5512Y48425D02*
X8878Y51791D01*
X5512Y45276D02*
Y48425D01*
Y45276D02*
X7480Y43307D01*
X18504D01*
X8702Y56182D02*
X8917Y56791D01*
X3937Y51417D02*
X8702Y56182D01*
X3937Y44488D02*
Y51417D01*
Y44488D02*
X6693Y41732D01*
X19291D01*
X27953Y71653D02*
X27953Y71653D01*
X6693Y95669D02*
X17717D01*
X5118Y94095D02*
X6693Y95669D01*
X5118Y79528D02*
Y94095D01*
Y79528D02*
X7159Y77487D01*
X8169D01*
X8917Y76791D01*
X8702Y66182D02*
X8917Y66791D01*
X2362Y43701D02*
Y59842D01*
Y43701D02*
X5906Y40157D01*
X20079D01*
X18898Y97244D02*
X27953Y88189D01*
X5906Y97244D02*
X18898D01*
X3543Y94882D02*
X5906Y97244D01*
X3543Y75984D02*
Y94882D01*
Y75984D02*
X7041Y72487D01*
X8169D01*
X8917Y71791D01*
X58661Y32388D02*
Y35039D01*
X47244Y8268D02*
Y33117D01*
X44488Y5512D02*
X47244Y8268D01*
X28942Y6885D02*
X30315Y5512D01*
X44488D01*
X36220Y25984D02*
Y35827D01*
X30709Y20472D02*
X36220Y25984D01*
X30709Y14173D02*
Y20472D01*
X34252Y29134D02*
Y42913D01*
X27953Y26378D02*
X31496D01*
X34252Y29134D01*
X29921Y41339D02*
X32283D01*
X36220Y35827D02*
Y41339D01*
X33209Y20217D02*
X38189Y25197D01*
X33209Y9055D02*
Y20217D01*
X34252Y42913D02*
X34402Y43064D01*
Y43851D02*
X34646Y44094D01*
X34402Y43064D02*
Y43851D01*
X38189Y25197D02*
Y44488D01*
X37008Y45669D02*
X38189Y44488D01*
X45067Y33863D02*
X45669Y33261D01*
X47244Y33117D02*
X49156Y35029D01*
X45669Y16516D02*
Y33261D01*
X38209Y9055D02*
X45669Y16516D01*
X41339Y92519D02*
X41339Y95669D01*
X64567Y38976D02*
X66535Y37008D01*
X69291D01*
X58661Y38976D02*
X64567D01*
X69291Y37008D02*
Y39764D01*
X63780Y66929D02*
X66535D01*
X79134Y62992D02*
Y115354D01*
X73622Y120866D02*
X79134Y115354D01*
X73228Y57087D02*
X79134Y62992D01*
X69685Y57087D02*
X77559Y64961D01*
X72441Y119291D02*
X77559Y114173D01*
Y64961D02*
Y114173D01*
X74016Y136221D02*
X83071Y145276D01*
X74016Y130315D02*
Y136221D01*
X72441Y137402D02*
X81890Y146850D01*
X64567Y33071D02*
X65354Y32283D01*
X64567Y33071D02*
Y35039D01*
X69291Y43701D02*
Y49213D01*
X69291Y43701D02*
X69291Y43701D01*
X76181Y47835D02*
X81201D01*
X74803Y49213D02*
X76181Y47835D01*
X69291Y49213D02*
X74803D01*
X23209Y9055D02*
X23281Y9128D01*
Y11470D01*
X28209Y9055D02*
X28942Y8322D01*
Y6885D02*
Y8322D01*
X48878Y55954D02*
X50394Y57469D01*
X47244Y56299D02*
Y57491D01*
X44094Y60641D02*
X47244Y57491D01*
X58268Y65354D02*
X58268D01*
X53543Y60630D02*
X58268Y65354D01*
X65354Y60630D02*
X71653Y66929D01*
X69291Y66929D02*
X69534Y67172D01*
Y67854D01*
X69685Y68004D01*
X67716Y65748D02*
Y88976D01*
X65748Y63779D02*
X67716Y65748D01*
X56693Y60630D02*
X65354D01*
X44094Y82677D02*
X45276Y81496D01*
X47244D01*
X69291Y61811D02*
X73622Y66142D01*
X69291Y60630D02*
Y61811D01*
X73622Y66142D02*
Y86221D01*
X70827Y59994D02*
Y60883D01*
X75590Y65646D01*
Y113779D01*
X74016Y86614D02*
Y112992D01*
X73622Y86221D02*
X74016Y86614D01*
X70866Y116142D02*
X74016Y112992D01*
X72223Y90769D02*
Y112422D01*
X72835Y87402D02*
Y90158D01*
X72223Y90769D02*
X72835Y90158D01*
X76772Y130709D02*
Y133071D01*
X72047Y57087D02*
X73228D01*
X3543Y148819D02*
X7874Y144488D01*
X16142D01*
X5118Y149606D02*
Y157618D01*
X8661Y146063D02*
X16929D01*
X5118Y149606D02*
X8661Y146063D01*
X16929D02*
X33071Y129921D01*
X28366Y127559D02*
Y132264D01*
X57480Y128347D02*
X72047D01*
X74016Y130315D01*
X83071Y145276D02*
X89764D01*
X94488Y150000D01*
X88721Y166417D02*
X94488Y160650D01*
Y150000D02*
Y160650D01*
X88721Y161417D02*
X89207Y160931D01*
X91037D01*
X92913Y159055D01*
X88976Y146850D02*
X92913Y150787D01*
Y159055D01*
X81890Y146850D02*
X88976D01*
X72441Y131496D02*
Y137402D01*
X58268Y129921D02*
X70866D01*
X72441Y131496D01*
X51968Y129921D02*
X53543Y131496D01*
X58268Y133071D02*
X70079Y144882D01*
X56693Y129134D02*
X57480Y128347D01*
X56693Y129134D02*
Y130709D01*
X53543Y131496D02*
X55905D01*
X56693Y130709D01*
X55118Y127559D02*
Y129921D01*
Y127559D02*
X59055Y123622D01*
X70079Y144882D02*
X73228D01*
X77165Y148819D02*
Y159468D01*
X73228Y144882D02*
X77165Y148819D01*
X72835Y146457D02*
X75590Y149213D01*
X68528Y146457D02*
X72835D01*
X61417Y133071D02*
X69680D01*
X69685Y133071D01*
X55142Y133071D02*
X68528Y146457D01*
X75590Y149213D02*
Y156043D01*
X66142Y148031D02*
X72441D01*
X73622Y149213D01*
Y153012D01*
X51968Y133071D02*
X52212Y133314D01*
Y134102D01*
X70217Y166417D02*
X77165Y159468D01*
X70217Y161417D02*
X75590Y156043D01*
X70217Y156417D02*
X73622Y153012D01*
X52212Y134102D02*
X66142Y148031D01*
X3543Y148819D02*
Y161043D01*
X22441Y161043D02*
X27815Y166417D01*
X22441Y145669D02*
Y161043D01*
Y145669D02*
X35039Y133071D01*
X36220D01*
X34646Y137795D02*
X39370Y133071D01*
X32677Y137795D02*
X34646D01*
X24016Y146457D02*
X32677Y137795D01*
X24016Y146457D02*
Y157618D01*
X27815Y161417D01*
X31890Y142520D02*
X34252D01*
X34252Y142520D01*
X3543Y161043D02*
X8917Y166417D01*
X5118Y157618D02*
X8917Y161417D01*
X16142Y144488D02*
X28366Y132264D01*
X34646Y76378D02*
X36220Y77953D01*
Y100000D01*
X33858Y100787D02*
X36220Y103150D01*
Y111002D01*
Y114173D02*
Y114184D01*
X36209Y111013D02*
X36220Y111002D01*
X91339Y97638D02*
X94095D01*
X91339Y103150D02*
X94095D01*
X91339Y108661D02*
X94095D01*
X91339Y114173D02*
X94095D01*
X85676Y95913D02*
X87402Y97638D01*
X84889Y95913D02*
X85676D01*
X84646Y95669D02*
X84889Y95913D01*
X86677Y102425D02*
X87402Y103150D01*
X85890Y102425D02*
X86677D01*
X84646Y101181D02*
X85890Y102425D01*
X86677Y107937D02*
X87402Y108661D01*
X85890Y107937D02*
X86677D01*
X84646Y106693D02*
X85890Y107937D01*
X86677Y113449D02*
X87402Y114173D01*
X85890Y113449D02*
X86677D01*
X58268Y126772D02*
X60236D01*
X63779Y123228D01*
X63779Y120473D02*
X66535Y117717D01*
X58268Y120473D02*
X63779D01*
X62992Y89764D02*
X66142Y92913D01*
X62992Y70099D02*
Y89764D01*
X70472Y114173D02*
X72223Y112422D01*
X69291Y53150D02*
X72047D01*
X72047Y53150D01*
X74803D01*
X62598Y117323D02*
X68898Y111024D01*
X65354Y89370D02*
X67323Y91339D01*
Y110236D01*
X63386Y114173D02*
X67323Y110236D01*
X62205Y97244D02*
X65702D01*
X66142Y96805D01*
Y92913D02*
Y96805D01*
X69141Y115991D02*
X69822D01*
X69973Y116142D02*
X70866D01*
X69822Y115991D02*
X69973Y116142D01*
X56693Y118898D02*
X63386D01*
X58268Y117323D02*
X62598D01*
X68898Y115748D02*
X69141Y115991D01*
X65354Y69744D02*
Y89370D01*
X59843Y63779D02*
X65748D01*
X66535Y66929D02*
X66535Y66929D01*
X66142Y66929D02*
X66535D01*
X58268Y114173D02*
X58268Y114173D01*
X63386D01*
X55129Y117334D02*
X56693Y118898D01*
X64173Y68563D02*
X65354Y69744D01*
X58268Y107874D02*
X61417D01*
X54875Y110780D02*
X55118Y111024D01*
X58661Y100787D02*
X62205Y97244D01*
X69456Y58622D02*
X70827Y59994D01*
X30709Y75197D02*
X32677Y73228D01*
X30709Y75197D02*
Y78347D01*
X32677Y73228D02*
X34646D01*
X33465Y74803D02*
X36220D01*
X32283Y75984D02*
X33465Y74803D01*
X30709Y78347D02*
X31890Y79528D01*
X32283Y75984D02*
Y77165D01*
X33858Y78740D01*
X31890Y79528D02*
Y101181D01*
X32677Y65748D02*
X34646Y63779D01*
X32677Y65748D02*
Y70866D01*
X33858Y78740D02*
Y100787D01*
X42520Y104331D02*
Y111024D01*
X36220Y100000D02*
X39370Y103150D01*
Y111013D01*
X53543Y96457D02*
X53543Y96457D01*
X60693Y112536D02*
X61417Y111811D01*
X59905Y112536D02*
X60693D01*
X59842Y112598D02*
X59905Y112536D01*
X56693Y112598D02*
X59842D01*
X55118Y114173D02*
X56693Y112598D01*
X64173Y95276D02*
X64173Y95276D01*
X61811Y95276D02*
X64173D01*
X58268Y96457D02*
X60630D01*
X61811Y95276D01*
X61417Y101969D02*
X64173Y99213D01*
X61417Y101969D02*
Y104331D01*
X46994Y94882D02*
X47244D01*
X46063Y95813D02*
X46994Y94882D01*
X46063Y95813D02*
Y97244D01*
X47566Y100394D02*
X47888D01*
X46779Y99606D02*
X47566Y100394D01*
X41339Y99606D02*
X46779D01*
X47888Y100394D02*
X48819Y101325D01*
Y111024D01*
X74803Y53150D02*
X74803Y53150D01*
X27953Y66929D02*
X30709D01*
X27953Y66929D02*
X27953Y66929D01*
X58268Y65354D02*
X59843Y66929D01*
X53543Y60630D02*
X53543D01*
X53554Y64972D02*
X55512Y66929D01*
X53554Y63779D02*
Y64972D01*
X46520Y70016D02*
X47244Y69291D01*
X46520Y70016D02*
Y70803D01*
X45669Y71653D02*
X46520Y70803D01*
X51575Y66929D02*
Y68898D01*
Y64972D02*
Y66929D01*
X50394Y70079D02*
X51575Y68898D01*
X40956Y70079D02*
X42531Y71653D01*
X45669D01*
X40956Y63779D02*
Y70079D01*
Y63779D02*
X44094Y60641D01*
X44094D01*
X42913Y64961D02*
X44094Y63779D01*
X44126D02*
X44913Y64567D01*
X42913Y64961D02*
Y66929D01*
X47244Y73228D02*
X47244Y73228D01*
X50394D01*
X44105Y73228D02*
X47244D01*
X44094Y73239D02*
X44105Y73228D01*
X46510Y76825D02*
X47244Y77559D01*
X46510Y76431D02*
Y76825D01*
X44882Y74803D02*
X46510Y76431D01*
X40945Y73228D02*
X42520Y74803D01*
X44882D01*
X38976Y66929D02*
X39370Y66536D01*
Y62205D02*
X40945Y60630D01*
X39370Y62205D02*
Y66536D01*
X37784Y63779D02*
Y63791D01*
X34646Y66929D02*
X37784Y63791D01*
X42913Y66929D02*
Y68887D01*
X44094Y70068D01*
X50383Y63779D02*
X51575Y64972D01*
X47244Y64567D02*
X49564D01*
X50351Y63779D01*
X50383D01*
X44913Y64567D02*
X47244D01*
X44094Y63779D02*
X44126D01*
X47244Y60630D02*
X47255Y60641D01*
X50394D01*
X45669Y106693D02*
X45669Y106693D01*
X45669Y104331D02*
Y106693D01*
X45669Y115354D02*
X46850Y114173D01*
X48819D01*
X47504Y143441D02*
X48425Y142520D01*
X47504Y143441D02*
Y145016D01*
X46850Y145669D02*
X47504Y145016D01*
X41339Y145669D02*
X46850D01*
X38189Y142520D02*
X41339Y145669D01*
X47638Y136221D02*
Y141732D01*
X48425Y142520D01*
X43701Y136221D02*
Y141732D01*
X42913Y142520D02*
X43701Y141732D01*
X47638Y134252D02*
Y136221D01*
Y134252D02*
X48819Y133071D01*
X43701Y134252D02*
Y136221D01*
X42520Y133071D02*
X43701Y134252D01*
X44488Y132283D02*
X45669D01*
X43701Y131496D02*
X44488Y132283D01*
X40945Y131496D02*
X43701D01*
X39370Y129921D02*
X40945Y131496D01*
X43701Y112598D02*
X45669Y110630D01*
X40945Y112598D02*
X43701D01*
X39370Y114173D02*
X40945Y112598D01*
X54384Y122888D02*
X55118Y123622D01*
X54373Y122888D02*
X54384D01*
X51957Y120473D02*
X54373Y122888D01*
X54384Y124356D02*
X55118Y123622D01*
X54384Y124356D02*
X54384D01*
X51968Y126772D02*
X54384Y124356D01*
X50394Y123622D02*
Y128347D01*
X48819Y129921D02*
X50394Y128347D01*
X45669D02*
X47244D01*
X48819Y126772D01*
X44094Y128347D02*
X45669D01*
X42520Y126772D02*
X44094Y128347D01*
X46457Y123622D02*
X47181Y124346D01*
Y125134D01*
X48819Y126772D01*
X46457Y123622D02*
X47181Y122898D01*
Y122110D02*
Y122898D01*
Y122110D02*
X48819Y120473D01*
X45669Y119291D02*
X47638Y117323D01*
X48819D01*
X43690Y117312D02*
X45669Y119291D01*
X42520Y117312D02*
X43690D01*
X41732Y123622D02*
X42467Y122888D01*
Y122502D02*
Y122888D01*
Y122502D02*
X42520Y122449D01*
Y120505D02*
Y122449D01*
X41732Y123622D02*
X42467Y124356D01*
Y124742D01*
X42520Y124796D01*
Y126772D01*
X37795Y123622D02*
Y125175D01*
X39392Y126772D01*
X33071Y118504D02*
Y120473D01*
X36220Y74803D02*
X37795Y73228D01*
X34583Y115291D02*
X35039Y115748D01*
X37827D01*
X33795Y115291D02*
X34583D01*
X33071Y114567D02*
X33795Y115291D01*
X39370Y111013D02*
X39381Y111024D01*
X39370Y117291D02*
Y117323D01*
X55129D02*
Y117334D01*
X37827Y115748D02*
X39370Y117291D01*
D58*
X25197Y29331D02*
Y30709D01*
X25197Y32283D02*
X25197Y30709D01*
X87402Y27954D02*
X87402Y27953D01*
D59*
X87349Y20814D02*
X87402Y20866D01*
X83081Y20814D02*
X87349D01*
X87402Y27954D02*
Y35138D01*
X10866Y121024D02*
Y123228D01*
X14567Y118110D02*
Y123228D01*
X85039Y45669D02*
Y50394D01*
X78741Y30709D02*
Y33859D01*
X10630Y35827D02*
X13386D01*
X32283Y30315D02*
Y35827D01*
X32283Y30315D02*
X32283Y30315D01*
X40052Y29527D02*
X40052Y29528D01*
X40052Y29527D02*
X42914D01*
X14567Y140551D02*
X16929D01*
X85039Y51583D02*
Y55118D01*
Y50394D02*
Y51583D01*
X86409Y52953D02*
X88878D01*
X85039Y51583D02*
X86409Y52953D01*
X81201Y50394D02*
X85039D01*
X85039Y92126D02*
X87402D01*
X83465Y90551D02*
X85039Y92126D01*
X90551Y70472D02*
X93701D01*
X90551D02*
Y74016D01*
Y77559D01*
X92307D01*
X94056Y75810D01*
X10630Y140551D02*
X10630Y140551D01*
X8268Y140551D02*
X10630D01*
X8268Y140551D02*
X8268Y140551D01*
X80315Y121260D02*
X82677D01*
X78347Y123228D02*
X80315Y121260D01*
X82677Y118110D02*
Y121260D01*
X8268Y118110D02*
X10630D01*
X91339Y86850D02*
Y92126D01*
X91102Y86614D02*
X91339Y86850D01*
Y92126D02*
X94095D01*
X89370Y118504D02*
X90394Y119528D01*
X92913D01*
X91102Y122992D02*
X92913D01*
X89370Y121260D02*
X91102Y122992D01*
X86614Y121260D02*
X89370D01*
X14567Y118110D02*
X16929D01*
X14567Y136757D02*
Y140551D01*
Y136757D02*
X14594Y136729D01*
Y135878D02*
Y136729D01*
Y135878D02*
X15039Y135433D01*
X15118D01*
X15354Y131732D02*
X19240D01*
X19476Y131496D02*
X19685D01*
X19240Y131732D02*
X19476Y131496D01*
D60*
X49607Y22835D02*
X53938Y18504D01*
X50000Y29528D02*
X50788Y30315D01*
X50000Y29527D02*
Y29528D01*
X25197Y37795D02*
Y40551D01*
X21654Y35827D02*
X28740D01*
X78937Y52953D02*
X81201D01*
X88878Y41929D02*
Y47835D01*
X49607Y29133D02*
X50000Y29527D01*
X49607Y22835D02*
Y29133D01*
X88583Y41634D02*
X88878Y41929D01*
X87402Y40453D02*
X87599D01*
X88583Y41437D01*
Y41634D01*
X78741Y40945D02*
X86909D01*
X87402Y40453D01*
X28740Y35827D02*
X32283D01*
X18898D02*
X21654D01*
X81201Y52953D02*
Y55807D01*
D61*
X61811Y11614D02*
D03*
X87795D02*
D03*
D62*
X8917Y81791D02*
D03*
X13917D02*
D03*
X8917Y76791D02*
D03*
X13917D02*
D03*
X8917Y71791D02*
D03*
X13917D02*
D03*
Y46791D02*
D03*
X8917D02*
D03*
X13917Y51791D02*
D03*
X8917D02*
D03*
X13917Y56791D02*
D03*
X8917D02*
D03*
X13917Y61791D02*
D03*
X8917D02*
D03*
X13917Y66791D02*
D03*
X8917D02*
D03*
X13917Y86791D02*
D03*
X8917D02*
D03*
X13917Y91791D02*
D03*
X8917D02*
D03*
X13917Y22303D02*
D03*
X8917D02*
D03*
X13917Y27303D02*
D03*
X8917D02*
D03*
X88721Y151417D02*
D03*
X83720D02*
D03*
X88721Y156417D02*
D03*
X83720D02*
D03*
X88721Y161417D02*
D03*
X83720D02*
D03*
X88721Y166417D02*
D03*
X83720D02*
D03*
X88721Y171417D02*
D03*
X83720D02*
D03*
X70217Y151417D02*
D03*
X65216D02*
D03*
X70217Y156417D02*
D03*
X65216D02*
D03*
X70217Y161417D02*
D03*
X65216D02*
D03*
X70217Y166417D02*
D03*
X65216D02*
D03*
X70217Y171417D02*
D03*
X65216D02*
D03*
X51713Y151417D02*
D03*
X46713D02*
D03*
X51713Y156417D02*
D03*
X46713D02*
D03*
X51713Y161417D02*
D03*
X46713D02*
D03*
X51713Y166417D02*
D03*
X46713D02*
D03*
X51713Y171417D02*
D03*
X46713D02*
D03*
X32815Y151417D02*
D03*
X27815D02*
D03*
X32815Y156417D02*
D03*
X27815D02*
D03*
X32815Y161417D02*
D03*
X27815D02*
D03*
X32815Y166417D02*
D03*
X27815D02*
D03*
X32815Y171417D02*
D03*
X27815D02*
D03*
X13917Y151417D02*
D03*
X8917D02*
D03*
X13917Y156417D02*
D03*
X8917D02*
D03*
X13917Y161417D02*
D03*
X8917D02*
D03*
X13917Y166417D02*
D03*
X8917D02*
D03*
X13917Y171417D02*
D03*
X8917D02*
D03*
D63*
X10040Y114763D02*
D03*
X53543Y28346D02*
D03*
X83081Y20814D02*
D03*
X79921Y26483D02*
D03*
X19685Y126772D02*
D03*
X79921Y18504D02*
D03*
X69685Y18504D02*
D03*
X69685Y26378D02*
D03*
X10866Y121024D02*
D03*
X58661Y104331D02*
D03*
X18898Y87008D02*
D03*
X20866Y73622D02*
D03*
X33071Y107874D02*
D03*
X27953Y60630D02*
D03*
Y51968D02*
D03*
X70079Y119291D02*
D03*
X81102Y98425D02*
D03*
X84646Y112205D02*
D03*
X53242Y89882D02*
D03*
X27953Y86614D02*
D03*
Y82688D02*
D03*
X69889Y88583D02*
D03*
X59842Y79528D02*
D03*
Y73228D02*
D03*
X58268Y90158D02*
D03*
X56693Y76378D02*
D03*
X53543Y76378D02*
D03*
X53504Y79489D02*
D03*
X51968Y107874D02*
D03*
X56766Y82677D02*
D03*
X52362Y43307D02*
D03*
X50414Y51181D02*
D03*
X47244Y48031D02*
D03*
X44094Y51181D02*
D03*
X40945Y48031D02*
D03*
X61417Y92126D02*
D03*
X37795Y82677D02*
D03*
X56693Y70079D02*
D03*
Y86349D02*
D03*
X59843Y70079D02*
D03*
X25197Y29331D02*
D03*
X25197Y40551D02*
D03*
X28839Y24311D02*
D03*
X78937Y52953D02*
D03*
X88878Y43574D02*
D03*
Y45613D02*
D03*
X58661Y32388D02*
D03*
X28642Y20472D02*
D03*
X85039Y66535D02*
D03*
X81890Y77559D02*
D03*
X85039Y45669D02*
D03*
X82284Y44094D02*
D03*
X78741Y30709D02*
D03*
X91339Y40157D02*
D03*
X30709Y14173D02*
D03*
X38780Y16634D02*
D03*
X10630Y35827D02*
D03*
X28740D02*
D03*
X21654D02*
D03*
X29921Y41339D02*
D03*
X38177Y20478D02*
D03*
X40052Y29527D02*
D03*
X46457Y34646D02*
D03*
X49607Y22835D02*
D03*
X41339Y92519D02*
D03*
X16929Y140551D02*
D03*
X69291Y37008D02*
D03*
X81102Y73228D02*
D03*
X85039Y55118D02*
D03*
X93701Y70472D02*
D03*
X90551Y74016D02*
D03*
X94056Y75810D02*
D03*
X83465Y90551D02*
D03*
X82382Y85335D02*
D03*
X85039Y74016D02*
D03*
X93307Y127165D02*
D03*
X92520Y138189D02*
D03*
X82677Y118110D02*
D03*
X78347Y123228D02*
D03*
X77165Y136221D02*
D03*
X81102Y138189D02*
D03*
X25984Y120079D02*
D03*
X20472Y103937D02*
D03*
X6494Y103738D02*
D03*
X6498Y126179D02*
D03*
X10040Y99409D02*
D03*
X8268Y118110D02*
D03*
X6693Y132872D02*
D03*
X8268Y140551D02*
D03*
X34646Y44094D02*
D03*
X41339Y34646D02*
D03*
X62992Y54331D02*
D03*
X59843Y54331D02*
D03*
X65354Y32283D02*
D03*
X81201Y55807D02*
D03*
X81890Y70472D02*
D03*
X94095Y92126D02*
D03*
X37008Y45669D02*
D03*
X33071Y129921D02*
D03*
X69291Y66929D02*
D03*
X44094Y82677D02*
D03*
X89370Y118504D02*
D03*
X76772Y130709D02*
D03*
X89370Y121260D02*
D03*
X19685Y131496D02*
D03*
X28346Y122047D02*
D03*
X27953Y115748D02*
D03*
X28346Y127559D02*
D03*
X16929Y118110D02*
D03*
X58268Y133071D02*
D03*
X58268Y129921D02*
D03*
X55118Y129921D02*
D03*
X55142Y133071D02*
D03*
X61417D02*
D03*
X51968Y129921D02*
D03*
Y133071D02*
D03*
X31890Y142520D02*
D03*
X40945Y76378D02*
D03*
X36220Y114184D02*
D03*
X36209Y111013D02*
D03*
X94095Y97638D02*
D03*
Y103150D02*
D03*
Y108661D02*
D03*
Y114173D02*
D03*
X84646Y95669D02*
D03*
Y101181D02*
D03*
Y106693D02*
D03*
X70472Y114173D02*
D03*
X58268Y126772D02*
D03*
X67323Y119291D02*
D03*
X58268Y120473D02*
D03*
X40945Y57480D02*
D03*
Y51181D02*
D03*
X34646Y54331D02*
D03*
X27953Y71653D02*
D03*
X72047Y53150D02*
D03*
Y57087D02*
D03*
X68898Y115748D02*
D03*
X66142Y66929D02*
D03*
X61417Y104331D02*
D03*
X61811Y95276D02*
D03*
X58268Y107874D02*
D03*
X62992Y70099D02*
D03*
X64173Y101969D02*
D03*
X69291Y60630D02*
D03*
X58268Y111024D02*
D03*
X69685Y57087D02*
D03*
X46063Y97244D02*
D03*
X27953Y66929D02*
D03*
X53543Y54331D02*
D03*
X50394Y57469D02*
D03*
X56693Y60630D02*
D03*
X50394Y70079D02*
D03*
X44094Y63779D02*
D03*
X37784D02*
D03*
X40956D02*
D03*
X45669Y104331D02*
D03*
X55118Y114173D02*
D03*
X42520Y133071D02*
D03*
Y111024D02*
D03*
Y114140D02*
D03*
X33071Y120473D02*
D03*
X44094Y73239D02*
D03*
Y70068D02*
D03*
X42520Y117312D02*
D03*
Y120505D02*
D03*
X39392Y126772D02*
D03*
X42520D02*
D03*
X34646Y57480D02*
D03*
Y63779D02*
D03*
X37795Y73228D02*
D03*
X34646D02*
D03*
X37795Y79528D02*
D03*
X39370Y114173D02*
D03*
X39381Y111024D02*
D03*
X39370Y129921D02*
D03*
X44094Y79528D02*
D03*
X50383Y63779D02*
D03*
X53554D02*
D03*
X53543Y70079D02*
D03*
X50394Y73228D02*
D03*
X53543D02*
D03*
X51968Y111024D02*
D03*
X55118D02*
D03*
X51957Y120473D02*
D03*
X55129D02*
D03*
X51968Y126772D02*
D03*
X59843Y63779D02*
D03*
X58268Y114173D02*
D03*
X37795Y76378D02*
D03*
X34646D02*
D03*
X39370Y117323D02*
D03*
Y133071D02*
D03*
X36220D02*
D03*
X44094Y60641D02*
D03*
Y76378D02*
D03*
X50394Y60641D02*
D03*
X53543Y60630D02*
D03*
X55129Y117323D02*
D03*
X51957D02*
D03*
X58268D02*
D03*
X40956Y70079D02*
D03*
X40945Y73228D02*
D03*
X48819Y114173D02*
D03*
Y111024D02*
D03*
Y120473D02*
D03*
Y126772D02*
D03*
Y129921D02*
D03*
X40945Y60630D02*
D03*
X48819Y117323D02*
D03*
Y133071D02*
D03*
D64*
X81201Y52953D02*
D03*
Y47835D02*
D03*
Y50394D02*
D03*
X88878Y47835D02*
D03*
Y50394D02*
D03*
Y52953D02*
D03*
D65*
X85039Y50394D02*
D03*
D66*
X88583Y133858D02*
D03*
X16929Y106693D02*
D03*
X74803Y9843D02*
D03*
D67*
X24409Y82677D02*
D03*
X18898D02*
D03*
Y35827D02*
D03*
X13386D02*
D03*
X48425Y142520D02*
D03*
X42913D02*
D03*
X90551Y77559D02*
D03*
X85039D02*
D03*
X90551Y70472D02*
D03*
X85039D02*
D03*
D68*
X25197Y32283D02*
D03*
Y37795D02*
D03*
X54331Y51575D02*
D03*
Y57087D02*
D03*
X47244Y100394D02*
D03*
Y94882D02*
D03*
D69*
X90354Y61417D02*
D03*
X84449D02*
D03*
D70*
X76772Y133071D02*
D03*
X69685D02*
D03*
D71*
X91102Y86614D02*
D03*
X87638D02*
D03*
X30945Y60630D02*
D03*
X34409D02*
D03*
X14331Y123228D02*
D03*
X10866D02*
D03*
D72*
X78741Y40945D02*
D03*
Y33859D02*
D03*
X87402Y27953D02*
D03*
Y20866D02*
D03*
D73*
X87402Y35138D02*
D03*
Y40453D02*
D03*
D74*
X77953Y23622D02*
X82571D01*
X75197Y26378D02*
X77953Y23622D01*
X69685Y26378D02*
X75197D01*
X69685Y18898D02*
Y26378D01*
X69685Y26378D01*
X82571Y23622D02*
X85040Y26091D01*
Y26772D02*
X86221Y27954D01*
X85040Y26091D02*
Y26772D01*
X86221Y27954D02*
X87402D01*
Y35138D02*
X87402Y35138D01*
Y27954D02*
Y35138D01*
X87402Y27954D02*
X87402Y27954D01*
D75*
X85039Y66535D02*
Y70472D01*
Y64173D02*
Y66535D01*
Y70472D02*
Y74016D01*
X81890Y77559D02*
X85039D01*
Y74016D02*
Y77559D01*
X78741Y40945D02*
X79233Y40453D01*
X81890Y70472D02*
X85039D01*
X84449Y63583D02*
X85039Y64173D01*
X84449Y61417D02*
Y63583D01*
X85039Y77559D02*
Y81496D01*
X87638Y84095D01*
Y86614D01*
M02*
