G04*
G04 #@! TF.GenerationSoftware,Altium Limited,Altium Designer,20.2.6 (244)*
G04*
G04 Layer_Physical_Order=3*
G04 Layer_Color=16440176*
%FSLAX25Y25*%
%MOIN*%
G70*
G04*
G04 #@! TF.SameCoordinates,98B12EC8-E559-45FE-9E7D-FCD1A3165D23*
G04*
G04*
G04 #@! TF.FilePolarity,Positive*
G04*
G01*
G75*
%ADD53C,0.04331*%
%ADD54R,0.04331X0.04331*%
%ADD55C,0.00500*%
%ADD59C,0.01000*%
%ADD62C,0.04134*%
%ADD63C,0.01772*%
G36*
X90551Y176362D02*
Y176362D01*
X91931Y176226D01*
X93257Y175824D01*
X94479Y175170D01*
X95551Y174291D01*
X96430Y173220D01*
X97084Y171997D01*
X97486Y170671D01*
X97622Y169291D01*
X97622Y169291D01*
X97622D01*
X97622Y168791D01*
X97622Y7874D01*
X97622Y7874D01*
X97622D01*
X97486Y6494D01*
X97084Y5168D01*
X96430Y3946D01*
X95551Y2874D01*
X94479Y1995D01*
X93257Y1342D01*
X91931Y939D01*
X90551Y803D01*
X90551Y803D01*
Y803D01*
X90551Y803D01*
X8374Y803D01*
X7874Y803D01*
X7874Y803D01*
X7394Y851D01*
X6494Y939D01*
X5168Y1342D01*
X3946Y1995D01*
X2874Y2874D01*
X1995Y3946D01*
X1342Y5168D01*
X939Y6495D01*
X803Y7874D01*
X803D01*
Y169291D01*
X803D01*
X803Y169291D01*
X939Y170671D01*
X1342Y171997D01*
X1995Y173220D01*
X2874Y174291D01*
X3946Y175170D01*
X5168Y175824D01*
X6494Y176226D01*
X7874Y176362D01*
X7874Y176362D01*
Y176363D01*
X7874Y176363D01*
X7874Y176363D01*
X90051Y176363D01*
X90551Y176362D01*
D02*
G37*
%LPC*%
G36*
X88721Y174098D02*
X88027Y174006D01*
X87380Y173739D01*
X86825Y173313D01*
X86519Y172913D01*
X86400Y172874D01*
X86041D01*
X85922Y172913D01*
X85616Y173313D01*
X85061Y173739D01*
X84414Y174006D01*
X84220Y174032D01*
Y171417D01*
X83720D01*
Y170917D01*
X81106D01*
X81131Y170724D01*
X81399Y170077D01*
X81825Y169522D01*
X82225Y169215D01*
X82263Y169096D01*
Y168738D01*
X82225Y168619D01*
X81825Y168313D01*
X81399Y167757D01*
X81131Y167111D01*
X81040Y166417D01*
X81131Y165724D01*
X81399Y165077D01*
X81825Y164522D01*
X82225Y164215D01*
X82263Y164096D01*
Y163738D01*
X82225Y163619D01*
X81825Y163313D01*
X81399Y162758D01*
X81131Y162111D01*
X81040Y161417D01*
X81131Y160724D01*
X81399Y160077D01*
X81825Y159522D01*
X82225Y159215D01*
X82263Y159096D01*
Y158738D01*
X82225Y158619D01*
X81825Y158313D01*
X81399Y157757D01*
X81131Y157111D01*
X81040Y156417D01*
X81131Y155724D01*
X81399Y155077D01*
X81825Y154522D01*
X82225Y154215D01*
X82263Y154096D01*
Y153738D01*
X82225Y153619D01*
X81825Y153313D01*
X81399Y152758D01*
X81131Y152111D01*
X81040Y151417D01*
X81131Y150724D01*
X81399Y150077D01*
X81825Y149522D01*
X82380Y149096D01*
X83027Y148828D01*
X83720Y148737D01*
X84414Y148828D01*
X85061Y149096D01*
X85616Y149522D01*
X85922Y149922D01*
X86041Y149960D01*
X86400D01*
X86519Y149922D01*
X86825Y149522D01*
X87380Y149096D01*
X88027Y148828D01*
X88721Y148737D01*
X89414Y148828D01*
X90061Y149096D01*
X90616Y149522D01*
X91042Y150077D01*
X91310Y150724D01*
X91401Y151417D01*
X91310Y152111D01*
X91042Y152758D01*
X90616Y153313D01*
X90216Y153619D01*
X90177Y153738D01*
Y154096D01*
X90216Y154215D01*
X90616Y154522D01*
X91042Y155077D01*
X91310Y155724D01*
X91401Y156417D01*
X91310Y157111D01*
X91042Y157757D01*
X90616Y158313D01*
X90216Y158619D01*
X90177Y158738D01*
Y159096D01*
X90216Y159215D01*
X90616Y159522D01*
X91042Y160077D01*
X91310Y160724D01*
X91401Y161417D01*
X91310Y162111D01*
X91042Y162758D01*
X90616Y163313D01*
X90216Y163619D01*
X90177Y163738D01*
Y164096D01*
X90216Y164215D01*
X90616Y164522D01*
X91042Y165077D01*
X91310Y165724D01*
X91401Y166417D01*
X91310Y167111D01*
X91042Y167757D01*
X90616Y168313D01*
X90216Y168619D01*
X90177Y168738D01*
Y169096D01*
X90216Y169215D01*
X90616Y169522D01*
X91042Y170077D01*
X91310Y170724D01*
X91401Y171417D01*
X91310Y172111D01*
X91042Y172757D01*
X90616Y173313D01*
X90061Y173739D01*
X89414Y174006D01*
X88721Y174098D01*
D02*
G37*
G36*
X70217D02*
X69523Y174006D01*
X68876Y173739D01*
X68321Y173313D01*
X68015Y172913D01*
X67896Y172874D01*
X67537D01*
X67418Y172913D01*
X67112Y173313D01*
X66557Y173739D01*
X65910Y174006D01*
X65716Y174032D01*
Y171417D01*
X65216D01*
Y170917D01*
X62602D01*
X62627Y170724D01*
X62895Y170077D01*
X63321Y169522D01*
X63721Y169215D01*
X63760Y169096D01*
Y168738D01*
X63721Y168619D01*
X63321Y168313D01*
X62895Y167757D01*
X62627Y167111D01*
X62536Y166417D01*
X62627Y165724D01*
X62895Y165077D01*
X63321Y164522D01*
X63721Y164215D01*
X63760Y164096D01*
Y163738D01*
X63721Y163619D01*
X63321Y163313D01*
X62895Y162758D01*
X62627Y162111D01*
X62536Y161417D01*
X62627Y160724D01*
X62895Y160077D01*
X63321Y159522D01*
X63721Y159215D01*
X63760Y159096D01*
Y158738D01*
X63721Y158619D01*
X63321Y158313D01*
X62895Y157757D01*
X62627Y157111D01*
X62536Y156417D01*
X62627Y155724D01*
X62895Y155077D01*
X63321Y154522D01*
X63721Y154215D01*
X63760Y154096D01*
Y153738D01*
X63721Y153619D01*
X63321Y153313D01*
X62895Y152758D01*
X62627Y152111D01*
X62536Y151417D01*
X62627Y150724D01*
X62895Y150077D01*
X63321Y149522D01*
X63876Y149096D01*
X64523Y148828D01*
X65216Y148737D01*
X65910Y148828D01*
X66557Y149096D01*
X67112Y149522D01*
X67418Y149922D01*
X67537Y149960D01*
X67896D01*
X68015Y149922D01*
X68321Y149522D01*
X68876Y149096D01*
X69523Y148828D01*
X70217Y148737D01*
X70910Y148828D01*
X71557Y149096D01*
X72112Y149522D01*
X72538Y150077D01*
X72806Y150724D01*
X72897Y151417D01*
X72806Y152111D01*
X72538Y152758D01*
X72112Y153313D01*
X71712Y153619D01*
X71674Y153738D01*
Y154096D01*
X71712Y154215D01*
X72112Y154522D01*
X72538Y155077D01*
X72806Y155724D01*
X72897Y156417D01*
X72806Y157111D01*
X72538Y157757D01*
X72112Y158313D01*
X71712Y158619D01*
X71674Y158738D01*
Y159096D01*
X71712Y159215D01*
X72112Y159522D01*
X72538Y160077D01*
X72806Y160724D01*
X72897Y161417D01*
X72806Y162111D01*
X72538Y162758D01*
X72112Y163313D01*
X71712Y163619D01*
X71674Y163738D01*
Y164096D01*
X71712Y164215D01*
X72112Y164522D01*
X72538Y165077D01*
X72806Y165724D01*
X72897Y166417D01*
X72806Y167111D01*
X72538Y167757D01*
X72112Y168313D01*
X71712Y168619D01*
X71674Y168738D01*
Y169096D01*
X71712Y169215D01*
X72112Y169522D01*
X72538Y170077D01*
X72806Y170724D01*
X72897Y171417D01*
X72806Y172111D01*
X72538Y172757D01*
X72112Y173313D01*
X71557Y173739D01*
X70910Y174006D01*
X70217Y174098D01*
D02*
G37*
G36*
X51713D02*
X51019Y174006D01*
X50372Y173739D01*
X49817Y173313D01*
X49511Y172913D01*
X49392Y172874D01*
X49034D01*
X48915Y172913D01*
X48608Y173313D01*
X48053Y173739D01*
X47406Y174006D01*
X47213Y174032D01*
Y171417D01*
X46713D01*
Y170917D01*
X44098D01*
X44124Y170724D01*
X44391Y170077D01*
X44817Y169522D01*
X45217Y169215D01*
X45256Y169096D01*
Y168738D01*
X45217Y168619D01*
X44817Y168313D01*
X44391Y167757D01*
X44124Y167111D01*
X44032Y166417D01*
X44124Y165724D01*
X44391Y165077D01*
X44817Y164522D01*
X45217Y164215D01*
X45256Y164096D01*
Y163738D01*
X45217Y163619D01*
X44817Y163313D01*
X44391Y162758D01*
X44124Y162111D01*
X44032Y161417D01*
X44124Y160724D01*
X44391Y160077D01*
X44817Y159522D01*
X45217Y159215D01*
X45256Y159096D01*
Y158738D01*
X45217Y158619D01*
X44817Y158313D01*
X44391Y157757D01*
X44124Y157111D01*
X44032Y156417D01*
X44124Y155724D01*
X44391Y155077D01*
X44817Y154522D01*
X45217Y154215D01*
X45256Y154096D01*
Y153738D01*
X45217Y153619D01*
X44817Y153313D01*
X44391Y152758D01*
X44124Y152111D01*
X44032Y151417D01*
X44124Y150724D01*
X44391Y150077D01*
X44817Y149522D01*
X45372Y149096D01*
X46019Y148828D01*
X46713Y148737D01*
X47406Y148828D01*
X48053Y149096D01*
X48608Y149522D01*
X48915Y149922D01*
X49034Y149960D01*
X49392D01*
X49511Y149922D01*
X49817Y149522D01*
X50372Y149096D01*
X51019Y148828D01*
X51713Y148737D01*
X52406Y148828D01*
X53053Y149096D01*
X53608Y149522D01*
X54034Y150077D01*
X54302Y150724D01*
X54393Y151417D01*
X54302Y152111D01*
X54034Y152758D01*
X53608Y153313D01*
X53208Y153619D01*
X53170Y153738D01*
Y154096D01*
X53208Y154215D01*
X53608Y154522D01*
X54034Y155077D01*
X54302Y155724D01*
X54393Y156417D01*
X54302Y157111D01*
X54034Y157757D01*
X53608Y158313D01*
X53208Y158619D01*
X53170Y158738D01*
Y159096D01*
X53208Y159215D01*
X53608Y159522D01*
X54034Y160077D01*
X54302Y160724D01*
X54393Y161417D01*
X54302Y162111D01*
X54034Y162758D01*
X53608Y163313D01*
X53208Y163619D01*
X53170Y163738D01*
Y164096D01*
X53208Y164215D01*
X53608Y164522D01*
X54034Y165077D01*
X54302Y165724D01*
X54393Y166417D01*
X54302Y167111D01*
X54034Y167757D01*
X53608Y168313D01*
X53208Y168619D01*
X53170Y168738D01*
Y169096D01*
X53208Y169215D01*
X53608Y169522D01*
X54034Y170077D01*
X54302Y170724D01*
X54393Y171417D01*
X54302Y172111D01*
X54034Y172757D01*
X53608Y173313D01*
X53053Y173739D01*
X52406Y174006D01*
X51713Y174098D01*
D02*
G37*
G36*
X32815D02*
X32121Y174006D01*
X31475Y173739D01*
X30920Y173313D01*
X30613Y172913D01*
X30494Y172874D01*
X30136D01*
X30017Y172913D01*
X29710Y173313D01*
X29155Y173739D01*
X28509Y174006D01*
X28315Y174032D01*
Y171417D01*
X27815D01*
Y170917D01*
X25200D01*
X25226Y170724D01*
X25494Y170077D01*
X25920Y169522D01*
X26319Y169215D01*
X26358Y169096D01*
Y168738D01*
X26319Y168619D01*
X25920Y168313D01*
X25494Y167757D01*
X25226Y167111D01*
X25135Y166417D01*
X25226Y165724D01*
X25494Y165077D01*
X25920Y164522D01*
X26319Y164215D01*
X26358Y164096D01*
Y163738D01*
X26319Y163619D01*
X25920Y163313D01*
X25494Y162758D01*
X25226Y162111D01*
X25135Y161417D01*
X25226Y160724D01*
X25494Y160077D01*
X25920Y159522D01*
X26319Y159215D01*
X26358Y159096D01*
Y158738D01*
X26319Y158619D01*
X25920Y158313D01*
X25494Y157757D01*
X25226Y157111D01*
X25135Y156417D01*
X25226Y155724D01*
X25494Y155077D01*
X25920Y154522D01*
X26319Y154215D01*
X26358Y154096D01*
Y153738D01*
X26319Y153619D01*
X25920Y153313D01*
X25494Y152758D01*
X25226Y152111D01*
X25135Y151417D01*
X25226Y150724D01*
X25494Y150077D01*
X25920Y149522D01*
X26475Y149096D01*
X27121Y148828D01*
X27815Y148737D01*
X28509Y148828D01*
X29155Y149096D01*
X29710Y149522D01*
X30017Y149922D01*
X30136Y149960D01*
X30494D01*
X30613Y149922D01*
X30920Y149522D01*
X31475Y149096D01*
X32121Y148828D01*
X32815Y148737D01*
X33509Y148828D01*
X34155Y149096D01*
X34710Y149522D01*
X35136Y150077D01*
X35404Y150724D01*
X35495Y151417D01*
X35404Y152111D01*
X35136Y152758D01*
X34710Y153313D01*
X34311Y153619D01*
X34272Y153738D01*
Y154096D01*
X34311Y154215D01*
X34710Y154522D01*
X35136Y155077D01*
X35404Y155724D01*
X35495Y156417D01*
X35404Y157111D01*
X35136Y157757D01*
X34710Y158313D01*
X34311Y158619D01*
X34272Y158738D01*
Y159096D01*
X34311Y159215D01*
X34710Y159522D01*
X35136Y160077D01*
X35404Y160724D01*
X35495Y161417D01*
X35404Y162111D01*
X35136Y162758D01*
X34710Y163313D01*
X34311Y163619D01*
X34272Y163738D01*
Y164096D01*
X34311Y164215D01*
X34710Y164522D01*
X35136Y165077D01*
X35404Y165724D01*
X35495Y166417D01*
X35404Y167111D01*
X35136Y167757D01*
X34710Y168313D01*
X34311Y168619D01*
X34272Y168738D01*
Y169096D01*
X34311Y169215D01*
X34710Y169522D01*
X35136Y170077D01*
X35404Y170724D01*
X35495Y171417D01*
X35404Y172111D01*
X35136Y172757D01*
X34710Y173313D01*
X34155Y173739D01*
X33509Y174006D01*
X32815Y174098D01*
D02*
G37*
G36*
X13917D02*
X13224Y174006D01*
X12577Y173739D01*
X12022Y173313D01*
X11715Y172913D01*
X11596Y172874D01*
X11238D01*
X11119Y172913D01*
X10813Y173313D01*
X10257Y173739D01*
X9611Y174006D01*
X9417Y174032D01*
Y171417D01*
X8917D01*
Y170917D01*
X6303D01*
X6328Y170724D01*
X6596Y170077D01*
X7022Y169522D01*
X7422Y169215D01*
X7460Y169096D01*
Y168738D01*
X7422Y168619D01*
X7022Y168313D01*
X6596Y167757D01*
X6328Y167111D01*
X6237Y166417D01*
X6328Y165724D01*
X6596Y165077D01*
X7022Y164522D01*
X7422Y164215D01*
X7460Y164096D01*
Y163738D01*
X7422Y163619D01*
X7022Y163313D01*
X6596Y162758D01*
X6328Y162111D01*
X6237Y161417D01*
X6328Y160724D01*
X6596Y160077D01*
X7022Y159522D01*
X7422Y159215D01*
X7460Y159096D01*
Y158738D01*
X7422Y158619D01*
X7022Y158313D01*
X6596Y157757D01*
X6328Y157111D01*
X6237Y156417D01*
X6328Y155724D01*
X6596Y155077D01*
X7022Y154522D01*
X7422Y154215D01*
X7460Y154096D01*
Y153738D01*
X7422Y153619D01*
X7022Y153313D01*
X6596Y152758D01*
X6328Y152111D01*
X6237Y151417D01*
X6328Y150724D01*
X6596Y150077D01*
X7022Y149522D01*
X7577Y149096D01*
X8224Y148828D01*
X8917Y148737D01*
X9611Y148828D01*
X10257Y149096D01*
X10813Y149522D01*
X11119Y149922D01*
X11238Y149960D01*
X11596D01*
X11715Y149922D01*
X12022Y149522D01*
X12577Y149096D01*
X13224Y148828D01*
X13917Y148737D01*
X14611Y148828D01*
X15258Y149096D01*
X15813Y149522D01*
X16239Y150077D01*
X16506Y150724D01*
X16598Y151417D01*
X16506Y152111D01*
X16239Y152758D01*
X15813Y153313D01*
X15413Y153619D01*
X15374Y153738D01*
Y154096D01*
X15413Y154215D01*
X15813Y154522D01*
X16239Y155077D01*
X16506Y155724D01*
X16598Y156417D01*
X16506Y157111D01*
X16239Y157757D01*
X15813Y158313D01*
X15413Y158619D01*
X15374Y158738D01*
Y159096D01*
X15413Y159215D01*
X15813Y159522D01*
X16239Y160077D01*
X16506Y160724D01*
X16598Y161417D01*
X16506Y162111D01*
X16239Y162758D01*
X15813Y163313D01*
X15413Y163619D01*
X15374Y163738D01*
Y164096D01*
X15413Y164215D01*
X15813Y164522D01*
X16239Y165077D01*
X16506Y165724D01*
X16598Y166417D01*
X16506Y167111D01*
X16239Y167757D01*
X15813Y168313D01*
X15413Y168619D01*
X15374Y168738D01*
Y169096D01*
X15413Y169215D01*
X15813Y169522D01*
X16239Y170077D01*
X16506Y170724D01*
X16598Y171417D01*
X16506Y172111D01*
X16239Y172757D01*
X15813Y173313D01*
X15258Y173739D01*
X14611Y174006D01*
X13917Y174098D01*
D02*
G37*
G36*
X27315Y174032D02*
X27121Y174006D01*
X26475Y173739D01*
X25920Y173313D01*
X25494Y172757D01*
X25226Y172111D01*
X25200Y171917D01*
X27315D01*
Y174032D01*
D02*
G37*
G36*
X83220D02*
X83027Y174006D01*
X82380Y173739D01*
X81825Y173313D01*
X81399Y172757D01*
X81131Y172111D01*
X81106Y171917D01*
X83220D01*
Y174032D01*
D02*
G37*
G36*
X46213D02*
X46019Y174006D01*
X45372Y173739D01*
X44817Y173313D01*
X44391Y172757D01*
X44124Y172111D01*
X44098Y171917D01*
X46213D01*
Y174032D01*
D02*
G37*
G36*
X64717Y174032D02*
X64523Y174006D01*
X63876Y173739D01*
X63321Y173313D01*
X62895Y172757D01*
X62627Y172111D01*
X62602Y171917D01*
X64717D01*
Y174032D01*
D02*
G37*
G36*
X8417D02*
X8224Y174006D01*
X7577Y173739D01*
X7022Y173313D01*
X6596Y172757D01*
X6328Y172111D01*
X6303Y171917D01*
X8417D01*
Y174032D01*
D02*
G37*
G36*
X8268Y142057D02*
X7692Y141942D01*
X7203Y141616D01*
X6877Y141127D01*
X6763Y140551D01*
X6877Y139975D01*
X7203Y139487D01*
X7692Y139161D01*
X8268Y139046D01*
X8844Y139161D01*
X9332Y139487D01*
X9658Y139975D01*
X9773Y140551D01*
X9658Y141127D01*
X9332Y141616D01*
X8844Y141942D01*
X8268Y142057D01*
D02*
G37*
G36*
X16929Y142057D02*
X16353Y141942D01*
X15865Y141616D01*
X15538Y141127D01*
X15424Y140551D01*
X15538Y139975D01*
X15865Y139487D01*
X16353Y139161D01*
X16929Y139046D01*
X17505Y139161D01*
X17993Y139487D01*
X18320Y139975D01*
X18434Y140551D01*
X18320Y141127D01*
X17993Y141616D01*
X17505Y141942D01*
X16929Y142057D01*
D02*
G37*
G36*
X92520Y139694D02*
X91944Y139580D01*
X91455Y139253D01*
X91129Y138765D01*
X91014Y138189D01*
X91129Y137613D01*
X91455Y137125D01*
X91944Y136798D01*
X92520Y136684D01*
X93096Y136798D01*
X93584Y137125D01*
X93910Y137613D01*
X94025Y138189D01*
X93910Y138765D01*
X93584Y139253D01*
X93096Y139580D01*
X92520Y139694D01*
D02*
G37*
G36*
X81102D02*
X80526Y139580D01*
X80038Y139253D01*
X79712Y138765D01*
X79597Y138189D01*
X79712Y137613D01*
X80038Y137125D01*
X80526Y136798D01*
X81102Y136684D01*
X81678Y136798D01*
X82167Y137125D01*
X82493Y137613D01*
X82608Y138189D01*
X82493Y138765D01*
X82167Y139253D01*
X81678Y139580D01*
X81102Y139694D01*
D02*
G37*
G36*
X77165Y137726D02*
X76589Y137611D01*
X76101Y137285D01*
X75775Y136796D01*
X75660Y136221D01*
X75775Y135644D01*
X76101Y135156D01*
X76589Y134830D01*
X77165Y134715D01*
X77741Y134830D01*
X78230Y135156D01*
X78556Y135644D01*
X78671Y136221D01*
X78556Y136796D01*
X78230Y137285D01*
X77741Y137611D01*
X77165Y137726D01*
D02*
G37*
G36*
X31890Y144025D02*
X31314Y143910D01*
X30825Y143584D01*
X30499Y143096D01*
X30401Y142604D01*
X25198Y137400D01*
X24957Y137040D01*
X24872Y136614D01*
X24872Y136614D01*
Y135679D01*
X23228D01*
X22776Y135491D01*
X22589Y135039D01*
X22589Y74601D01*
X22089Y74449D01*
X21930Y74686D01*
X21442Y75013D01*
X20866Y75127D01*
X20290Y75013D01*
X19802Y74686D01*
X19475Y74198D01*
X19361Y73622D01*
X19475Y73046D01*
X19802Y72558D01*
X20290Y72231D01*
X20866Y72117D01*
X21442Y72231D01*
X21930Y72558D01*
X22089Y72795D01*
X22589Y72643D01*
X22589Y40422D01*
X19627Y37460D01*
X19440Y37008D01*
X19440Y33465D01*
X19627Y33013D01*
X20079Y32825D01*
X30709Y32825D01*
X31161Y33013D01*
X31348Y33465D01*
Y38408D01*
X31313Y38492D01*
X31323Y38583D01*
X31223Y38710D01*
X31161Y38860D01*
X31076Y38895D01*
X31019Y38967D01*
X30257Y39390D01*
X30339Y39916D01*
X30497Y39948D01*
X30986Y40274D01*
X31312Y40762D01*
X31427Y41339D01*
X31312Y41915D01*
X30986Y42403D01*
X30497Y42729D01*
X29921Y42844D01*
X29345Y42729D01*
X28857Y42403D01*
X28698Y42166D01*
X28198Y42317D01*
Y50512D01*
X28529Y50578D01*
X29017Y50904D01*
X29344Y51392D01*
X29458Y51968D01*
X29344Y52545D01*
X29017Y53033D01*
X28529Y53359D01*
X28198Y53425D01*
Y58929D01*
X28431Y59220D01*
X28529Y59239D01*
X29017Y59566D01*
X29344Y60054D01*
X29425Y60462D01*
X33230Y65219D01*
X33271Y65211D01*
X33304Y65172D01*
X33462Y64666D01*
X33255Y64356D01*
X33140Y63779D01*
X33255Y63204D01*
X33581Y62715D01*
X34070Y62389D01*
X34646Y62274D01*
X35222Y62389D01*
X35710Y62715D01*
X35937Y63055D01*
X35990Y63072D01*
X36440D01*
X36493Y63055D01*
X36720Y62715D01*
X37208Y62389D01*
X37784Y62274D01*
X38013Y62320D01*
X38438Y62222D01*
X38562Y61958D01*
X38578Y61877D01*
X38764Y61599D01*
X39488Y60875D01*
X39440Y60630D01*
X39554Y60054D01*
X39880Y59566D01*
X40229Y59333D01*
X40250Y59262D01*
Y58849D01*
X40229Y58777D01*
X39880Y58545D01*
X39554Y58056D01*
X39440Y57480D01*
X39554Y56904D01*
X39880Y56416D01*
X40369Y56090D01*
X40945Y55975D01*
X41521Y56090D01*
X42009Y56416D01*
X42336Y56904D01*
X42450Y57480D01*
X42336Y58056D01*
X42009Y58545D01*
X41661Y58777D01*
X41640Y58849D01*
Y59262D01*
X41661Y59333D01*
X42009Y59566D01*
X42336Y60054D01*
X42450Y60630D01*
X42336Y61206D01*
X42009Y61694D01*
X41521Y62021D01*
X40945Y62135D01*
X40700Y62087D01*
X40227Y62560D01*
Y65503D01*
X43116Y65503D01*
X43267Y65003D01*
X43030Y64844D01*
X42704Y64356D01*
X42589Y63779D01*
X42704Y63204D01*
X43030Y62715D01*
X43518Y62389D01*
X44094Y62274D01*
X44671Y62389D01*
X45159Y62715D01*
X45485Y63204D01*
X45600Y63779D01*
X45485Y64356D01*
X45159Y64844D01*
X44922Y65003D01*
X45073Y65503D01*
X45276D01*
X45728Y65690D01*
X45773Y65798D01*
X47741D01*
X47741Y65798D01*
X47836Y65817D01*
X49837D01*
X49918Y65702D01*
X49842Y65337D01*
X49722Y65113D01*
X49318Y64844D01*
X48992Y64356D01*
X48877Y63779D01*
X48992Y63204D01*
X49318Y62715D01*
X49664Y62484D01*
X49678Y62441D01*
X49683Y61992D01*
X49664Y61929D01*
X49329Y61705D01*
X49003Y61217D01*
X48888Y60641D01*
X49003Y60065D01*
X49329Y59577D01*
X49694Y59333D01*
X49725Y59216D01*
Y58894D01*
X49694Y58777D01*
X49329Y58534D01*
X49003Y58045D01*
X48888Y57469D01*
X49003Y56893D01*
X49329Y56405D01*
X49818Y56079D01*
X50394Y55964D01*
X50970Y56079D01*
X51458Y56405D01*
X51784Y56893D01*
X51899Y57469D01*
X51784Y58045D01*
X51458Y58534D01*
X51094Y58777D01*
X51063Y58894D01*
Y59216D01*
X51094Y59333D01*
X51458Y59577D01*
X51687Y59919D01*
X51770Y59943D01*
X52182Y59938D01*
X52243Y59919D01*
X52479Y59566D01*
X52967Y59239D01*
X53543Y59125D01*
X54119Y59239D01*
X54608Y59566D01*
X54840Y59914D01*
X54912Y59935D01*
X55325D01*
X55396Y59914D01*
X55629Y59566D01*
X56117Y59239D01*
X56693Y59125D01*
X57269Y59239D01*
X57757Y59566D01*
X58084Y60054D01*
X58198Y60630D01*
X58084Y61206D01*
X57757Y61694D01*
X57269Y62021D01*
X56693Y62135D01*
X56117Y62021D01*
X55629Y61694D01*
X55396Y61346D01*
X55325Y61325D01*
X54912D01*
X54840Y61346D01*
X54608Y61694D01*
X54119Y62021D01*
X53543Y62135D01*
X53299Y62087D01*
X52826Y62560D01*
Y65354D01*
X52760Y65682D01*
X52574Y65960D01*
X51481Y67054D01*
X51421Y67355D01*
X51180Y67715D01*
X50819Y67956D01*
X50394Y68041D01*
X47760D01*
X47760Y68041D01*
X47665Y68022D01*
X45788D01*
X45728Y68168D01*
X45276Y68356D01*
X45090D01*
X44938Y68856D01*
X45159Y69003D01*
X45485Y69492D01*
X45600Y70068D01*
X45485Y70644D01*
X45159Y71132D01*
X44794Y71376D01*
X44764Y71493D01*
Y71814D01*
X44794Y71931D01*
X45159Y72175D01*
X45485Y72663D01*
X45600Y73239D01*
X45485Y73815D01*
X45159Y74304D01*
X44819Y74531D01*
X44802Y74584D01*
Y75034D01*
X44819Y75086D01*
X45159Y75314D01*
X45485Y75802D01*
X45600Y76378D01*
X45485Y76954D01*
X45159Y77442D01*
X44811Y77675D01*
X44789Y77746D01*
Y78159D01*
X44811Y78231D01*
X45159Y78463D01*
X45485Y78952D01*
X45600Y79528D01*
X45485Y80104D01*
X45159Y80592D01*
X44811Y80825D01*
X44789Y80896D01*
X44789Y81309D01*
X44811Y81380D01*
X45159Y81613D01*
X45485Y82101D01*
X45600Y82677D01*
X45485Y83253D01*
X45159Y83741D01*
X44671Y84068D01*
X44094Y84182D01*
X43518Y84068D01*
X43030Y83741D01*
X42704Y83253D01*
X42589Y82677D01*
X42704Y82101D01*
X43030Y81613D01*
X43378Y81380D01*
X43400Y81309D01*
X43400Y80896D01*
X43378Y80825D01*
X43030Y80592D01*
X42704Y80104D01*
X42589Y79528D01*
X42704Y78952D01*
X43030Y78463D01*
X43378Y78231D01*
X43400Y78159D01*
Y77746D01*
X43378Y77675D01*
X43030Y77442D01*
X42797Y77094D01*
X42726Y77073D01*
X42313D01*
X42242Y77094D01*
X42009Y77442D01*
X41521Y77769D01*
X40945Y77883D01*
X40369Y77769D01*
X39880Y77442D01*
X39648Y77094D01*
X39577Y77073D01*
X39164D01*
X39092Y77094D01*
X38860Y77442D01*
X38512Y77675D01*
X38490Y77746D01*
Y78159D01*
X38512Y78231D01*
X38860Y78463D01*
X39186Y78952D01*
X39301Y79528D01*
X39186Y80104D01*
X38860Y80592D01*
X38512Y80825D01*
X38490Y80896D01*
Y81309D01*
X38512Y81380D01*
X38860Y81613D01*
X39186Y82101D01*
X39301Y82677D01*
X39186Y83253D01*
X38860Y83742D01*
X38371Y84068D01*
X37795Y84183D01*
X37219Y84068D01*
X36731Y83742D01*
X36405Y83253D01*
X36290Y82677D01*
X36405Y82101D01*
X36731Y81613D01*
X37079Y81380D01*
X37101Y81309D01*
Y80896D01*
X37079Y80825D01*
X36731Y80592D01*
X36405Y80104D01*
X36290Y79528D01*
X36405Y78952D01*
X36731Y78463D01*
X37079Y78231D01*
X37101Y78159D01*
Y77746D01*
X37079Y77675D01*
X36731Y77442D01*
X36498Y77094D01*
X36427Y77073D01*
X36014D01*
X35943Y77094D01*
X35710Y77442D01*
X35222Y77769D01*
X34646Y77883D01*
X34070Y77769D01*
X33581Y77442D01*
X33255Y76954D01*
X33140Y76378D01*
X33255Y75802D01*
X33581Y75314D01*
X33929Y75081D01*
X33951Y75010D01*
Y74597D01*
X33929Y74525D01*
X33581Y74293D01*
X33255Y73804D01*
X33140Y73228D01*
X33255Y72652D01*
X33581Y72164D01*
X34070Y71838D01*
X34646Y71723D01*
X35222Y71838D01*
X35710Y72164D01*
X35943Y72512D01*
X36014Y72534D01*
X36427D01*
X36498Y72512D01*
X36731Y72164D01*
X37219Y71838D01*
X37795Y71723D01*
X38026Y71769D01*
X38089Y71754D01*
X38513Y71377D01*
Y68356D01*
X29758Y68356D01*
X29707Y68335D01*
X29653Y68347D01*
X29487Y68243D01*
X29306Y68168D01*
X28823Y68124D01*
X28529Y68320D01*
X27953Y68434D01*
X27797Y68404D01*
X27411Y68721D01*
Y69862D01*
X27797Y70179D01*
X27953Y70148D01*
X28529Y70263D01*
X29017Y70589D01*
X29344Y71078D01*
X29458Y71653D01*
X29344Y72230D01*
X29017Y72718D01*
X28529Y73044D01*
X27953Y73159D01*
X27797Y73128D01*
X27411Y73445D01*
Y80897D01*
X27797Y81214D01*
X27953Y81183D01*
X28529Y81297D01*
X29017Y81624D01*
X29344Y82112D01*
X29458Y82688D01*
X29409Y82933D01*
X32234Y85757D01*
X55313D01*
X55629Y85284D01*
X56117Y84958D01*
X56693Y84843D01*
X57269Y84958D01*
X57757Y85284D01*
X58084Y85773D01*
X58198Y86349D01*
X58126Y86710D01*
X58449Y87210D01*
X59028D01*
X59028Y87210D01*
X59454Y87294D01*
X59814Y87535D01*
X59852Y87573D01*
X68789D01*
X68825Y87519D01*
X69313Y87193D01*
X69889Y87078D01*
X70465Y87193D01*
X70954Y87519D01*
X71280Y88007D01*
X71395Y88583D01*
X71280Y89160D01*
X70954Y89648D01*
X70465Y89974D01*
X69889Y90089D01*
X69313Y89974D01*
X69048Y89797D01*
X59392D01*
X58966Y89713D01*
X58605Y89471D01*
X58605Y89471D01*
X58568Y89434D01*
X56070D01*
X56069Y89434D01*
X55644Y89349D01*
X55358Y89158D01*
X52942D01*
X52628Y89471D01*
X52267Y89713D01*
X51842Y89797D01*
X51842Y89797D01*
X27411D01*
Y91408D01*
X40345D01*
X40762Y91129D01*
X41339Y91014D01*
X41915Y91129D01*
X42403Y91455D01*
X42729Y91943D01*
X42844Y92519D01*
X42729Y93096D01*
X42403Y93584D01*
X41915Y93910D01*
X41339Y94025D01*
X40762Y93910D01*
X40345Y93631D01*
X27411D01*
X27411Y111225D01*
X34237D01*
X34475Y111117D01*
X34749Y110788D01*
X34819Y110437D01*
X35145Y109948D01*
X35633Y109622D01*
X36209Y109507D01*
X36786Y109622D01*
X37274Y109948D01*
X37521Y110318D01*
X37625Y110347D01*
X37946Y110351D01*
X38077Y110318D01*
X38317Y109959D01*
X38805Y109633D01*
X39381Y109518D01*
X39957Y109633D01*
X40446Y109959D01*
X40673Y110299D01*
X40725Y110316D01*
X41175D01*
X41228Y110299D01*
X41455Y109959D01*
X41944Y109633D01*
X42520Y109518D01*
X43096Y109633D01*
X43584Y109959D01*
X43910Y110448D01*
X44025Y111024D01*
X43910Y111600D01*
X43584Y112088D01*
X43261Y112304D01*
X43253Y112326D01*
Y112837D01*
X43261Y112860D01*
X43584Y113076D01*
X43910Y113564D01*
X44025Y114140D01*
X43910Y114716D01*
X43584Y115205D01*
X43220Y115448D01*
X43189Y115565D01*
Y115887D01*
X43220Y116004D01*
X43584Y116247D01*
X43910Y116736D01*
X44025Y117312D01*
X43910Y117888D01*
X43584Y118376D01*
X43203Y118631D01*
X43163Y118809D01*
Y119008D01*
X43203Y119186D01*
X43584Y119441D01*
X43910Y119930D01*
X44025Y120505D01*
X43910Y121082D01*
X43584Y121570D01*
X43514Y121616D01*
X43666Y122116D01*
X47722D01*
X47874Y121616D01*
X47754Y121537D01*
X47428Y121048D01*
X47314Y120473D01*
X47428Y119896D01*
X47754Y119408D01*
X48103Y119176D01*
X48124Y119104D01*
Y118691D01*
X48103Y118620D01*
X47754Y118387D01*
X47428Y117899D01*
X47314Y117323D01*
X47428Y116747D01*
X47754Y116259D01*
X48243Y115932D01*
X48819Y115818D01*
X49395Y115932D01*
X49883Y116259D01*
X50110Y116598D01*
X50163Y116615D01*
X50613D01*
X50666Y116598D01*
X50893Y116259D01*
X51381Y115932D01*
X51957Y115818D01*
X52186Y115863D01*
X52612Y115765D01*
X52735Y115501D01*
X52752Y115420D01*
X52937Y115142D01*
X53662Y114418D01*
X53613Y114173D01*
X53727Y113597D01*
X54054Y113109D01*
X54402Y112876D01*
X54423Y112805D01*
Y112392D01*
X54402Y112321D01*
X54054Y112088D01*
X53821Y111740D01*
X53750Y111718D01*
X53337D01*
X53266Y111740D01*
X53033Y112088D01*
X52545Y112414D01*
X51968Y112529D01*
X51393Y112414D01*
X50904Y112088D01*
X50671Y111740D01*
X50600Y111718D01*
X50187D01*
X50116Y111740D01*
X49883Y112088D01*
X49395Y112414D01*
X48819Y112529D01*
X48243Y112414D01*
X47754Y112088D01*
X47428Y111600D01*
X47314Y111024D01*
X47428Y110448D01*
X47754Y109959D01*
X48243Y109633D01*
X48819Y109518D01*
X49395Y109633D01*
X49883Y109959D01*
X50116Y110307D01*
X50187Y110329D01*
X50600D01*
X50671Y110307D01*
X50904Y109959D01*
X51252Y109727D01*
X51274Y109655D01*
X51274Y109242D01*
X51252Y109171D01*
X50904Y108938D01*
X50578Y108450D01*
X50463Y107874D01*
X50578Y107298D01*
X50904Y106810D01*
X51392Y106483D01*
X51968Y106369D01*
X52545Y106483D01*
X53033Y106810D01*
X53359Y107298D01*
X53474Y107874D01*
X53359Y108450D01*
X53033Y108938D01*
X52685Y109171D01*
X52663Y109242D01*
X52663Y109655D01*
X52685Y109727D01*
X53033Y109959D01*
X53266Y110307D01*
X53337Y110329D01*
X53750D01*
X53821Y110307D01*
X54054Y109959D01*
X54542Y109633D01*
X55118Y109518D01*
X55694Y109633D01*
X56182Y109959D01*
X56415Y110307D01*
X56486Y110329D01*
X56899D01*
X56971Y110307D01*
X57203Y109959D01*
X57551Y109727D01*
X57573Y109655D01*
X57573Y109242D01*
X57551Y109171D01*
X57203Y108938D01*
X56877Y108450D01*
X56762Y107874D01*
X56877Y107298D01*
X57203Y106810D01*
X57692Y106483D01*
X58268Y106369D01*
X58844Y106483D01*
X59332Y106810D01*
X59658Y107298D01*
X59773Y107874D01*
X59658Y108450D01*
X59332Y108938D01*
X58984Y109171D01*
X58962Y109242D01*
X58962Y109655D01*
X58984Y109727D01*
X59332Y109959D01*
X59658Y110448D01*
X59773Y111024D01*
X59658Y111600D01*
X59332Y112088D01*
X58984Y112321D01*
X58962Y112392D01*
Y112805D01*
X58984Y112876D01*
X59332Y113109D01*
X59658Y113597D01*
X59773Y114173D01*
X59658Y114749D01*
X59332Y115238D01*
X58984Y115470D01*
X58962Y115542D01*
Y115954D01*
X58984Y116026D01*
X59332Y116259D01*
X59658Y116747D01*
X59773Y117323D01*
X59658Y117899D01*
X59332Y118387D01*
X58984Y118620D01*
X58962Y118691D01*
Y119104D01*
X58984Y119176D01*
X59332Y119408D01*
X59658Y119896D01*
X59773Y120473D01*
X59658Y121048D01*
X59332Y121537D01*
X58844Y121863D01*
X58268Y121978D01*
X57692Y121863D01*
X57203Y121537D01*
X56877Y121048D01*
X56762Y120473D01*
X56877Y119896D01*
X57203Y119408D01*
X57551Y119176D01*
X57573Y119104D01*
Y118691D01*
X57551Y118620D01*
X57203Y118387D01*
X56976Y118047D01*
X56923Y118030D01*
X56473D01*
X56421Y118047D01*
X56194Y118387D01*
X55705Y118714D01*
X55129Y118828D01*
X54900Y118783D01*
X54400Y119167D01*
Y122047D01*
X54335Y122375D01*
X54149Y122653D01*
X53449Y123353D01*
X53390Y123654D01*
X53149Y124015D01*
X52788Y124256D01*
X52362Y124340D01*
X38663D01*
Y128003D01*
X39125Y128465D01*
X39370Y128416D01*
X39946Y128531D01*
X40435Y128857D01*
X40761Y129345D01*
X40875Y129921D01*
X40761Y130497D01*
X40435Y130986D01*
X40086Y131218D01*
X40065Y131290D01*
Y131702D01*
X40086Y131774D01*
X40435Y132007D01*
X40667Y132355D01*
X40738Y132376D01*
X41151D01*
X41223Y132355D01*
X41455Y132007D01*
X41944Y131680D01*
X42520Y131566D01*
X43096Y131680D01*
X43584Y132007D01*
X43910Y132495D01*
X44025Y133071D01*
X43910Y133647D01*
X43584Y134135D01*
X43096Y134462D01*
X42520Y134576D01*
X41944Y134462D01*
X41455Y134135D01*
X41223Y133787D01*
X41151Y133765D01*
X40738D01*
X40667Y133787D01*
X40435Y134135D01*
X39946Y134462D01*
X39370Y134576D01*
X38794Y134462D01*
X38306Y134135D01*
X38073Y133787D01*
X38002Y133765D01*
X37589D01*
X37517Y133787D01*
X37285Y134135D01*
X36797Y134462D01*
X36220Y134576D01*
X35645Y134462D01*
X35156Y134135D01*
X34830Y133647D01*
X34715Y133071D01*
X34830Y132495D01*
X35156Y132007D01*
X35645Y131680D01*
X36220Y131566D01*
X36797Y131680D01*
X37285Y132007D01*
X37517Y132355D01*
X37589Y132376D01*
X38002D01*
X38073Y132355D01*
X38306Y132007D01*
X38654Y131774D01*
X38675Y131702D01*
Y131290D01*
X38654Y131218D01*
X38306Y130986D01*
X37979Y130497D01*
X37865Y129921D01*
X37914Y129677D01*
X37200Y128963D01*
X37015Y128685D01*
X36949Y128358D01*
Y124340D01*
X30222D01*
X29893Y124669D01*
X29532Y124910D01*
X29107Y124995D01*
X29107Y124995D01*
X27411D01*
Y125853D01*
X27911Y126140D01*
X28346Y126054D01*
X28923Y126168D01*
X29411Y126495D01*
X29737Y126983D01*
X29852Y127559D01*
X29737Y128135D01*
X29411Y128623D01*
X28923Y128950D01*
X28346Y129064D01*
X27911Y128978D01*
X27411Y129265D01*
Y133319D01*
X29594Y135502D01*
X50568D01*
X51180Y134890D01*
X51098Y134265D01*
X50904Y134135D01*
X50671Y133787D01*
X50600Y133765D01*
X50187D01*
X50116Y133787D01*
X49883Y134135D01*
X49395Y134462D01*
X48819Y134576D01*
X48243Y134462D01*
X47754Y134135D01*
X47428Y133647D01*
X47314Y133071D01*
X47428Y132495D01*
X47754Y132007D01*
X48243Y131680D01*
X48819Y131566D01*
X49395Y131680D01*
X49883Y132007D01*
X50116Y132355D01*
X50187Y132376D01*
X50600D01*
X50671Y132355D01*
X50904Y132007D01*
X51252Y131774D01*
X51274Y131702D01*
Y131290D01*
X51252Y131218D01*
X50904Y130986D01*
X50578Y130497D01*
X50463Y129921D01*
X50578Y129345D01*
X50904Y128857D01*
X51252Y128624D01*
X51274Y128553D01*
Y128140D01*
X51252Y128069D01*
X50904Y127836D01*
X50671Y127488D01*
X50600Y127466D01*
X50187D01*
X50116Y127488D01*
X49883Y127836D01*
X49395Y128162D01*
X48819Y128277D01*
X48243Y128162D01*
X47754Y127836D01*
X47428Y127348D01*
X47314Y126772D01*
X47428Y126196D01*
X47754Y125707D01*
X48243Y125381D01*
X48819Y125266D01*
X49395Y125381D01*
X49883Y125707D01*
X50116Y126055D01*
X50187Y126077D01*
X50600D01*
X50671Y126055D01*
X50904Y125707D01*
X51393Y125381D01*
X51968Y125266D01*
X52545Y125381D01*
X53033Y125707D01*
X53359Y126196D01*
X53474Y126772D01*
X53359Y127348D01*
X53033Y127836D01*
X52685Y128069D01*
X52663Y128140D01*
Y128553D01*
X52685Y128624D01*
X53033Y128857D01*
X53266Y129205D01*
X53337Y129227D01*
X53750D01*
X53821Y129205D01*
X54054Y128857D01*
X54542Y128531D01*
X55118Y128416D01*
X55694Y128531D01*
X56182Y128857D01*
X56415Y129205D01*
X56486Y129227D01*
X56899Y129227D01*
X56971Y129205D01*
X57203Y128857D01*
X57551Y128624D01*
X57573Y128553D01*
Y128140D01*
X57551Y128069D01*
X57203Y127836D01*
X56877Y127348D01*
X56762Y126772D01*
X56877Y126196D01*
X57203Y125707D01*
X57692Y125381D01*
X58268Y125266D01*
X58844Y125381D01*
X59332Y125707D01*
X59658Y126196D01*
X59773Y126772D01*
X59658Y127348D01*
X59332Y127836D01*
X58984Y128069D01*
X58962Y128140D01*
Y128553D01*
X58984Y128624D01*
X59332Y128857D01*
X59658Y129345D01*
X59773Y129921D01*
X59658Y130497D01*
X59332Y130986D01*
X58984Y131218D01*
X58962Y131290D01*
X58962Y131702D01*
X58984Y131774D01*
X59332Y132007D01*
X59565Y132355D01*
X59636Y132376D01*
X60049D01*
X60120Y132355D01*
X60353Y132007D01*
X60841Y131680D01*
X61417Y131566D01*
X61993Y131680D01*
X62482Y132007D01*
X62808Y132495D01*
X62923Y133071D01*
X62808Y133647D01*
X62482Y134135D01*
X61993Y134462D01*
X61417Y134576D01*
X60841Y134462D01*
X60353Y134135D01*
X60120Y133787D01*
X60049Y133765D01*
X59636D01*
X59565Y133787D01*
X59332Y134135D01*
X58844Y134462D01*
X58268Y134576D01*
X57692Y134462D01*
X57203Y134135D01*
X56982Y133805D01*
X56948Y133793D01*
X56461D01*
X56427Y133805D01*
X56206Y134135D01*
X55718Y134462D01*
X55142Y134576D01*
X54566Y134462D01*
X54325Y134301D01*
X54160Y134334D01*
X51755Y136739D01*
X51695Y137040D01*
X51454Y137400D01*
X51093Y137642D01*
X50668Y137726D01*
X29376D01*
X29169Y138226D01*
X31974Y141031D01*
X32466Y141129D01*
X32954Y141455D01*
X33281Y141944D01*
X33395Y142520D01*
X33281Y143096D01*
X32954Y143584D01*
X32466Y143910D01*
X31890Y144025D01*
D02*
G37*
G36*
X6693Y134377D02*
X6117Y134263D01*
X5629Y133937D01*
X5302Y133448D01*
X5188Y132872D01*
X5302Y132296D01*
X5629Y131808D01*
X6117Y131481D01*
X6693Y131367D01*
X7269Y131481D01*
X7757Y131808D01*
X8084Y132296D01*
X8198Y132872D01*
X8084Y133448D01*
X7757Y133937D01*
X7269Y134263D01*
X6693Y134377D01*
D02*
G37*
G36*
X33071Y131427D02*
X32495Y131312D01*
X32006Y130986D01*
X31680Y130497D01*
X31566Y129921D01*
X31680Y129345D01*
X32006Y128857D01*
X32495Y128531D01*
X33071Y128416D01*
X33647Y128531D01*
X34135Y128857D01*
X34462Y129345D01*
X34576Y129921D01*
X34462Y130497D01*
X34135Y130986D01*
X33647Y131312D01*
X33071Y131427D01*
D02*
G37*
G36*
X93307Y128671D02*
X92731Y128556D01*
X92243Y128230D01*
X91916Y127741D01*
X91802Y127165D01*
X91916Y126589D01*
X92243Y126101D01*
X92731Y125775D01*
X93307Y125660D01*
X93883Y125775D01*
X94371Y126101D01*
X94698Y126589D01*
X94812Y127165D01*
X94698Y127741D01*
X94371Y128230D01*
X93883Y128556D01*
X93307Y128671D01*
D02*
G37*
G36*
X42520Y128277D02*
X41944Y128162D01*
X41455Y127836D01*
X41129Y127348D01*
X41014Y126772D01*
X41129Y126196D01*
X41455Y125707D01*
X41944Y125381D01*
X42520Y125266D01*
X43096Y125381D01*
X43584Y125707D01*
X43910Y126196D01*
X44025Y126772D01*
X43910Y127348D01*
X43584Y127836D01*
X43096Y128162D01*
X42520Y128277D01*
D02*
G37*
G36*
X19685Y128277D02*
X19109Y128162D01*
X18621Y127836D01*
X18294Y127348D01*
X18180Y126772D01*
X18294Y126196D01*
X18621Y125707D01*
X19109Y125381D01*
X19685Y125266D01*
X20261Y125381D01*
X20749Y125707D01*
X21076Y126196D01*
X21190Y126772D01*
X21076Y127348D01*
X20749Y127836D01*
X20261Y128162D01*
X19685Y128277D01*
D02*
G37*
G36*
X6498Y127684D02*
X5922Y127570D01*
X5434Y127244D01*
X5107Y126755D01*
X4993Y126179D01*
X5107Y125603D01*
X5434Y125115D01*
X5922Y124788D01*
X6498Y124674D01*
X7074Y124788D01*
X7562Y125115D01*
X7889Y125603D01*
X8003Y126179D01*
X7889Y126755D01*
X7562Y127244D01*
X7074Y127570D01*
X6498Y127684D01*
D02*
G37*
G36*
X78347Y124734D02*
X77770Y124619D01*
X77282Y124293D01*
X76956Y123804D01*
X76841Y123228D01*
X76956Y122652D01*
X77282Y122164D01*
X77770Y121838D01*
X78347Y121723D01*
X78922Y121838D01*
X79411Y122164D01*
X79737Y122652D01*
X79852Y123228D01*
X79737Y123804D01*
X79411Y124293D01*
X78922Y124619D01*
X78347Y124734D01*
D02*
G37*
G36*
X70079Y120797D02*
X69503Y120682D01*
X69014Y120356D01*
X68951Y120261D01*
X68451D01*
X68387Y120356D01*
X67899Y120682D01*
X67323Y120797D01*
X66747Y120682D01*
X66258Y120356D01*
X65932Y119867D01*
X65817Y119291D01*
X65932Y118715D01*
X66258Y118227D01*
X66747Y117901D01*
X67323Y117786D01*
X67899Y117901D01*
X68387Y118227D01*
X68451Y118322D01*
X68951D01*
X69014Y118227D01*
X69503Y117901D01*
X70079Y117786D01*
X70655Y117901D01*
X71143Y118227D01*
X71469Y118715D01*
X71584Y119291D01*
X71469Y119867D01*
X71143Y120356D01*
X70655Y120682D01*
X70079Y120797D01*
D02*
G37*
G36*
X89370Y122765D02*
X88794Y122651D01*
X88306Y122324D01*
X87979Y121836D01*
X87865Y121260D01*
X87979Y120684D01*
X88306Y120195D01*
X88794Y119869D01*
X89370Y119755D01*
X89946Y119869D01*
X90434Y120195D01*
X90761Y120684D01*
X90875Y121260D01*
X90761Y121836D01*
X90434Y122324D01*
X89946Y122651D01*
X89370Y122765D01*
D02*
G37*
G36*
X82677Y119615D02*
X82101Y119501D01*
X81613Y119175D01*
X81287Y118686D01*
X81172Y118110D01*
X81287Y117534D01*
X81613Y117046D01*
X82101Y116719D01*
X82677Y116605D01*
X83253Y116719D01*
X83742Y117046D01*
X84068Y117534D01*
X84183Y118110D01*
X84068Y118686D01*
X83742Y119175D01*
X83253Y119501D01*
X82677Y119615D01*
D02*
G37*
G36*
X16929D02*
X16353Y119501D01*
X15865Y119175D01*
X15538Y118686D01*
X15424Y118110D01*
X15538Y117534D01*
X15865Y117046D01*
X16353Y116719D01*
X16929Y116605D01*
X17505Y116719D01*
X17993Y117046D01*
X18320Y117534D01*
X18434Y118110D01*
X18320Y118686D01*
X17993Y119175D01*
X17505Y119501D01*
X16929Y119615D01*
D02*
G37*
G36*
X8268D02*
X7692Y119501D01*
X7203Y119175D01*
X6877Y118686D01*
X6762Y118110D01*
X6877Y117534D01*
X7203Y117046D01*
X7692Y116719D01*
X8268Y116605D01*
X8844Y116719D01*
X9332Y117046D01*
X9658Y117534D01*
X9773Y118110D01*
X9658Y118686D01*
X9332Y119175D01*
X8844Y119501D01*
X8268Y119615D01*
D02*
G37*
G36*
X10040Y116268D02*
X9464Y116154D01*
X8976Y115827D01*
X8649Y115339D01*
X8535Y114763D01*
X8649Y114187D01*
X8976Y113698D01*
X9464Y113372D01*
X10040Y113258D01*
X10616Y113372D01*
X11105Y113698D01*
X11431Y114187D01*
X11546Y114763D01*
X11431Y115339D01*
X11105Y115827D01*
X10616Y116154D01*
X10040Y116268D01*
D02*
G37*
G36*
X94095Y115679D02*
X93518Y115564D01*
X93030Y115238D01*
X92704Y114749D01*
X92589Y114173D01*
X92704Y113597D01*
X93030Y113109D01*
X93518Y112783D01*
X94095Y112668D01*
X94670Y112783D01*
X95159Y113109D01*
X95485Y113597D01*
X95600Y114173D01*
X95485Y114749D01*
X95159Y115238D01*
X94670Y115564D01*
X94095Y115679D01*
D02*
G37*
G36*
X68898Y117253D02*
X68322Y117139D01*
X67833Y116812D01*
X67507Y116324D01*
X67392Y115748D01*
X67507Y115172D01*
X67833Y114684D01*
X68322Y114357D01*
X68487Y114324D01*
X68914Y114190D01*
X69049Y113763D01*
X69082Y113597D01*
X69408Y113109D01*
X69896Y112783D01*
X70472Y112668D01*
X71048Y112783D01*
X71537Y113109D01*
X71863Y113597D01*
X71978Y114173D01*
X71863Y114749D01*
X71537Y115238D01*
X71048Y115564D01*
X70883Y115597D01*
X70456Y115731D01*
X70321Y116158D01*
X70288Y116324D01*
X69962Y116812D01*
X69474Y117139D01*
X68898Y117253D01*
D02*
G37*
G36*
X84646Y113710D02*
X84070Y113595D01*
X83581Y113269D01*
X83255Y112781D01*
X83140Y112205D01*
X83255Y111629D01*
X83581Y111140D01*
X84070Y110814D01*
X84646Y110699D01*
X85222Y110814D01*
X85710Y111140D01*
X86036Y111629D01*
X86151Y112205D01*
X86036Y112781D01*
X85710Y113269D01*
X85222Y113595D01*
X84646Y113710D01*
D02*
G37*
G36*
X94095Y110167D02*
X93518Y110052D01*
X93030Y109726D01*
X92704Y109238D01*
X92589Y108661D01*
X92704Y108085D01*
X93030Y107597D01*
X93518Y107271D01*
X94095Y107156D01*
X94670Y107271D01*
X95159Y107597D01*
X95485Y108085D01*
X95600Y108661D01*
X95485Y109238D01*
X95159Y109726D01*
X94670Y110052D01*
X94095Y110167D01*
D02*
G37*
G36*
X33071Y109379D02*
X32495Y109265D01*
X32006Y108938D01*
X31680Y108450D01*
X31566Y107874D01*
X31680Y107298D01*
X32006Y106810D01*
X32495Y106483D01*
X33071Y106369D01*
X33647Y106483D01*
X34135Y106810D01*
X34462Y107298D01*
X34576Y107874D01*
X34462Y108450D01*
X34135Y108938D01*
X33647Y109265D01*
X33071Y109379D01*
D02*
G37*
G36*
X61417Y105836D02*
X60841Y105721D01*
X60353Y105395D01*
X60289Y105300D01*
X59789D01*
X59726Y105395D01*
X59237Y105721D01*
X58661Y105836D01*
X58085Y105721D01*
X57597Y105395D01*
X57271Y104907D01*
X57156Y104331D01*
X57271Y103755D01*
X57597Y103266D01*
X58085Y102940D01*
X58661Y102825D01*
X59237Y102940D01*
X59726Y103266D01*
X59789Y103361D01*
X60289D01*
X60353Y103266D01*
X60841Y102940D01*
X61417Y102825D01*
X61993Y102940D01*
X62482Y103266D01*
X62808Y103755D01*
X62923Y104331D01*
X62808Y104907D01*
X62482Y105395D01*
X61993Y105721D01*
X61417Y105836D01*
D02*
G37*
G36*
X84646Y108198D02*
X84070Y108084D01*
X83581Y107757D01*
X83255Y107269D01*
X83140Y106693D01*
X83255Y106117D01*
X83581Y105629D01*
X84070Y105302D01*
X84646Y105188D01*
X85222Y105302D01*
X85710Y105629D01*
X86036Y106117D01*
X86151Y106693D01*
X86036Y107269D01*
X85710Y107757D01*
X85222Y108084D01*
X84646Y108198D01*
D02*
G37*
G36*
X45669Y105836D02*
X45093Y105721D01*
X44605Y105395D01*
X44279Y104907D01*
X44164Y104331D01*
X44279Y103755D01*
X44605Y103266D01*
X45093Y102940D01*
X45669Y102825D01*
X46245Y102940D01*
X46734Y103266D01*
X47060Y103755D01*
X47175Y104331D01*
X47060Y104907D01*
X46734Y105395D01*
X46245Y105721D01*
X45669Y105836D01*
D02*
G37*
G36*
X20472Y105442D02*
X19896Y105328D01*
X19408Y105001D01*
X19082Y104513D01*
X18967Y103937D01*
X19082Y103361D01*
X19408Y102873D01*
X19896Y102546D01*
X20472Y102432D01*
X21048Y102546D01*
X21537Y102873D01*
X21863Y103361D01*
X21978Y103937D01*
X21863Y104513D01*
X21537Y105001D01*
X21048Y105328D01*
X20472Y105442D01*
D02*
G37*
G36*
X6494Y105244D02*
X5918Y105129D01*
X5430Y104803D01*
X5103Y104314D01*
X4989Y103738D01*
X5103Y103162D01*
X5430Y102674D01*
X5918Y102348D01*
X6494Y102233D01*
X7070Y102348D01*
X7559Y102674D01*
X7885Y103162D01*
X7999Y103738D01*
X7885Y104314D01*
X7559Y104803D01*
X7070Y105129D01*
X6494Y105244D01*
D02*
G37*
G36*
X94095Y104655D02*
X93518Y104540D01*
X93030Y104214D01*
X92704Y103726D01*
X92589Y103150D01*
X92704Y102574D01*
X93030Y102085D01*
X93518Y101759D01*
X94095Y101644D01*
X94670Y101759D01*
X95159Y102085D01*
X95485Y102574D01*
X95600Y103150D01*
X95485Y103726D01*
X95159Y104214D01*
X94670Y104540D01*
X94095Y104655D01*
D02*
G37*
G36*
X84646Y102686D02*
X84070Y102572D01*
X83581Y102245D01*
X83255Y101757D01*
X83140Y101181D01*
X83255Y100605D01*
X83581Y100117D01*
X84070Y99790D01*
X84646Y99676D01*
X85222Y99790D01*
X85710Y100117D01*
X86036Y100605D01*
X86151Y101181D01*
X86036Y101757D01*
X85710Y102245D01*
X85222Y102572D01*
X84646Y102686D01*
D02*
G37*
G36*
X10040Y100914D02*
X9464Y100799D01*
X8976Y100473D01*
X8649Y99985D01*
X8535Y99409D01*
X8649Y98833D01*
X8976Y98344D01*
X9464Y98018D01*
X10040Y97903D01*
X10616Y98018D01*
X11105Y98344D01*
X11431Y98833D01*
X11546Y99409D01*
X11431Y99985D01*
X11105Y100473D01*
X10616Y100799D01*
X10040Y100914D01*
D02*
G37*
G36*
X81102Y99931D02*
X80526Y99816D01*
X80038Y99490D01*
X79712Y99001D01*
X79597Y98425D01*
X79712Y97849D01*
X80038Y97361D01*
X80526Y97035D01*
X81102Y96920D01*
X81678Y97035D01*
X82167Y97361D01*
X82493Y97849D01*
X82608Y98425D01*
X82493Y99001D01*
X82167Y99490D01*
X81678Y99816D01*
X81102Y99931D01*
D02*
G37*
G36*
X94095Y99143D02*
X93518Y99028D01*
X93030Y98702D01*
X92704Y98214D01*
X92589Y97638D01*
X92704Y97062D01*
X93030Y96573D01*
X93518Y96247D01*
X94095Y96132D01*
X94670Y96247D01*
X95159Y96573D01*
X95485Y97062D01*
X95600Y97638D01*
X95485Y98214D01*
X95159Y98702D01*
X94670Y99028D01*
X94095Y99143D01*
D02*
G37*
G36*
X46063Y98749D02*
X45487Y98635D01*
X44999Y98308D01*
X44672Y97820D01*
X44558Y97244D01*
X44672Y96668D01*
X44999Y96180D01*
X45487Y95853D01*
X46063Y95739D01*
X46639Y95853D01*
X47127Y96180D01*
X47454Y96668D01*
X47568Y97244D01*
X47454Y97820D01*
X47127Y98308D01*
X46639Y98635D01*
X46063Y98749D01*
D02*
G37*
G36*
X84646Y97175D02*
X84070Y97060D01*
X83581Y96734D01*
X83255Y96245D01*
X83140Y95669D01*
X83255Y95093D01*
X83581Y94605D01*
X84070Y94279D01*
X84646Y94164D01*
X85222Y94279D01*
X85710Y94605D01*
X86036Y95093D01*
X86151Y95669D01*
X86036Y96245D01*
X85710Y96734D01*
X85222Y97060D01*
X84646Y97175D01*
D02*
G37*
G36*
X14417Y94406D02*
Y92291D01*
X16532D01*
X16506Y92485D01*
X16239Y93132D01*
X15813Y93687D01*
X15258Y94113D01*
X14611Y94380D01*
X14417Y94406D01*
D02*
G37*
G36*
X8417D02*
X8224Y94380D01*
X7577Y94113D01*
X7022Y93687D01*
X6596Y93132D01*
X6328Y92485D01*
X6303Y92291D01*
X8417D01*
Y94406D01*
D02*
G37*
G36*
X94095Y93631D02*
X93518Y93517D01*
X93030Y93190D01*
X92704Y92702D01*
X92589Y92126D01*
X92704Y91550D01*
X93030Y91062D01*
X93518Y90735D01*
X94095Y90621D01*
X94670Y90735D01*
X95159Y91062D01*
X95485Y91550D01*
X95600Y92126D01*
X95485Y92702D01*
X95159Y93190D01*
X94670Y93517D01*
X94095Y93631D01*
D02*
G37*
G36*
X61811Y96781D02*
X61235Y96666D01*
X60747Y96340D01*
X60420Y95852D01*
X60306Y95276D01*
X60420Y94700D01*
X60747Y94211D01*
X60981Y94054D01*
X60876Y93524D01*
X60841Y93517D01*
X60353Y93190D01*
X60027Y92702D01*
X59912Y92126D01*
X60027Y91550D01*
X60353Y91062D01*
X60841Y90735D01*
X61417Y90621D01*
X61993Y90735D01*
X62482Y91062D01*
X62808Y91550D01*
X62923Y92126D01*
X62808Y92702D01*
X62482Y93190D01*
X62247Y93347D01*
X62353Y93878D01*
X62387Y93885D01*
X62875Y94211D01*
X63202Y94700D01*
X63316Y95276D01*
X63202Y95852D01*
X62875Y96340D01*
X62387Y96666D01*
X61811Y96781D01*
D02*
G37*
G36*
X83465Y92057D02*
X82889Y91942D01*
X82400Y91616D01*
X82074Y91127D01*
X81959Y90551D01*
X82074Y89975D01*
X82400Y89487D01*
X82889Y89161D01*
X83465Y89046D01*
X84041Y89161D01*
X84529Y89487D01*
X84855Y89975D01*
X84970Y90551D01*
X84855Y91127D01*
X84529Y91616D01*
X84041Y91942D01*
X83465Y92057D01*
D02*
G37*
G36*
X82382Y86840D02*
X81806Y86725D01*
X81318Y86399D01*
X80991Y85911D01*
X80877Y85335D01*
X80991Y84759D01*
X81318Y84270D01*
X81806Y83944D01*
X82382Y83829D01*
X82958Y83944D01*
X83446Y84270D01*
X83773Y84759D01*
X83887Y85335D01*
X83773Y85911D01*
X83446Y86399D01*
X82958Y86725D01*
X82382Y86840D01*
D02*
G37*
G36*
X56766Y84182D02*
X56191Y84068D01*
X55702Y83741D01*
X55376Y83253D01*
X55261Y82677D01*
X55376Y82101D01*
X55702Y81613D01*
X56191Y81286D01*
X56766Y81172D01*
X57343Y81286D01*
X57831Y81613D01*
X58157Y82101D01*
X58272Y82677D01*
X58157Y83253D01*
X57831Y83741D01*
X57343Y84068D01*
X56766Y84182D01*
D02*
G37*
G36*
X59842Y81033D02*
X59267Y80918D01*
X58778Y80592D01*
X58452Y80104D01*
X58337Y79528D01*
X58452Y78952D01*
X58778Y78463D01*
X59267Y78137D01*
X59842Y78022D01*
X60419Y78137D01*
X60907Y78463D01*
X61233Y78952D01*
X61348Y79528D01*
X61233Y80104D01*
X60907Y80592D01*
X60419Y80918D01*
X59842Y81033D01*
D02*
G37*
G36*
X53504Y80994D02*
X52928Y80879D01*
X52440Y80553D01*
X52114Y80065D01*
X51999Y79489D01*
X52114Y78913D01*
X52440Y78424D01*
X52774Y78201D01*
X52794Y77688D01*
X52778Y77643D01*
X52479Y77442D01*
X52153Y76954D01*
X52038Y76378D01*
X52153Y75802D01*
X52479Y75314D01*
X52827Y75081D01*
X52849Y75010D01*
Y74597D01*
X52827Y74525D01*
X52479Y74293D01*
X52246Y73945D01*
X52175Y73923D01*
X51762D01*
X51691Y73945D01*
X51458Y74293D01*
X50970Y74619D01*
X50394Y74734D01*
X49818Y74619D01*
X49329Y74293D01*
X49003Y73804D01*
X48888Y73228D01*
X49003Y72652D01*
X49329Y72164D01*
X49677Y71931D01*
X49699Y71860D01*
Y71447D01*
X49677Y71376D01*
X49329Y71143D01*
X49003Y70655D01*
X48888Y70079D01*
X49003Y69503D01*
X49329Y69014D01*
X49818Y68688D01*
X50394Y68573D01*
X50970Y68688D01*
X51458Y69014D01*
X51691Y69362D01*
X51762Y69384D01*
X52175D01*
X52246Y69362D01*
X52479Y69014D01*
X52967Y68688D01*
X53543Y68573D01*
X54119Y68688D01*
X54608Y69014D01*
X54840Y69362D01*
X54912Y69384D01*
X55325Y69384D01*
X55396Y69362D01*
X55629Y69014D01*
X56117Y68688D01*
X56693Y68573D01*
X57269Y68688D01*
X57757Y69014D01*
X57990Y69362D01*
X58061Y69384D01*
X58474Y69384D01*
X58546Y69362D01*
X58778Y69014D01*
X59267Y68688D01*
X59843Y68573D01*
X60419Y68688D01*
X60907Y69014D01*
X61146Y69373D01*
X61198Y69390D01*
X61610Y69398D01*
X61702Y69373D01*
X61928Y69035D01*
X62416Y68708D01*
X62992Y68594D01*
X63568Y68708D01*
X64057Y69035D01*
X64383Y69523D01*
X64497Y70099D01*
X64383Y70675D01*
X64057Y71164D01*
X63568Y71490D01*
X62992Y71605D01*
X62416Y71490D01*
X61928Y71164D01*
X61688Y70805D01*
X61637Y70788D01*
X61225Y70780D01*
X61133Y70805D01*
X60907Y71143D01*
X60559Y71376D01*
X60537Y71447D01*
X60537Y71860D01*
X60559Y71931D01*
X60907Y72164D01*
X61233Y72652D01*
X61348Y73228D01*
X61233Y73804D01*
X60907Y74293D01*
X60419Y74619D01*
X59842Y74734D01*
X59267Y74619D01*
X58778Y74293D01*
X58452Y73804D01*
X58337Y73228D01*
X58452Y72652D01*
X58778Y72164D01*
X59126Y71931D01*
X59148Y71860D01*
X59148Y71447D01*
X59126Y71376D01*
X58778Y71143D01*
X58546Y70795D01*
X58474Y70773D01*
X58061Y70773D01*
X57990Y70795D01*
X57757Y71143D01*
X57269Y71469D01*
X56693Y71584D01*
X56117Y71469D01*
X55629Y71143D01*
X55396Y70795D01*
X55325Y70773D01*
X54912Y70773D01*
X54840Y70795D01*
X54608Y71143D01*
X54260Y71376D01*
X54238Y71447D01*
Y71860D01*
X54260Y71931D01*
X54608Y72164D01*
X54934Y72652D01*
X55049Y73228D01*
X54934Y73804D01*
X54608Y74293D01*
X54260Y74525D01*
X54238Y74597D01*
Y75010D01*
X54260Y75081D01*
X54608Y75314D01*
X54840Y75662D01*
X54912Y75683D01*
X55325Y75683D01*
X55396Y75662D01*
X55629Y75314D01*
X56117Y74987D01*
X56693Y74873D01*
X57269Y74987D01*
X57757Y75314D01*
X58084Y75802D01*
X58198Y76378D01*
X58084Y76954D01*
X57757Y77442D01*
X57269Y77769D01*
X56693Y77883D01*
X56117Y77769D01*
X55629Y77442D01*
X55396Y77094D01*
X55325Y77073D01*
X54912Y77073D01*
X54840Y77094D01*
X54608Y77442D01*
X54274Y77665D01*
X54254Y78178D01*
X54269Y78224D01*
X54569Y78424D01*
X54895Y78913D01*
X55010Y79489D01*
X54895Y80065D01*
X54569Y80553D01*
X54080Y80879D01*
X53504Y80994D01*
D02*
G37*
G36*
X94056Y77315D02*
X93480Y77201D01*
X92992Y76874D01*
X92666Y76386D01*
X92551Y75810D01*
X92666Y75234D01*
X92992Y74745D01*
X93480Y74419D01*
X94056Y74304D01*
X94633Y74419D01*
X95121Y74745D01*
X95447Y75234D01*
X95562Y75810D01*
X95447Y76386D01*
X95121Y76874D01*
X94633Y77201D01*
X94056Y77315D01*
D02*
G37*
G36*
X90551Y75521D02*
X89975Y75406D01*
X89487Y75080D01*
X89161Y74592D01*
X89046Y74016D01*
X89161Y73440D01*
X89487Y72951D01*
X89975Y72625D01*
X90551Y72510D01*
X91127Y72625D01*
X91616Y72951D01*
X91942Y73440D01*
X92057Y74016D01*
X91942Y74592D01*
X91616Y75080D01*
X91127Y75406D01*
X90551Y75521D01*
D02*
G37*
G36*
X81102Y74734D02*
X80526Y74619D01*
X80038Y74293D01*
X79712Y73804D01*
X79597Y73228D01*
X79712Y72652D01*
X80038Y72164D01*
X80526Y71838D01*
X81102Y71723D01*
X81678Y71838D01*
X82167Y72164D01*
X82493Y72652D01*
X82608Y73228D01*
X82493Y73804D01*
X82167Y74293D01*
X81678Y74619D01*
X81102Y74734D01*
D02*
G37*
G36*
X93701Y71978D02*
X93125Y71863D01*
X92636Y71537D01*
X92310Y71048D01*
X92195Y70472D01*
X92310Y69896D01*
X92636Y69408D01*
X93125Y69082D01*
X93701Y68967D01*
X94277Y69082D01*
X94765Y69408D01*
X95091Y69896D01*
X95206Y70472D01*
X95091Y71048D01*
X94765Y71537D01*
X94277Y71863D01*
X93701Y71978D01*
D02*
G37*
G36*
X69291Y68434D02*
X68715Y68320D01*
X68227Y67993D01*
X67994Y67645D01*
X67923Y67624D01*
X67510D01*
X67439Y67645D01*
X67206Y67993D01*
X66718Y68320D01*
X66142Y68434D01*
X65566Y68320D01*
X65077Y67993D01*
X64751Y67505D01*
X64636Y66929D01*
X64751Y66353D01*
X65077Y65865D01*
X65566Y65538D01*
X66142Y65424D01*
X66718Y65538D01*
X67206Y65865D01*
X67439Y66213D01*
X67510Y66234D01*
X67923D01*
X67994Y66213D01*
X68227Y65865D01*
X68715Y65538D01*
X69291Y65424D01*
X69867Y65538D01*
X70356Y65865D01*
X70682Y66353D01*
X70797Y66929D01*
X70682Y67505D01*
X70356Y67993D01*
X69867Y68320D01*
X69291Y68434D01*
D02*
G37*
G36*
X59843Y65285D02*
X59267Y65170D01*
X58778Y64844D01*
X58452Y64356D01*
X58337Y63779D01*
X58452Y63204D01*
X58778Y62715D01*
X59267Y62389D01*
X59843Y62274D01*
X60419Y62389D01*
X60907Y62715D01*
X61233Y63204D01*
X61348Y63779D01*
X61233Y64356D01*
X60907Y64844D01*
X60419Y65170D01*
X59843Y65285D01*
D02*
G37*
G36*
X69291Y62135D02*
X68715Y62021D01*
X68227Y61694D01*
X67901Y61206D01*
X67786Y60630D01*
X67901Y60054D01*
X68227Y59566D01*
X68715Y59239D01*
X69291Y59125D01*
X69867Y59239D01*
X70356Y59566D01*
X70682Y60054D01*
X70797Y60630D01*
X70682Y61206D01*
X70356Y61694D01*
X69867Y62021D01*
X69291Y62135D01*
D02*
G37*
G36*
X72047Y58592D02*
X71471Y58477D01*
X70983Y58151D01*
X70749D01*
X70261Y58477D01*
X69685Y58592D01*
X69109Y58477D01*
X68621Y58151D01*
X68294Y57663D01*
X68180Y57087D01*
X68228Y56842D01*
X64668Y53282D01*
X64280Y53601D01*
X64383Y53755D01*
X64497Y54331D01*
X64383Y54907D01*
X64056Y55395D01*
X63568Y55721D01*
X62992Y55836D01*
X62416Y55721D01*
X61928Y55395D01*
X61695Y55047D01*
X61624Y55025D01*
X61211Y55025D01*
X61140Y55047D01*
X60907Y55395D01*
X60419Y55721D01*
X59843Y55836D01*
X59267Y55721D01*
X58778Y55395D01*
X58452Y54907D01*
X58337Y54331D01*
X58452Y53755D01*
X58778Y53266D01*
X59267Y52940D01*
X59843Y52825D01*
X60419Y52940D01*
X60907Y53266D01*
X61140Y53614D01*
X61211Y53636D01*
X61624Y53636D01*
X61695Y53614D01*
X61928Y53266D01*
X62416Y52940D01*
X62992Y52825D01*
X63568Y52940D01*
X63722Y53043D01*
X64041Y52655D01*
X63425Y52038D01*
X51617D01*
X51479Y52245D01*
X50990Y52572D01*
X50414Y52686D01*
X49838Y52572D01*
X49350Y52245D01*
X49024Y51757D01*
X48909Y51181D01*
X48711Y50940D01*
X46722D01*
X46394Y50875D01*
X46116Y50689D01*
X45986Y50559D01*
X45525Y50805D01*
X45600Y51181D01*
X45485Y51757D01*
X45159Y52245D01*
X44671Y52572D01*
X44094Y52686D01*
X43518Y52572D01*
X43030Y52245D01*
X42797Y51897D01*
X42726Y51876D01*
X42313Y51876D01*
X42242Y51897D01*
X42009Y52245D01*
X41521Y52572D01*
X40945Y52686D01*
X40369Y52572D01*
X39880Y52245D01*
X39554Y51757D01*
X39440Y51181D01*
X39554Y50605D01*
X39880Y50117D01*
X40229Y49884D01*
X40250Y49813D01*
X40250Y49400D01*
X40229Y49329D01*
X39880Y49096D01*
X39554Y48608D01*
X39440Y48031D01*
X39554Y47455D01*
X39880Y46967D01*
X40369Y46641D01*
X40945Y46526D01*
X41521Y46641D01*
X42009Y46967D01*
X42148Y47175D01*
X44671D01*
X44999Y47240D01*
X45277Y47425D01*
X45370Y47519D01*
X45918Y47359D01*
X46180Y46967D01*
X46668Y46641D01*
X47244Y46526D01*
X47820Y46641D01*
X48309Y46967D01*
X48635Y47455D01*
X48749Y48031D01*
X48635Y48608D01*
X49016Y48937D01*
X49234Y48934D01*
X49429Y48803D01*
X49757Y48738D01*
X64556D01*
X64884Y48803D01*
X65162Y48989D01*
X71803Y55630D01*
X72047Y55581D01*
X72623Y55696D01*
X73112Y56022D01*
X73438Y56511D01*
X73553Y57087D01*
X73438Y57663D01*
X73112Y58151D01*
X72623Y58477D01*
X72047Y58592D01*
D02*
G37*
G36*
X81201Y57312D02*
X80625Y57198D01*
X80136Y56871D01*
X79810Y56383D01*
X79695Y55807D01*
X79810Y55231D01*
X80136Y54743D01*
X80625Y54416D01*
X81201Y54302D01*
X81777Y54416D01*
X82265Y54743D01*
X82591Y55231D01*
X82706Y55807D01*
X82591Y56383D01*
X82265Y56871D01*
X81777Y57198D01*
X81201Y57312D01*
D02*
G37*
G36*
X85039Y56623D02*
X84463Y56509D01*
X83975Y56182D01*
X83649Y55694D01*
X83534Y55118D01*
X83649Y54542D01*
X83975Y54054D01*
X84463Y53727D01*
X85039Y53613D01*
X85615Y53727D01*
X86104Y54054D01*
X86430Y54542D01*
X86545Y55118D01*
X86430Y55694D01*
X86104Y56182D01*
X85615Y56509D01*
X85039Y56623D01*
D02*
G37*
G36*
X53543Y55836D02*
X52967Y55721D01*
X52479Y55395D01*
X52153Y54907D01*
X52038Y54331D01*
X52153Y53755D01*
X52479Y53266D01*
X52967Y52940D01*
X53543Y52825D01*
X54119Y52940D01*
X54608Y53266D01*
X54934Y53755D01*
X55049Y54331D01*
X54934Y54907D01*
X54608Y55395D01*
X54119Y55721D01*
X53543Y55836D01*
D02*
G37*
G36*
X34646Y58986D02*
X34070Y58871D01*
X33581Y58545D01*
X33255Y58056D01*
X33140Y57480D01*
X33255Y56904D01*
X33581Y56416D01*
X33929Y56183D01*
X33951Y56112D01*
Y55699D01*
X33929Y55628D01*
X33581Y55395D01*
X33255Y54907D01*
X33140Y54331D01*
X33255Y53755D01*
X33581Y53266D01*
X34070Y52940D01*
X34646Y52825D01*
X35222Y52940D01*
X35710Y53266D01*
X36036Y53755D01*
X36151Y54331D01*
X36036Y54907D01*
X35710Y55395D01*
X35362Y55628D01*
X35340Y55699D01*
Y56112D01*
X35362Y56183D01*
X35710Y56416D01*
X36036Y56904D01*
X36151Y57480D01*
X36036Y58056D01*
X35710Y58545D01*
X35222Y58871D01*
X34646Y58986D01*
D02*
G37*
G36*
X78937Y54458D02*
X78361Y54343D01*
X77873Y54017D01*
X77546Y53529D01*
X77432Y52953D01*
X77546Y52377D01*
X77873Y51888D01*
X78361Y51562D01*
X78937Y51447D01*
X79513Y51562D01*
X80001Y51888D01*
X80328Y52377D01*
X80442Y52953D01*
X80328Y53529D01*
X80001Y54017D01*
X79513Y54343D01*
X78937Y54458D01*
D02*
G37*
G36*
X37008Y47175D02*
X36432Y47060D01*
X35943Y46734D01*
X35617Y46245D01*
X35543Y45872D01*
X35332Y45618D01*
X35021Y45525D01*
X34646Y45600D01*
X34070Y45485D01*
X33581Y45159D01*
X33255Y44671D01*
X33140Y44094D01*
X33255Y43518D01*
X33581Y43030D01*
X34070Y42704D01*
X34646Y42589D01*
X35222Y42704D01*
X35710Y43030D01*
X36036Y43518D01*
X36111Y43892D01*
X36321Y44146D01*
X36632Y44239D01*
X37008Y44164D01*
X37584Y44279D01*
X38072Y44605D01*
X38399Y45093D01*
X38513Y45669D01*
X38399Y46245D01*
X38072Y46734D01*
X37584Y47060D01*
X37008Y47175D01*
D02*
G37*
G36*
X85039Y47175D02*
X84463Y47060D01*
X83975Y46734D01*
X83649Y46245D01*
X83534Y45669D01*
X83649Y45093D01*
X83975Y44605D01*
X84463Y44279D01*
X85039Y44164D01*
X85615Y44279D01*
X86104Y44605D01*
X86430Y45093D01*
X86545Y45669D01*
X86430Y46245D01*
X86104Y46734D01*
X85615Y47060D01*
X85039Y47175D01*
D02*
G37*
G36*
X9417Y94406D02*
Y91791D01*
X8917D01*
Y91291D01*
X6303D01*
X6328Y91098D01*
X6596Y90451D01*
X7022Y89896D01*
X7422Y89589D01*
X7460Y89470D01*
Y89112D01*
X7422Y88993D01*
X7022Y88687D01*
X6596Y88131D01*
X6328Y87485D01*
X6237Y86791D01*
X6328Y86098D01*
X6596Y85451D01*
X7022Y84896D01*
X7422Y84589D01*
X7460Y84470D01*
Y84112D01*
X7422Y83993D01*
X7022Y83687D01*
X6596Y83131D01*
X6328Y82485D01*
X6237Y81791D01*
X6328Y81098D01*
X6596Y80451D01*
X7022Y79896D01*
X7422Y79589D01*
X7460Y79470D01*
Y79112D01*
X7422Y78993D01*
X7022Y78687D01*
X6596Y78132D01*
X6328Y77485D01*
X6237Y76791D01*
X6328Y76098D01*
X6596Y75451D01*
X7022Y74896D01*
X7422Y74589D01*
X7460Y74470D01*
Y74112D01*
X7422Y73993D01*
X7022Y73687D01*
X6596Y73132D01*
X6328Y72485D01*
X6237Y71791D01*
X6328Y71098D01*
X6596Y70451D01*
X7022Y69896D01*
X7422Y69589D01*
X7460Y69470D01*
Y69112D01*
X7422Y68993D01*
X7022Y68687D01*
X6596Y68132D01*
X6328Y67485D01*
X6237Y66791D01*
X6328Y66098D01*
X6596Y65451D01*
X7022Y64896D01*
X7422Y64589D01*
X7460Y64470D01*
Y64112D01*
X7422Y63993D01*
X7022Y63687D01*
X6596Y63131D01*
X6328Y62485D01*
X6237Y61791D01*
X6328Y61098D01*
X6596Y60451D01*
X7022Y59896D01*
X7422Y59589D01*
X7460Y59470D01*
Y59112D01*
X7422Y58993D01*
X7022Y58687D01*
X6596Y58131D01*
X6328Y57485D01*
X6237Y56791D01*
X6328Y56098D01*
X6596Y55451D01*
X7022Y54896D01*
X7422Y54589D01*
X7460Y54470D01*
Y54112D01*
X7422Y53993D01*
X7022Y53687D01*
X6596Y53132D01*
X6328Y52485D01*
X6237Y51791D01*
X6328Y51098D01*
X6596Y50451D01*
X7022Y49896D01*
X7422Y49589D01*
X7460Y49470D01*
Y49112D01*
X7422Y48993D01*
X7022Y48687D01*
X6596Y48131D01*
X6328Y47485D01*
X6237Y46791D01*
X6328Y46098D01*
X6596Y45451D01*
X7022Y44896D01*
X7577Y44470D01*
X8224Y44202D01*
X8917Y44111D01*
X9611Y44202D01*
X10257Y44470D01*
X10813Y44896D01*
X11119Y45296D01*
X11238Y45334D01*
X11596D01*
X11715Y45296D01*
X12022Y44896D01*
X12577Y44470D01*
X13224Y44202D01*
X13917Y44111D01*
X14611Y44202D01*
X15258Y44470D01*
X15813Y44896D01*
X16239Y45451D01*
X16506Y46098D01*
X16598Y46791D01*
X16506Y47485D01*
X16239Y48131D01*
X15813Y48687D01*
X15413Y48993D01*
X15374Y49112D01*
Y49470D01*
X15413Y49589D01*
X15813Y49896D01*
X16239Y50451D01*
X16506Y51098D01*
X16598Y51791D01*
X16506Y52485D01*
X16239Y53132D01*
X15813Y53687D01*
X15413Y53993D01*
X15374Y54112D01*
Y54470D01*
X15413Y54589D01*
X15813Y54896D01*
X16239Y55451D01*
X16506Y56098D01*
X16598Y56791D01*
X16506Y57485D01*
X16239Y58131D01*
X15813Y58687D01*
X15413Y58993D01*
X15374Y59112D01*
Y59470D01*
X15413Y59589D01*
X15813Y59896D01*
X16239Y60451D01*
X16506Y61098D01*
X16598Y61791D01*
X16506Y62485D01*
X16239Y63131D01*
X15813Y63687D01*
X15413Y63993D01*
X15374Y64112D01*
Y64470D01*
X15413Y64589D01*
X15813Y64896D01*
X16239Y65451D01*
X16506Y66098D01*
X16598Y66791D01*
X16506Y67485D01*
X16239Y68132D01*
X15813Y68687D01*
X15413Y68993D01*
X15374Y69112D01*
Y69470D01*
X15413Y69589D01*
X15813Y69896D01*
X16239Y70451D01*
X16506Y71098D01*
X16598Y71791D01*
X16506Y72485D01*
X16239Y73132D01*
X15813Y73687D01*
X15413Y73993D01*
X15374Y74112D01*
Y74470D01*
X15413Y74589D01*
X15813Y74896D01*
X16239Y75451D01*
X16506Y76098D01*
X16598Y76791D01*
X16506Y77485D01*
X16239Y78132D01*
X15813Y78687D01*
X15413Y78993D01*
X15374Y79112D01*
Y79470D01*
X15413Y79589D01*
X15813Y79896D01*
X16239Y80451D01*
X16506Y81098D01*
X16598Y81791D01*
X16506Y82485D01*
X16239Y83131D01*
X15813Y83687D01*
X15413Y83993D01*
X15374Y84112D01*
Y84470D01*
X15413Y84589D01*
X15813Y84896D01*
X16239Y85451D01*
X16506Y86098D01*
X16598Y86791D01*
X16506Y87485D01*
X16239Y88131D01*
X15813Y88687D01*
X15413Y88993D01*
X15374Y89112D01*
Y89470D01*
X15413Y89589D01*
X15813Y89896D01*
X16239Y90451D01*
X16506Y91098D01*
X16532Y91291D01*
X13917D01*
Y91791D01*
X13417D01*
Y94406D01*
X13224Y94380D01*
X12577Y94113D01*
X12022Y93687D01*
X11715Y93287D01*
X11596Y93248D01*
X11238D01*
X11119Y93287D01*
X10813Y93687D01*
X10257Y94113D01*
X9611Y94380D01*
X9417Y94406D01*
D02*
G37*
G36*
X88878Y47118D02*
X88302Y47003D01*
X87814Y46677D01*
X87487Y46189D01*
X87373Y45613D01*
X87487Y45037D01*
X87783Y44594D01*
X87487Y44150D01*
X87373Y43574D01*
X87487Y42998D01*
X87814Y42510D01*
X88302Y42183D01*
X88878Y42069D01*
X89454Y42183D01*
X89942Y42510D01*
X90269Y42998D01*
X90383Y43574D01*
X90269Y44150D01*
X89973Y44594D01*
X90269Y45037D01*
X90383Y45613D01*
X90269Y46189D01*
X89942Y46677D01*
X89454Y47003D01*
X88878Y47118D01*
D02*
G37*
G36*
X91339Y41663D02*
X90763Y41548D01*
X90274Y41222D01*
X89948Y40734D01*
X89833Y40157D01*
X89948Y39581D01*
X90274Y39093D01*
X90763Y38767D01*
X91339Y38652D01*
X91915Y38767D01*
X92403Y39093D01*
X92729Y39581D01*
X92844Y40157D01*
X92729Y40734D01*
X92403Y41222D01*
X91915Y41548D01*
X91339Y41663D01*
D02*
G37*
G36*
X69291Y38513D02*
X68715Y38399D01*
X68227Y38072D01*
X67901Y37584D01*
X67786Y37008D01*
X67901Y36432D01*
X68227Y35943D01*
X68715Y35617D01*
X69291Y35503D01*
X69867Y35617D01*
X70356Y35943D01*
X70682Y36432D01*
X70797Y37008D01*
X70682Y37584D01*
X70356Y38072D01*
X69867Y38399D01*
X69291Y38513D01*
D02*
G37*
G36*
X10630Y37332D02*
X10054Y37218D01*
X9566Y36891D01*
X9239Y36403D01*
X9125Y35827D01*
X9239Y35251D01*
X9566Y34762D01*
X10054Y34436D01*
X10630Y34321D01*
X11206Y34436D01*
X11694Y34762D01*
X12021Y35251D01*
X12135Y35827D01*
X12021Y36403D01*
X11694Y36891D01*
X11206Y37218D01*
X10630Y37332D01*
D02*
G37*
G36*
X46457Y36151D02*
X45881Y36036D01*
X45392Y35710D01*
X45066Y35222D01*
X44951Y34646D01*
X45066Y34070D01*
X45392Y33581D01*
X45881Y33255D01*
X46457Y33140D01*
X47033Y33255D01*
X47521Y33581D01*
X47847Y34070D01*
X47962Y34646D01*
X47847Y35222D01*
X47521Y35710D01*
X47033Y36036D01*
X46457Y36151D01*
D02*
G37*
G36*
X58661Y33893D02*
X58085Y33779D01*
X57597Y33453D01*
X57271Y32964D01*
X57156Y32388D01*
X57271Y31812D01*
X57597Y31324D01*
X58085Y30997D01*
X58661Y30883D01*
X59237Y30997D01*
X59726Y31324D01*
X60052Y31812D01*
X60167Y32388D01*
X60052Y32964D01*
X59726Y33453D01*
X59237Y33779D01*
X58661Y33893D01*
D02*
G37*
G36*
X65354Y33789D02*
X64778Y33674D01*
X64290Y33348D01*
X63964Y32860D01*
X63849Y32283D01*
X63964Y31707D01*
X64290Y31219D01*
X64778Y30893D01*
X65354Y30778D01*
X65930Y30893D01*
X66419Y31219D01*
X66745Y31707D01*
X66860Y32283D01*
X66745Y32860D01*
X66419Y33348D01*
X65930Y33674D01*
X65354Y33789D01*
D02*
G37*
G36*
X78741Y32214D02*
X78165Y32100D01*
X77676Y31773D01*
X77350Y31285D01*
X77235Y30709D01*
X77350Y30133D01*
X77676Y29645D01*
X78165Y29318D01*
X78741Y29204D01*
X79317Y29318D01*
X79805Y29645D01*
X80131Y30133D01*
X80246Y30709D01*
X80131Y31285D01*
X79805Y31773D01*
X79317Y32100D01*
X78741Y32214D01*
D02*
G37*
G36*
X25197Y30836D02*
X24621Y30721D01*
X24133Y30395D01*
X23806Y29907D01*
X23730Y29525D01*
X23648Y29310D01*
X23226Y29106D01*
X22835Y29158D01*
X22115Y29063D01*
X21445Y28785D01*
X20869Y28343D01*
X20427Y27768D01*
X20150Y27097D01*
X20055Y26378D01*
X20150Y25659D01*
X20427Y24988D01*
X20869Y24412D01*
X21445Y23971D01*
X22115Y23693D01*
X22835Y23598D01*
X23554Y23693D01*
X24225Y23971D01*
X24800Y24412D01*
X25242Y24988D01*
X25520Y25659D01*
X25614Y26378D01*
X25520Y27097D01*
X25411Y27358D01*
X25716Y27929D01*
X25773Y27940D01*
X26261Y28266D01*
X26588Y28755D01*
X26702Y29331D01*
X26588Y29907D01*
X26261Y30395D01*
X25773Y30721D01*
X25197Y30836D01*
D02*
G37*
G36*
X13917Y29984D02*
X13224Y29892D01*
X12577Y29625D01*
X12022Y29199D01*
X11715Y28799D01*
X11596Y28760D01*
X11238D01*
X11119Y28799D01*
X10813Y29199D01*
X10257Y29625D01*
X9611Y29892D01*
X8917Y29984D01*
X8224Y29892D01*
X7577Y29625D01*
X7022Y29199D01*
X6596Y28643D01*
X6328Y27997D01*
X6237Y27303D01*
X6328Y26609D01*
X6596Y25963D01*
X7022Y25408D01*
X7256Y25228D01*
X7268Y25205D01*
X7238Y24612D01*
X6882Y24339D01*
X6424Y23743D01*
X6137Y23048D01*
X6038Y22303D01*
X6137Y21558D01*
X6424Y20864D01*
X6882Y20267D01*
X7478Y19810D01*
X8172Y19522D01*
X8917Y19424D01*
X9662Y19522D01*
X10357Y19810D01*
X10953Y20267D01*
X11102Y20462D01*
X11732D01*
X11882Y20267D01*
X12478Y19810D01*
X13172Y19522D01*
X13917Y19424D01*
X14662Y19522D01*
X15357Y19810D01*
X15953Y20267D01*
X16411Y20864D01*
X16698Y21558D01*
X16796Y22303D01*
X16698Y23048D01*
X16411Y23743D01*
X15953Y24339D01*
X15597Y24612D01*
X15567Y25205D01*
X15578Y25228D01*
X15813Y25408D01*
X16239Y25963D01*
X16506Y26609D01*
X16598Y27303D01*
X16506Y27997D01*
X16239Y28643D01*
X15813Y29199D01*
X15258Y29625D01*
X14611Y29892D01*
X13917Y29984D01*
D02*
G37*
G36*
X40052Y31032D02*
X39476Y30918D01*
X38987Y30591D01*
X38661Y30103D01*
X38546Y29527D01*
X38661Y28951D01*
X38987Y28463D01*
X39476Y28136D01*
X40052Y28022D01*
X40628Y28136D01*
X41116Y28463D01*
X41442Y28951D01*
X41557Y29527D01*
X41442Y30103D01*
X41116Y30591D01*
X40628Y30918D01*
X40052Y31032D01*
D02*
G37*
G36*
X53543Y29852D02*
X52967Y29737D01*
X52479Y29411D01*
X52153Y28923D01*
X52038Y28346D01*
X52153Y27770D01*
X52479Y27282D01*
X52967Y26956D01*
X53543Y26841D01*
X54119Y26956D01*
X54608Y27282D01*
X54934Y27770D01*
X55049Y28346D01*
X54934Y28923D01*
X54608Y29411D01*
X54119Y29737D01*
X53543Y29852D01*
D02*
G37*
G36*
X79921Y27988D02*
X79345Y27873D01*
X78857Y27547D01*
X78531Y27059D01*
X78416Y26483D01*
X78531Y25907D01*
X78857Y25418D01*
X79345Y25092D01*
X79921Y24977D01*
X80497Y25092D01*
X80986Y25418D01*
X81312Y25907D01*
X81427Y26483D01*
X81312Y27059D01*
X80986Y27547D01*
X80497Y27873D01*
X79921Y27988D01*
D02*
G37*
G36*
X69685Y28084D02*
X69032Y27954D01*
X68479Y27584D01*
X68109Y27031D01*
X67979Y26378D01*
X68109Y25725D01*
X68479Y25172D01*
X69032Y24802D01*
X69685Y24672D01*
X70338Y24802D01*
X70891Y25172D01*
X71261Y25725D01*
X71391Y26378D01*
X71261Y27031D01*
X70891Y27584D01*
X70338Y27954D01*
X69685Y28084D01*
D02*
G37*
G36*
X49607Y24541D02*
X48954Y24411D01*
X48400Y24041D01*
X48030Y23488D01*
X47901Y22835D01*
X48030Y22182D01*
X48400Y21629D01*
X48954Y21259D01*
X49607Y21129D01*
X50260Y21259D01*
X50813Y21629D01*
X51183Y22182D01*
X51313Y22835D01*
X51183Y23488D01*
X50813Y24041D01*
X50260Y24411D01*
X49607Y24541D01*
D02*
G37*
G36*
X83081Y22319D02*
X82505Y22204D01*
X82016Y21878D01*
X81690Y21390D01*
X81576Y20814D01*
X81690Y20238D01*
X82016Y19749D01*
X82505Y19423D01*
X83081Y19308D01*
X83657Y19423D01*
X84145Y19749D01*
X84471Y20238D01*
X84586Y20814D01*
X84471Y21390D01*
X84145Y21878D01*
X83657Y22204D01*
X83081Y22319D01*
D02*
G37*
G36*
X23335Y21218D02*
Y19004D01*
X25548D01*
X25520Y19223D01*
X25242Y19894D01*
X24800Y20470D01*
X24225Y20911D01*
X23554Y21189D01*
X23335Y21218D01*
D02*
G37*
G36*
X22335D02*
X22115Y21189D01*
X21445Y20911D01*
X20869Y20470D01*
X20427Y19894D01*
X20150Y19223D01*
X20121Y19004D01*
X22335D01*
Y21218D01*
D02*
G37*
G36*
X28839Y25816D02*
X28262Y25702D01*
X27774Y25375D01*
X27448Y24887D01*
X27333Y24311D01*
X27448Y23735D01*
X27774Y23247D01*
X28262Y22920D01*
X28839Y22806D01*
X29415Y22920D01*
X29832Y23199D01*
X29953D01*
X37061Y16091D01*
X37422Y15850D01*
X37544Y15826D01*
X37715Y15570D01*
X38203Y15243D01*
X38780Y15129D01*
X39356Y15243D01*
X39844Y15570D01*
X40170Y16058D01*
X40285Y16634D01*
X40170Y17210D01*
X39844Y17698D01*
X39356Y18025D01*
X38780Y18139D01*
X38261Y18036D01*
X37749Y18548D01*
X37995Y19009D01*
X38177Y18973D01*
X38754Y19087D01*
X39242Y19414D01*
X39568Y19902D01*
X39683Y20478D01*
X39568Y21054D01*
X39242Y21542D01*
X38754Y21869D01*
X38177Y21983D01*
X37601Y21869D01*
X37113Y21542D01*
X36787Y21054D01*
X36672Y20478D01*
X36709Y20295D01*
X36248Y20049D01*
X31200Y25097D01*
X30839Y25338D01*
X30413Y25423D01*
X30413Y25423D01*
X29832D01*
X29415Y25702D01*
X28839Y25816D01*
D02*
G37*
G36*
X28642Y21978D02*
X28066Y21863D01*
X27577Y21537D01*
X27251Y21048D01*
X27136Y20472D01*
X27251Y19896D01*
X27577Y19408D01*
X28066Y19082D01*
X28642Y18967D01*
X29218Y19082D01*
X29706Y19408D01*
X30032Y19896D01*
X30147Y20472D01*
X30032Y21048D01*
X29706Y21537D01*
X29218Y21863D01*
X28642Y21978D01*
D02*
G37*
G36*
X79921Y20009D02*
X79345Y19895D01*
X78857Y19568D01*
X78531Y19080D01*
X78416Y18504D01*
X78531Y17928D01*
X78857Y17440D01*
X79345Y17113D01*
X79921Y16999D01*
X80497Y17113D01*
X80986Y17440D01*
X81312Y17928D01*
X81427Y18504D01*
X81312Y19080D01*
X80986Y19568D01*
X80497Y19895D01*
X79921Y20009D01*
D02*
G37*
G36*
X69685Y20210D02*
X69032Y20080D01*
X68479Y19710D01*
X68109Y19157D01*
X67979Y18504D01*
X68109Y17851D01*
X68479Y17298D01*
X69032Y16928D01*
X69685Y16798D01*
X70338Y16928D01*
X70891Y17298D01*
X71261Y17851D01*
X71391Y18504D01*
X71261Y19157D01*
X70891Y19710D01*
X70338Y20080D01*
X69685Y20210D01*
D02*
G37*
G36*
X25548Y18004D02*
X23335D01*
Y15790D01*
X23554Y15819D01*
X24225Y16097D01*
X24800Y16538D01*
X25242Y17114D01*
X25520Y17785D01*
X25548Y18004D01*
D02*
G37*
G36*
X22335D02*
X20121D01*
X20150Y17785D01*
X20427Y17114D01*
X20869Y16538D01*
X21445Y16097D01*
X22115Y15819D01*
X22335Y15790D01*
Y18004D01*
D02*
G37*
G36*
X30709Y15678D02*
X30133Y15564D01*
X29644Y15238D01*
X29318Y14749D01*
X29203Y14173D01*
X29318Y13597D01*
X29644Y13109D01*
X30133Y12783D01*
X30709Y12668D01*
X31285Y12783D01*
X31773Y13109D01*
X32099Y13597D01*
X32214Y14173D01*
X32099Y14749D01*
X31773Y15238D01*
X31285Y15564D01*
X30709Y15678D01*
D02*
G37*
G36*
X43209Y11835D02*
X42489Y11740D01*
X41819Y11462D01*
X41243Y11021D01*
X41018Y10728D01*
X40399D01*
X40174Y11021D01*
X39599Y11462D01*
X38928Y11740D01*
X38209Y11835D01*
X37489Y11740D01*
X36819Y11462D01*
X36243Y11021D01*
X36018Y10728D01*
X35399D01*
X35174Y11021D01*
X34598Y11462D01*
X33928Y11740D01*
X33209Y11835D01*
X32489Y11740D01*
X31819Y11462D01*
X31243Y11021D01*
X31018Y10728D01*
X30399D01*
X30174Y11021D01*
X29599Y11462D01*
X28928Y11740D01*
X28209Y11835D01*
X27489Y11740D01*
X26819Y11462D01*
X26243Y11021D01*
X26018Y10728D01*
X25399D01*
X25174Y11021D01*
X24599Y11462D01*
X23928Y11740D01*
X23209Y11835D01*
X22489Y11740D01*
X21819Y11462D01*
X21465Y11191D01*
X20965Y11437D01*
Y11811D01*
X18709D01*
Y9055D01*
Y6299D01*
X20965D01*
Y6673D01*
X21465Y6920D01*
X21819Y6648D01*
X22489Y6370D01*
X23209Y6276D01*
X23928Y6370D01*
X24599Y6648D01*
X25174Y7090D01*
X25399Y7383D01*
X26018D01*
X26243Y7090D01*
X26819Y6648D01*
X27489Y6370D01*
X28209Y6276D01*
X28928Y6370D01*
X29599Y6648D01*
X30174Y7090D01*
X30399Y7383D01*
X31018D01*
X31243Y7090D01*
X31819Y6648D01*
X32489Y6370D01*
X33209Y6276D01*
X33928Y6370D01*
X34598Y6648D01*
X35174Y7090D01*
X35399Y7383D01*
X36018D01*
X36243Y7090D01*
X36819Y6648D01*
X37489Y6370D01*
X38209Y6276D01*
X38928Y6370D01*
X39599Y6648D01*
X40174Y7090D01*
X40399Y7383D01*
X41018D01*
X41243Y7090D01*
X41819Y6648D01*
X42489Y6370D01*
X43209Y6276D01*
X43928Y6370D01*
X44598Y6648D01*
X45174Y7090D01*
X45616Y7665D01*
X45894Y8336D01*
X45988Y9055D01*
X45894Y9775D01*
X45616Y10445D01*
X45174Y11021D01*
X44598Y11462D01*
X43928Y11740D01*
X43209Y11835D01*
D02*
G37*
G36*
X17709Y11811D02*
X15453D01*
Y9555D01*
X17709D01*
Y11811D01*
D02*
G37*
G36*
X87795Y15401D02*
X86874Y15217D01*
X86092Y14695D01*
X85570Y13914D01*
X85387Y12992D01*
Y10236D01*
X85570Y9315D01*
X86092Y8533D01*
X86874Y8011D01*
X87795Y7828D01*
X88717Y8011D01*
X89498Y8533D01*
X90021Y9315D01*
X90204Y10236D01*
Y12992D01*
X90021Y13914D01*
X89498Y14695D01*
X88717Y15217D01*
X87795Y15401D01*
D02*
G37*
G36*
X61811D02*
X60889Y15217D01*
X60108Y14695D01*
X59586Y13914D01*
X59403Y12992D01*
Y10236D01*
X59586Y9315D01*
X60108Y8533D01*
X60889Y8011D01*
X61811Y7828D01*
X62733Y8011D01*
X63514Y8533D01*
X64036Y9315D01*
X64219Y10236D01*
Y12992D01*
X64036Y13914D01*
X63514Y14695D01*
X62733Y15217D01*
X61811Y15401D01*
D02*
G37*
G36*
X17709Y8555D02*
X15453D01*
Y6299D01*
X17709D01*
Y8555D01*
D02*
G37*
%LPD*%
G36*
X26772Y121884D02*
X26272Y121527D01*
X25984Y121584D01*
X25408Y121469D01*
X24920Y121143D01*
X24593Y120655D01*
X24479Y120079D01*
X24593Y119503D01*
X24920Y119014D01*
X25408Y118688D01*
X25984Y118573D01*
X26272Y118631D01*
X26772Y118274D01*
Y116638D01*
X26562Y116324D01*
X26447Y115748D01*
X26562Y115172D01*
X26772Y114858D01*
X26772Y87504D01*
X26562Y87190D01*
X26447Y86614D01*
X26562Y86038D01*
X26772Y85724D01*
Y83578D01*
X26562Y83264D01*
X26447Y82688D01*
X26562Y82112D01*
X26772Y81798D01*
Y72543D01*
X26562Y72230D01*
X26447Y71653D01*
X26562Y71078D01*
X26772Y70764D01*
Y67819D01*
X26562Y67505D01*
X26447Y66929D01*
X26562Y66353D01*
X26888Y65865D01*
X27377Y65538D01*
X27953Y65424D01*
X28529Y65538D01*
X29017Y65865D01*
X29344Y66353D01*
X29458Y66929D01*
X29401Y67216D01*
X29758Y67716D01*
X45276Y67716D01*
Y66142D01*
X33150Y66142D01*
X27559Y59153D01*
Y53395D01*
X27377Y53359D01*
X26888Y53033D01*
X26562Y52545D01*
X26447Y51968D01*
X26562Y51392D01*
X26888Y50904D01*
X27377Y50578D01*
X27559Y50542D01*
Y40157D01*
X30709Y38408D01*
Y33465D01*
X20079Y33465D01*
X20079Y37008D01*
X23228Y40157D01*
X23228Y135039D01*
X26772D01*
Y121884D01*
D02*
G37*
G36*
X41525Y121616D02*
X41455Y121570D01*
X41129Y121082D01*
X41014Y120505D01*
X41129Y119930D01*
X41455Y119441D01*
X41837Y119186D01*
X41876Y119008D01*
Y118809D01*
X41837Y118631D01*
X41455Y118376D01*
X41129Y117888D01*
X41014Y117312D01*
X41129Y116736D01*
X41455Y116247D01*
X41820Y116004D01*
X41851Y115887D01*
Y115565D01*
X41820Y115448D01*
X41455Y115205D01*
X41234Y114873D01*
X41128Y114845D01*
X40718Y114859D01*
X40678Y114873D01*
X40435Y115238D01*
X39946Y115564D01*
X39370Y115679D01*
X38794Y115564D01*
X38306Y115238D01*
X38077Y114895D01*
X37994Y114871D01*
X37582Y114876D01*
X37521Y114895D01*
X37285Y115249D01*
X36797Y115575D01*
X36220Y115690D01*
X35645Y115575D01*
X35156Y115249D01*
X34830Y114760D01*
X34715Y114184D01*
X34715Y114184D01*
X34714Y114175D01*
X34646Y113710D01*
X34220Y113626D01*
X33956Y113449D01*
X27411D01*
Y113956D01*
X27797Y114274D01*
X27953Y114243D01*
X28529Y114357D01*
X29017Y114684D01*
X29344Y115172D01*
X29458Y115748D01*
X29344Y116324D01*
X29017Y116812D01*
X28529Y117139D01*
X27953Y117253D01*
X27797Y117222D01*
X27411Y117540D01*
Y118274D01*
X27390Y118325D01*
X27402Y118379D01*
X27299Y118545D01*
X27224Y118726D01*
X27179Y119209D01*
X27375Y119503D01*
X27490Y120079D01*
X27452Y120268D01*
X27567Y120408D01*
X27889Y120633D01*
X28346Y120542D01*
X28923Y120657D01*
X29411Y120983D01*
X29737Y121471D01*
X29852Y122047D01*
X29908Y122116D01*
X31974D01*
X32126Y121616D01*
X32006Y121537D01*
X31680Y121048D01*
X31566Y120473D01*
X31680Y119896D01*
X32006Y119408D01*
X32495Y119082D01*
X33071Y118967D01*
X33647Y119082D01*
X34135Y119408D01*
X34462Y119896D01*
X34576Y120473D01*
X34462Y121048D01*
X34135Y121537D01*
X34016Y121616D01*
X34168Y122116D01*
X41373D01*
X41525Y121616D01*
D02*
G37*
D53*
X22835Y18504D02*
D03*
D54*
X18209Y9055D02*
D03*
D55*
X56450Y86592D02*
X56693Y86349D01*
X55640Y86592D02*
X56450D01*
X55618Y86614D02*
X55640Y86592D01*
X31879Y86614D02*
X55618D01*
X27953Y82688D02*
X31879Y86614D01*
X64556Y49595D02*
X72047Y57087D01*
X46722Y50083D02*
X49270D01*
X49757Y49595D01*
X64556D01*
X50414Y51181D02*
X63780D01*
X44671Y48031D02*
X46722Y50083D01*
X40945Y48031D02*
X44671D01*
X63780Y51181D02*
X69685Y57087D01*
X50668Y136614D02*
X53554Y133728D01*
Y131485D02*
Y133728D01*
X34646Y112599D02*
X37795D01*
X39370Y114173D01*
X43199Y115748D02*
X44488D01*
X41863Y115726D02*
X43177D01*
X40945Y115748D02*
X41841D01*
X43177Y115726D02*
X43199Y115748D01*
X41841D02*
X41863Y115726D01*
X39370Y117323D02*
X40945Y115748D01*
X39370Y66929D02*
X43682D01*
X43701Y66910D01*
X42531Y71653D02*
X46063D01*
X40956Y70079D02*
X42531Y71653D01*
X39370Y117323D02*
X40945Y118898D01*
X44488D01*
X37795Y123228D02*
X37806Y123239D01*
X52362Y123228D02*
X53543Y122047D01*
X39370Y62205D02*
Y66929D01*
X37806Y123239D02*
Y128358D01*
X39370Y129921D01*
X50394Y66929D02*
X51968Y65354D01*
Y62205D02*
Y65354D01*
X53543Y115748D02*
X55118Y114173D01*
X53554Y131485D02*
X55118Y129921D01*
X39370Y66929D02*
Y71653D01*
X51968Y62205D02*
X53543Y60630D01*
X53543Y115748D02*
Y122047D01*
X39370Y71653D02*
X40945Y73228D01*
X39370Y62205D02*
X40945Y60630D01*
D59*
X52481Y88046D02*
X55794D01*
X56069Y88322D01*
X51842Y88685D02*
X52481Y88046D01*
X24906Y88685D02*
X51842D01*
X69788D02*
X69889Y88583D01*
X59392Y88685D02*
X69788D01*
X56069Y88322D02*
X59028D01*
X59392Y88685D01*
X28839Y24311D02*
X30413D01*
X37847Y16877D01*
X25984Y92519D02*
X41339D01*
X25984Y123622D02*
X26245Y123883D01*
X26245Y112337D02*
X34385D01*
X25984Y112598D02*
X26245Y112337D01*
X29107Y123883D02*
X29762Y123228D01*
X26245Y123883D02*
X29107D01*
X29762Y123228D02*
X37795D01*
X25984Y136614D02*
X31890Y142520D01*
X29134Y136614D02*
X50668D01*
X25984Y133465D02*
X29134Y136614D01*
X25984Y133465D02*
Y136614D01*
X34385Y112337D02*
X34646Y112599D01*
X47760Y66929D02*
X50394D01*
X43701Y66910D02*
X47741D01*
X47760Y66929D01*
X37795Y123228D02*
X52362D01*
D62*
X13917Y91791D02*
D03*
X8917D02*
D03*
X83720Y171417D02*
D03*
X65216D02*
D03*
X46713D02*
D03*
X27815D02*
D03*
X8917D02*
D03*
D63*
X10866Y121024D02*
D03*
X18898Y87008D02*
D03*
X27953Y60630D02*
D03*
X53242Y89882D02*
D03*
X27953Y82688D02*
D03*
X69889Y88583D02*
D03*
X58268Y90158D02*
D03*
X52362Y43307D02*
D03*
X50414Y51181D02*
D03*
X40945Y48031D02*
D03*
X56693Y86349D02*
D03*
X25197Y40551D02*
D03*
X28839Y24311D02*
D03*
X85039Y66535D02*
D03*
X81890Y77559D02*
D03*
X82284Y44094D02*
D03*
X38780Y16634D02*
D03*
X28740Y35827D02*
D03*
X21654D02*
D03*
X41339Y92519D02*
D03*
X85039Y74016D02*
D03*
X41339Y34646D02*
D03*
X81890Y70472D02*
D03*
X89370Y118504D02*
D03*
X76772Y130709D02*
D03*
X19685Y131496D02*
D03*
X55118Y129921D02*
D03*
X31890Y142520D02*
D03*
X72047Y53150D02*
D03*
Y57087D02*
D03*
X64173Y101969D02*
D03*
X69685Y57087D02*
D03*
X40956Y63779D02*
D03*
X55118Y114173D02*
D03*
X39392Y126772D02*
D03*
X39370Y114173D02*
D03*
Y129921D02*
D03*
X53554Y63779D02*
D03*
X55129Y120473D02*
D03*
X39370Y117323D02*
D03*
X44094Y60641D02*
D03*
X53543Y60630D02*
D03*
X40956Y70079D02*
D03*
X40945Y73228D02*
D03*
X48819Y114173D02*
D03*
Y129921D02*
D03*
X40945Y60630D02*
D03*
M02*
