G04*
G04 #@! TF.GenerationSoftware,Altium Limited,Altium Designer,20.2.6 (244)*
G04*
G04 Layer_Color=8388736*
%FSLAX25Y25*%
%MOIN*%
G70*
G04*
G04 #@! TF.SameCoordinates,98B12EC8-E559-45FE-9E7D-FCD1A3165D23*
G04*
G04*
G04 #@! TF.FilePolarity,Positive*
G04*
G01*
G75*
%ADD10C,0.00394*%
G36*
X71653Y134744D02*
Y131398D01*
X70669D01*
Y134744D01*
X71653D01*
D02*
G37*
D10*
X83466Y48031D02*
G03*
X83466Y48031I-787J0D01*
G01*
X95079Y133858D02*
G03*
X95079Y133858I-6496J0D01*
G01*
X23425Y106693D02*
G03*
X23425Y106693I-6496J0D01*
G01*
X81299Y9843D02*
G03*
X81299Y9843I-6496J0D01*
G01*
X81102Y54331D02*
X88976D01*
X81102Y46457D02*
X88976D01*
Y54331D01*
X81102Y46457D02*
Y54331D01*
X52264Y44980D02*
Y47146D01*
X56398Y44980D02*
Y47146D01*
X52264Y44980D02*
X56398D01*
X52264Y47146D02*
X56398D01*
X18209Y84547D02*
X25098D01*
X18209Y80807D02*
X25098D01*
Y84547D01*
X18209Y80807D02*
Y84547D01*
X59153Y83760D02*
Y87894D01*
X61319Y83760D02*
Y87894D01*
X59153D02*
X61319D01*
X59153Y83760D02*
X61319D01*
X23327Y31594D02*
X27067D01*
X23327Y38484D02*
X27067D01*
Y31594D02*
Y38484D01*
X23327Y31594D02*
Y38484D01*
X12697Y37697D02*
X19587D01*
X12697Y33957D02*
X19587D01*
Y37697D01*
X12697Y33957D02*
Y37697D01*
X36319Y29232D02*
Y31398D01*
X32185Y29232D02*
Y31398D01*
X36319D01*
X32185Y29232D02*
X36319D01*
X32185Y34744D02*
X36319D01*
X32185Y36909D02*
X36319D01*
X32185Y34744D02*
Y36909D01*
X36319Y34744D02*
Y36909D01*
X32185Y42421D02*
X36319D01*
X32185Y40256D02*
X36319D01*
Y42421D01*
X32185Y40256D02*
Y42421D01*
X91732Y57874D02*
Y64917D01*
X83071Y57874D02*
Y64917D01*
X91732D01*
X83071Y57874D02*
X91732D01*
X14331Y131437D02*
Y135492D01*
X16378Y131437D02*
Y135492D01*
X14331D02*
X16378D01*
X14331Y131437D02*
X16378D01*
X75787Y131398D02*
Y134744D01*
X70669Y131398D02*
Y134744D01*
X75787D01*
X70669Y131398D02*
X75787D01*
X63484Y34941D02*
X65650D01*
X63484Y39075D02*
X65650D01*
Y34941D02*
Y39075D01*
X63484Y34941D02*
Y39075D01*
X57579Y34941D02*
X59744D01*
X57579Y39075D02*
X59744D01*
Y34941D02*
Y39075D01*
X57579Y34941D02*
Y39075D01*
X87303Y113091D02*
Y115256D01*
X91437Y113091D02*
Y115256D01*
X87303Y113091D02*
X91437D01*
X87303Y115256D02*
X91437D01*
X87303Y107579D02*
Y109744D01*
X91437Y107579D02*
Y109744D01*
X87303Y107579D02*
X91437D01*
X87303Y109744D02*
X91437D01*
X87303Y96555D02*
Y98721D01*
X91437Y96555D02*
Y98721D01*
X87303Y96555D02*
X91437D01*
X87303Y98721D02*
X91437D01*
X87303Y102067D02*
Y104232D01*
X91437Y102067D02*
Y104232D01*
X87303Y102067D02*
X91437D01*
X87303Y104232D02*
X91437D01*
X87343Y87638D02*
X91398D01*
X87343Y85590D02*
X91398D01*
Y87638D01*
X87343Y85590D02*
Y87638D01*
X87303Y93209D02*
X91437D01*
X87303Y91043D02*
X91437D01*
Y93209D01*
X87303Y91043D02*
Y93209D01*
X10531Y119193D02*
X14665D01*
X10531Y117028D02*
X14665D01*
Y119193D01*
X10531Y117028D02*
Y119193D01*
Y141634D02*
X14665D01*
X10531Y139469D02*
X14665D01*
Y141634D01*
X10531Y139469D02*
Y141634D01*
X30650Y59606D02*
Y61654D01*
X34705Y59606D02*
Y61654D01*
X30650Y59606D02*
X34705D01*
X30650Y61654D02*
X34705D01*
X30610Y65847D02*
Y68012D01*
X34744Y65847D02*
Y68012D01*
X30610Y65847D02*
X34744D01*
X30610Y68012D02*
X34744D01*
X43012Y65847D02*
Y68012D01*
X38878Y65847D02*
Y68012D01*
X43012D01*
X38878Y65847D02*
X43012D01*
X34154Y141437D02*
X38287D01*
X34154Y143602D02*
X38287D01*
X34154Y141437D02*
Y143602D01*
X38287Y141437D02*
Y143602D01*
X44587Y106595D02*
X46752D01*
X44587Y110728D02*
X46752D01*
Y106595D02*
Y110728D01*
X44587Y106595D02*
Y110728D01*
X44587Y119390D02*
X46752D01*
X44587Y115256D02*
X46752D01*
X44587D02*
Y119390D01*
X46752Y115256D02*
Y119390D01*
X44587Y128248D02*
X46752D01*
X44587Y132382D02*
X46752D01*
Y128248D02*
Y132382D01*
X44587Y128248D02*
Y132382D01*
X43602Y135138D02*
Y137303D01*
X47736Y135138D02*
Y137303D01*
X43602Y135138D02*
X47736D01*
X43602Y137303D02*
X47736D01*
X52461Y50886D02*
X56201D01*
X52461Y57776D02*
X56201D01*
Y50886D02*
Y57776D01*
X52461Y50886D02*
Y57776D01*
X51476Y65847D02*
Y68012D01*
X55610Y65847D02*
Y68012D01*
X51476Y65847D02*
X55610D01*
X51476Y68012D02*
X55610D01*
X52067Y92421D02*
Y96555D01*
X54232Y92421D02*
Y96555D01*
X52067D02*
X54232D01*
X52067Y92421D02*
X54232D01*
X63878Y65847D02*
Y68012D01*
X59744Y65847D02*
Y68012D01*
X63878D01*
X59744Y65847D02*
X63878D01*
X57185Y96555D02*
X59350D01*
X57185Y92421D02*
X59350D01*
X57185D02*
Y96555D01*
X59350Y92421D02*
Y96555D01*
X60335Y107776D02*
X62500D01*
X60335Y111909D02*
X62500D01*
Y107776D02*
Y111909D01*
X60335Y107776D02*
Y111909D01*
X68209Y39665D02*
X70374D01*
X68209Y43799D02*
X70374D01*
Y39665D02*
Y43799D01*
X68209Y39665D02*
Y43799D01*
X68209Y49114D02*
Y53248D01*
X70374Y49114D02*
Y53248D01*
X68209D02*
X70374D01*
X68209Y49114D02*
X70374D01*
X73721D02*
X75886D01*
X73721Y53248D02*
X75886D01*
Y49114D02*
Y53248D01*
X73721Y49114D02*
Y53248D01*
X82579Y122343D02*
X86713D01*
X82579Y120177D02*
X86713D01*
Y122343D01*
X82579Y120177D02*
Y122343D01*
X91890Y119232D02*
Y123287D01*
X93937Y119232D02*
Y123287D01*
X91890D02*
X93937D01*
X91890Y119232D02*
X93937D01*
X41831Y122539D02*
Y124705D01*
X37697Y122539D02*
Y124705D01*
X41831D01*
X37697Y122539D02*
X41831D01*
X42224Y144390D02*
X49114D01*
X42224Y140650D02*
X49114D01*
Y144390D01*
X42224Y140650D02*
Y144390D01*
X46358Y122539D02*
Y124705D01*
X50492Y122539D02*
Y124705D01*
X46358Y122539D02*
X50492D01*
X46358Y124705D02*
X50492D01*
X55020Y122539D02*
Y124705D01*
X59154Y122539D02*
Y124705D01*
X55020Y122539D02*
X59154D01*
X55020Y124705D02*
X59154D01*
X10571Y124252D02*
X14626D01*
X10571Y122205D02*
X14626D01*
Y124252D01*
X10571Y122205D02*
Y124252D01*
X46161Y52264D02*
X48327D01*
X46161Y56398D02*
X48327D01*
Y52264D02*
Y56398D01*
X46161Y52264D02*
Y56398D01*
X46161Y64665D02*
X48327D01*
X46161Y60532D02*
X48327D01*
X46161D02*
Y64665D01*
X48327Y60532D02*
Y64665D01*
X46161Y73327D02*
X48327D01*
X46161Y69193D02*
X48327D01*
X46161D02*
Y73327D01*
X48327Y69193D02*
Y73327D01*
X46161Y81595D02*
X48327D01*
X46161Y77461D02*
X48327D01*
X46161D02*
Y81595D01*
X48327Y77461D02*
Y81595D01*
X42421Y95571D02*
Y99705D01*
X40256Y95571D02*
Y99705D01*
Y95571D02*
X42421D01*
X40256Y99705D02*
X42421D01*
X45374Y94193D02*
Y101083D01*
X49114Y94193D02*
Y101083D01*
X45374D02*
X49114D01*
X45374Y94193D02*
X49114D01*
X31988Y118602D02*
X34154D01*
X31988Y114469D02*
X34154D01*
X31988D02*
Y118602D01*
X34154Y114469D02*
Y118602D01*
X75886Y33071D02*
Y41733D01*
X81595Y33071D02*
Y41733D01*
X75886D02*
X81595D01*
X75886Y33071D02*
X81595D01*
X91240Y75689D02*
Y79429D01*
X84350Y75689D02*
Y79429D01*
X91240D01*
X84350Y75689D02*
X91240D01*
X63091Y95177D02*
Y99311D01*
X65256Y95177D02*
Y99311D01*
X63091D02*
X65256D01*
X63091Y95177D02*
X65256D01*
X85532Y34350D02*
X89272D01*
X85532Y41240D02*
X89272D01*
Y34350D02*
Y41240D01*
X85532Y34350D02*
Y41240D01*
X91240Y68602D02*
Y72342D01*
X84350Y68602D02*
Y72342D01*
X91240D01*
X84350Y68602D02*
X91240D01*
X42126Y32381D02*
X50788D01*
X42126Y26673D02*
X50788D01*
Y32381D01*
X42126Y26673D02*
Y32381D01*
X84548Y20079D02*
Y28741D01*
X90256Y20079D02*
Y28741D01*
X84548D02*
X90256D01*
X84548Y20079D02*
X90256D01*
M02*
