G04*
G04 #@! TF.GenerationSoftware,Altium Limited,Altium Designer,20.2.6 (244)*
G04*
G04 Layer_Color=65535*
%FSLAX25Y25*%
%MOIN*%
G70*
G04*
G04 #@! TF.SameCoordinates,98B12EC8-E559-45FE-9E7D-FCD1A3165D23*
G04*
G04*
G04 #@! TF.FilePolarity,Positive*
G04*
G01*
G75*
%ADD10C,0.00394*%
%ADD11C,0.00984*%
%ADD12C,0.00787*%
%ADD13C,0.00591*%
G36*
X66929Y84813D02*
X65128Y86614D01*
X66929D01*
Y84813D01*
D02*
G37*
G36*
X29528Y139764D02*
X29528Y137402D01*
X31890Y139764D01*
X29528Y139764D01*
D02*
G37*
G36*
X74125Y68254D02*
X74171D01*
X74227Y68249D01*
X74354Y68229D01*
X74359D01*
X74385Y68224D01*
X74415Y68219D01*
X74456Y68208D01*
X74507Y68198D01*
X74558Y68188D01*
X74676Y68163D01*
X74681D01*
X74691Y68158D01*
X74711Y68152D01*
X74742Y68147D01*
X74778Y68137D01*
X74818Y68127D01*
X74864Y68112D01*
X74910Y68101D01*
X75028Y68066D01*
X75150Y68030D01*
X75277Y67989D01*
X75410Y67943D01*
X75415D01*
X75425Y67938D01*
X75446Y67933D01*
X75471Y67923D01*
X75502Y67913D01*
X75538Y67897D01*
X75578Y67882D01*
X75629Y67867D01*
X75731Y67826D01*
X75849Y67785D01*
X75976Y67734D01*
X76109Y67683D01*
X76114D01*
X76124Y67678D01*
X76139Y67673D01*
X76160Y67663D01*
X76216Y67642D01*
X76287Y67612D01*
X76292D01*
X76302Y67607D01*
X76323Y67597D01*
X76343Y67586D01*
X76399Y67561D01*
X76461Y67525D01*
X76466D01*
X76471Y67515D01*
X76507Y67494D01*
X76547Y67459D01*
X76588Y67413D01*
Y67408D01*
X76593Y67403D01*
X76609Y67372D01*
X76629Y67326D01*
X76634Y67265D01*
Y67234D01*
X76629Y67199D01*
X76624Y67158D01*
X76609Y67066D01*
X76593Y67025D01*
X76573Y66990D01*
X76568Y66984D01*
X76563Y66979D01*
X76547Y66969D01*
X76522Y66954D01*
X76496Y66939D01*
X76466Y66928D01*
X76425Y66923D01*
X76384Y66918D01*
X76379D01*
X76359D01*
X76338D01*
X76308Y66923D01*
X76297D01*
X76277Y66928D01*
X76252Y66934D01*
X76221Y66939D01*
X76211Y66944D01*
X76185Y66954D01*
X76139Y66969D01*
X76078Y67000D01*
X76073D01*
X76063Y67010D01*
X76042Y67015D01*
X76017Y67030D01*
X75951Y67061D01*
X75874Y67102D01*
X75869Y67107D01*
X75854Y67112D01*
X75833Y67122D01*
X75803Y67137D01*
X75772Y67153D01*
X75731Y67173D01*
X75650Y67209D01*
X75645Y67214D01*
X75629Y67219D01*
X75609Y67229D01*
X75583Y67239D01*
X75522Y67265D01*
X75456Y67291D01*
X75451D01*
X75430Y67301D01*
X75400Y67306D01*
X75359Y67321D01*
X75313Y67336D01*
X75257Y67352D01*
X75191Y67372D01*
X75124Y67392D01*
X75114Y67398D01*
X75094Y67403D01*
X75053Y67413D01*
X75007Y67428D01*
X74946Y67444D01*
X74885Y67464D01*
X74742Y67500D01*
X74732Y67505D01*
X74711Y67510D01*
X74670Y67520D01*
X74625Y67530D01*
X74568Y67545D01*
X74507Y67561D01*
X74380Y67591D01*
X74370D01*
X74349Y67597D01*
X74319Y67602D01*
X74278Y67612D01*
X74186Y67622D01*
X74140Y67627D01*
X74099D01*
X74089D01*
X74069D01*
X74038Y67622D01*
X74002Y67617D01*
X73992D01*
X73972Y67607D01*
X73946Y67597D01*
X73916Y67581D01*
X73911Y67576D01*
X73890Y67561D01*
X73875Y67540D01*
X73855Y67510D01*
X73849Y67505D01*
X73839Y67479D01*
X73834Y67444D01*
X73829Y67398D01*
Y67377D01*
X73834Y67357D01*
Y67331D01*
X73844Y67296D01*
X73855Y67255D01*
X73865Y67209D01*
X73885Y67158D01*
Y67153D01*
X73895Y67132D01*
X73905Y67107D01*
X73926Y67071D01*
X73946Y67025D01*
X73972Y66979D01*
X74033Y66872D01*
X74038Y66867D01*
X74048Y66847D01*
X74069Y66816D01*
X74094Y66781D01*
X74125Y66735D01*
X74160Y66689D01*
X74242Y66582D01*
X74247Y66576D01*
X74262Y66561D01*
X74283Y66531D01*
X74313Y66500D01*
X74349Y66464D01*
X74385Y66423D01*
X74472Y66342D01*
X74477Y66337D01*
X74482Y66332D01*
X74518Y66301D01*
X74558Y66260D01*
X74599Y66209D01*
Y66204D01*
X74609Y66199D01*
X74630Y66168D01*
X74655Y66128D01*
X74676Y66082D01*
X74681D01*
X74691Y66077D01*
X74721Y66066D01*
X74742Y66056D01*
X74767Y66046D01*
X74773D01*
X74778Y66041D01*
X74798Y66036D01*
X74818Y66031D01*
X74875Y66010D01*
X74946Y65985D01*
X74951D01*
X74966Y65980D01*
X74987Y65970D01*
X75012Y65965D01*
X75048Y65949D01*
X75089Y65939D01*
X75175Y65908D01*
X75181D01*
X75196Y65903D01*
X75216Y65893D01*
X75247Y65883D01*
X75318Y65857D01*
X75400Y65832D01*
X75405D01*
X75415Y65827D01*
X75436Y65822D01*
X75461Y65812D01*
X75522Y65796D01*
X75578Y65776D01*
X75583D01*
X75589Y65771D01*
X75614Y65766D01*
X75639Y65755D01*
X75650Y65750D01*
X75655D01*
X75660D01*
X75670Y65745D01*
X75691D01*
X75711Y65740D01*
X75777Y65725D01*
X75849Y65710D01*
X75854D01*
X75864D01*
X75884Y65704D01*
X75910Y65699D01*
X75971Y65694D01*
X76037Y65684D01*
X76042D01*
X76053D01*
X76068Y65679D01*
X76093Y65674D01*
X76155Y65669D01*
X76226Y65658D01*
X76231D01*
X76241D01*
X76262Y65653D01*
X76287Y65648D01*
X76348Y65633D01*
X76420Y65613D01*
X76425D01*
X76435Y65608D01*
X76450Y65597D01*
X76471Y65587D01*
X76517Y65551D01*
X76563Y65505D01*
Y65500D01*
X76573Y65490D01*
X76578Y65475D01*
X76588Y65455D01*
X76598Y65424D01*
X76603Y65388D01*
X76614Y65347D01*
Y65291D01*
X76609Y65261D01*
X76598Y65220D01*
X76583Y65179D01*
X76578Y65169D01*
X76563Y65149D01*
X76537Y65113D01*
X76501Y65082D01*
X76491Y65077D01*
X76466Y65062D01*
X76430Y65041D01*
X76384Y65021D01*
X76379D01*
X76374Y65016D01*
X76343Y65011D01*
X76302Y65001D01*
X76252Y64995D01*
X76246D01*
X76236Y65001D01*
X76221Y65006D01*
X76200Y65011D01*
X76144Y65026D01*
X76073Y65041D01*
X75986Y65067D01*
X75894Y65092D01*
X75803Y65118D01*
X75711Y65143D01*
X75706D01*
X75701Y65149D01*
X75670Y65159D01*
X75624Y65174D01*
X75563Y65189D01*
X75492Y65215D01*
X75415Y65240D01*
X75252Y65291D01*
X75247D01*
X75242Y65296D01*
X75216Y65307D01*
X75170Y65317D01*
X75114Y65337D01*
X75048Y65358D01*
X74976Y65383D01*
X74895Y65409D01*
X74813Y65434D01*
X74808D01*
X74803Y65439D01*
X74773Y65444D01*
X74727Y65460D01*
X74665Y65475D01*
X74594Y65495D01*
X74507Y65516D01*
X74415Y65541D01*
X74319Y65567D01*
X74313D01*
X74308Y65572D01*
X74278Y65577D01*
X74242Y65587D01*
X74196Y65597D01*
X74191D01*
X74186D01*
X74160Y65602D01*
X74125Y65608D01*
X74084D01*
X74079D01*
X74069D01*
X74038Y65602D01*
X73997Y65592D01*
X73957Y65572D01*
X73951D01*
X73946Y65567D01*
X73926Y65546D01*
X73911Y65511D01*
X73900Y65485D01*
Y65429D01*
X73905Y65403D01*
Y65368D01*
X73916Y65327D01*
X73926Y65281D01*
X73936Y65230D01*
X73957Y65179D01*
Y65174D01*
X73967Y65154D01*
X73982Y65128D01*
X73997Y65092D01*
X74023Y65052D01*
X74053Y65001D01*
X74089Y64944D01*
X74130Y64888D01*
X74135Y64883D01*
X74150Y64863D01*
X74176Y64832D01*
X74212Y64786D01*
X74252Y64735D01*
X74308Y64679D01*
X74365Y64613D01*
X74431Y64542D01*
X74441Y64531D01*
X74461Y64506D01*
X74502Y64470D01*
X74553Y64414D01*
X74614Y64353D01*
X74686Y64276D01*
X74767Y64195D01*
X74859Y64103D01*
X74869Y64098D01*
X74880Y64093D01*
X74900Y64083D01*
X74926Y64072D01*
X74956Y64057D01*
X74997Y64042D01*
X75043Y64026D01*
X75048D01*
X75068Y64021D01*
X75094Y64011D01*
X75129Y64001D01*
X75175Y63986D01*
X75221Y63970D01*
X75333Y63940D01*
X75339D01*
X75359Y63935D01*
X75390Y63924D01*
X75425Y63914D01*
X75471Y63904D01*
X75517Y63889D01*
X75619Y63858D01*
X75624D01*
X75639Y63853D01*
X75665Y63848D01*
X75691Y63838D01*
X75747Y63823D01*
X75772Y63817D01*
X75792Y63812D01*
X75798D01*
X75818Y63807D01*
X75844Y63802D01*
X75874Y63792D01*
X75956Y63777D01*
X76032Y63761D01*
X76037D01*
X76047D01*
X76063Y63756D01*
X76088D01*
X76139Y63751D01*
X76200Y63741D01*
X76206D01*
X76231Y63736D01*
X76272Y63731D01*
X76333Y63721D01*
X76338D01*
X76348Y63715D01*
X76369D01*
X76389Y63710D01*
X76450Y63695D01*
X76517Y63670D01*
X76522D01*
X76532Y63664D01*
X76547Y63654D01*
X76573Y63644D01*
X76624Y63613D01*
X76680Y63573D01*
X76685Y63568D01*
X76690Y63562D01*
X76700Y63547D01*
X76716Y63527D01*
X76741Y63476D01*
X76746Y63440D01*
X76751Y63404D01*
Y63379D01*
X76746Y63353D01*
X76741Y63318D01*
X76731Y63277D01*
X76716Y63236D01*
X76695Y63195D01*
X76670Y63154D01*
X76665Y63149D01*
X76654Y63139D01*
X76639Y63124D01*
X76614Y63108D01*
X76583Y63088D01*
X76547Y63073D01*
X76507Y63063D01*
X76461Y63058D01*
X76455D01*
X76445D01*
X76420D01*
X76415D01*
X76405Y63063D01*
X76374Y63068D01*
X76369D01*
X76359Y63073D01*
X76338Y63078D01*
X76308Y63083D01*
X76272Y63093D01*
X76231Y63103D01*
X76190Y63119D01*
X76139Y63129D01*
X76027Y63160D01*
X75905Y63195D01*
X75777Y63226D01*
X75650Y63261D01*
X75645D01*
X75634Y63267D01*
X75614Y63272D01*
X75594Y63277D01*
X75563Y63287D01*
X75527Y63297D01*
X75441Y63323D01*
X75344Y63348D01*
X75237Y63379D01*
X75124Y63415D01*
X75007Y63445D01*
X75002D01*
X74992Y63450D01*
X74976Y63455D01*
X74956Y63460D01*
X74926Y63465D01*
X74895Y63476D01*
X74813Y63501D01*
X74721Y63527D01*
X74620Y63552D01*
X74512Y63583D01*
X74405Y63613D01*
X74400D01*
X74390Y63618D01*
X74375Y63624D01*
X74354Y63629D01*
X74329Y63634D01*
X74298Y63644D01*
X74222Y63664D01*
X74135Y63690D01*
X74033Y63721D01*
X73926Y63746D01*
X73814Y63777D01*
X73809D01*
X73793Y63782D01*
X73773Y63787D01*
X73742Y63792D01*
X73671Y63807D01*
X73589Y63812D01*
X73584D01*
X73569D01*
X73549Y63817D01*
X73518D01*
X73482Y63823D01*
X73447Y63828D01*
X73360Y63843D01*
X73355Y63848D01*
X73339Y63853D01*
X73319Y63873D01*
X73294Y63894D01*
X73288Y63899D01*
X73273Y63919D01*
X73253Y63940D01*
X73237Y63970D01*
X73232Y63981D01*
X73222Y64001D01*
X73212Y64026D01*
X73202Y64062D01*
X73197Y64072D01*
X73191Y64093D01*
X73186Y64123D01*
Y64210D01*
X73197Y64256D01*
X73207Y64307D01*
Y64312D01*
X73212Y64317D01*
X73222Y64343D01*
X73242Y64378D01*
X73268Y64409D01*
X73273Y64414D01*
X73294Y64429D01*
X73319Y64450D01*
X73355Y64465D01*
X73365Y64470D01*
X73385Y64475D01*
X73421Y64480D01*
X73467D01*
X73472D01*
X73487D01*
X73508D01*
X73538Y64475D01*
X73574Y64470D01*
X73615Y64465D01*
X73702Y64440D01*
X73707D01*
X73722Y64434D01*
X73742Y64424D01*
X73773Y64414D01*
X73814Y64404D01*
X73855Y64389D01*
X73951Y64353D01*
X73946Y64358D01*
X73931Y64378D01*
X73905Y64409D01*
X73875Y64450D01*
X73839Y64496D01*
X73798Y64552D01*
X73717Y64669D01*
X73712Y64679D01*
X73696Y64700D01*
X73676Y64730D01*
X73650Y64776D01*
X73620Y64827D01*
X73589Y64883D01*
X73523Y65011D01*
X73518Y65021D01*
X73508Y65041D01*
X73492Y65077D01*
X73477Y65123D01*
X73457Y65179D01*
X73431Y65240D01*
X73390Y65373D01*
Y65383D01*
X73380Y65403D01*
X73375Y65439D01*
X73365Y65490D01*
X73355Y65546D01*
X73350Y65608D01*
X73339Y65750D01*
Y65786D01*
X73344Y65806D01*
X73350Y65863D01*
X73370Y65929D01*
Y65934D01*
X73375Y65944D01*
X73380Y65959D01*
X73390Y65985D01*
X73416Y66036D01*
X73457Y66092D01*
X73462Y66097D01*
X73467Y66107D01*
X73482Y66118D01*
X73497Y66138D01*
X73549Y66174D01*
X73615Y66214D01*
X73620D01*
X73630Y66225D01*
X73650Y66230D01*
X73681Y66240D01*
X73717Y66250D01*
X73752Y66260D01*
X73798Y66265D01*
X73849Y66271D01*
X73844Y66276D01*
X73834Y66296D01*
X73814Y66321D01*
X73788Y66362D01*
X73758Y66403D01*
X73727Y66454D01*
X73656Y66566D01*
X73650Y66571D01*
X73640Y66592D01*
X73620Y66622D01*
X73594Y66663D01*
X73569Y66709D01*
X73538Y66760D01*
X73477Y66877D01*
X73472Y66882D01*
X73462Y66903D01*
X73452Y66934D01*
X73431Y66974D01*
X73416Y67025D01*
X73396Y67076D01*
X73355Y67194D01*
Y67199D01*
X73344Y67219D01*
X73339Y67255D01*
X73329Y67296D01*
X73319Y67342D01*
X73314Y67392D01*
X73304Y67505D01*
Y67540D01*
X73309Y67581D01*
Y67637D01*
X73319Y67693D01*
X73329Y67755D01*
X73344Y67816D01*
X73365Y67872D01*
Y67877D01*
X73375Y67897D01*
X73385Y67923D01*
X73406Y67959D01*
X73452Y68030D01*
X73482Y68071D01*
X73518Y68101D01*
X73523Y68107D01*
X73533Y68117D01*
X73554Y68132D01*
X73584Y68147D01*
X73615Y68168D01*
X73656Y68188D01*
X73747Y68224D01*
X73752D01*
X73768Y68229D01*
X73793Y68234D01*
X73829Y68244D01*
X73870Y68249D01*
X73916Y68254D01*
X74023Y68260D01*
X74028D01*
X74048D01*
X74084D01*
X74125Y68254D01*
D02*
G37*
G36*
X74140Y62915D02*
X74186Y62905D01*
X74196Y62899D01*
X74222Y62894D01*
X74252Y62879D01*
X74293Y62853D01*
X74298Y62848D01*
X74319Y62828D01*
X74344Y62802D01*
X74370Y62772D01*
X74375Y62762D01*
X74385Y62741D01*
X74395Y62706D01*
X74400Y62665D01*
Y62655D01*
X74395Y62629D01*
X74390Y62583D01*
X74375Y62527D01*
Y62522D01*
X74370Y62512D01*
X74354Y62481D01*
X74329Y62435D01*
X74298Y62394D01*
X74293Y62389D01*
X74283Y62379D01*
X74268Y62364D01*
X74242Y62344D01*
X74237Y62338D01*
X74217Y62328D01*
X74191Y62313D01*
X74166Y62298D01*
X74160Y62292D01*
X74145Y62287D01*
X74125Y62272D01*
X74099Y62257D01*
X74094D01*
X74084Y62247D01*
X74069Y62242D01*
X74059Y62231D01*
Y62226D01*
X74053Y62221D01*
Y62191D01*
X74048Y62180D01*
Y62124D01*
X74053Y62094D01*
X74059Y62053D01*
X74069Y62002D01*
X74084Y61951D01*
X74104Y61890D01*
X74135Y61834D01*
X74140Y61828D01*
X74150Y61808D01*
X74171Y61777D01*
X74196Y61742D01*
X74227Y61696D01*
X74262Y61645D01*
X74349Y61543D01*
X74354Y61538D01*
X74370Y61522D01*
X74395Y61497D01*
X74426Y61461D01*
X74467Y61426D01*
X74512Y61385D01*
X74614Y61298D01*
X74620Y61293D01*
X74640Y61278D01*
X74665Y61257D01*
X74701Y61232D01*
X74737Y61206D01*
X74783Y61171D01*
X74869Y61104D01*
X74875D01*
X74880Y61099D01*
X74895D01*
X74915Y61094D01*
X74971Y61079D01*
X75043Y61063D01*
X75129Y61038D01*
X75226Y61012D01*
X75333Y60987D01*
X75446Y60956D01*
X75451D01*
X75461Y60951D01*
X75476Y60946D01*
X75497Y60941D01*
X75527Y60936D01*
X75558Y60926D01*
X75639Y60905D01*
X75736Y60880D01*
X75844Y60854D01*
X75961Y60824D01*
X76083Y60793D01*
X76170D01*
X76175D01*
X76185D01*
X76206D01*
X76231D01*
X76297D01*
X76374Y60788D01*
X76379D01*
X76389D01*
X76410Y60783D01*
X76435D01*
X76496Y60768D01*
X76557Y60747D01*
X76563Y60742D01*
X76583Y60722D01*
X76609Y60686D01*
X76634Y60640D01*
Y60635D01*
X76639Y60630D01*
X76644Y60615D01*
X76649Y60594D01*
X76665Y60548D01*
X76670Y60487D01*
Y60462D01*
X76665Y60436D01*
X76660Y60405D01*
X76649Y60370D01*
X76634Y60339D01*
X76614Y60303D01*
X76583Y60273D01*
X76578Y60268D01*
X76568Y60263D01*
X76547Y60252D01*
X76522Y60242D01*
X76491Y60227D01*
X76455Y60217D01*
X76415Y60212D01*
X76369Y60207D01*
X76364D01*
X76359D01*
X76333D01*
X76297Y60212D01*
X76252Y60222D01*
X76246D01*
X76241D01*
X76211Y60227D01*
X76165Y60237D01*
X76099Y60247D01*
X76022Y60263D01*
X75935Y60278D01*
X75838Y60298D01*
X75736Y60319D01*
X75731D01*
X75721Y60324D01*
X75711D01*
X75685Y60329D01*
X75634Y60339D01*
X75558Y60355D01*
X75476Y60375D01*
X75379Y60395D01*
X75277Y60416D01*
X75170Y60436D01*
X75165D01*
X75155Y60441D01*
X75140D01*
X75119Y60446D01*
X75063Y60457D01*
X74992Y60472D01*
X74910Y60492D01*
X74813Y60513D01*
X74711Y60533D01*
X74609Y60553D01*
X74604D01*
X74599Y60558D01*
X74584D01*
X74563Y60564D01*
X74507Y60574D01*
X74441Y60589D01*
X74359Y60604D01*
X74278Y60620D01*
X74099Y60650D01*
X74094D01*
X74079D01*
X74043D01*
X74038D01*
X74028D01*
X74007D01*
X73987D01*
X73982D01*
X73972D01*
X73951D01*
X73921D01*
X73860Y60655D01*
X73783Y60660D01*
X73778D01*
X73763Y60666D01*
X73742D01*
X73717Y60671D01*
X73656Y60681D01*
X73589Y60696D01*
X73584D01*
X73569Y60701D01*
X73549Y60711D01*
X73518Y60722D01*
X73462Y60747D01*
X73436Y60763D01*
X73416Y60778D01*
X73411Y60788D01*
X73390Y60813D01*
X73375Y60859D01*
X73370Y60890D01*
Y60961D01*
X73375Y60982D01*
X73385Y61033D01*
X73411Y61079D01*
Y61084D01*
X73416Y61089D01*
X73436Y61114D01*
X73467Y61145D01*
X73513Y61171D01*
X73518D01*
X73523Y61176D01*
X73554Y61191D01*
X73599Y61206D01*
X73656Y61216D01*
X73661D01*
X73671D01*
X73686Y61221D01*
X73707D01*
X73763Y61227D01*
X73824D01*
X73834D01*
X73855D01*
X73890D01*
X73931Y61221D01*
X73941D01*
X73962D01*
X73992Y61216D01*
X74018D01*
X74013Y61221D01*
X74002Y61232D01*
X73982Y61252D01*
X73957Y61278D01*
X73890Y61344D01*
X73819Y61415D01*
X73814Y61420D01*
X73804Y61436D01*
X73783Y61456D01*
X73758Y61482D01*
X73727Y61517D01*
X73696Y61553D01*
X73635Y61640D01*
X73630Y61645D01*
X73620Y61660D01*
X73605Y61686D01*
X73589Y61716D01*
X73569Y61752D01*
X73543Y61793D01*
X73503Y61890D01*
X73497Y61895D01*
X73492Y61915D01*
X73482Y61941D01*
X73472Y61976D01*
X73462Y62017D01*
X73457Y62063D01*
X73447Y62114D01*
Y62201D01*
X73452Y62236D01*
X73457Y62277D01*
Y62287D01*
X73462Y62313D01*
X73472Y62349D01*
X73487Y62389D01*
Y62394D01*
X73492Y62400D01*
X73497Y62430D01*
X73513Y62476D01*
X73533Y62527D01*
Y62532D01*
X73538Y62537D01*
X73554Y62573D01*
X73574Y62614D01*
X73610Y62665D01*
X73615Y62670D01*
X73625Y62685D01*
X73640Y62706D01*
X73666Y62731D01*
X73696Y62757D01*
X73732Y62792D01*
X73773Y62818D01*
X73819Y62848D01*
X73824Y62853D01*
X73839Y62859D01*
X73865Y62874D01*
X73895Y62889D01*
X73936Y62899D01*
X73977Y62915D01*
X74023Y62920D01*
X74074Y62925D01*
X74084D01*
X74104D01*
X74140Y62915D01*
D02*
G37*
G36*
X74553Y59579D02*
X74625Y59574D01*
X74706Y59564D01*
X74798Y59549D01*
X74895Y59528D01*
X74997Y59498D01*
X75002D01*
X75007Y59493D01*
X75022Y59487D01*
X75043Y59482D01*
X75094Y59462D01*
X75165Y59437D01*
X75247Y59406D01*
X75333Y59365D01*
X75430Y59319D01*
X75527Y59263D01*
X75532D01*
X75538Y59258D01*
X75553Y59248D01*
X75573Y59238D01*
X75624Y59202D01*
X75685Y59161D01*
X75762Y59105D01*
X75849Y59044D01*
X75935Y58972D01*
X76027Y58891D01*
X76032D01*
X76037Y58881D01*
X76068Y58855D01*
X76114Y58809D01*
X76170Y58748D01*
X76236Y58677D01*
X76308Y58595D01*
X76384Y58503D01*
X76455Y58406D01*
X76461Y58396D01*
X76476Y58376D01*
X76501Y58340D01*
X76532Y58289D01*
X76563Y58233D01*
X76593Y58161D01*
X76629Y58090D01*
X76654Y58008D01*
X76660Y57998D01*
X76665Y57968D01*
X76675Y57927D01*
X76690Y57866D01*
X76705Y57794D01*
X76716Y57708D01*
X76721Y57616D01*
X76726Y57519D01*
Y57478D01*
X76721Y57427D01*
X76716Y57366D01*
X76710Y57300D01*
X76695Y57223D01*
X76680Y57147D01*
X76660Y57075D01*
X76654Y57065D01*
X76649Y57045D01*
X76634Y57009D01*
X76609Y56963D01*
X76583Y56917D01*
X76547Y56861D01*
X76512Y56810D01*
X76466Y56759D01*
X76461Y56754D01*
X76445Y56739D01*
X76415Y56718D01*
X76379Y56693D01*
X76338Y56662D01*
X76287Y56631D01*
X76226Y56601D01*
X76165Y56575D01*
X76155D01*
X76134Y56565D01*
X76099Y56555D01*
X76047Y56545D01*
X75991Y56535D01*
X75920Y56524D01*
X75849Y56519D01*
X75767Y56514D01*
X75757D01*
X75731D01*
X75691Y56519D01*
X75634D01*
X75563Y56529D01*
X75492Y56540D01*
X75405Y56550D01*
X75318Y56570D01*
X75308Y56575D01*
X75283Y56581D01*
X75242Y56591D01*
X75186Y56611D01*
X75124Y56631D01*
X75048Y56657D01*
X74971Y56688D01*
X74885Y56723D01*
X74880D01*
X74875Y56728D01*
X74844Y56744D01*
X74798Y56764D01*
X74742Y56800D01*
X74670Y56836D01*
X74594Y56887D01*
X74512Y56937D01*
X74426Y56999D01*
X74421D01*
X74415Y57009D01*
X74385Y57029D01*
X74339Y57065D01*
X74278Y57116D01*
X74212Y57177D01*
X74135Y57249D01*
X74048Y57325D01*
X73967Y57412D01*
X73962Y57417D01*
X73957Y57422D01*
X73946Y57437D01*
X73926Y57453D01*
X73885Y57504D01*
X73829Y57570D01*
X73768Y57652D01*
X73696Y57743D01*
X73620Y57850D01*
X73549Y57963D01*
X73543Y57973D01*
X73528Y58003D01*
X73508Y58049D01*
X73482Y58116D01*
Y58121D01*
X73477Y58136D01*
X73472Y58156D01*
X73462Y58182D01*
X73452Y58253D01*
X73441Y58330D01*
X73436Y58335D01*
X73421Y58355D01*
X73396Y58386D01*
X73370Y58422D01*
X73350Y58473D01*
X73324Y58534D01*
X73309Y58605D01*
X73304Y58682D01*
Y58728D01*
X73309Y58773D01*
X73319Y58835D01*
X73334Y58901D01*
X73360Y58978D01*
X73390Y59049D01*
X73436Y59120D01*
X73441Y59131D01*
X73462Y59151D01*
X73487Y59181D01*
X73528Y59222D01*
X73579Y59273D01*
X73640Y59319D01*
X73712Y59370D01*
X73793Y59416D01*
X73798D01*
X73804Y59421D01*
X73839Y59437D01*
X73885Y59457D01*
X73936Y59482D01*
X73941D01*
X73946Y59487D01*
X73962Y59493D01*
X73982Y59503D01*
X74033Y59518D01*
X74089Y59533D01*
X74094D01*
X74104Y59539D01*
X74120Y59544D01*
X74140Y59549D01*
X74191Y59559D01*
X74257Y59569D01*
X74262D01*
X74273Y59574D01*
X74293D01*
X74313Y59579D01*
X74344D01*
X74380Y59584D01*
X74456D01*
X74461D01*
X74467D01*
X74482D01*
X74502D01*
X74553Y59579D01*
D02*
G37*
G36*
X73691Y55999D02*
X73742Y55989D01*
X73788Y55968D01*
X73793D01*
X73798Y55963D01*
X73824Y55948D01*
X73860Y55923D01*
X73895Y55887D01*
X73900Y55877D01*
X73921Y55856D01*
X73946Y55821D01*
X73972Y55775D01*
Y55770D01*
X73977Y55765D01*
X73987Y55734D01*
X73997Y55693D01*
X74007Y55647D01*
Y55637D01*
X74013Y55611D01*
X74023Y55566D01*
X74038Y55510D01*
Y55504D01*
X74043Y55494D01*
Y55479D01*
X74053Y55458D01*
X74064Y55397D01*
X74084Y55326D01*
Y55321D01*
X74089Y55311D01*
X74094Y55290D01*
X74099Y55260D01*
X74104Y55229D01*
X74115Y55193D01*
X74135Y55112D01*
Y55107D01*
X74140Y55091D01*
X74145Y55071D01*
X74150Y55045D01*
X74166Y54974D01*
X74186Y54897D01*
Y54892D01*
X74191Y54872D01*
X74201Y54841D01*
X74212Y54806D01*
X74232Y54724D01*
X74252Y54637D01*
Y54632D01*
X74257Y54622D01*
X74262Y54602D01*
X74268Y54576D01*
X74278Y54515D01*
X74293Y54449D01*
Y54439D01*
X74303Y54403D01*
X74308Y54362D01*
X74313Y54321D01*
Y54296D01*
X74319Y54270D01*
Y54250D01*
X74329Y54245D01*
X74349Y54240D01*
X74390Y54224D01*
X74436Y54209D01*
X74497Y54194D01*
X74558Y54173D01*
X74696Y54138D01*
X74706D01*
X74727Y54132D01*
X74762Y54122D01*
X74808Y54112D01*
X74859Y54097D01*
X74915Y54081D01*
X75038Y54056D01*
X75043D01*
X75063Y54051D01*
X75094Y54046D01*
X75135Y54041D01*
X75175Y54031D01*
X75226Y54025D01*
X75323Y54010D01*
X75328D01*
X75344D01*
X75364Y54005D01*
X75395D01*
X75456Y54000D01*
X75486Y53995D01*
X75512D01*
X75517D01*
X75527D01*
X75548D01*
X75568D01*
X75624Y54000D01*
X75685Y54010D01*
X75691D01*
X75701Y54015D01*
X75716Y54020D01*
X75731Y54025D01*
X75782Y54046D01*
X75828Y54071D01*
X75838Y54076D01*
X75864Y54102D01*
X75894Y54132D01*
X75925Y54178D01*
Y54184D01*
X75930Y54194D01*
X75935Y54209D01*
X75940Y54229D01*
X75956Y54280D01*
X75961Y54352D01*
Y54382D01*
X75956Y54418D01*
X75951Y54464D01*
X75935Y54515D01*
X75920Y54571D01*
X75894Y54637D01*
X75864Y54699D01*
X75859Y54709D01*
X75849Y54729D01*
X75823Y54760D01*
X75798Y54801D01*
X75762Y54852D01*
X75721Y54908D01*
X75670Y54964D01*
X75619Y55020D01*
X75614Y55025D01*
X75594Y55045D01*
X75563Y55076D01*
X75522Y55117D01*
X75471Y55163D01*
X75415Y55214D01*
X75293Y55316D01*
X75283Y55321D01*
X75262Y55341D01*
X75226Y55367D01*
X75186Y55397D01*
X75129Y55438D01*
X75073Y55484D01*
X74956Y55571D01*
X74951D01*
X74946Y55576D01*
X74926Y55601D01*
X74905Y55632D01*
X74895Y55652D01*
Y55693D01*
X74900Y55724D01*
Y55729D01*
X74905Y55744D01*
X74910Y55759D01*
X74926Y55780D01*
X74931Y55785D01*
X74936Y55795D01*
X74966Y55821D01*
X74971Y55826D01*
X74982Y55831D01*
X75007Y55836D01*
X75033Y55841D01*
X75038D01*
X75048D01*
X75058D01*
X75068D01*
X75078D01*
X75104Y55831D01*
X75145Y55816D01*
X75201Y55800D01*
X75262Y55775D01*
X75333Y55744D01*
X75410Y55713D01*
X75486Y55673D01*
X75497Y55668D01*
X75522Y55652D01*
X75563Y55632D01*
X75619Y55601D01*
X75680Y55566D01*
X75752Y55530D01*
X75905Y55443D01*
X75910D01*
X75915Y55438D01*
X75951Y55418D01*
X75997Y55387D01*
X76047Y55341D01*
X76053Y55336D01*
X76058Y55331D01*
X76093Y55300D01*
X76134Y55255D01*
X76185Y55198D01*
X76190Y55193D01*
X76195Y55183D01*
X76206Y55168D01*
X76221Y55147D01*
X76262Y55096D01*
X76308Y55035D01*
Y55030D01*
X76318Y55020D01*
X76328Y55005D01*
X76343Y54984D01*
X76374Y54938D01*
X76415Y54882D01*
X76420Y54877D01*
X76425Y54862D01*
X76440Y54836D01*
X76455Y54801D01*
X76476Y54760D01*
X76491Y54709D01*
X76522Y54602D01*
Y54597D01*
X76527Y54576D01*
X76532Y54546D01*
X76537Y54510D01*
X76542Y54469D01*
X76547Y54418D01*
X76552Y54316D01*
Y54280D01*
X76547Y54240D01*
X76542Y54184D01*
X76532Y54127D01*
X76522Y54061D01*
X76501Y53995D01*
X76476Y53929D01*
X76471Y53923D01*
X76461Y53903D01*
X76445Y53867D01*
X76420Y53832D01*
X76389Y53786D01*
X76348Y53735D01*
X76308Y53689D01*
X76262Y53643D01*
X76257Y53638D01*
X76236Y53623D01*
X76211Y53602D01*
X76170Y53582D01*
X76124Y53551D01*
X76068Y53521D01*
X76012Y53495D01*
X75946Y53470D01*
X75935D01*
X75915Y53459D01*
X75879Y53449D01*
X75828Y53439D01*
X75772Y53429D01*
X75706Y53418D01*
X75634Y53413D01*
X75558Y53408D01*
X75553D01*
X75543D01*
X75532D01*
X75507D01*
X75451Y53413D01*
X75379Y53418D01*
X75293Y53424D01*
X75196Y53434D01*
X75089Y53449D01*
X74976Y53470D01*
X74971D01*
X74961Y53475D01*
X74946D01*
X74926Y53480D01*
X74900Y53485D01*
X74864Y53495D01*
X74793Y53510D01*
X74701Y53531D01*
X74604Y53556D01*
X74502Y53582D01*
X74395Y53607D01*
Y53577D01*
X74390Y53551D01*
X74385Y53495D01*
X74370Y53429D01*
Y53424D01*
X74365Y53413D01*
X74359Y53398D01*
X74354Y53378D01*
X74334Y53322D01*
X74308Y53266D01*
Y53260D01*
X74303Y53255D01*
X74283Y53225D01*
X74252Y53184D01*
X74212Y53143D01*
X74206D01*
X74201Y53138D01*
X74171Y53123D01*
X74130Y53102D01*
X74074Y53097D01*
X74069D01*
X74053D01*
X74028Y53102D01*
X73997Y53113D01*
X73987Y53118D01*
X73967Y53123D01*
X73941Y53138D01*
X73905Y53153D01*
X73895Y53158D01*
X73880Y53169D01*
X73855Y53189D01*
X73829Y53215D01*
X73824Y53220D01*
X73814Y53240D01*
X73804Y53271D01*
X73798Y53306D01*
Y53765D01*
X73793Y53791D01*
X73773Y53816D01*
X73763Y53826D01*
X73742Y53837D01*
X73737D01*
X73732Y53842D01*
X73707Y53852D01*
X73671Y53867D01*
X73630Y53878D01*
X73620D01*
X73599Y53883D01*
X73564Y53893D01*
X73518Y53903D01*
X73467Y53913D01*
X73411Y53929D01*
X73299Y53954D01*
X73294D01*
X73273Y53959D01*
X73248Y53969D01*
X73217Y53979D01*
X73135Y54000D01*
X73059Y54020D01*
X73054D01*
X73044Y54025D01*
X73023Y54031D01*
X72998Y54036D01*
X72947Y54051D01*
X72896Y54066D01*
X72891D01*
X72886Y54071D01*
X72860Y54076D01*
X72829Y54081D01*
X72799D01*
X72789D01*
X72773D01*
X72743D01*
X72717Y54076D01*
X72707D01*
X72687D01*
X72651D01*
X72605D01*
X72569D01*
X72564D01*
X72549D01*
X72528D01*
X72503D01*
X72493D01*
X72467Y54081D01*
X72432Y54092D01*
X72376Y54112D01*
X72370D01*
X72365Y54117D01*
X72340Y54127D01*
X72299Y54153D01*
X72258Y54184D01*
X72253Y54189D01*
X72248Y54194D01*
X72228Y54224D01*
X72212Y54275D01*
X72202Y54306D01*
Y54372D01*
X72207Y54398D01*
X72217Y54444D01*
X72238Y54495D01*
Y54500D01*
X72243Y54505D01*
X72263Y54530D01*
X72294Y54566D01*
X72335Y54597D01*
X72340D01*
X72345Y54602D01*
X72376Y54622D01*
X72416Y54637D01*
X72472Y54658D01*
X72478D01*
X72488Y54663D01*
X72503D01*
X72518Y54668D01*
X72569Y54673D01*
X72625Y54678D01*
X72631D01*
X72641D01*
X72656D01*
X72676D01*
X72722Y54673D01*
X72773Y54663D01*
X73712Y54418D01*
Y54428D01*
X73707Y54449D01*
X73702Y54484D01*
X73691Y54525D01*
X73686Y54576D01*
X73676Y54627D01*
X73656Y54734D01*
Y54739D01*
X73650Y54760D01*
X73645Y54785D01*
X73635Y54826D01*
X73630Y54867D01*
X73620Y54913D01*
X73599Y55020D01*
Y55025D01*
X73594Y55045D01*
X73589Y55076D01*
X73579Y55112D01*
X73574Y55152D01*
X73564Y55198D01*
X73543Y55285D01*
Y55290D01*
X73538Y55305D01*
X73533Y55326D01*
X73528Y55351D01*
X73513Y55413D01*
X73497Y55474D01*
Y55479D01*
X73492Y55489D01*
Y55504D01*
X73487Y55520D01*
X73477Y55566D01*
X73467Y55611D01*
Y55622D01*
X73462Y55642D01*
X73457Y55673D01*
Y55734D01*
X73462Y55770D01*
X73467Y55810D01*
Y55821D01*
X73472Y55846D01*
X73477Y55877D01*
X73492Y55907D01*
X73497Y55912D01*
X73508Y55933D01*
X73523Y55953D01*
X73549Y55974D01*
X73554Y55979D01*
X73574Y55989D01*
X73605Y55999D01*
X73645Y56004D01*
X73650D01*
X73661D01*
X73676D01*
X73691Y55999D01*
D02*
G37*
G36*
X71962Y52812D02*
X72003Y52801D01*
X72008Y52796D01*
X72029Y52791D01*
X72059Y52776D01*
X72085Y52761D01*
X72090Y52755D01*
X72100Y52745D01*
X72115Y52725D01*
X72131Y52705D01*
Y52699D01*
X72136Y52684D01*
X72141Y52664D01*
Y52608D01*
X72136Y52582D01*
X72131Y52531D01*
X72120Y52470D01*
Y52465D01*
X72115Y52460D01*
X72105Y52424D01*
X72090Y52378D01*
X72075Y52327D01*
Y52322D01*
X72070Y52317D01*
X72059Y52281D01*
X72044Y52235D01*
X72029Y52184D01*
Y52179D01*
X72024Y52174D01*
X72018Y52144D01*
X72013Y52092D01*
X72008Y52036D01*
Y51996D01*
X72013Y51945D01*
X72018Y51878D01*
X72034Y51802D01*
X72049Y51720D01*
X72075Y51628D01*
X72105Y51531D01*
Y51526D01*
X72110Y51521D01*
X72115Y51506D01*
X72120Y51486D01*
X72146Y51440D01*
X72171Y51373D01*
X72207Y51297D01*
X72253Y51215D01*
X72299Y51123D01*
X72355Y51032D01*
Y51027D01*
X72360Y51021D01*
X72381Y50991D01*
X72411Y50945D01*
X72457Y50884D01*
X72508Y50818D01*
X72564Y50741D01*
X72625Y50659D01*
X72697Y50578D01*
X72707Y50568D01*
X72727Y50542D01*
X72763Y50501D01*
X72809Y50450D01*
X72865Y50389D01*
X72926Y50323D01*
X73059Y50190D01*
X73064Y50185D01*
X73074Y50175D01*
X73095Y50160D01*
X73115Y50139D01*
X73176Y50098D01*
X73248Y50058D01*
X73253D01*
X73263Y50052D01*
X73283Y50047D01*
X73304Y50037D01*
X73360Y50022D01*
X73421Y50017D01*
X73426D01*
X73441D01*
X73462Y50022D01*
X73492Y50032D01*
X73523Y50042D01*
X73554Y50063D01*
X73584Y50088D01*
X73615Y50124D01*
X73620Y50129D01*
X73625Y50144D01*
X73635Y50165D01*
X73650Y50195D01*
X73666Y50236D01*
X73676Y50277D01*
X73681Y50328D01*
X73686Y50384D01*
Y50634D01*
X73681Y50659D01*
Y50736D01*
X73676Y50823D01*
Y50863D01*
X73671Y50894D01*
Y50971D01*
X73666Y51052D01*
Y51093D01*
X73661Y51118D01*
Y51287D01*
X73666Y51328D01*
Y51379D01*
X73676Y51435D01*
X73686Y51501D01*
X73702Y51572D01*
X73722Y51644D01*
Y51654D01*
X73732Y51674D01*
X73747Y51715D01*
X73763Y51761D01*
X73788Y51812D01*
X73819Y51868D01*
X73849Y51929D01*
X73890Y51985D01*
X73895Y51990D01*
X73911Y52011D01*
X73936Y52036D01*
X73967Y52072D01*
X74007Y52108D01*
X74053Y52149D01*
X74110Y52184D01*
X74171Y52220D01*
X74176Y52225D01*
X74201Y52235D01*
X74237Y52245D01*
X74283Y52266D01*
X74339Y52281D01*
X74405Y52291D01*
X74477Y52302D01*
X74558Y52307D01*
X74563D01*
X74579D01*
X74609D01*
X74640Y52302D01*
X74681Y52297D01*
X74727Y52291D01*
X74829Y52266D01*
X74834D01*
X74854Y52261D01*
X74880Y52251D01*
X74915Y52240D01*
X74956Y52225D01*
X75002Y52205D01*
X75104Y52159D01*
X75109Y52154D01*
X75129Y52149D01*
X75155Y52133D01*
X75191Y52113D01*
X75231Y52087D01*
X75277Y52062D01*
X75379Y51996D01*
X75384Y51990D01*
X75400Y51980D01*
X75430Y51965D01*
X75461Y51939D01*
X75502Y51914D01*
X75543Y51878D01*
X75639Y51807D01*
X75650Y51797D01*
X75680Y51776D01*
X75726Y51741D01*
X75782Y51690D01*
X75849Y51628D01*
X75925Y51562D01*
X76002Y51486D01*
X76083Y51404D01*
X76093Y51394D01*
X76119Y51368D01*
X76155Y51322D01*
X76206Y51261D01*
X76262Y51195D01*
X76318Y51113D01*
X76379Y51027D01*
X76440Y50935D01*
Y50930D01*
X76445Y50925D01*
X76455Y50909D01*
X76466Y50894D01*
X76491Y50843D01*
X76527Y50777D01*
X76568Y50695D01*
X76603Y50603D01*
X76644Y50506D01*
X76680Y50404D01*
Y50399D01*
X76685Y50394D01*
X76690Y50379D01*
X76695Y50358D01*
X76710Y50302D01*
X76726Y50226D01*
X76741Y50144D01*
X76756Y50047D01*
X76767Y49940D01*
X76772Y49833D01*
Y49787D01*
X76767Y49752D01*
Y49716D01*
X76762Y49670D01*
X76746Y49573D01*
Y49568D01*
X76741Y49553D01*
X76736Y49522D01*
X76731Y49492D01*
X76721Y49451D01*
X76710Y49405D01*
X76680Y49308D01*
Y49303D01*
X76670Y49288D01*
X76660Y49262D01*
X76649Y49231D01*
X76634Y49191D01*
X76614Y49150D01*
X76568Y49063D01*
X76563Y49058D01*
X76557Y49043D01*
X76542Y49022D01*
X76522Y48992D01*
X76476Y48925D01*
X76415Y48859D01*
X76410Y48854D01*
X76399Y48844D01*
X76384Y48829D01*
X76359Y48808D01*
X76297Y48762D01*
X76226Y48721D01*
X76221D01*
X76206Y48711D01*
X76185Y48706D01*
X76155Y48696D01*
X76124Y48686D01*
X76083Y48681D01*
X75997Y48670D01*
X75991D01*
X75986D01*
X75961D01*
X75920Y48676D01*
X75879Y48686D01*
X75874D01*
X75869Y48691D01*
X75849Y48706D01*
X75833Y48737D01*
X75823Y48757D01*
Y48788D01*
X75828Y48803D01*
X75838Y48823D01*
X75849Y48854D01*
X75864Y48890D01*
X75879Y48925D01*
X75920Y49012D01*
Y49017D01*
X75930Y49033D01*
X75940Y49058D01*
X75951Y49089D01*
X75966Y49124D01*
X75986Y49165D01*
X76022Y49257D01*
Y49262D01*
X76027Y49277D01*
X76037Y49303D01*
X76047Y49338D01*
X76063Y49379D01*
X76078Y49425D01*
X76104Y49522D01*
Y49527D01*
X76109Y49548D01*
X76114Y49573D01*
X76119Y49609D01*
X76124Y49655D01*
X76129Y49706D01*
X76134Y49818D01*
Y49884D01*
X76129Y49935D01*
X76124Y49986D01*
X76119Y50052D01*
X76093Y50185D01*
Y50195D01*
X76083Y50216D01*
X76073Y50257D01*
X76058Y50302D01*
X76042Y50358D01*
X76022Y50420D01*
X75966Y50552D01*
X75961Y50563D01*
X75951Y50583D01*
X75930Y50619D01*
X75905Y50665D01*
X75874Y50716D01*
X75838Y50772D01*
X75757Y50894D01*
X75752Y50904D01*
X75736Y50925D01*
X75711Y50955D01*
X75675Y50996D01*
X75634Y51042D01*
X75589Y51093D01*
X75532Y51144D01*
X75476Y51195D01*
X75466Y51200D01*
X75446Y51220D01*
X75415Y51251D01*
X75374Y51282D01*
X75323Y51322D01*
X75272Y51363D01*
X75216Y51404D01*
X75165Y51445D01*
X75160Y51450D01*
X75140Y51460D01*
X75114Y51481D01*
X75084Y51506D01*
X75002Y51557D01*
X74920Y51608D01*
X74915Y51613D01*
X74900Y51618D01*
X74880Y51628D01*
X74854Y51644D01*
X74793Y51669D01*
X74732Y51695D01*
X74727D01*
X74716Y51700D01*
X74686Y51710D01*
X74645Y51720D01*
X74599Y51725D01*
X74594D01*
X74584D01*
X74568Y51720D01*
X74548D01*
X74502Y51700D01*
X74477Y51684D01*
X74451Y51664D01*
X74446D01*
X74441Y51654D01*
X74415Y51623D01*
X74380Y51577D01*
X74349Y51511D01*
Y51506D01*
X74344Y51496D01*
X74334Y51475D01*
X74329Y51450D01*
X74319Y51419D01*
X74308Y51384D01*
X74293Y51297D01*
Y51292D01*
X74288Y51276D01*
Y51251D01*
X74283Y51220D01*
X74278Y51185D01*
Y51144D01*
X74273Y51052D01*
Y50945D01*
X74278Y50868D01*
Y50833D01*
X74283Y50802D01*
Y50736D01*
X74288Y50659D01*
Y50619D01*
X74293Y50593D01*
Y50527D01*
X74298Y50450D01*
Y50236D01*
X74293Y50211D01*
Y50175D01*
X74288Y50134D01*
X74278Y50047D01*
Y50042D01*
X74273Y50027D01*
X74268Y50007D01*
X74257Y49976D01*
X74247Y49940D01*
X74232Y49900D01*
X74196Y49818D01*
X74191Y49813D01*
X74186Y49797D01*
X74171Y49777D01*
X74155Y49752D01*
X74104Y49680D01*
X74038Y49609D01*
X74033Y49604D01*
X74023Y49593D01*
X73997Y49573D01*
X73972Y49553D01*
X73936Y49527D01*
X73895Y49502D01*
X73849Y49471D01*
X73798Y49446D01*
X73788D01*
X73768Y49435D01*
X73732Y49425D01*
X73691Y49410D01*
X73686D01*
X73681D01*
X73650Y49405D01*
X73605Y49400D01*
X73554Y49395D01*
X73549D01*
X73538D01*
X73523D01*
X73503D01*
X73457Y49400D01*
X73401Y49405D01*
X73396D01*
X73390Y49410D01*
X73355Y49415D01*
X73314Y49425D01*
X73263Y49435D01*
X73253D01*
X73232Y49446D01*
X73202Y49456D01*
X73156Y49471D01*
X73105Y49492D01*
X73049Y49517D01*
X72988Y49553D01*
X72926Y49588D01*
X72916Y49593D01*
X72896Y49609D01*
X72865Y49634D01*
X72819Y49665D01*
X72768Y49701D01*
X72712Y49747D01*
X72651Y49797D01*
X72590Y49848D01*
X72585Y49854D01*
X72559Y49874D01*
X72528Y49905D01*
X72488Y49945D01*
X72442Y49996D01*
X72386Y50052D01*
X72330Y50114D01*
X72273Y50180D01*
X72268Y50190D01*
X72248Y50211D01*
X72217Y50246D01*
X72177Y50292D01*
X72131Y50348D01*
X72085Y50410D01*
X71983Y50547D01*
X71978Y50557D01*
X71957Y50578D01*
X71932Y50619D01*
X71901Y50665D01*
X71860Y50721D01*
X71820Y50782D01*
X71738Y50914D01*
X71733Y50925D01*
X71718Y50945D01*
X71702Y50981D01*
X71677Y51027D01*
X71646Y51078D01*
X71616Y51134D01*
X71554Y51256D01*
Y51261D01*
X71549Y51266D01*
X71539Y51292D01*
X71519Y51338D01*
X71493Y51394D01*
X71468Y51460D01*
X71442Y51537D01*
X71422Y51618D01*
X71401Y51705D01*
Y51715D01*
X71391Y51746D01*
X71386Y51792D01*
X71376Y51848D01*
X71366Y51919D01*
X71361Y51996D01*
X71350Y52159D01*
Y52205D01*
X71355Y52240D01*
X71361Y52276D01*
X71366Y52322D01*
X71386Y52409D01*
Y52414D01*
X71391Y52429D01*
X71401Y52455D01*
X71412Y52480D01*
X71442Y52552D01*
X71488Y52623D01*
X71493Y52628D01*
X71498Y52638D01*
X71514Y52653D01*
X71534Y52674D01*
X71585Y52720D01*
X71651Y52766D01*
X71656Y52771D01*
X71667Y52776D01*
X71687Y52786D01*
X71718Y52796D01*
X71748Y52807D01*
X71789Y52812D01*
X71830Y52822D01*
X71876D01*
X71881D01*
X71886D01*
X71922D01*
X71962Y52812D01*
D02*
G37*
G36*
X75833Y48135D02*
X75838D01*
X75849Y48130D01*
X75864D01*
X75889Y48120D01*
X75940Y48099D01*
X76007Y48069D01*
X76012D01*
X76022Y48058D01*
X76037Y48048D01*
X76058Y48033D01*
X76104Y47992D01*
X76155Y47941D01*
X76160Y47936D01*
X76165Y47926D01*
X76180Y47905D01*
X76200Y47880D01*
X76221Y47849D01*
X76246Y47814D01*
X76277Y47768D01*
X76308Y47722D01*
X76369Y47615D01*
X76435Y47492D01*
X76496Y47365D01*
X76547Y47227D01*
Y47222D01*
X76552Y47212D01*
X76557Y47191D01*
X76563Y47166D01*
X76573Y47130D01*
X76583Y47089D01*
X76593Y47043D01*
X76603Y46992D01*
X76624Y46875D01*
X76644Y46748D01*
X76654Y46600D01*
X76660Y46447D01*
Y46396D01*
X76654Y46365D01*
Y46335D01*
X76649Y46258D01*
Y46238D01*
X76644Y46217D01*
X76639Y46192D01*
X76634Y46156D01*
X76629Y46120D01*
X76609Y46034D01*
Y46029D01*
X76603Y46013D01*
X76598Y45993D01*
X76588Y45962D01*
X76578Y45927D01*
X76563Y45886D01*
X76527Y45804D01*
X76522Y45799D01*
X76517Y45784D01*
X76507Y45763D01*
X76486Y45738D01*
X76440Y45672D01*
X76379Y45600D01*
X76374Y45595D01*
X76364Y45585D01*
X76343Y45570D01*
X76313Y45549D01*
X76277Y45529D01*
X76241Y45503D01*
X76195Y45478D01*
X76144Y45457D01*
X76139D01*
X76119Y45447D01*
X76088Y45442D01*
X76053Y45432D01*
X76002Y45422D01*
X75946Y45417D01*
X75884Y45406D01*
X75813D01*
X75808D01*
X75787D01*
X75752D01*
X75711Y45412D01*
X75660Y45417D01*
X75604Y45422D01*
X75538Y45432D01*
X75466Y45447D01*
Y45442D01*
X75456Y45422D01*
X75441Y45396D01*
X75420Y45366D01*
X75410Y45360D01*
X75390Y45350D01*
X75354Y45335D01*
X75308Y45330D01*
X75303D01*
X75283D01*
X75257Y45335D01*
X75226Y45340D01*
X75186Y45350D01*
X75145Y45360D01*
X75104Y45381D01*
X75068Y45406D01*
X75063Y45412D01*
X75053Y45422D01*
X75033Y45437D01*
X75012Y45463D01*
X74992Y45488D01*
X74966Y45524D01*
X74946Y45564D01*
X74931Y45610D01*
X74926D01*
X74915Y45616D01*
X74900Y45626D01*
X74880Y45636D01*
X74854Y45651D01*
X74818Y45672D01*
X74778Y45697D01*
X74737Y45723D01*
X74732Y45728D01*
X74716Y45738D01*
X74691Y45753D01*
X74655Y45774D01*
X74614Y45804D01*
X74568Y45835D01*
X74461Y45911D01*
X74456Y45916D01*
X74436Y45932D01*
X74405Y45952D01*
X74370Y45988D01*
X74324Y46023D01*
X74273Y46064D01*
X74166Y46166D01*
X74160Y46171D01*
X74140Y46192D01*
X74115Y46222D01*
X74074Y46263D01*
X74033Y46309D01*
X73987Y46365D01*
X73941Y46426D01*
X73895Y46488D01*
X73890Y46498D01*
X73875Y46518D01*
X73855Y46554D01*
X73824Y46600D01*
X73793Y46656D01*
X73758Y46722D01*
X73727Y46794D01*
X73696Y46865D01*
X73691Y46875D01*
X73686Y46901D01*
X73671Y46942D01*
X73656Y46998D01*
X73645Y47059D01*
X73630Y47135D01*
X73625Y47212D01*
X73620Y47298D01*
Y47370D01*
X73625Y47416D01*
X73630Y47467D01*
X73640Y47523D01*
X73666Y47635D01*
Y47640D01*
X73676Y47661D01*
X73686Y47686D01*
X73702Y47717D01*
X73742Y47793D01*
X73798Y47870D01*
X73804Y47875D01*
X73814Y47885D01*
X73829Y47900D01*
X73855Y47921D01*
X73885Y47946D01*
X73916Y47967D01*
X73997Y48007D01*
X74002D01*
X74018Y48018D01*
X74038Y48023D01*
X74069Y48033D01*
X74104Y48043D01*
X74145Y48048D01*
X74242Y48058D01*
X74247D01*
X74262D01*
X74283D01*
X74313Y48053D01*
X74380Y48048D01*
X74461Y48028D01*
X74472D01*
X74492Y48018D01*
X74528Y48007D01*
X74568Y47987D01*
X74620Y47967D01*
X74676Y47936D01*
X74732Y47900D01*
X74788Y47854D01*
X74793Y47849D01*
X74813Y47834D01*
X74839Y47803D01*
X74869Y47768D01*
X74910Y47727D01*
X74951Y47676D01*
X74992Y47615D01*
X75033Y47554D01*
X75038Y47548D01*
X75048Y47523D01*
X75068Y47487D01*
X75094Y47446D01*
X75124Y47390D01*
X75155Y47324D01*
X75181Y47258D01*
X75211Y47181D01*
X75216Y47171D01*
X75221Y47146D01*
X75237Y47105D01*
X75252Y47054D01*
X75267Y46992D01*
X75288Y46921D01*
X75323Y46773D01*
Y46763D01*
X75328Y46738D01*
X75339Y46702D01*
X75349Y46651D01*
X75359Y46590D01*
X75374Y46528D01*
X75395Y46386D01*
Y46375D01*
X75400Y46355D01*
X75405Y46319D01*
X75410Y46279D01*
X75415Y46227D01*
X75420Y46171D01*
X75436Y46064D01*
X75441D01*
X75446Y46059D01*
X75476Y46049D01*
X75527Y46029D01*
X75589Y46013D01*
X75594D01*
X75604Y46008D01*
X75624D01*
X75645Y46003D01*
X75701Y45998D01*
X75767Y45993D01*
X75777D01*
X75798Y45998D01*
X75833Y46003D01*
X75879Y46013D01*
X75925Y46029D01*
X75976Y46059D01*
X76022Y46095D01*
X76068Y46146D01*
X76073Y46151D01*
X76083Y46176D01*
X76099Y46207D01*
X76119Y46258D01*
X76139Y46314D01*
X76155Y46391D01*
X76165Y46472D01*
X76170Y46569D01*
Y46625D01*
X76165Y46666D01*
Y46712D01*
X76155Y46763D01*
X76139Y46870D01*
Y46875D01*
X76134Y46896D01*
X76124Y46921D01*
X76114Y46957D01*
X76099Y46998D01*
X76083Y47043D01*
X76047Y47140D01*
X76042Y47146D01*
X76037Y47161D01*
X76027Y47186D01*
X76012Y47217D01*
X75997Y47253D01*
X75976Y47293D01*
X75930Y47380D01*
X75925Y47385D01*
X75920Y47401D01*
X75905Y47421D01*
X75889Y47451D01*
X75849Y47518D01*
X75798Y47589D01*
X75792Y47594D01*
X75782Y47610D01*
X75767Y47635D01*
X75752Y47666D01*
X75706Y47737D01*
X75665Y47819D01*
X75660Y47824D01*
X75655Y47839D01*
X75645Y47859D01*
X75634Y47885D01*
X75619Y47946D01*
X75609Y47982D01*
Y48028D01*
X75614Y48058D01*
X75624Y48089D01*
X75634Y48104D01*
X75650Y48114D01*
X75655Y48120D01*
X75675Y48130D01*
X75706Y48135D01*
X75736Y48140D01*
X75741D01*
X75757D01*
X75792D01*
X75798D01*
X75803D01*
X75833Y48135D01*
D02*
G37*
G36*
X73707Y44779D02*
X73758Y44774D01*
X73819Y44759D01*
X73824D01*
X73834Y44754D01*
X73849Y44748D01*
X73870Y44743D01*
X73916Y44723D01*
X73967Y44692D01*
X73972D01*
X73977Y44682D01*
X74002Y44662D01*
X74038Y44626D01*
X74074Y44575D01*
Y44570D01*
X74079Y44565D01*
X74084Y44550D01*
X74094Y44529D01*
X74110Y44478D01*
X74115Y44412D01*
Y44402D01*
X74110Y44366D01*
X74104Y44325D01*
X74089Y44274D01*
Y44269D01*
X74084Y44264D01*
X74069Y44238D01*
X74048Y44198D01*
X74028Y44157D01*
X74023Y44152D01*
X74018Y44137D01*
X73992Y44101D01*
X73987Y44096D01*
X73982Y44085D01*
X73972Y44065D01*
X73962Y44040D01*
X73967Y44034D01*
X73972Y44014D01*
X73987Y43989D01*
X74002Y43958D01*
X74028Y43917D01*
X74059Y43876D01*
X74125Y43785D01*
X74130Y43780D01*
X74140Y43764D01*
X74160Y43744D01*
X74186Y43713D01*
X74222Y43677D01*
X74257Y43642D01*
X74344Y43565D01*
X74349Y43560D01*
X74365Y43550D01*
X74390Y43530D01*
X74421Y43504D01*
X74456Y43474D01*
X74502Y43443D01*
X74599Y43377D01*
X74604Y43371D01*
X74620Y43361D01*
X74650Y43346D01*
X74681Y43326D01*
X74721Y43305D01*
X74767Y43280D01*
X74869Y43224D01*
X74875Y43218D01*
X74895Y43213D01*
X74920Y43198D01*
X74956Y43183D01*
X74997Y43167D01*
X75043Y43147D01*
X75140Y43106D01*
X75145D01*
X75160Y43101D01*
X75186Y43091D01*
X75221Y43081D01*
X75298Y43055D01*
X75379Y43030D01*
X75384D01*
X75395Y43025D01*
X75410Y43020D01*
X75430Y43014D01*
X75492Y42999D01*
X75563Y42984D01*
X75568D01*
X75578D01*
X75599Y42979D01*
X75624D01*
X75691Y42974D01*
X75762Y42969D01*
X75767D01*
X75772D01*
X75803D01*
X75844Y42974D01*
X75889Y42979D01*
X75894D01*
X75900Y42984D01*
X75925Y42989D01*
X75961Y43004D01*
X75997Y43025D01*
X76002Y43030D01*
X76022Y43045D01*
X76047Y43071D01*
X76068Y43101D01*
X76073Y43111D01*
X76078Y43137D01*
X76088Y43178D01*
X76093Y43229D01*
Y43270D01*
X76088Y43300D01*
Y43336D01*
X76083Y43377D01*
X76068Y43458D01*
Y43463D01*
X76063Y43479D01*
X76058Y43499D01*
X76047Y43530D01*
X76022Y43601D01*
X75991Y43683D01*
Y43688D01*
X75981Y43703D01*
X75971Y43723D01*
X75956Y43754D01*
X75920Y43820D01*
X75879Y43897D01*
X75874Y43902D01*
X75869Y43917D01*
X75859Y43938D01*
X75838Y43963D01*
X75803Y44029D01*
X75757Y44106D01*
Y44111D01*
X75752Y44116D01*
X75731Y44147D01*
X75706Y44182D01*
X75675Y44228D01*
Y44233D01*
X75665Y44238D01*
X75650Y44269D01*
X75624Y44310D01*
X75599Y44351D01*
Y44356D01*
X75594Y44361D01*
X75578Y44386D01*
X75558Y44417D01*
X75543Y44453D01*
X75538Y44463D01*
X75527Y44483D01*
X75522Y44509D01*
X75517Y44539D01*
Y44550D01*
X75522Y44570D01*
X75527Y44601D01*
X75543Y44631D01*
X75548Y44636D01*
X75563Y44657D01*
X75589Y44672D01*
X75629Y44677D01*
X75634D01*
X75655D01*
X75685Y44667D01*
X75726Y44657D01*
X75731D01*
X75747Y44646D01*
X75772Y44636D01*
X75803Y44626D01*
X75879Y44585D01*
X75961Y44529D01*
X75966Y44524D01*
X75976Y44514D01*
X75997Y44499D01*
X76022Y44478D01*
X76083Y44422D01*
X76144Y44351D01*
X76149Y44346D01*
X76160Y44335D01*
X76175Y44315D01*
X76195Y44289D01*
X76216Y44259D01*
X76241Y44223D01*
X76292Y44142D01*
X76297Y44137D01*
X76302Y44121D01*
X76313Y44101D01*
X76328Y44070D01*
X76364Y44004D01*
X76405Y43922D01*
X76410Y43912D01*
X76425Y43887D01*
X76440Y43846D01*
X76466Y43790D01*
X76491Y43729D01*
X76522Y43657D01*
X76547Y43581D01*
X76568Y43499D01*
Y43489D01*
X76578Y43463D01*
X76583Y43428D01*
X76593Y43377D01*
X76603Y43321D01*
X76609Y43264D01*
X76619Y43203D01*
Y43117D01*
X76614Y43081D01*
X76609Y43035D01*
Y43025D01*
X76603Y42999D01*
X76593Y42963D01*
X76588Y42928D01*
Y42923D01*
X76583Y42918D01*
X76578Y42902D01*
X76568Y42882D01*
X76542Y42836D01*
X76507Y42775D01*
X76461Y42714D01*
X76405Y42647D01*
X76343Y42586D01*
X76272Y42530D01*
X76262Y42525D01*
X76236Y42510D01*
X76195Y42489D01*
X76139Y42469D01*
X76068Y42448D01*
X75991Y42428D01*
X75900Y42413D01*
X75803Y42408D01*
X75798D01*
X75782D01*
X75762D01*
X75731Y42413D01*
X75696D01*
X75655Y42418D01*
X75563Y42428D01*
X75558D01*
X75538Y42433D01*
X75512Y42438D01*
X75481Y42443D01*
X75441Y42448D01*
X75395Y42459D01*
X75293Y42484D01*
X75288D01*
X75283Y42489D01*
X75267D01*
X75247Y42494D01*
X75196Y42510D01*
X75129Y42530D01*
X75048Y42555D01*
X74956Y42586D01*
X74854Y42627D01*
X74752Y42668D01*
X74747D01*
X74742Y42673D01*
X74727Y42683D01*
X74706Y42688D01*
X74650Y42719D01*
X74579Y42754D01*
X74497Y42800D01*
X74405Y42851D01*
X74308Y42907D01*
X74212Y42974D01*
X74206D01*
X74201Y42984D01*
X74186Y42994D01*
X74166Y43004D01*
X74120Y43040D01*
X74053Y43091D01*
X73982Y43152D01*
X73900Y43218D01*
X73814Y43295D01*
X73732Y43377D01*
X73727Y43382D01*
X73722Y43387D01*
X73696Y43417D01*
X73656Y43463D01*
X73599Y43525D01*
X73543Y43596D01*
X73482Y43677D01*
X73421Y43769D01*
X73365Y43866D01*
Y43871D01*
X73355Y43881D01*
X73350Y43897D01*
X73339Y43922D01*
X73319Y43984D01*
X73299Y44055D01*
Y44060D01*
X73294Y44075D01*
X73288Y44096D01*
X73283Y44121D01*
X73278Y44193D01*
X73273Y44269D01*
Y44335D01*
X73283Y44402D01*
X73294Y44473D01*
Y44478D01*
X73299Y44488D01*
X73304Y44509D01*
X73309Y44529D01*
X73329Y44585D01*
X73360Y44636D01*
Y44641D01*
X73370Y44646D01*
X73390Y44677D01*
X73431Y44708D01*
X73482Y44743D01*
X73487D01*
X73492Y44748D01*
X73513Y44759D01*
X73533Y44764D01*
X73589Y44779D01*
X73661Y44784D01*
X73666D01*
X73676D01*
X73691D01*
X73707Y44779D01*
D02*
G37*
G36*
X72151Y42362D02*
X72182D01*
X72217Y42357D01*
X72294Y42336D01*
X72299D01*
X72314Y42331D01*
X72335Y42326D01*
X72365Y42316D01*
X72401Y42306D01*
X72442Y42295D01*
X72534Y42265D01*
X72539D01*
X72554Y42260D01*
X72579Y42250D01*
X72615Y42239D01*
X72656Y42224D01*
X72702Y42209D01*
X72804Y42168D01*
X72809D01*
X72829Y42158D01*
X72855Y42147D01*
X72896Y42137D01*
X72936Y42122D01*
X72988Y42107D01*
X73095Y42071D01*
X73100D01*
X73105Y42066D01*
X73120Y42061D01*
X73141Y42056D01*
X73197Y42035D01*
X73268Y42010D01*
X73350Y41984D01*
X73441Y41949D01*
X73543Y41918D01*
X73645Y41882D01*
X73650D01*
X73656Y41877D01*
X73671Y41872D01*
X73691Y41867D01*
X73747Y41847D01*
X73819Y41826D01*
X73905Y41796D01*
X74002Y41765D01*
X74110Y41734D01*
X74222Y41699D01*
X74227D01*
X74237Y41694D01*
X74252Y41688D01*
X74268Y41683D01*
X74319Y41668D01*
X74380Y41648D01*
X74385D01*
X74395Y41643D01*
X74410Y41638D01*
X74431Y41632D01*
X74487Y41612D01*
X74553Y41592D01*
X74558D01*
X74568Y41587D01*
X74589Y41581D01*
X74614Y41576D01*
X74645Y41566D01*
X74681Y41556D01*
X74762Y41530D01*
X74767D01*
X74783Y41525D01*
X74808Y41520D01*
X74839Y41510D01*
X74880Y41500D01*
X74926Y41490D01*
X75028Y41464D01*
X75038D01*
X75058Y41459D01*
X75094Y41449D01*
X75140Y41439D01*
X75191Y41428D01*
X75252Y41418D01*
X75384Y41393D01*
X75395D01*
X75415Y41388D01*
X75451Y41383D01*
X75497Y41372D01*
X75548Y41367D01*
X75609Y41357D01*
X75741Y41337D01*
X75752D01*
X75772Y41331D01*
X75808Y41326D01*
X75854Y41321D01*
X75910Y41311D01*
X75971Y41301D01*
X76104Y41275D01*
X76114D01*
X76134Y41270D01*
X76170Y41265D01*
X76221Y41255D01*
X76277Y41245D01*
X76338Y41230D01*
X76476Y41199D01*
X76481D01*
X76486Y41194D01*
X76517Y41184D01*
X76552Y41163D01*
X76593Y41138D01*
X76598Y41133D01*
X76619Y41112D01*
X76649Y41082D01*
X76675Y41041D01*
X76680Y41031D01*
X76695Y41010D01*
X76716Y40975D01*
X76736Y40929D01*
X76741Y40918D01*
X76746Y40893D01*
X76751Y40857D01*
X76756Y40816D01*
Y40786D01*
X76751Y40750D01*
X76746Y40714D01*
Y40709D01*
X76736Y40689D01*
X76726Y40663D01*
X76705Y40638D01*
X76700Y40633D01*
X76680Y40617D01*
X76649Y40597D01*
X76614Y40577D01*
X76603Y40572D01*
X76578Y40567D01*
X76542Y40556D01*
X76501Y40551D01*
X76496D01*
X76491D01*
X76471D01*
X76466D01*
X76461Y40556D01*
X76440Y40561D01*
X74681Y40964D01*
X74676D01*
X74655Y40969D01*
X74630Y40975D01*
X74594Y40985D01*
X74553Y40995D01*
X74502Y41005D01*
X74390Y41036D01*
X74385D01*
X74365Y41041D01*
X74329Y41051D01*
X74288Y41061D01*
X74242Y41076D01*
X74186Y41092D01*
X74064Y41122D01*
X74053D01*
X74033Y41133D01*
X74002Y41143D01*
X73957Y41153D01*
X73905Y41168D01*
X73849Y41189D01*
X73722Y41224D01*
X73712D01*
X73691Y41235D01*
X73656Y41245D01*
X73615Y41255D01*
X73559Y41270D01*
X73503Y41286D01*
X73385Y41321D01*
X73380D01*
X73360Y41331D01*
X73329Y41342D01*
X73288Y41352D01*
X73242Y41367D01*
X73191Y41377D01*
X73089Y41408D01*
X73084D01*
X73064Y41413D01*
X73039Y41423D01*
X73008Y41434D01*
X72926Y41454D01*
X72850Y41479D01*
X72840Y41484D01*
X72814Y41490D01*
X72768Y41505D01*
X72717Y41520D01*
X72651Y41541D01*
X72574Y41561D01*
X72498Y41581D01*
X72416Y41602D01*
X72411D01*
X72406Y41607D01*
X72381Y41612D01*
X72335Y41622D01*
X72279Y41638D01*
X72207Y41653D01*
X72131Y41673D01*
X72044Y41688D01*
X71957Y41709D01*
X71952Y41714D01*
X71937Y41724D01*
X71911Y41739D01*
X71886Y41760D01*
X71855Y41785D01*
X71825Y41816D01*
X71799Y41852D01*
X71774Y41892D01*
X71769Y41898D01*
X71763Y41913D01*
X71753Y41933D01*
X71743Y41964D01*
X71733Y42000D01*
X71728Y42046D01*
X71718Y42091D01*
Y42142D01*
X71728Y42158D01*
X71743Y42173D01*
X71758Y42199D01*
X71809Y42255D01*
X71876Y42306D01*
X71881Y42311D01*
X71891Y42316D01*
X71911Y42326D01*
X71937Y42336D01*
X71973Y42346D01*
X72008Y42357D01*
X72049Y42367D01*
X72095D01*
X72100D01*
X72110D01*
X72131D01*
X72151Y42362D01*
D02*
G37*
%LPC*%
G36*
X74467Y58983D02*
X74461D01*
X74451D01*
X74436D01*
X74415Y58978D01*
X74365Y58967D01*
X74308Y58947D01*
X74303D01*
X74293Y58942D01*
X74278Y58937D01*
X74257Y58926D01*
X74201Y58901D01*
X74135Y58865D01*
X74130D01*
X74125Y58860D01*
X74099Y58850D01*
X74064Y58830D01*
X74018Y58809D01*
X74013D01*
X74007Y58804D01*
X73977Y58789D01*
X73941Y58773D01*
X73895Y58753D01*
X73900Y58748D01*
X73921Y58738D01*
X73951Y58717D01*
X73977Y58697D01*
X73982Y58692D01*
X73997Y58677D01*
X74018Y58646D01*
X74043Y58605D01*
X74048Y58595D01*
X74053Y58580D01*
X74059Y58564D01*
X74074Y58513D01*
X74094Y58442D01*
Y58437D01*
X74099Y58422D01*
Y58401D01*
X74104Y58371D01*
X74115Y58330D01*
X74120Y58284D01*
X74125Y58233D01*
X74135Y58172D01*
Y58167D01*
X74140Y58151D01*
X74150Y58131D01*
X74160Y58105D01*
X74176Y58070D01*
X74196Y58034D01*
X74247Y57947D01*
X74252Y57942D01*
X74262Y57927D01*
X74278Y57907D01*
X74298Y57876D01*
X74354Y57810D01*
X74426Y57728D01*
X74431Y57723D01*
X74441Y57708D01*
X74467Y57687D01*
X74492Y57662D01*
X74523Y57631D01*
X74563Y57595D01*
X74650Y57519D01*
X74655Y57514D01*
X74670Y57504D01*
X74696Y57483D01*
X74727Y57463D01*
X74762Y57432D01*
X74808Y57402D01*
X74900Y57340D01*
X74905Y57335D01*
X74920Y57330D01*
X74946Y57315D01*
X74976Y57294D01*
X75012Y57274D01*
X75053Y57249D01*
X75145Y57203D01*
X75150D01*
X75165Y57192D01*
X75186Y57182D01*
X75216Y57172D01*
X75283Y57147D01*
X75359Y57126D01*
X75364D01*
X75374Y57121D01*
X75384D01*
X75405Y57116D01*
X75456Y57106D01*
X75507Y57096D01*
X75512D01*
X75517D01*
X75548D01*
X75589Y57091D01*
X75639D01*
X75645D01*
X75660D01*
X75680D01*
X75706Y57096D01*
X75772Y57101D01*
X75844Y57116D01*
X75849D01*
X75859Y57121D01*
X75879Y57131D01*
X75900Y57142D01*
X75951Y57167D01*
X76007Y57208D01*
X76012Y57213D01*
X76017Y57218D01*
X76032Y57233D01*
X76042Y57254D01*
X76078Y57305D01*
X76114Y57366D01*
Y57371D01*
X76119Y57381D01*
X76124Y57402D01*
X76129Y57432D01*
X76139Y57468D01*
X76144Y57504D01*
X76149Y57550D01*
Y57646D01*
X76144Y57692D01*
X76134Y57753D01*
X76119Y57825D01*
X76093Y57907D01*
X76063Y57988D01*
X76022Y58070D01*
Y58075D01*
X76017Y58080D01*
X75997Y58105D01*
X75971Y58146D01*
X75935Y58202D01*
X75889Y58258D01*
X75833Y58325D01*
X75772Y58391D01*
X75701Y58457D01*
X75691Y58468D01*
X75665Y58488D01*
X75629Y58518D01*
X75578Y58559D01*
X75512Y58605D01*
X75446Y58651D01*
X75369Y58697D01*
X75288Y58743D01*
X75283D01*
X75277Y58748D01*
X75252Y58763D01*
X75206Y58784D01*
X75150Y58809D01*
X75089Y58835D01*
X75022Y58860D01*
X74951Y58886D01*
X74880Y58906D01*
X74875D01*
X74859Y58911D01*
X74839Y58916D01*
X74808Y58926D01*
X74737Y58942D01*
X74660Y58957D01*
X74655D01*
X74640Y58962D01*
X74620Y58967D01*
X74594Y58972D01*
X74533Y58978D01*
X74467Y58983D01*
D02*
G37*
G36*
X74375Y47421D02*
X74354D01*
X74349D01*
X74344D01*
X74324D01*
X74319D01*
X74308D01*
X74293Y47416D01*
X74273Y47411D01*
X74227Y47395D01*
X74206Y47375D01*
X74191Y47355D01*
Y47350D01*
X74186Y47344D01*
X74176Y47329D01*
X74166Y47309D01*
X74150Y47258D01*
X74145Y47196D01*
Y47171D01*
X74150Y47140D01*
X74155Y47105D01*
X74166Y47059D01*
X74176Y47013D01*
X74196Y46962D01*
X74222Y46906D01*
X74227Y46901D01*
X74237Y46880D01*
X74252Y46855D01*
X74273Y46819D01*
X74303Y46778D01*
X74334Y46738D01*
X74415Y46641D01*
X74421Y46635D01*
X74436Y46620D01*
X74456Y46595D01*
X74487Y46569D01*
X74523Y46534D01*
X74563Y46498D01*
X74660Y46421D01*
X74665Y46416D01*
X74681Y46406D01*
X74706Y46386D01*
X74737Y46365D01*
X74813Y46314D01*
X74895Y46268D01*
Y46279D01*
X74890Y46309D01*
Y46355D01*
X74880Y46411D01*
X74875Y46483D01*
X74864Y46554D01*
X74834Y46707D01*
Y46717D01*
X74823Y46743D01*
X74813Y46778D01*
X74803Y46829D01*
X74788Y46880D01*
X74767Y46942D01*
X74747Y47003D01*
X74721Y47059D01*
X74716Y47064D01*
X74711Y47084D01*
X74696Y47110D01*
X74676Y47146D01*
X74625Y47222D01*
X74599Y47263D01*
X74568Y47298D01*
X74563Y47304D01*
X74553Y47314D01*
X74538Y47329D01*
X74512Y47350D01*
X74456Y47385D01*
X74421Y47406D01*
X74385Y47416D01*
X74380D01*
X74375Y47421D01*
D02*
G37*
%LPD*%
D10*
X28543Y15748D02*
G03*
X28543Y15748I-197J0D01*
G01*
X90748Y137008D02*
G03*
X90748Y137008I-197J0D01*
G01*
X94685Y88583D02*
G03*
X94685Y88583I-197J0D01*
G01*
X6497Y114171D02*
G03*
X6497Y114171I-197J0D01*
G01*
Y136612D02*
G03*
X6497Y136612I-197J0D01*
G01*
D11*
X69291Y30709D02*
G03*
X69291Y30709I-492J0D01*
G01*
X66831Y89173D02*
G03*
X66831Y89173I-492J0D01*
G01*
X27618Y139016D02*
G03*
X27618Y139016I-492J0D01*
G01*
D12*
X29134Y14567D02*
Y17717D01*
Y14567D02*
X30315D01*
X37795D02*
Y17717D01*
X36614Y14567D02*
X37795D01*
X29134Y22835D02*
Y26378D01*
X30315D01*
X36614D02*
X37795D01*
Y22835D02*
Y26378D01*
X27559Y47244D02*
Y86614D01*
X66929Y47244D02*
Y86614D01*
X27559Y47244D02*
X66929D01*
X27559Y86614D02*
X66929D01*
X65128D02*
X66929Y84813D01*
X89370Y787D02*
Y5118D01*
X60236Y787D02*
X89370D01*
X60236D02*
Y5118D01*
X89370D01*
X60236D02*
Y7874D01*
Y15354D02*
Y17323D01*
X66536Y22835D02*
X67717D01*
X81890D02*
X83071D01*
X89370Y15354D02*
Y17323D01*
Y5118D02*
Y7874D01*
X4429Y43701D02*
X18406D01*
Y94882D01*
X4429D02*
X18406D01*
X4429Y43701D02*
Y94882D01*
Y19213D02*
Y30394D01*
X18406D01*
Y19213D02*
Y30394D01*
X4429Y19213D02*
X18406D01*
X79232Y148327D02*
X93209D01*
Y174508D01*
X79232D02*
X93209D01*
X79232Y148327D02*
Y174508D01*
X60728Y148327D02*
X74705D01*
Y174508D01*
X60728D02*
X74705D01*
X60728Y148327D02*
Y174508D01*
X42224Y148327D02*
X56201D01*
Y174508D01*
X42224D02*
X56201D01*
X42224Y148327D02*
Y174508D01*
X23327Y148327D02*
X37303D01*
Y174508D01*
X23327D02*
X37303D01*
X23327Y148327D02*
Y174508D01*
X4429Y148327D02*
X18406D01*
Y174508D01*
X4429D02*
X18406D01*
X4429Y148327D02*
Y174508D01*
X78740Y124803D02*
X90551D01*
X78740D02*
Y136614D01*
X89370D01*
X90551Y135433D01*
Y124803D02*
Y135433D01*
X82677Y76378D02*
X94488D01*
X82677D02*
Y88189D01*
X93307D01*
X94488Y87008D01*
Y76378D02*
Y87008D01*
X7875Y114171D02*
X18505D01*
X6694Y112990D02*
X7875Y114171D01*
X6694Y99998D02*
Y112990D01*
X18505Y99998D02*
Y114171D01*
X6694Y99998D02*
X18505D01*
X7875Y136612D02*
X18505D01*
X6694Y135431D02*
X7875Y136612D01*
X6694Y122439D02*
Y135431D01*
X18505Y122439D02*
Y136612D01*
X6694Y122439D02*
X18505D01*
X34965Y29252D02*
X37795D01*
Y39252D01*
X34965D02*
X37795D01*
X29134D02*
X31965D01*
X29134Y29252D02*
Y39252D01*
Y29252D02*
X31965D01*
X29528Y104331D02*
Y139764D01*
Y104331D02*
X64961D01*
Y139764D01*
X29528D02*
X64961D01*
X16929Y40630D02*
Y41942D01*
Y41286D01*
X12993D01*
X13649Y40630D01*
X9449Y41679D02*
Y39055D01*
X6825Y41679D01*
X6169D01*
X5513Y41023D01*
Y39711D01*
X6169Y39055D01*
X9449Y17191D02*
Y14567D01*
X6825Y17191D01*
X6169D01*
X5513Y16535D01*
Y15223D01*
X6169Y14567D01*
X16929Y16142D02*
Y17454D01*
Y16798D01*
X12993D01*
X13649Y16142D01*
X91732Y145256D02*
Y146568D01*
Y145912D01*
X87796D01*
X88453Y145256D01*
X84252Y146305D02*
Y143681D01*
X81628Y146305D01*
X80972D01*
X80316Y145649D01*
Y144337D01*
X80972Y143681D01*
X73228Y145256D02*
Y146568D01*
Y145912D01*
X69293D01*
X69949Y145256D01*
X65748Y146305D02*
Y143681D01*
X63124Y146305D01*
X62468D01*
X61812Y145649D01*
Y144337D01*
X62468Y143681D01*
X54724Y145256D02*
Y146568D01*
Y145912D01*
X50789D01*
X51445Y145256D01*
X47244Y146305D02*
Y143681D01*
X44620Y146305D01*
X43964D01*
X43308Y145649D01*
Y144337D01*
X43964Y143681D01*
X35827Y145256D02*
Y146568D01*
Y145912D01*
X31891D01*
X32547Y145256D01*
X28346Y146305D02*
Y143681D01*
X25723Y146305D01*
X25067D01*
X24411Y145649D01*
Y144337D01*
X25067Y143681D01*
X16929Y145256D02*
Y146568D01*
Y145912D01*
X12993D01*
X13649Y145256D01*
X9449Y146305D02*
Y143681D01*
X6825Y146305D01*
X6169D01*
X5513Y145649D01*
Y144337D01*
X6169Y143681D01*
D13*
X39145Y100944D02*
X39445D01*
X39145Y93544D02*
Y100944D01*
Y93544D02*
X39445D01*
X42445D02*
X42745D01*
Y100944D01*
X42445D02*
X42745D01*
X90083Y34489D02*
X90383D01*
Y41889D01*
X90083D02*
X90383D01*
X86783D02*
X87083D01*
X86783Y34489D02*
Y41889D01*
Y34489D02*
X87083D01*
X83240Y111705D02*
X83740D01*
Y110205D02*
Y111705D01*
X83240Y110205D02*
X83740D01*
X83240Y112705D02*
X83740D01*
Y114205D01*
X83240D02*
X83740D01*
X74240Y110205D02*
Y110705D01*
Y110205D02*
X83240D01*
Y111705D01*
Y112705D02*
Y114205D01*
X74240D02*
X83240D01*
X74240Y113705D02*
Y114205D01*
X78740Y110205D02*
Y114205D01*
X83240Y106193D02*
X83740D01*
Y104693D02*
Y106193D01*
X83240Y104693D02*
X83740D01*
X83240Y107193D02*
X83740D01*
Y108693D01*
X83240D02*
X83740D01*
X74240Y104693D02*
Y105193D01*
Y104693D02*
X83240D01*
Y106193D01*
Y107193D02*
Y108693D01*
X74240D02*
X83240D01*
X74240Y108193D02*
Y108693D01*
X78740Y104693D02*
Y108693D01*
X83240Y100681D02*
X83740D01*
Y99181D02*
Y100681D01*
X83240Y99181D02*
X83740D01*
X83240Y101681D02*
X83740D01*
Y103181D01*
X83240D02*
X83740D01*
X74240Y99181D02*
Y99681D01*
Y99181D02*
X83240D01*
Y100681D01*
Y101681D02*
Y103181D01*
X74240D02*
X83240D01*
X74240Y102681D02*
Y103181D01*
X78740Y99181D02*
Y103181D01*
X83240Y95169D02*
X83740D01*
Y93669D02*
Y95169D01*
X83240Y93669D02*
X83740D01*
X83240Y96169D02*
X83740D01*
Y97669D01*
X83240D02*
X83740D01*
X74240Y93669D02*
Y94169D01*
Y93669D02*
X83240D01*
Y95169D01*
Y96169D02*
Y97669D01*
X74240D02*
X83240D01*
X74240Y97169D02*
Y97669D01*
X78740Y93669D02*
Y97669D01*
X64854Y33189D02*
Y33689D01*
X63354Y33189D02*
X64854D01*
X63354D02*
Y33689D01*
X65854Y33189D02*
Y33689D01*
Y33189D02*
X67354D01*
Y33689D01*
X63354Y42689D02*
X63854D01*
X63354Y33689D02*
Y42689D01*
Y33689D02*
X64854D01*
X65854D02*
X67354D01*
Y42689D01*
X66854D02*
X67354D01*
X63354Y38189D02*
X67354D01*
X58161Y33189D02*
Y33689D01*
X56661Y33189D02*
X58161D01*
X56661D02*
Y33689D01*
X59161Y33189D02*
Y33689D01*
Y33189D02*
X60661D01*
Y33689D01*
X56661Y42689D02*
X57161D01*
X56661Y33689D02*
Y42689D01*
Y33689D02*
X58161D01*
X59161D02*
X60661D01*
Y42689D01*
X60161D02*
X60661D01*
X56661Y38189D02*
X60661D01*
X81783Y33189D02*
Y33689D01*
X80283Y33189D02*
X81783D01*
X80283D02*
Y33689D01*
X82784Y33189D02*
Y33689D01*
Y33189D02*
X84284D01*
Y33689D01*
X80283Y42689D02*
X80783D01*
X80283Y33689D02*
Y42689D01*
Y33689D02*
X81783D01*
X82784D02*
X84284D01*
Y42689D01*
X83784D02*
X84284D01*
X80283Y38189D02*
X84284D01*
X78503Y82209D02*
Y82509D01*
X71103D02*
X78503D01*
X71103Y82209D02*
Y82509D01*
Y78909D02*
Y79209D01*
Y78909D02*
X78503D01*
Y79209D01*
X85670Y93626D02*
Y93926D01*
X93070D01*
Y93626D02*
Y93926D01*
Y90326D02*
Y90626D01*
X85670Y90326D02*
X93070D01*
X85670D02*
Y90626D01*
X8899Y119610D02*
Y119910D01*
X16298D01*
Y119610D02*
Y119910D01*
Y116310D02*
Y116610D01*
X8899Y116310D02*
X16298D01*
X8899D02*
Y116610D01*
Y142051D02*
Y142351D01*
X16298D01*
Y142051D02*
Y142351D01*
Y138751D02*
Y139051D01*
X8899Y138751D02*
X16298D01*
X8899D02*
Y139051D01*
X24728Y107717D02*
X25028D01*
Y115117D01*
X24728D02*
X25028D01*
X21428D02*
X21728D01*
X21428Y107717D02*
Y115117D01*
Y107717D02*
X21728D01*
X21428Y130472D02*
X21728D01*
X21428Y123072D02*
Y130472D01*
Y123072D02*
X21728D01*
X24728D02*
X25028D01*
Y130472D01*
X24728D02*
X25028D01*
X46456Y24059D02*
Y31059D01*
X40456Y30315D02*
Y31059D01*
X52456D01*
Y30315D02*
Y31059D01*
X40456Y24059D02*
Y24803D01*
Y24059D02*
X52456D01*
Y24803D01*
X39539Y35670D02*
X39839D01*
X39539D02*
Y43070D01*
X39839D01*
X42839D02*
X43139D01*
Y35670D02*
Y43070D01*
X42839Y35670D02*
X43139D01*
X44657D02*
X44957D01*
X44657D02*
Y43070D01*
X44957D01*
X47957D02*
X48257D01*
Y35670D02*
Y43070D01*
X47957Y35670D02*
X48257D01*
X43938Y97806D02*
Y98106D01*
Y97806D02*
X51338D01*
Y98106D01*
Y101106D02*
Y101406D01*
X43938D02*
X51338D01*
X43938Y101106D02*
Y101406D01*
X51968Y20472D02*
Y21654D01*
X40945D02*
X51968D01*
X40945Y20472D02*
Y21654D01*
Y16142D02*
Y17323D01*
Y16142D02*
X51968D01*
Y17323D01*
X46457Y16142D02*
Y21654D01*
X57255Y93544D02*
X57555D01*
X57255D02*
Y100944D01*
X57555D01*
X60555D02*
X60855D01*
Y93544D02*
Y100944D01*
X60555Y93544D02*
X60855D01*
X65673D02*
X65973D01*
Y100944D01*
X65673D02*
X65973D01*
X62373D02*
X62673D01*
X62373Y93544D02*
Y100944D01*
Y93544D02*
X62673D01*
X74728Y70316D02*
X75028D01*
Y77716D01*
X74728D02*
X75028D01*
X71428D02*
X71728D01*
X71428Y70316D02*
Y77716D01*
Y70316D02*
X71728D01*
X74410Y91339D02*
X75197D01*
Y83465D02*
Y91339D01*
X74410Y83465D02*
X75197D01*
X71260D02*
X72047D01*
X71260D02*
Y91339D01*
X72047D01*
X76928Y129059D02*
Y129359D01*
X69528D02*
X76928D01*
X69528Y129059D02*
Y129359D01*
Y125759D02*
Y126059D01*
Y125759D02*
X76928D01*
Y126059D01*
X76547Y70316D02*
X76846D01*
X76547D02*
Y77716D01*
X76846D01*
X79847D02*
X80146D01*
Y70316D02*
Y77716D01*
X79847Y70316D02*
X80146D01*
X76547Y91102D02*
X76846D01*
X76547Y83702D02*
Y91102D01*
Y83702D02*
X76846D01*
X79847D02*
X80146D01*
Y91102D01*
X79847D02*
X80146D01*
X80946Y122760D02*
Y123060D01*
X88346D01*
Y122760D02*
Y123060D01*
Y119460D02*
Y119760D01*
X80946Y119460D02*
X88346D01*
X80946D02*
Y119760D01*
X13976Y7087D02*
Y11024D01*
M02*
